<svg width="100" height="78" viewBox="0 0 100 78" fill="none" xmlns="http://www.w3.org/2000/svg">
<path d="M63.0455 77.0551H61.1169C60.8633 77.0229 60.6109 76.9907 60.3573 76.9598C58.193 76.6856 55.985 76.6006 53.8722 76.1062C41.2626 73.1566 32.3313 65.6969 26.9998 53.9125C26.9187 53.7323 26.8222 53.5585 26.732 53.3808C26.6908 53.3911 26.6496 53.4001 26.6084 53.4104V75.2127H0V2.79941H26.669V24.6854C26.8132 24.5566 26.8737 24.4214 26.9303 24.2862C33.9626 7.62747 51.5123 -1.72868 69.2976 1.6999C86.201 4.95852 98.9277 19.4221 99.9268 36.5946C100.46 45.7576 98.087 54.1353 92.5946 61.5113C86.152 70.1619 77.5207 75.2243 66.8089 76.6856C65.5613 76.8555 64.2996 76.9341 63.0455 77.0551ZM68.5586 19.5097C68.6307 19.4221 68.6783 19.3526 68.7362 19.2934C71.3305 16.6038 70.5529 12.3062 67.1848 10.7406C66.0145 10.1973 64.7708 10.0402 63.4936 10.0441C60.6444 10.0531 57.7939 10.0454 54.9447 10.0479C54.7387 10.0479 54.5327 10.0698 54.3331 10.0814V29.4671C56.7433 29.4671 59.0981 29.4787 61.4516 29.4632C62.7147 29.4555 63.9828 29.4684 65.2381 29.3538C67.9058 29.1117 69.9066 27.4097 70.3443 25.0317C70.737 22.897 70.2967 20.9916 68.5598 19.5097H68.5586ZM60.3367 36.6628H69.6748V31.4614H54.2263V50.8741H69.7096V45.6533H60.356V43.8457C60.6367 43.8457 60.8684 43.8457 61.1014 43.8457C63.3945 43.8457 65.6888 43.8251 67.9805 43.8599C68.6023 43.8689 68.8495 43.7504 68.8148 43.0603C68.7517 41.8218 68.7993 40.5768 68.7955 39.3344C68.7955 39.1103 68.7723 38.8863 68.7568 38.6031H60.338V36.6628H60.3367ZM59.3968 58.411V70.655H64.6652V58.4033H69.7173V52.9147H54.3151V58.411H59.3968Z" fill="black"/>
<path d="M60.2427 24.4047V22.0447C61.3744 22.0447 62.4958 21.9816 63.6069 22.0705C64.2094 22.1181 64.4605 22.655 64.4386 23.2588C64.4154 23.8897 64.0948 24.2618 63.4871 24.3558C63.2348 24.3944 62.9773 24.4008 62.7211 24.4034C61.9138 24.4086 61.1066 24.406 60.2427 24.406V24.4047Z" fill="black"/>
<path d="M60.2594 14.9674C61.2508 14.9674 62.1881 14.9404 63.1241 14.9764C63.8618 15.0048 64.212 15.3833 64.2158 16.0399C64.2197 16.7055 63.8798 17.1098 63.1601 17.1433C62.2074 17.187 61.252 17.1536 60.2607 17.1536V14.9674H60.2594Z" fill="black"/>
</svg>
