<svg width="250" height="81" viewBox="0 0 250 81" fill="none" xmlns="http://www.w3.org/2000/svg">
<path d="M4.84287 20.3499L39.737 0L74.5866 20.1743V60.9594L39.7344 81L15.4453 66.9345L25.1848 59.4063L39.9544 67.7615L63.3293 54.2857V26.9135L56.8062 23.0328V56.1389H39.4633L39.2668 55.9423V52.7366L21.8008 52.7444L17.3429 56.1389H0C0.0864331 55.9345 0.297278 55.7667 0.462286 55.6186C3.35125 53.0367 6.93953 50.4718 10.0197 48.0315C19.1266 40.8152 28.3055 33.6881 37.44 26.5059C38.781 25.0616 38.7993 22.9908 37.3077 21.6566L35.9955 20.9397H53.011L39.6597 13.1586L16.252 26.7182L16.1643 34.4168C12.7096 37.0013 9.44871 39.8532 6.0071 42.4509C5.66006 42.713 5.26718 43.0813 4.84287 43.1835V20.3499ZM39.2668 38.8663L31.8061 44.7549H39.2668V38.8663Z" fill="#F6822B"/>
<path d="M166.885 60.3249L163.861 66.1349L163.548 66.3446L132.522 66.3485C130.028 66.1532 129.714 64.5228 130.603 62.4586C132.677 57.6434 136.178 52.5831 138.55 47.7653C139.362 46.1165 140.662 43.7954 139.888 41.9737C139.52 41.1073 138.597 40.6539 137.958 40.0444L250 40.1755L246.772 46.1991L222.665 46.2148C222.445 47.0667 220.744 49.1349 220.964 49.895C221.008 50.0471 221.144 50.1794 221.296 50.224L240.902 50.2515C243.161 50.5123 243.318 52.1978 242.563 54.0025C241.616 56.2672 239.657 59.684 238.373 61.8531C237.339 63.6014 234.885 66.3446 232.657 66.3446H200.262L203.49 60.3459L226.76 60.3184C227.094 60.262 227.582 59.9147 227.806 59.663C228.096 59.338 229.316 57.0903 229.314 56.7377C229.314 56.6224 229.24 56.3734 229.155 56.3013L228.468 56.1401L208.635 56.0772C206.803 55.3799 207.124 53.6919 207.783 52.2083C208.914 49.6578 212.633 44.8885 211.621 42.1008C211.507 41.7862 210.884 40.8308 210.538 40.8282L207.636 46.0418L194.372 46.1296L183.312 66.3459H171.728L182.593 46.0641H151.245L148.954 50.2515H170.289L167.061 56.2764L145.638 56.2659C145.403 56.9723 143.724 59.4088 143.869 59.9737C143.893 60.0654 144.136 60.3275 144.176 60.3275H166.885V60.3249Z" fill="white"/>
<path d="M167.867 7.06836C168.41 7.12078 169.089 7.28854 169.507 7.65289C170.432 8.45892 170.226 9.7027 169.829 10.7302C166.873 14.9517 164.461 24.8705 158.449 25.3921L136.607 25.3816C135.281 27.6712 134.191 30.1142 132.878 32.4104C132.709 32.7066 132.431 33.3134 132.137 33.3698H111.259L110.922 30.8757L97.9771 30.8862L94.9637 33.3698H82.0708L107.798 11.2623C108.549 10.2938 107.85 8.69221 107.008 7.98186L105.892 7.19942H119.963C120.493 7.19942 121.539 7.89929 121.715 8.4563C122.637 14.6673 123.049 21.0107 123.698 27.2794L123.953 27.611C126.018 23.4026 128.478 19.3777 130.568 15.1837C131.577 13.1549 133.387 10.1286 131.486 8.1103C131.133 7.73546 130.517 7.52839 130.238 7.06836H167.869H167.867ZM139.922 19.3685H152.684C153.205 19.3685 153.869 18.7787 154.168 18.3659C154.566 17.8141 156.283 14.7079 156.473 14.1286C156.74 13.3134 156.608 13.1378 155.831 13.0815C151.851 12.7931 147.531 13.3148 143.514 13.0802C143.093 13.0631 142.852 13.6909 142.649 14.0461C141.668 15.763 140.754 17.5743 139.922 19.3685ZM105.105 24.7342H110.472L110.012 20.5454L105.105 24.7342Z" fill="#F6822B"/>
<path d="M246.337 7.06836L226.76 20.1535L232.463 33.2387H220.225L217.147 26.4353L206.737 33.2335L165.638 33.2453C163.7 33.0723 163.264 31.6293 163.776 29.9334C166.241 24.936 169.174 20.164 171.668 15.185C172.689 13.147 174.52 10.1653 172.586 8.11161C172.234 7.73677 171.617 7.5297 171.338 7.06967H220.618L223.889 13.8691L234.231 7.06967H246.338L246.337 7.06836ZM182.2 17.2754H203.274L199.911 23.2689L178.884 23.2885C178.577 23.991 176.906 26.3947 177.112 27.0002C177.15 27.1129 177.48 27.3501 177.553 27.3501H199.87C199.493 28.3934 198.746 29.3016 198.321 30.3161C198.271 30.4353 198.035 30.649 198.233 30.7512L214.12 20.3934L209.358 9.5546L207.369 13.2204L184.384 13.2427L184.053 13.5651L182.2 17.2741V17.2754Z" fill="#F6822B"/>
<path d="M133.966 40.1743C135.142 40.3827 135.594 41.654 135.459 42.7156C135.335 43.6973 132.046 49.6579 131.312 50.7379C130.638 51.7274 129.744 52.5937 128.674 53.1442C128.999 54.0131 129.016 54.7222 128.726 55.6108C128.3 56.9201 125.344 62.3106 124.473 63.3971C123.602 64.4836 121.082 66.3447 119.698 66.3447H85.6016L95.2244 48.4207C96.1935 46.287 98.2784 43.2281 96.2734 41.0852L95.0254 40.1743H133.965H133.966ZM105.891 50.2503H119.177C119.235 50.2503 120.049 49.7693 120.159 49.6619C120.416 49.4115 121.698 47.0865 121.728 46.7706C121.763 46.4102 121.694 46.2385 121.343 46.1219L108.208 46.0878L107.925 46.329L105.892 50.2503H105.891ZM100.393 60.325H113.941C114.018 60.325 114.744 59.7916 114.853 59.6658C115.045 59.4404 116.233 57.3185 116.306 57.0564C116.461 56.498 116.207 56.2464 115.651 56.2621L102.711 56.2949C102.283 56.4233 100.853 59.7759 100.396 60.3263L100.393 60.325Z" fill="white"/>
</svg>
