<svg xmlns="http://www.w3.org/2000/svg" viewBox="0 0 276.98 82.26"><g id="bet-co-za"><path d="M16.61,63.75c.55,2-.49,2.14-2,2.08-2.51-.1-5,0-7.52,0-.83,0-1.25-.11-1.25-1.13,0-11.43,0-22.87,0-34.3A10.77,10.77,0,0,1,15.23,20c1.13-.17,1.52.07,1.48,1.29-.09,2.87,0,5.75,0,8.82,5.06-2.4,10.11-2.83,15.26-.78a18,18,0,0,1,8.73,7.32,19.34,19.34,0,0,1-1.35,22.43C33.91,65.7,26.16,67.36,16.61,63.75Zm7.92-25.57A8.75,8.75,0,1,0,33.2,47,8.77,8.77,0,0,0,24.53,38.18Zm235.42-8c-.52-2,.32-2.31,1.81-2.27,2.5.07,5,0,7.51-.13,1,0,1.4.17,1.39,1.3q-.06,17.73,0,35.45c0,1-.22,1.43-1.33,1.4-2.78-.08-5.56,0-8.33,0-.63,0-1.27,0-1.15-.89.16-1.29-.38-1.09-1.27-.72a18.19,18.19,0,0,1-24.64-11.21,18.94,18.94,0,0,1,12.89-24.47,17.79,17.79,0,0,1,11.51.84C258.78,29.63,259.21,29.84,260,30.17ZM260.82,47a8.71,8.71,0,1,0-8.71,8.74A8.75,8.75,0,0,0,260.82,47ZM69.71,51.32c-3.92,0-7.84,0-11.76,0-.35,0-.81-.21-1.05.17s.17.71.35,1A8.25,8.25,0,0,0,69.34,54.8,3.74,3.74,0,0,1,71.85,54c2.89,0,5.78.07,8.66,0,1.35,0,1.27.38.8,1.37A19,19,0,1,1,82.8,42.87,19.21,19.21,0,0,1,83,50c-.14,1-.46,1.37-1.54,1.35C77.55,51.27,73.63,51.32,69.71,51.32Zm2.7-8c-1.28-3.78-5-6.33-8.51-6s-6.91,3-7.4,6ZM47.92,45.26c.08.54-.27,1.08.45,1.19s.75-.4.8-.91.09-.86.17-1.29c.93-5,3.19-9.1,8-11.35.44-.2,1.39-.16.86-1.14s-1-.15-1.36,0C51.09,34.47,48.7,39.41,47.92,45.26ZM129.74,28a18.85,18.85,0,0,1,18.4,14.92c.23,1.08,0,1.41-1,1.6-4.51.84-8.39.05-11.41-3.76-2-2.54-4.87-3-7.85-2.38a8.28,8.28,0,0,0-6.54,6.17,8.73,8.73,0,0,0,5.25,10.52,8.62,8.62,0,0,0,10.92-4.3,1.78,1.78,0,0,1,1.95-1.2c2.56.07,5.12,0,7.68,0,1,0,1.3.11,1.07,1.25A18.88,18.88,0,1,1,129.74,28Zm-1.23,36c1.8.06,2,0,1.89-.61-.1-1-.9-.59-1.39-.62a15,15,0,0,1-8-2.9c-.44-.31-.78-.56-1.18.07s.18.76.48,1A16,16,0,0,0,128.51,64.05Zm15.81-24.91a22.57,22.57,0,0,0-2.49-3.72c-.33-.18-.5.07-.69.23s-.37.38-.16.68c.72,1.07,1.45,2.14,2.16,3.22a.45.45,0,0,0,.68.18C144,39.6,144.35,39.55,144.32,39.14ZM115.1,53.82c-.48.19-1,.37-.48,1,.71,1,1.41,1.93,2.12,2.88.23.3.47.6.92.21s.32-.67,0-1.07c-.68-.85-1.31-1.73-1.94-2.61C115.56,54,115.42,53.8,115.1,53.82Zm102.74,1.81c4.4,0,8.47.09,12.53,0,1.57-.05,1.9.48,1.83,1.91-.11,2.34-.08,4.68,0,7,0,1-.18,1.32-1.24,1.31q-13.56-.06-27.13,0c-1,0-1.43-.26-1.25-1.28a.43.43,0,0,0,0-.16c-.62-4.29.72-7.78,3.55-11.13,4-4.72,7.47-9.86,11.3-15-3-.26-5.82.13-8.6-.35-4.54-.8-7-4.08-6.5-8.65.1-.95.4-1.28,1.4-1.27q13.65.06,27.29,0c.94,0,1.3.29,1.16,1.2a.91.91,0,0,0,0,.33c.8,5.18-.9,9.38-4.4,13.28S221.29,51.12,217.84,55.63Zm2.13-6c.14-.23.26-.47.41-.69q3.57-4.85,7.16-9.68c.3-.4.44-.71-.07-1.07s-.76.09-1,.41c-.91,1.21-1.8,2.44-2.71,3.66q-2.17,2.94-4.34,5.89c-.17.24-.54.47-.28.82A4.41,4.41,0,0,0,220,49.61Zm10.19-16.8c0-.59,0-1.19,0-1.78s-.11-.73-.63-.69-.6.15-.6.57c0,1.3,0,2.6,0,3.9a.55.55,0,0,0,.57.63c.5,0,.67-.21.66-.68C230.15,34.11,230.16,33.46,230.16,32.81Zm-130.78,7c0-1.22.22-1.77,1.59-1.65,1.56.13,3.15,0,4.73,0,.8,0,1.18-.15,1.15-1.06-.06-2-.06-4,0-6,0-.92-.36-1.09-1.15-1.07-1.69.05-3.38,0-5.07,0-.88,0-1.21-.17-1.18-1.16.08-2.77,0-5.55,0-8.32,0-.9-.18-1.23-1.17-1.15-2.66.2-5.32.33-8,.41-.9,0-1.21.28-1.19,1.21.06,2.83,0,5.66,0,8.49,0,.85-.23,1.15-1.1,1.12-2-.06-4,0-6,0-.77,0-1,.18-1,1,.26,3.89,2.78,6.76,6.63,7,1.42.1,1.49.66,1.49,1.77,0,7.89,0,15.78,0,23.68,0,.71-.14,1.4,1,1.4,2.61,0,5.23.08,7.84.16,1.1,0,1.48-.4,1.46-1.55-.07-4.08,0-8.16,0-12.24S99.46,43.89,99.38,39.86Zm57.05,19.48c.48.58.78.52,1.27,0q5.52-5.58,11.07-11.11c.52-.51.49-.81,0-1.29-1.22-1.16-2.43-2.34-3.57-3.59-.6-.67-1-.54-1.58,0a18.52,18.52,0,0,1-10.7,4.35c-.67.05-1.06.2-.91.89A19.66,19.66,0,0,0,156.43,59.34Zm14,5.62a18.68,18.68,0,0,1,4.28-10.4c.57-.67.65-1.08-.05-1.71-1.16-1.06-2.28-2.19-3.34-3.35-.62-.69-1-.67-1.65,0q-5.31,5.43-10.71,10.76c-.65.65-.73,1,0,1.61a19.46,19.46,0,0,0,10.3,4.26C170.11,66.43,170.3,65.93,170.4,65Zm3.51-24.66c3.94,4.32,3.92,4.34,9.72,3.83a1.82,1.82,0,0,1,.33,0,1,1,0,0,0,.91-.56c3.11-4.43,2.9-6.47-1.06-10.2-.35-.34-.75-.64-1.09-1-1.86-1.83-3.63-2.18-6.13-.73-2.18,1.26-3.59,2.45-3,5.14C173.84,37.9,172.85,39.14,173.91,40.3Zm2.71,9.43a4.54,4.54,0,0,1-.37.73,1.49,1.49,0,0,0,.32,2.23c1.71,1.59,3.32,3.3,5,5,1.93,1.92,4,1.73,5.43-.57.62-1,1.09-2.12,1.63-3.18,1.09-2.15,1.23-4.11-1.09-5.61a4.24,4.24,0,0,1-1-1c-1-1.34-2.23-2-3.67-1.52C178.43,46,178.43,46,176.62,49.73ZM172.2,34a4.22,4.22,0,0,0-.08,1c.71,4-1.66,5.8-5,7a1.19,1.19,0,0,1-1.53-.28c-1.9-1.95-3.85-3.84-5.74-5.79a2.82,2.82,0,0,1,.44-4.5,18.46,18.46,0,0,1,6.19-2.8,1.34,1.34,0,0,1,1.46.35c1.22,1.24,2.45,2.46,3.74,3.63A1.51,1.51,0,0,1,172.2,34Zm-10.72,1a1.69,1.69,0,0,0,.3-.13A17.15,17.15,0,0,1,167,32.16c.41-.12.37-.49.32-.81-.08-.48-.45-.39-.76-.32a16.18,16.18,0,0,0-5.46,2.76c-.24.16-.4.38-.17.67S161.15,35,161.48,34.93Zm-49,25.6a5.39,5.39,0,1,0-10.78-.17,5.39,5.39,0,0,0,10.78.17Zm88.19-.07a5.48,5.48,0,0,0-5.47-5.5,5.43,5.43,0,0,0-5.32,5.47,5.31,5.31,0,0,0,5.37,5.37A5.38,5.38,0,0,0,200.62,60.46Zm-18.2,1.75c.56-.44.83-.74.18-1.37-1.85-1.77-3.64-3.59-5.42-5.43-.48-.49-.78-.6-1.27,0a18.26,18.26,0,0,0-4,9.81c-.1.88.28,1.06.86.9A17.82,17.82,0,0,0,182.42,62.21Zm-29.48-16c-.87.25-1-.22-.93-1a18.51,18.51,0,0,1,3.81-9.4c.53-.67.86-.95,1.59-.17,1.67,1.79,3.42,3.51,5.18,5.21.6.58.69.92,0,1.5A18.17,18.17,0,0,1,152.94,46.18Zm4.28-7.13c-.07-.55-.57-.84-.79-.74-.66.29-.93,1-1.21,1.65-.18.42.38.79.66.71C156.68,40.45,156.76,39.55,157.22,39.05Zm19.47,7.07c.18-.36.29-.71-.05-1-1.37-1.32-2.54-3.1-4.17-3.81-1.17-.51-2.66,1.09-4,1.69l-.14.08c-.77.26-.74.59-.19,1.12,2.09,2.07,4.14,4.16,6.39,6.42Zm9.57-2a.67.67,0,0,0,.11.86c1,1.13,2,2.27,3.07,3.4A15,15,0,0,0,188.37,40C187.57,41.58,186.93,42.87,186.26,44.16ZM172.65,31.42a.74.74,0,0,0,1,.18c1.26-.68,2.52-1.34,4-2.14a17.54,17.54,0,0,0-8.19-1.31Z" style="fill:#fff"/><path d="M13.85,16.41c0,.89-.4,1-.84,1.07-4,.65-6.74,3-8.7,6.43-.22.4-.36,1-1,.62s-.35-.82-.11-1.25a13.73,13.73,0,0,1,9.39-7.15C13.07,16,13.79,15.69,13.85,16.41ZM243.14,24.9A17.63,17.63,0,0,0,233.88,32c-.22.34-.37.67.05,1s.76.14,1-.28a16.39,16.39,0,0,1,3.27-3.59,17.12,17.12,0,0,1,5.25-2.87c.45-.16.79-.36.66-.92a.55.55,0,0,0-.7-.48A3,3,0,0,0,243.14,24.9ZM85.24,57.53c0,.46,0,.9.67.89s.64-.46.64-.91q0-5,0-9.95c0-.55-.1-1-.78-1s-.53.57-.54,1c0,1.63,0,3.26,0,4.89Zm190,.94c0-.45,0-.9-.65-.9s-.66.43-.66.89v7c0,.5.13.86.73.82s.58-.4.58-.81V62.06C275.19,60.86,275.2,59.67,275.19,58.47ZM103.5,20.86c0-.45-.2-.73-.67-.75s-.73.2-.73.67c0,1.69,0,3.38,0,5.06,0,.45.18.74.67.75s.75-.32.74-.83c0-.82,0-1.64,0-2.45S103.49,21.67,103.5,20.86ZM275.37,51.22c0-.5-.19-.82-.76-.83s-.92.22-.93.83v2.42c0,.6.43.65.88.7s.82-.16.82-.71V52.51C275.38,52.08,275.38,51.65,275.37,51.22Zm-24.06-25.8c.51,0,1,.08,1-.65s-.45-.67-.88-.69c-1.08,0-2.16-.09-3.24-.1-.4,0-.75.17-.72.68a.66.66,0,0,0,.73.69H250ZM2.24,29.64c.86.05.74-.68.73-1.15,0-.79.93-2.11-.4-2.24s-.54,1.44-1,2.13C1.74,28.88,1.35,29.6,2.24,29.64ZM86.55,63.3c0-.28,0-.55,0-.82,0-.47.09-1-.66-1s-.63.59-.64,1.05c0,.65,0,1.3,0,1.95a.64.64,0,0,0,1.27,0c0-.38,0-.76,0-1.13ZM30.65,45.83c0-.47.09-1-.67-1s-.63.56-.66,1A6.26,6.26,0,0,1,27.4,50.5c-1.37,1.23-3,1.33-4.7,1.4-.49,0-.88.09-.86.7s.4.58.8.6h1.13A7.07,7.07,0,0,0,30.65,45.83Z" style="fill:#73c087"/></g></svg>