<svg width="250" height="54" viewBox="0 0 250 54" fill="none" xmlns="http://www.w3.org/2000/svg">
<path d="M76.243 14.54H75.6983H67.348C66.3739 14.54 65.4465 14.5585 64.5661 14.5954C54.128 15.0242 50.5746 18.1277 48.7683 26.585C48.7365 26.7326 48.7093 26.8802 48.6775 27.0462L45.7503 41.4799C45.7186 41.6274 45.6914 41.775 45.6642 41.941C45.5454 42.5918 45.4666 43.2494 45.4282 43.9101C44.9743 51.1361 50.3522 53.2297 56.6241 53.8015C57.9311 53.9261 59.279 53.9768 60.6224 53.9998H81.0445L83.091 43.9101H64.1712C59.1383 43.9101 58.6754 43.9101 59.3607 40.3086C59.3925 40.1472 59.4242 39.9811 59.4605 39.8059C59.4968 39.6307 59.5513 39.3448 59.6012 39.1004H70.7245C79.547 39.0543 84.1667 38.4133 86.0052 29.6516L86.046 29.4626L86.531 27.0784C86.5725 26.8894 86.6038 26.7049 86.6401 26.5205C88.147 18.1738 84.8387 14.54 76.243 14.54ZM73.3296 26.3268C73.3318 26.3405 73.3318 26.3546 73.3296 26.3683C73.2932 26.5666 73.2481 26.7925 73.1979 27.0416L72.7121 29.4487H61.5935L62.0791 27.0508C62.3741 25.5982 63.309 24.639 66.1953 24.639H71.8867C73.4154 24.6667 73.5703 24.9019 73.307 26.3268H73.3296Z" fill="white"/>
<path d="M32.3579 14.6504C31.5048 14.5766 30.5971 14.5397 29.635 14.5397H21.3617L24.3071 0L10.3473 2.93285L7.99643 14.5397L5.94967 24.6341L2.04677 43.882L0 53.9534H22.3783C23.0817 53.9534 23.7397 53.9118 24.4069 53.8657H24.5067C37.3274 52.9434 39.3923 45.7036 40.604 39.9116C40.6403 39.7226 40.6811 39.5381 40.7175 39.3536C40.7175 39.2568 40.7583 39.1554 40.7765 39.0585L42.737 29.4161C44.5568 20.4147 41.675 15.4252 32.3579 14.6504ZM29.989 26.3265C29.989 26.3941 29.9754 26.4679 29.9481 26.5478C29.9164 26.7 29.8846 26.8614 29.8483 27.0412L27.4067 39.0724C26.4309 43.882 24.8063 43.882 20.9215 43.882H15.4302L19.3285 24.6341H28.5322C30.0979 24.6664 30.2522 24.9015 29.989 26.3265Z" fill="white"/>
<path d="M110.734 40.2804C110.049 43.8726 110.512 43.8818 115.545 43.8818H120.382L118.313 53.9531H107.961H106.195C106.152 53.9577 106.107 53.9577 106.064 53.9531C100.618 53.8609 96.1838 52.9248 96.8697 43.868C96.9882 42.4153 97.1918 40.9709 97.4777 39.5425L97.5729 39.0537L100.5 24.6292H92.4268L94.4733 14.5303H102.565H115.935H126.314L124.294 24.6292H113.879L110.952 39.0537L110.847 39.5655L110.802 39.81L110.734 40.2804Z" fill="white"/>
<path d="M116.524 11.5838L118.871 0H118.866L104.911 2.92363L103.155 11.5838H116.524Z" fill="#FA434E"/>
<path d="M156.117 14.6551C155.263 14.5812 154.356 14.5444 153.394 14.5444H145.134L148.084 0L134.125 2.92824L131.769 14.5397L129.727 24.6341L125.823 43.882L123.777 53.9534H145.407C146.382 53.9534 147.303 53.9211 148.179 53.8611H148.288C160.887 52.9388 163.097 45.9434 164.322 40.2021C164.358 40.0177 164.399 39.8379 164.435 39.6534L164.49 39.3767C164.49 39.349 164.513 39.2661 164.558 39.0585L166.519 29.4161C168.329 20.4193 165.452 15.4297 156.117 14.6551ZM153.757 26.3772L153.675 26.783L153.621 27.0412L151.183 39.0724C151.183 39.0724 151.183 39.1047 151.183 39.1185C150.208 43.8867 148.574 43.8867 144.708 43.8867H139.189L143.087 24.6387H151.365C151.791 24.6387 152.15 24.6387 152.45 24.6387C153.898 24.6802 154.025 24.9338 153.757 26.3772Z" fill="#FA434E"/>
<path d="M212.75 14.54L206.8 43.8778L204.753 53.9537H180.388L180.36 53.9168V53.9537H178.776C173.23 53.8845 168.61 53.0683 169.309 43.864C169.427 42.4299 169.627 41.0041 169.908 39.5938V39.5384L170.008 39.0773L175.001 14.5493H188.338L183.346 39.0773C183.31 39.2617 183.273 39.437 183.237 39.603C182.384 43.8778 182.58 43.887 187.916 43.887H193.408L199.357 14.5493L212.75 14.54Z" fill="#FA434E"/>
<path d="M229.51 24.6384L228.534 29.4435H235.918C237.467 29.4106 239.016 29.5654 240.529 29.9046C241.379 30.0983 242.192 30.4333 242.934 30.896C245.943 32.8374 245.544 36.6326 244.545 41.5622L244.091 43.8679C242.576 51.366 238.686 53.289 233.018 53.7824C231.656 53.8977 230.227 53.9346 228.684 53.9484C228.448 53.9484 228.208 53.9484 227.963 53.9484H210.195L212.242 43.8587H230.712L231.688 39.0444H226.583C225.285 39.0444 224.117 38.9998 223.079 38.9106C222.123 38.8376 221.171 38.7067 220.23 38.5186C219.898 38.4495 219.585 38.3711 219.29 38.2927C215.6 37.3059 214.661 35.3737 214.661 33.1233C214.661 32.9942 214.661 32.8651 214.661 32.736C214.661 32.6069 214.661 32.5423 214.661 32.4455C214.661 32.3486 214.661 32.2794 214.661 32.2011C214.693 31.8506 214.742 31.5001 214.801 31.1404C214.847 30.873 214.896 30.5963 214.947 30.3242L215.028 29.9138L215.123 29.4526L216.099 24.6384C218.146 14.544 223.334 14.5532 231.53 14.5532H250L245.621 24.6475H234.588L229.51 24.6384Z" fill="#FA434E"/>
</svg>
