<svg width="200" height="42" viewBox="0 0 200 42" fill="none" xmlns="http://www.w3.org/2000/svg">
<g clip-path="url(#clip0_4_15)">
<rect width="200" height="42" fill="white"/>
<rect width="200" height="42" fill="url(#paint0_linear_4_15)"/>
<path fill-rule="evenodd" clip-rule="evenodd" d="M36.2421 16.1485C35.842 18.0078 34.8143 19.4278 33.2217 20.4398L33.2296 20.4241C33.104 20.5026 32.9785 20.581 32.8608 20.6595C32.8533 20.6669 32.8476 20.6762 32.8403 20.6881C32.8323 20.7012 32.8223 20.7174 32.8059 20.7379C32.8412 20.7575 32.8765 20.7791 32.9118 20.8006L32.9118 20.8007C32.9471 20.8222 32.9824 20.8438 33.0177 20.8634C34.9163 21.8519 35.9204 23.4523 36.1087 25.5392C36.2735 27.4063 35.9989 29.2107 34.9869 30.8346C33.9121 32.5527 32.2724 33.502 30.3818 34.0669C28.7343 34.5611 27.0476 34.7258 25.3373 34.7258C22.0275 34.7311 18.7212 34.7293 15.4137 34.7276H15.4129H15.412C13.7575 34.7267 12.1028 34.7258 10.4472 34.7258H10C10.0346 34.4864 10.0671 34.2533 10.0991 34.0242C10.154 33.6304 10.2072 33.2485 10.2667 32.8665C10.8316 29.0616 11.4043 25.2567 11.977 21.4518C12.3338 19.0676 12.6928 16.6857 13.0517 14.3048L13.0518 14.304L13.0523 14.3006C13.364 12.233 13.6755 10.1662 13.9853 8.09934C14.0013 8.00112 14.0087 7.89027 14.0161 7.7784V7.7784C14.0341 7.50603 14.0526 7.22763 14.1972 7.11084C14.3613 6.97603 14.6612 6.99449 14.9528 7.01245C15.0515 7.01853 15.1493 7.02455 15.2406 7.02455C16.4467 7.02455 17.6519 7.02368 18.8566 7.0228C21.2642 7.02106 23.6695 7.01932 26.0748 7.02455C28.0439 7.03239 30.0052 7.1893 31.8959 7.76984C33.3158 8.20917 34.5632 8.90739 35.4184 10.1705C35.9911 11.0177 36.2892 11.967 36.3912 12.979C36.501 14.0381 36.4696 15.0972 36.2421 16.1485ZM26.216 27.9084C27.0789 27.6809 27.5967 27.0376 27.7458 26.1511L27.7536 26.1589C28.0282 24.4957 27.479 23.4445 25.7531 23.1934C25.7089 23.1879 25.6657 23.1805 25.6231 23.1731H25.6231H25.6231C25.5447 23.1596 25.4685 23.1464 25.3922 23.1464C24.5842 23.1307 23.7761 23.1189 22.9681 23.1071C22.16 23.0954 21.352 23.0836 20.5439 23.0679C20.3556 23.0601 20.2693 23.1228 20.2458 23.3268C20.1276 24.1748 20.0033 25.0166 19.8783 25.8632L19.8783 25.8633L19.83 26.1903C19.7647 26.658 19.6957 27.1256 19.6255 27.6012C19.5945 27.8116 19.5632 28.0237 19.5319 28.2379C19.5594 28.2416 19.5853 28.2452 19.6097 28.2487L19.6098 28.2487C19.6896 28.2601 19.7542 28.2693 19.8143 28.2693C20.2177 28.2693 20.6218 28.2727 21.0262 28.2761H21.0263H21.0265C21.9982 28.2842 22.9715 28.2924 23.9409 28.2536C24.7019 28.2222 25.4785 28.1045 26.216 27.9084ZM26.3572 17.8901C27.0397 17.7724 27.6359 17.4508 27.9811 16.7996V16.7918C28.8441 15.1757 28.091 13.6616 26.2866 13.4184C26.263 13.4105 26.2395 13.4105 26.216 13.4105C24.8412 13.38 23.4738 13.342 22.0994 13.3038L21.9874 13.3007C21.7756 13.2928 21.7364 13.4105 21.705 13.5831C21.6462 13.9399 21.5854 14.2966 21.5247 14.6534L21.5247 14.6534L21.5246 14.654L21.5245 14.6546L21.5244 14.6547C21.4637 15.0114 21.4029 15.3681 21.3441 15.7248C21.2107 16.4937 21.0852 17.2625 20.9519 18.0941C21.3145 18.0941 21.6698 18.0963 22.0203 18.0984H22.0203H22.0204C22.8226 18.1033 23.5995 18.1081 24.3802 18.0862C25.047 18.0705 25.706 18.0078 26.3572 17.8901ZM96.7755 28.7869C96.9716 27.4768 97.1677 26.1667 97.3638 24.8095V24.8174H97.8345C98.7469 24.8174 99.6601 24.8156 100.574 24.8139H100.574C102.402 24.8104 104.231 24.8069 106.056 24.8174C106.37 24.8174 106.464 24.7311 106.511 24.4251C106.637 23.5516 106.776 22.6781 106.916 21.8046C106.986 21.368 107.055 20.9313 107.123 20.4947C107.183 20.1109 107.24 19.7271 107.298 19.3363L107.3 19.3276L107.3 19.3225L107.301 19.3205L107.301 19.3197L107.301 19.3185C107.357 18.9401 107.415 18.555 107.476 18.1568H98.3445C98.4961 17.1843 98.6477 16.2396 98.7994 15.2949L98.7995 15.2942C98.8753 14.8217 98.9512 14.3493 99.027 13.8734H99.4899H109.414C109.673 13.8734 109.791 13.8263 109.838 13.536C110.031 12.272 110.232 11.0114 110.432 9.74971L110.433 9.74667L110.433 9.74315C110.541 9.06497 110.649 8.38649 110.756 7.70706C110.781 7.56277 110.797 7.41848 110.813 7.26529L110.814 7.26476L110.814 7.26439L110.814 7.26413L110.814 7.26394C110.822 7.18435 110.831 7.10234 110.842 7.01669H110.246H91.9193C91.8182 7.01788 91.7349 7.016 91.6661 7.01445C91.5097 7.01093 91.4275 7.00907 91.3787 7.04856C91.3247 7.09236 91.3118 7.18703 91.2847 7.3867V7.38674V7.38678L91.2846 7.38765L91.2845 7.38805L91.2843 7.38987C91.2757 7.45318 91.2656 7.52697 91.2524 7.61292C91.094 8.65369 90.9393 9.69264 90.7847 10.7307L90.7842 10.734L90.7836 10.7378C90.6169 11.8569 90.4504 12.975 90.2796 14.093C89.7071 17.8656 89.1345 21.6461 88.5619 25.4265L88.5615 25.4293C88.3739 26.6725 88.1843 27.9137 87.9947 29.155L87.9928 29.1675L87.9908 29.1801C87.8012 30.4213 87.6116 31.6626 87.424 32.9058C87.3549 33.3433 87.2943 33.7809 87.2328 34.2246L87.2327 34.2248L87.2326 34.226C87.2103 34.3865 87.188 34.5478 87.1651 34.7101C87.2029 34.7143 87.2374 34.7185 87.2694 34.7225C87.3568 34.7331 87.4257 34.7415 87.4946 34.7415C88.3936 34.7415 89.2935 34.7407 90.1939 34.7398H90.1951C91.9974 34.738 93.8019 34.7363 95.6065 34.7415C95.8654 34.7415 95.936 34.6317 95.9674 34.412L95.9681 34.4068C96.2346 32.5335 96.5011 30.6603 96.7754 28.787L96.7755 28.7869ZM159.733 17.4037H148.436L148.439 17.3463L148.441 17.2931C148.445 17.1955 148.448 17.1171 148.459 17.0428C148.508 16.7459 148.559 16.449 148.61 16.1521C148.726 15.484 148.841 14.816 148.922 14.1479C148.977 13.74 149.134 13.6615 149.519 13.6615C151.484 13.6694 153.451 13.6694 155.419 13.6694H155.419H155.419C157.387 13.6694 159.357 13.6694 161.326 13.6772C161.663 13.6772 161.781 13.5831 161.828 13.2536C161.969 12.235 162.129 11.2212 162.29 10.2047L162.29 10.2046L162.29 10.2044L162.29 10.2041L162.29 10.2039L162.29 10.2036C162.335 9.92085 162.379 9.63789 162.424 9.35455C162.48 8.99243 162.534 8.63032 162.589 8.26313L162.59 8.26013C162.65 7.85664 162.711 7.44702 162.777 7.02453H162.118C160.426 7.02453 158.733 7.02502 157.04 7.02551C151.959 7.02698 146.877 7.02846 141.799 7.01669C141.407 7.01669 141.289 7.15006 141.242 7.51093C141.063 8.77261 140.871 10.0298 140.679 11.2859L140.679 11.2862L140.679 11.2866L140.679 11.2869L140.679 11.2873L140.679 11.2877C140.618 11.6868 140.557 12.0858 140.497 12.4848L138.779 23.6406C138.533 25.2559 138.286 26.8712 138.039 28.4866L138.033 28.5241C137.784 30.152 137.535 31.7799 137.288 33.4078C137.259 33.6073 137.232 33.8085 137.204 34.0144L137.204 34.0146C137.171 34.2541 137.138 34.5 137.1 34.7572H137.547C139.94 34.7572 142.333 34.7563 144.725 34.7555C149.507 34.7537 154.286 34.752 159.066 34.7572C159.388 34.7572 159.498 34.6631 159.537 34.3414C159.707 33.0507 159.891 31.7633 160.075 30.4749L160.075 30.4746L160.075 30.4744L160.075 30.4739L160.076 30.4691L160.077 30.4647L160.077 30.4608L160.078 30.4563L160.079 30.4513C160.173 29.7898 160.268 29.1281 160.361 28.4654C160.369 28.386 160.373 28.3067 160.377 28.2214C160.381 28.1465 160.385 28.067 160.392 27.979H146.867C146.961 27.2454 147.055 26.5197 147.149 25.794C147.243 25.0684 147.338 24.3427 147.432 23.6092H147.918C149.075 23.6092 150.232 23.6084 151.39 23.6075H151.391H151.392H151.393H151.394H151.395C153.714 23.6057 156.035 23.604 158.352 23.6092C158.658 23.6092 158.76 23.5151 158.807 23.217C158.919 22.4486 159.044 21.6839 159.17 20.9202C159.23 20.5533 159.29 20.1867 159.349 19.82L159.435 19.2726L159.436 19.2684L159.441 19.2324C159.536 18.6317 159.632 18.0244 159.733 17.4037ZM60.366 27.979H46.8273C46.8609 27.7265 46.8945 27.4759 46.9278 27.2269L46.9279 27.2261C47.0731 26.1423 47.2144 25.0876 47.3352 24.0329C47.3744 23.6642 47.5313 23.6014 47.8608 23.6014C49.5906 23.6092 51.3185 23.6092 53.0455 23.6092C54.7724 23.6092 56.4983 23.6092 58.2243 23.6171C58.593 23.6249 58.7499 23.5465 58.8048 23.1542C58.9518 22.1195 59.1192 21.0889 59.2864 20.0593L59.2866 20.0582L59.2868 20.0571L59.2869 20.0559L59.2871 20.0548L59.2873 20.0536C59.3518 19.6566 59.4163 19.2598 59.4795 18.8629C59.5513 18.4323 59.6164 18.0018 59.6871 17.5352L59.6872 17.5345L59.6874 17.5333L59.707 17.4037H48.3707C48.5066 16.5574 48.6424 15.7319 48.7782 14.9065L48.7785 14.9045L48.7787 14.9036C48.8467 14.4905 48.9147 14.0773 48.9826 13.6616H61.7154C61.8878 12.5565 62.0563 11.4593 62.2248 10.3621L62.2249 10.361L62.2251 10.3602L62.2252 10.3596L62.2252 10.3593C62.3939 9.26081 62.5626 8.16229 62.7352 7.05593C62.6708 7.05271 62.613 7.04817 62.5591 7.04393L62.5591 7.04393C62.4817 7.03784 62.4123 7.03239 62.343 7.03239H41.6553C41.3964 7.03239 41.2865 7.08731 41.2395 7.37758C40.9444 9.34289 40.6407 11.3111 40.3371 13.2787L40.3367 13.2818L40.3366 13.2818C40.1399 14.557 39.9432 15.8319 39.7489 17.1056C38.949 22.297 38.157 27.4962 37.3649 32.6955L37.3645 32.6985L37.364 32.7018C37.3119 33.0422 37.2619 33.3805 37.2108 33.7261C37.1618 34.0577 37.1118 34.396 37.058 34.7494H37.5679H46.5506C47.9369 34.7494 49.3223 34.7485 50.7074 34.7476H50.7083H50.7092H50.71H50.7109H50.7118C53.4797 34.7459 56.2464 34.7442 59.0166 34.7494C59.3226 34.7494 59.4403 34.6788 59.4873 34.3414C59.6222 33.2725 59.7778 32.207 59.9334 31.1404L59.9337 31.1384C60.0133 30.5931 60.0929 30.0475 60.1699 29.501C60.2098 29.2212 60.2448 28.939 60.2804 28.6514C60.3077 28.4309 60.3353 28.2071 60.366 27.979ZM63.7316 14.1009H71.5756L71.4078 15.2356C70.445 21.745 69.4889 28.2097 68.5328 34.7023C68.5669 34.7059 68.5989 34.7095 68.6293 34.7129C68.7317 34.7243 68.815 34.7337 68.8937 34.7337C69.5727 34.7337 70.2522 34.7332 70.9321 34.7327H70.9332H70.9343H70.9354H70.9369C72.9812 34.7312 75.0287 34.7298 77.0762 34.7415C77.3822 34.7415 77.4449 34.6003 77.4763 34.365C77.9627 31.0072 78.4491 27.6495 78.9355 24.2996C79.0489 23.5229 79.1627 22.7462 79.2765 21.9693L79.2766 21.9688L79.2828 21.9258C79.6474 19.4374 80.0122 16.9479 80.3633 14.4539C80.4104 14.1636 80.5124 14.0852 80.7948 14.0852C81.8077 14.0923 82.8189 14.0913 83.8292 14.0904H83.8293C85.0415 14.0892 86.2523 14.088 87.4632 14.1009C87.8319 14.1087 87.9496 13.9832 88.0045 13.638C88.1823 12.5293 88.3741 11.4206 88.5659 10.3119C88.6618 9.75745 88.7577 9.20297 88.8518 8.64848C88.9048 8.35265 88.9528 8.05432 89.0015 7.75212V7.75205V7.75199C89.0392 7.5173 89.0774 7.28026 89.1185 7.04022C89.0461 7.0366 88.987 7.0313 88.9351 7.02665L88.9351 7.02665C88.8747 7.02123 88.824 7.01669 88.7734 7.01669H65.23C64.9633 7.01669 64.877 7.10298 64.8377 7.35403C64.5632 9.04074 64.2807 10.7353 63.9983 12.422C63.9613 12.6543 63.9242 12.8881 63.8866 13.1258L63.8859 13.1301L63.8858 13.1305L63.8858 13.1307L63.885 13.1355L63.8829 13.1492C63.834 13.4579 63.784 13.7733 63.7316 14.1009ZM188.846 13.2928C187.74 10.7667 185.967 8.87601 183.363 7.86398C181.817 7.2599 180.177 7.07162 178.53 7.04808C176.253 7.02567 173.975 7.02375 171.698 7.02183C169.99 7.02039 168.282 7.01895 166.574 7.00886C166.182 7.00886 166.072 7.13438 166.017 7.49526C165.702 9.71684 165.373 11.9316 165.043 14.1522L164.973 14.6187C164.727 16.2883 164.478 17.9559 164.229 19.6236C163.98 21.294 163.73 22.9645 163.483 24.637L162.283 32.6861C162.214 33.1358 162.152 33.5819 162.088 34.0461L162.088 34.0479C162.057 34.2715 162.025 34.4993 161.992 34.7337H162.494H174.921C176.396 34.7337 177.863 34.6082 179.307 34.3022C184.288 33.2353 187.677 30.3639 189.199 25.4372C189.709 23.7818 189.921 22.0716 189.984 20.3378C190.07 17.9136 189.827 15.5366 188.839 13.2928H188.846ZM180.06 24.6683C179.15 26.7395 177.494 27.6574 175.313 27.7515C174.561 27.7844 173.809 27.7905 173.056 27.7965C172.734 27.7991 172.411 27.8017 172.089 27.8064C172.041 27.8064 171.992 27.799 171.929 27.7893C171.899 27.7849 171.867 27.78 171.83 27.775C171.936 27.0563 172.037 26.35 172.137 25.6491C172.215 25.103 172.292 24.5601 172.372 24.0172C172.803 21.0439 173.234 18.0705 173.666 15.1051C173.697 14.8776 173.737 14.6501 173.776 14.4304L173.777 14.4233C173.87 13.8419 173.872 13.8264 174.482 13.842C174.762 13.8524 175.044 13.8578 175.325 13.8633C176.107 13.8784 176.89 13.8935 177.651 14.0146C179.581 14.3127 180.578 15.309 180.923 17.2311C181.378 19.7886 181.111 22.2756 180.06 24.6683ZM136.346 13.0496C136.566 14.6814 136.464 16.2819 135.852 17.8195H135.844C135.044 19.8279 133.561 21.1929 131.655 22.1265C131.597 22.1533 131.536 22.1827 131.464 22.2176C131.41 22.2439 131.349 22.2732 131.278 22.3069C131.334 22.3347 131.385 22.3606 131.432 22.3848C131.519 22.4289 131.595 22.4676 131.671 22.5031C132.761 23.013 133.695 23.6877 134.173 24.8409C134.589 25.8451 134.636 26.9042 134.542 27.9712C134.474 28.7286 134.39 29.4837 134.306 30.2377C134.235 30.8739 134.164 31.5093 134.103 32.1448C134.032 32.8509 134.079 33.5177 134.832 33.9256C134.934 33.9798 134.93 34.2622 134.927 34.4847C134.927 34.5199 134.927 34.5536 134.927 34.5846C134.927 34.6317 134.707 34.718 134.581 34.718C133.423 34.7211 132.264 34.7218 131.105 34.7224C129.365 34.7233 127.626 34.7243 125.889 34.7337C125.52 34.7337 125.442 34.5454 125.45 34.2787C125.454 34.1683 125.458 34.0581 125.462 33.9479C125.496 33.0319 125.53 32.1216 125.614 31.2112C125.652 30.8025 125.712 30.3962 125.772 29.9899C125.898 29.1331 126.024 28.2766 125.944 27.3985C125.826 26.104 125.214 25.3038 123.943 25.0371C123.221 24.8913 122.469 24.8438 121.724 24.7968C121.627 24.7906 121.53 24.7845 121.433 24.7782C121.109 24.7566 120.783 24.7611 120.457 24.7657C120.191 24.7694 119.925 24.7731 119.66 24.7625C119.346 24.7546 119.228 24.8566 119.181 25.1704C118.966 26.6254 118.746 28.0742 118.524 29.5278L118.436 30.105L118.435 30.1133C118.215 31.554 117.996 32.9948 117.785 34.4356C117.753 34.6396 117.683 34.7337 117.463 34.7337H109.351C109.319 34.7337 109.284 34.7255 109.241 34.7156C109.212 34.7087 109.178 34.7009 109.139 34.6945C109.18 34.4111 109.22 34.1315 109.259 33.8537C109.318 33.4393 109.376 33.0288 109.438 32.6155C109.74 30.5954 110.04 28.5733 110.34 26.5512C110.64 24.5291 110.94 22.507 111.242 20.4869L113.195 7.35405C113.235 7.103 113.321 7.00886 113.588 7.00886C115.235 7.01446 116.883 7.01506 118.53 7.01566C121.496 7.01674 124.461 7.01782 127.427 7.04808C129.231 7.06377 131.012 7.3462 132.683 8.08365C134.848 9.04076 136.033 10.7196 136.346 13.0496ZM125.771 18.6825C127.238 18.4393 127.968 17.7018 128.086 16.2505V16.2426C128.188 15.0031 127.732 14.2186 126.54 13.8812C126.218 13.7871 125.881 13.7165 125.544 13.7086C124.814 13.6929 124.084 13.6851 123.355 13.6773C122.625 13.6694 121.896 13.6616 121.166 13.6459C120.899 13.6389 120.878 13.7889 120.853 13.9555C120.851 13.9751 120.848 13.9948 120.844 14.0146C120.774 14.4735 120.701 14.9325 120.629 15.3914C120.556 15.8504 120.484 16.3093 120.413 16.7683C120.365 17.0835 120.318 17.3987 120.271 17.7189C120.218 18.0761 120.165 18.4394 120.107 18.8158H120.491C120.915 18.8158 121.338 18.8176 121.761 18.8193C122.606 18.8228 123.449 18.8263 124.296 18.8158C124.791 18.808 125.285 18.7609 125.771 18.6825Z" fill="white"/>
</g>
<defs>
<linearGradient id="paint0_linear_4_15" x1="5.96934e-08" y1="21.6364" x2="200.008" y2="20.0649" gradientUnits="userSpaceOnUse">
<stop stop-color="#DC052F"/>
<stop offset="0.505208" stop-color="#81368B"/>
<stop offset="1" stop-color="#055B9A"/>
</linearGradient>
<clipPath id="clip0_4_15">
<rect width="200" height="42" fill="white"/>
</clipPath>
</defs>
</svg>
