<svg width="282" height="148" viewBox="0 0 282 148" fill="none" xmlns="http://www.w3.org/2000/svg">
<path d="M255.572 78.5639C259.177 79.5857 262.582 80.9752 266 82.4374L259.614 96.787C258.895 97.2366 254.184 94.6845 252.955 94.2486C247.137 92.187 232.093 90.0209 228.652 96.5236C226.75 100.12 229.554 101.891 232.526 103.235C241.73 107.408 257.397 106.941 260.807 118.943C264.334 131.362 254.971 142.043 243.646 145.703C230.286 150.021 211.424 148.25 199.748 140.394L207.591 126.222C214.901 131.281 230.564 135.495 238.694 131.317C242.121 129.555 243.277 125.99 239.8 123.543C231.265 117.535 210.308 119.715 208.733 104.284C207.004 87.3281 221.083 78.2869 236.468 76.9882C236.468 76.9882 245.913 75.8302 255.567 78.5639H255.572Z" fill="white"/>
<path d="M142.345 78.3416L139.555 93.1725L105.356 93.2134L102.785 104.511H133.318L130.096 119.202L99.6211 119.424L97.327 131.585H133.25L129.841 146.479H75.7285L88.6876 78.3416H142.345Z" fill="white"/>
<path d="M208.96 78.3416L206.397 93.6221L185.491 93.9445L174.402 146.479H155.53L165.991 93.6811H145.07L148.484 78.3416H208.96Z" fill="white"/>
<path d="M77.3211 78.3415C74.3989 92.296 72.2458 106.509 68.9958 120.391C66.993 128.946 64.7535 138.006 57.0108 143.242C47.9799 149.349 31.261 149.504 21.9843 143.859C20.1317 142.733 14.5512 138.673 16.3537 136.294L27.9837 125.727C34.9662 135.122 46.0317 135.704 49.2818 122.939C51.717 113.389 52.8595 102.895 55.0399 93.2269H31.393L34.8023 78.3369H77.3166L77.3211 78.3415Z" fill="white"/>
<path d="M176.994 0.340332L173.835 15.0305L139.996 15.2939C138.512 15.7889 137.948 24.7801 136.978 26.5147H167.444L164.535 41.0005L134.539 41.4637C134.124 41.5455 134.015 41.8134 133.883 42.1676C132.795 45.0647 132.536 50.3914 131.981 53.5882H167.448L164.722 68.4782H109.699L123.564 0.340332H176.994Z" fill="#C5112D"/>
<path d="M243.383 0.340332L240.219 15.471L219.499 16.1203L208.825 68.4782H189.271L199.731 15.6799H179.266L182.68 0.340332H243.383Z" fill="#C5112D"/>
<path d="M41.4811 57.1938L52.4602 0.399353C52.4602 0.399353 78.0552 -0.445275 90.3861 0.322156C104.119 1.17587 116.468 9.86282 108.958 24.6574C104.561 33.3262 98.9573 31.0012 90.8231 31.9321C72.6522 34.0119 51.0263 40.5192 41.4766 57.1938H41.4811ZM66.0429 27.4138H83.0941C84.9421 27.4138 88.6792 25.2341 89.626 23.5176C96.1442 11.7292 75.2422 14.5355 69.434 14.2994L66.0383 27.4138H66.0429Z" fill="#C5112D"/>
<path d="M61.0416 68.4782C60.4134 67.8606 64.237 55.8542 66.0395 54.7144C72.1982 53.57 83.4185 56.776 87.415 50.6593C88.8397 48.475 88.9626 44.0612 86.6639 42.3719L81.9573 40.5101C85.749 38.6846 100.411 34.3389 103.588 36.4096C106.974 38.621 108.162 45.5688 107.866 49.297C106.965 60.6722 93.1185 68.4827 82.6356 68.4827H61.037L61.0416 68.4782Z" fill="#C5112D"/>
<path d="M38.7598 68.4783C45.7468 38.326 83.691 32.3364 110.146 32.8268L109.245 30.1204C110.888 31.7052 111.425 32.7678 113.788 33.508C111.63 33.9348 110.615 35.1518 109.468 36.8865L110.151 34.1846C86.9547 32.291 62.4339 43.5527 59.2203 68.4737H38.7598V68.4783Z" fill="#C5112D"/>
</svg>
