<?xml version="1.0" encoding="UTF-8"?><svg id="betshezi" xmlns="http://www.w3.org/2000/svg" viewBox="0 0 496.44 181.2"><path d="M185.84,33.36c.36-7.41,.31-14.99-.91-22.28-.92-5.46-5.6-8.76-11.16-9.96-2.56-.55-5.23-.82-7.84-.83-28.45-.06-56.89-.05-85.34-.03-1.45,0-2.9,.29-4.32,.45V14.83h99.94v20.35H76.35v47.44c1.4,.12,2.32,.26,3.24,.26,28.82,.01,57.64,.03,86.47-.03,2.43,0,5.22,.15,7.21-.93,3.83-2.08,8.25-4.3,10.57-7.71,5.38-7.88,3.07-26.34-2.6-32.68,1.71-2.89,4.46-5.47,4.59-8.17Zm-9.67,34.69H85.51v-20.58h90.66v20.58Zm34.2-.75h100.53v15.62c-2.19,0-4.2,0-6.22,0-27.11,0-54.23-.28-81.34,.1-12,.17-23.77-6.36-22.59-22.29,.62-8.33,.11-16.75,.11-25.41h110.01v11.7h-100.5v20.26ZM436.02,.7V14.69h-50.83V82.45h-9.25V14.95h-49.88V.7h109.96Zm-129.64-.43c1.46,0,2.93,.24,4.68,.39V14.24h-109.99c2.18-6.56,6.28-10.97,12.74-13.01,2.29-.72,4.82-.94,7.25-.94,28.44-.06,56.88-.04,85.31-.02Z" style="fill:#fff;"/><path d="M106.75,102.59c-.24,4.25-.06,8.53-.06,13.25H17.68v14.61h5.93c20.72,0,41.45-.04,62.17,.03,15.34,.05,20.8,5.53,20.92,20.67,.19,24.24-5.39,29.81-29.8,29.8-22.98-.01-45.97-.01-68.95-.02-2.02,0-4.05,0-6.6,0v-17.87H89.71v-13.43c-2.06-.1-4.05-.29-6.04-.29-19.59-.02-39.19,.11-58.78-.1-4.25-.04-8.6-.88-12.7-2.06-2.39-.68-4.79-2.39-6.47-4.27-7.74-8.63-6.4-32.37,2.81-39.36,3.89-2.95,9.53-4.96,14.42-5.05,26.37-.49,52.75-.2,79.12-.3,3.28-.01,4.89,.79,4.69,4.39Zm253.93-3.99v17.38h73.14c-2.58,1.69-3.89,2.64-5.27,3.45-21.24,12.43-42.51,24.81-63.73,37.29-1.66,.98-4.13,2.5-4.22,3.9-.45,6.62-.2,13.3-.2,20.12h104.8v-17.91h-71.77c1.07-1.86,2.28-2.7,3.53-3.49,21.62-13.63,43.27-27.21,64.83-40.93,1.53-.97,3.35-2.81,3.49-4.39,.45-4.99,.17-10.05,.17-15.43h-104.77Zm-150.73,31.63h-73.11v-31.54h-15.68v81.79h15.66v-30.8h73.51v30.93h15.54V98.64h-15.93v31.58Zm46.65,18.99h88.76v-18.3h-104.86c0,8.89,0,17.32,0,25.76,0,16.32,7.89,24.26,24.18,24.28,25.06,.02,50.12,0,75.18-.01,1.82,0,3.64,0,5.58,0v-18.11h-88.84v-13.61Zm5.91-50.9c-2.8,0-5.64,.38-8.38,.98-8.76,1.92-13.38,7.64-13.28,16.21h104.67v-16.78c-1.49-.17-2.76-.45-4.03-.45-26.33-.02-52.65-.04-78.98,.04Zm217.89,.42v81.72h15.35V98.73h-15.35Z" style="fill:#f2c642;"/></svg>