<?xml version="1.0" encoding="utf-8"?>
<!-- Generator: Adobe Illustrator 27.4.0, SVG Export Plug-In . SVG Version: 6.00 Build 0)  -->
<svg version="1.1" xmlns="http://www.w3.org/2000/svg" xmlns:xlink="http://www.w3.org/1999/xlink" x="0px" y="0px"
	 viewBox="0 0 1760.2 477.3" style="enable-background:new 0 0 1760.2 477.3;" xml:space="preserve">
<style type="text/css">
	.st0{fill:url(#SVGID_1_);}
	.st1{fill:#FFE600;}
</style>
<g id="Layer_1">
	<rect x="3796.7" y="-72" width="1760" height="720.2"/>
	<path d="M5196.7,468.1h-1040c-99.4,0-180-80.6-180-180v0c0-99.4,80.6-180,180-180h1040c99.4,0,180,80.6,180,180v0
		C5376.7,387.6,5296.1,468.1,5196.7,468.1z"/>
	<linearGradient id="SVGID_1_" gradientUnits="userSpaceOnUse" x1="1906.5682" y1="288.1419" x2="3666.5681" y2="288.1419">
		<stop  offset="0" style="stop-color:#FFE600"/>
		<stop  offset="0.3946" style="stop-color:#FFE300"/>
		<stop  offset="0.7109" style="stop-color:#FFD900"/>
		<stop  offset="1" style="stop-color:#FFC800"/>
	</linearGradient>
	<rect x="1906.6" y="-72" class="st0" width="1760" height="720.2"/>
	<g>
		<path d="M4348.7-202.4c-5.6-4.2-8.7-10.2-9.1-18h22.4c0.2,2.6,1,4.6,2.4,5.8c1.4,1.2,3.1,1.8,5.3,1.8c1.9,0,3.5-0.5,4.8-1.4
			c1.2-1,1.9-2.3,1.9-4c0-2.2-1-3.9-3.1-5.1c-2.1-1.2-5.4-2.6-10.1-4.1c-4.9-1.6-8.9-3.2-12-4.8c-3-1.5-5.7-3.8-7.9-6.8
			c-2.2-3-3.4-6.8-3.4-11.6c0-4.9,1.2-9,3.6-12.5c2.4-3.5,5.8-6.1,10.1-7.9c4.3-1.8,9.1-2.7,14.6-2.7c8.8,0,15.8,2.1,21.1,6.2
			c5.3,4.1,8.1,9.9,8.4,17.3h-22.8c-0.1-2.3-0.8-4-2.1-5.1c-1.3-1.1-3-1.7-5.1-1.7c-1.6,0-2.9,0.5-3.9,1.4c-1,0.9-1.5,2.3-1.5,4
			c0,1.4,0.6,2.7,1.7,3.7c1.1,1,2.5,1.9,4.1,2.7c1.6,0.8,4.1,1.7,7.3,2.8c4.8,1.6,8.7,3.3,11.8,4.9s5.8,3.9,8,6.8s3.4,6.6,3.4,11
			c0,4.5-1.1,8.5-3.4,12.1c-2.3,3.6-5.5,6.4-9.8,8.5c-4.3,2.1-9.3,3.1-15.1,3.1C4361.5-196.1,4354.3-198.2,4348.7-202.4z"/>
		<path d="M4429.3-255.6v12.3h24.1v16h-24.1v13.6h27.3v16.8h-48.3v-75.6h48.3v16.8H4429.3z"/>
		<path d="M4469.1-254.7c3.1-5.8,7.5-10.4,13.2-13.6c5.7-3.2,12.3-4.9,19.7-4.9c9.4,0,17.4,2.5,23.8,7.6s10.6,11.9,12.4,20.5h-22.6
			c-1.4-2.9-3.2-5-5.6-6.5c-2.4-1.5-5.2-2.3-8.3-2.3c-4.9,0-8.7,1.7-11.6,5.2c-2.9,3.5-4.3,8.1-4.3,13.9c0,5.9,1.4,10.5,4.3,14
			c2.9,3.5,6.8,5.2,11.6,5.2c3.1,0,5.9-0.8,8.3-2.2c2.4-1.5,4.3-3.7,5.6-6.5h22.6c-1.9,8.6-6,15.5-12.4,20.5
			c-6.4,5-14.4,7.6-23.8,7.6c-7.4,0-14-1.6-19.7-4.9c-5.7-3.2-10.1-7.8-13.2-13.6c-3.1-5.8-4.7-12.5-4.7-20
			C4464.4-242.2,4466-248.8,4469.1-254.7z"/>
		<path d="M4564.9-201.1c-5.9-3.3-10.6-7.9-14.1-13.8c-3.5-5.9-5.2-12.6-5.2-20c0-7.4,1.7-14.1,5.2-20c3.5-5.9,8.2-10.5,14.1-13.8
			c5.9-3.3,12.4-4.9,19.5-4.9c7.1,0,13.7,1.6,19.6,4.9c5.9,3.3,10.6,7.9,14,13.8s5.1,12.6,5.1,20c0,7.4-1.7,14.1-5.1,20
			c-3.4,5.9-8.1,10.5-14,13.8c-5.9,3.3-12.4,5-19.5,5C4577.4-196.1,4570.9-197.7,4564.9-201.1z M4597.1-220.8
			c3.1-3.5,4.7-8.2,4.7-14c0-6-1.6-10.7-4.7-14.2c-3.1-3.5-7.3-5.2-12.7-5.2c-5.4,0-9.7,1.7-12.8,5.2c-3.1,3.5-4.6,8.2-4.6,14.2
			c0,5.9,1.5,10.6,4.6,14.1c3.1,3.5,7.3,5.2,12.8,5.2C4589.8-215.6,4594-217.3,4597.1-220.8z"/>
		<path d="M4702.6-196.8h-21l-28-42.2v42.2h-21v-75.6h21l28,42.8v-42.8h21V-196.8z"/>
		<path d="M4765.3-267.6c6,3.2,10.6,7.6,13.8,13.3c3.2,5.7,4.8,12.3,4.8,19.6c0,7.3-1.6,13.8-4.9,19.5c-3.3,5.7-7.9,10.2-13.8,13.5
			c-6,3.3-12.9,4.9-20.7,4.9h-29.9v-75.6h29.9C4752.4-272.4,4759.3-270.8,4765.3-267.6z M4757.3-220.4c3.5-3.4,5.3-8.1,5.3-14.3
			c0-6.2-1.8-11-5.3-14.4c-3.5-3.4-8.3-5.1-14.5-5.1h-7.3v38.8h7.3C4749-215.4,4753.8-217.1,4757.3-220.4z"/>
		<path d="M4841.1-209.2h-26.8l-4.1,12.3h-22.1l27.5-75.6h24.2l27.4,75.6h-22.2L4841.1-209.2z M4835.9-225.2l-8.1-24.4l-8,24.4
			H4835.9z"/>
		<path d="M4912.5-196.8l-15-27.9h-2.3v27.9h-21v-75.6h33.1c6.1,0,11.2,1.1,15.4,3.2c4.2,2.1,7.4,5,9.5,8.7
			c2.1,3.7,3.2,7.8,3.2,12.4c0,5.1-1.4,9.7-4.2,13.6c-2.8,3.9-6.9,6.7-12.4,8.3l17,29.5H4912.5z M4895.2-239.1h10.4
			c2.9,0,5-0.7,6.4-2c1.4-1.4,2.1-3.3,2.1-5.9c0-2.4-0.7-4.3-2.2-5.7c-1.5-1.4-3.6-2.1-6.4-2.1h-10.4V-239.1z"/>
		<path d="M5013.8-272.4l-26.6,51.6v24h-21.1v-24l-26.6-51.6h24l13.3,29.2l13.3-29.2H5013.8z"/>
	</g>
	<g>
		<path d="M2596.8-234.7c-2.1,3.8-5.3,6.8-9.5,9c-4.3,2.3-9.4,3.4-15.6,3.4h-10.4v25.5h-21v-75.6h31.4c6.1,0,11.2,1.1,15.5,3.2
			c4.2,2.1,7.4,5.1,9.6,8.9s3.2,8.1,3.2,13.1C2599.9-242.6,2598.9-238.5,2596.8-234.7z M2578.5-247.2c0-5.5-3-8.3-8.9-8.3h-8.4v16.4
			h8.4C2575.5-239.1,2578.5-241.8,2578.5-247.2z"/>
		<path d="M2646.7-196.8l-15-27.9h-2.3v27.9h-21v-75.6h33.1c6.1,0,11.2,1.1,15.4,3.2c4.2,2.1,7.4,5,9.5,8.7
			c2.1,3.7,3.2,7.8,3.2,12.4c0,5.1-1.4,9.7-4.2,13.6c-2.8,3.9-6.9,6.7-12.4,8.3l17,29.5H2646.7z M2629.4-239.1h10.4
			c2.9,0,5-0.7,6.4-2c1.4-1.4,2.1-3.3,2.1-5.9c0-2.4-0.7-4.3-2.2-5.7c-1.5-1.4-3.6-2.1-6.4-2.1h-10.4V-239.1z"/>
		<path d="M2700.2-272.4v75.6h-21v-75.6H2700.2z"/>
		<path d="M2800.4-272.4v75.6h-21v-41.7l-14.3,41.7h-17.6l-14.4-42v42h-21v-75.6h25.4l19,49.1l18.5-49.1H2800.4z"/>
		<path d="M2860.3-209.2h-26.8l-4.1,12.3h-22.1l27.5-75.6h24.2l27.4,75.6h-22.2L2860.3-209.2z M2855-225.2l-8.1-24.4l-8,24.4H2855z"
			/>
		<path d="M2931.6-196.8l-15-27.9h-2.3v27.9h-21v-75.6h33.1c6.1,0,11.2,1.1,15.4,3.2c4.2,2.1,7.4,5,9.5,8.7
			c2.1,3.7,3.2,7.8,3.2,12.4c0,5.1-1.4,9.7-4.2,13.6c-2.8,3.9-6.9,6.7-12.4,8.3l17,29.5H2931.6z M2914.4-239.1h10.4
			c2.9,0,5-0.7,6.4-2c1.4-1.4,2.1-3.3,2.1-5.9c0-2.4-0.7-4.3-2.2-5.7c-1.5-1.4-3.6-2.1-6.4-2.1h-10.4V-239.1z"/>
		<path d="M3032.9-272.4l-26.6,51.6v24h-21.1v-24l-26.6-51.6h24l13.3,29.2l13.3-29.2H3032.9z"/>
	</g>
	<path d="M1533.9,12.3H226.3C101.3,12.3,0,113.7,0,238.7v0C0,363.7,101.3,465,226.3,465h1307.6c125,0,226.3-101.3,226.3-226.3v0
		C1760.2,113.7,1658.9,12.3,1533.9,12.3z M1533.9,449.9H226.3c-116.5,0-211.2-94.8-211.2-211.2c0-116.5,94.8-211.2,211.2-211.2
		h1307.6c116.5,0,211.2,94.8,211.2,211.2S1650.4,449.9,1533.9,449.9z M326.8,184.1c-11.4-6.9-24.1-10.4-38.2-10.4
		c-12.1,0-22.8,2.5-32.3,7.4c-6.4,3.4-11.9,7.5-16.5,12.3c-2.1,2.2-5.7,0.7-5.7-2.3v-66.8c0-1.8-1.5-3.3-3.3-3.3h-35
		c-1.8,0-3.3,1.5-3.3,3.3v213.4c0,1.8,1.5,3.3,3.3,3.3h35c1.8,0,3.3-1.5,3.3-3.3v-11.2c0-3,3.6-4.4,5.6-2.3
		c4.6,4.7,10.1,8.8,16.5,12.1c9.2,4.9,20,7.3,32.3,7.3c14.1,0,26.8-3.6,38.2-10.7c11.4-7.1,20.4-17.2,27.1-30.2
		c6.6-13,10-27.9,10-44.7c0-16.8-3.3-31.7-10-44.5C347.2,200.9,338.2,191,326.8,184.1z M315.2,284.3c-4.1,7.3-9.4,13-16.1,16.9
		c-6.6,4-13.8,5.9-21.6,5.9c-7.5,0-14.6-1.9-21.3-5.8c-6.6-3.9-12-9.5-16.1-16.8c-4.1-7.3-6.1-16-6.1-25.9c0-9.9,2-18.5,6.1-25.9
		c4.1-7.3,9.4-12.9,16.1-16.8c6.6-3.9,13.7-5.8,21.3-5.8c7.7,0,14.9,1.9,21.6,5.6c6.6,3.8,12,9.3,16.1,16.5
		c4.1,7.2,6.1,15.8,6.1,25.7C321.3,268.2,319.3,276.9,315.2,284.3z M498.8,183.8c-12.4-6.7-26.4-10.1-42.1-10.1
		c-16.3,0-30.6,3.5-43.1,10.4c-12.5,6.9-22.2,16.9-29.1,29.7c-6.9,12.9-10.4,27.9-10.4,44.9c0,16.9,3.5,31.7,10.6,44.6
		c7,12.9,16.8,22.8,29.4,29.9c12.6,7,26.8,10.6,42.7,10.6c19.6,0,36.2-5.1,49.7-15.3c12.2-9.2,20.8-20.8,25.9-34.6
		c0.8-2.2-0.8-4.5-3.1-4.5h-38.3c-1.2,0-2.3,0.7-2.9,1.8c-6.6,12.1-17.3,18.2-32.1,18.2c-10.7,0-19.7-3.4-27.1-10.1
		c-6.5-6-10.5-14-12-24.1c-0.3-2,1.2-3.9,3.3-3.9l113.8,0c1.6,0,3.1-1.2,3.3-2.8c0.5-4,0.8-8.4,0.8-13.2c0-16.1-3.4-30.3-10.3-42.7
		C520.8,200.1,511.2,190.5,498.8,183.8z M491.3,243.2l-70.7,0c-2.1,0-3.7-2-3.2-4.1c2-9.2,6.1-16.5,12.2-22c7-6.2,15.7-9.4,26-9.4
		c10.9,0,20.1,3.2,27.7,9.7c6.6,5.7,10.4,13,11.4,22C494.8,241.5,493.2,243.2,491.3,243.2z M731.4,179.6v27.6c0,1.8-1.5,3.3-3.3,3.3
		h-30.3c-1.8,0-3.3,1.5-3.3,3.3v76.4c0,5.6,1.3,9.6,4,12c2.7,2.5,7.2,3.7,13.5,3.7h16c1.8,0,3.3,1.5,3.3,3.3v28.5
		c0,1.8-1.5,3.3-3.3,3.3h-22.9c-35.1,0-52.6-17-52.6-51.1v-76.1c0-1.8-1.5-3.3-3.3-3.3h-13c-1,0-1.8-0.4-2.4-1.1
		c-0.6,0.6-1.5,1.1-2.4,1.1h-30.3c-1.8,0-3.3,1.5-3.3,3.3v76.4c0,5.6,1.3,9.6,4,12c2.7,2.5,7.2,3.7,13.5,3.7h16
		c1.8,0,3.3,1.5,3.3,3.3v28.5c0,1.8-1.5,3.3-3.3,3.3h-22.9c-35.1,0-52.6-17-52.6-51.1v-76.1c0-1.8-1.5-3.3-3.3-3.3h-13
		c-1.8,0-3.3-1.5-3.3-3.3v-27.6c0-1.8,1.5-3.3,3.3-3.3h13c1.8,0,3.3-1.5,3.3-3.3v-34.1c0-1.8,1.5-3.3,3.3-3.3h35.3
		c1.8,0,3.3,1.5,3.3,3.3V173c0,1.8,1.5,3.3,3.3,3.3h30.3c1,0,1.8,0.4,2.4,1.1c0.6-0.6,1.5-1.1,2.4-1.1h13c1.8,0,3.3-1.5,3.3-3.3
		v-34.1c0-1.8,1.5-3.3,3.3-3.3h35.3c1.8,0,3.3,1.5,3.3,3.3V173c0,1.8,1.5,3.3,3.3,3.3h30.3C729.9,176.3,731.4,177.8,731.4,179.6z
		 M900.3,176.3H865c-1.8,0-3.3,1.5-3.3,3.3v11.3c0,2.9-3.6,4.4-5.6,2.3c-4.6-4.7-10.1-8.7-16.5-12.2c-9.2-5-20-7.4-32.3-7.4
		c-14.1,0-26.8,3.5-38.2,10.4c-11.4,6.9-20.4,16.9-27.1,29.7c-6.6,12.9-10,27.7-10,44.3c0,16.9,3.3,31.8,10,44.7
		c6.6,13,15.7,23,27.1,30.2c11.4,7.1,24,10.7,37.9,10.7c12.3,0,23.1-2.5,32.6-7.6c6.4-3.5,11.9-7.6,16.5-12.3
		c2.1-2.1,5.7-0.7,5.7,2.3v11.6c0,1.8,1.5,3.3,3.3,3.3h35.3c1.8,0,3.3-1.5,3.3-3.3V179.6C903.6,177.8,902.1,176.3,900.3,176.3z
		 M855.7,284.7c-4,7.2-9.3,12.8-16.1,16.7c-6.7,3.9-14,5.8-21.7,5.8c-7.5,0-14.6-2-21.3-5.9c-6.6-4-12-9.7-16.1-17.1
		c-4.1-7.4-6.1-16.1-6.1-26c0-9.9,2-18.5,6.1-25.7c4.1-7.2,9.4-12.7,15.9-16.5c6.5-3.8,13.7-5.6,21.4-5.6c7.7,0,15,1.9,21.7,5.8
		c6.7,3.9,12.1,9.4,16.1,16.7c4,7.2,5.9,15.9,5.9,26C861.7,268.8,859.7,277.5,855.7,284.7z M1103.4,184.1
		c-11.4-6.9-24.1-10.4-38.2-10.4c-12.1,0-22.8,2.5-32.3,7.4c-6.4,3.4-11.9,7.5-16.5,12.3c-2.1,2.2-5.7,0.7-5.7-2.3v-66.8
		c0-1.8-1.5-3.3-3.3-3.3h-35c-1.8,0-3.3,1.5-3.3,3.3v213.4c0,1.8,1.5,3.3,3.3,3.3h35c1.8,0,3.3-1.5,3.3-3.3v-11.2
		c0-3,3.6-4.4,5.6-2.3c4.6,4.7,10.1,8.8,16.5,12.1c9.2,4.9,20,7.3,32.3,7.3c14.1,0,26.8-3.6,38.2-10.7c11.4-7.1,20.4-17.2,27.1-30.2
		c6.6-13,10-27.9,10-44.7c0-16.8-3.3-31.7-10-44.5C1123.8,200.9,1114.8,191,1103.4,184.1z M1091.8,284.3c-4.1,7.3-9.4,13-16.1,16.9
		c-6.6,4-13.8,5.9-21.6,5.9c-7.5,0-14.6-1.9-21.3-5.8c-6.6-3.9-12-9.5-16.1-16.8c-4.1-7.3-6.1-16-6.1-25.9c0-9.9,2-18.5,6.1-25.9
		c4.1-7.3,9.4-12.9,16.1-16.8c6.6-3.9,13.7-5.8,21.3-5.8c7.7,0,14.9,1.9,21.6,5.6c6.6,3.8,12,9.3,16.1,16.5
		c4.1,7.2,6.1,15.8,6.1,25.7C1097.9,268.2,1095.9,276.9,1091.8,284.3z M1279.1,183.8c-12.4-6.7-26.4-10.1-42.1-10.1
		c-16.3,0-30.6,3.5-43.1,10.4c-12.5,6.9-22.2,16.9-29.1,29.7c-6.9,12.9-10.4,27.9-10.4,44.9c0,16.9,3.5,31.7,10.6,44.6
		c7,12.9,16.8,22.8,29.4,29.9c12.6,7,26.8,10.6,42.7,10.6c19.6,0,36.2-5.1,49.7-15.3c12.2-9.2,20.8-20.8,25.9-34.6
		c0.8-2.2-0.8-4.5-3.1-4.5h-38.3c-1.2,0-2.3,0.7-2.9,1.8c-6.6,12.1-17.3,18.2-32.1,18.2c-10.7,0-19.7-3.4-27.1-10.1
		c-6.5-6-10.5-14-12-24.1c-0.3-2,1.2-3.9,3.3-3.9l113.8,0c1.6,0,3.1-1.2,3.3-2.8c0.5-4,0.8-8.4,0.8-13.2c0-16.1-3.4-30.3-10.3-42.7
		C1301.1,200.1,1291.5,190.5,1279.1,183.8z M1271.6,243.2l-70.7,0c-2.1,0-3.7-2-3.2-4.1c2-9.2,6.1-16.5,12.2-22
		c7-6.2,15.7-9.4,26-9.4c10.9,0,20.1,3.2,27.7,9.7c6.6,5.7,10.4,13,11.4,22C1275.1,241.5,1273.6,243.2,1271.6,243.2z M1419.2,179.6
		v27.6c0,1.8-1.5,3.3-3.3,3.3h-30.3c-1.8,0-3.3,1.5-3.3,3.3v76.4c0,5.6,1.3,9.6,4,12c2.7,2.5,7.2,3.7,13.5,3.7h16
		c1.8,0,3.3,1.5,3.3,3.3v28.5c0,1.8-1.5,3.3-3.3,3.3H1393c-35.1,0-52.6-17-52.6-51.1v-76.1c0-1.8-1.5-3.3-3.3-3.3h-13
		c-1.8,0-3.3-1.5-3.3-3.3v-27.6c0-1.8,1.5-3.3,3.3-3.3h13c1.8,0,3.3-1.5,3.3-3.3v-34.1c0-1.8,1.5-3.3,3.3-3.3h35.3
		c1.8,0,3.3,1.5,3.3,3.3V173c0,1.8,1.5,3.3,3.3,3.3h30.3C1417.7,176.3,1419.2,177.8,1419.2,179.6z M1558.9,267.8
		c5.6,6.6,8.6,15.4,8.8,26.3c0,9.5-2.6,18-7.9,25.6c-5.3,7.5-12.8,13.4-22.6,17.7c-9.8,4.3-21.3,6.4-34.3,6.4
		c-13.5,0-25.6-2.4-36.3-7.3c-10.7-4.9-19.2-11.4-25.4-19.8c-5.4-7.3-8.7-15.2-9.9-23.8c-0.3-2,1.2-3.8,3.3-3.8h35.5
		c1.5,0,2.8,1,3.2,2.4c1.2,5.3,4.2,9.7,8.9,13.3c5.4,4.2,12.2,6.2,20.4,6.2c7.9,0,14.1-1.6,18.6-4.8c4.5-3.2,6.7-7.2,6.7-12.2
		c0-5.4-2.7-9.4-8.2-12c-5.5-2.7-14.1-5.6-26-8.8c-12.3-3-22.4-6-30.2-9.2c-7.8-3.2-14.6-8-20.2-14.6s-8.5-15.4-8.5-26.5
		c0-9.1,2.6-17.4,7.9-25c5.2-7.5,12.8-13.5,22.6-17.8c9.8-4.4,21.4-6.5,34.6-6.5c19.6,0,35.3,4.9,47,14.7
		c10.8,9.1,17.2,21.1,19,36.1c0.2,1.9-1.3,3.6-3.3,3.6h-33.3c-1.5,0-2.9-1.1-3.2-2.6c-1-5.4-3.6-9.7-7.8-13
		c-4.9-3.9-11.4-5.8-19.5-5.8c-11.8,0-19.3,3.4-22.6,10.1c-0.1,0.3-0.2,0.6-0.3,0.9c-1.9,8,0.7,13.8,7.7,17.4
		c5.5,2.9,14.2,5.8,25.9,8.8c11.9,3,21.7,6,29.4,9.2C1546.6,256.2,1553.3,261.1,1558.9,267.8z M1593.3,168.2
		c2.6,1.5,4.6,3.6,6.1,6.3c1.5,2.7,2.2,5.7,2.2,9c0,3.3-0.7,6.3-2.2,8.9c-1.5,2.6-3.5,4.7-6.1,6.2c-2.6,1.5-5.5,2.3-8.8,2.3
		s-6.3-0.8-8.9-2.3c-2.6-1.5-4.7-3.6-6.1-6.2c-1.5-2.6-2.2-5.6-2.2-8.9c0-3.3,0.7-6.3,2.2-9c1.5-2.7,3.5-4.8,6.1-6.3
		s5.6-2.3,8.9-2.3S1590.7,166.7,1593.3,168.2z M1594.6,193.9c2.6-2.7,3.9-6.2,3.9-10.5c0-4.2-1.3-7.7-3.9-10.5
		c-2.6-2.7-6-4.1-10.2-4.1c-4.2,0-7.7,1.4-10.2,4.1c-2.6,2.7-3.9,6.2-3.9,10.5c0,4.2,1.3,7.7,3.9,10.5c2.6,2.7,6,4.1,10.2,4.1
		C1588.6,198,1592,196.6,1594.6,193.9z M1590.8,183.2c-0.8,1-1.9,1.6-3.4,1.9l5.2,7.5l-4.4,0.1l-4.8-7.4h-2v7.4h-3.7v-18.7h8.1
		c1.9,0,3.4,0.5,4.6,1.5c1.1,1,1.7,2.4,1.7,4.1C1592,181,1591.6,182.2,1590.8,183.2z M1581.4,182.1h4.1c0.8,0,1.5-0.2,2-0.6
		c0.5-0.4,0.8-1,0.8-1.8c0-0.8-0.3-1.4-0.8-1.8c-0.5-0.4-1.2-0.6-2-0.6h-4.1V182.1z"/>
	<path d="M3306.6,108.1h-1040c-99.4,0-180,80.6-180,180v0c0,99.4,80.6,180,180,180h1040c99.4,0,180-80.6,180-180v0
		C3486.6,188.7,3406,108.1,3306.6,108.1z M3306.6,456.1h-1040c-92.6,0-168-75.4-168-168c0-92.6,75.4-168,168-168h1040
		c92.6,0,168,75.4,168,168S3399.2,456.1,3306.6,456.1z M2346.5,244.7c-9.1-5.5-19.2-8.3-30.4-8.3c-9.6,0-18.2,2-25.7,5.9
		c-5.1,2.7-9.5,5.9-13.1,9.7c-1.6,1.7-4.5,0.6-4.5-1.8v-53.1c0-1.5-1.2-2.6-2.6-2.6h-27.8c-1.5,0-2.6,1.2-2.6,2.6v169.7
		c0,1.5,1.2,2.6,2.6,2.6h27.8c1.5,0,2.6-1.2,2.6-2.6v-8.9c0-2.4,2.8-3.5,4.5-1.8c3.7,3.8,8.1,7,13.1,9.7c7.3,3.9,15.9,5.8,25.7,5.8
		c11.2,0,21.3-2.8,30.4-8.5c9.1-5.7,16.2-13.7,21.5-24c5.3-10.3,7.9-22.2,7.9-35.6c0-13.4-2.6-25.2-7.9-35.4
		C2362.7,258.1,2355.5,250.2,2346.5,244.7z M2337.3,324.4c-3.2,5.8-7.5,10.3-12.8,13.5c-5.3,3.2-11,4.7-17.1,4.7
		c-6,0-11.6-1.5-16.9-4.6c-5.3-3.1-9.5-7.5-12.8-13.4c-3.2-5.8-4.8-12.7-4.8-20.6c0-7.9,1.6-14.7,4.8-20.6
		c3.2-5.8,7.5-10.3,12.8-13.4c5.3-3.1,10.9-4.6,16.9-4.6c6.1,0,11.9,1.5,17.1,4.5c5.3,3,9.5,7.4,12.8,13.1
		c3.2,5.8,4.8,12.6,4.8,20.5C2342.1,311.6,2340.5,318.6,2337.3,324.4z M2483.3,244.5c-9.9-5.4-21-8-33.5-8
		c-12.9,0-24.4,2.8-34.3,8.3c-9.9,5.5-17.7,13.4-23.2,23.6c-5.5,10.2-8.3,22.2-8.3,35.7c0,13.4,2.8,25.2,8.4,35.5
		c5.6,10.2,13.4,18.2,23.4,23.8c10,5.6,21.3,8.4,33.9,8.4c15.6,0,28.8-4.1,39.5-12.2c9.7-7.3,16.5-16.5,20.6-27.5
		c0.6-1.7-0.6-3.6-2.5-3.6h-30.5c-1,0-1.8,0.6-2.3,1.4c-5.3,9.6-13.8,14.4-25.5,14.4c-8.5,0-15.7-2.7-21.5-8
		c-5.2-4.8-8.4-11.1-9.6-19.1c-0.2-1.6,1-3.1,2.6-3.1l90.5,0c1.3,0,2.4-1,2.6-2.2c0.4-3.2,0.6-6.7,0.6-10.5
		c0-12.8-2.7-24.1-8.2-33.9C2500.8,257.4,2493.1,249.8,2483.3,244.5z M2477.3,291.8l-56.2,0c-1.7,0-2.9-1.6-2.6-3.2
		c1.6-7.3,4.8-13.1,9.7-17.5c5.6-5,12.5-7.4,20.7-7.4c8.7,0,16,2.6,22,7.7c5.3,4.5,8.3,10.3,9,17.5
		C2480.1,290.4,2478.9,291.8,2477.3,291.8z M2668.3,241.2v21.9c0,1.5-1.2,2.6-2.6,2.6h-24.1c-1.5,0-2.6,1.2-2.6,2.6v60.7
		c0,4.4,1.1,7.6,3.2,9.6c2.1,2,5.7,3,10.8,3h12.7c1.5,0,2.6,1.2,2.6,2.6v22.6c0,1.5-1.2,2.6-2.6,2.6h-18.2
		c-27.9,0-41.9-13.6-41.9-40.7v-60.5c0-1.5-1.2-2.6-2.6-2.6h-10.3c-0.8,0-1.4-0.3-1.9-0.8c-0.5,0.5-1.2,0.8-1.9,0.8h-24.1
		c-1.5,0-2.6,1.2-2.6,2.6v60.7c0,4.4,1.1,7.6,3.2,9.6c2.1,2,5.7,3,10.8,3h12.7c1.5,0,2.6,1.2,2.6,2.6v22.6c0,1.5-1.2,2.6-2.6,2.6
		h-18.2c-27.9,0-41.9-13.6-41.9-40.7v-60.5c0-1.5-1.2-2.6-2.6-2.6h-10.3c-1.5,0-2.6-1.2-2.6-2.6v-21.9c0-1.5,1.2-2.6,2.6-2.6h10.3
		c1.5,0,2.6-1.2,2.6-2.6v-27.1c0-1.5,1.2-2.6,2.6-2.6h28.1c1.5,0,2.6,1.2,2.6,2.6v27.1c0,1.5,1.2,2.6,2.6,2.6h24.1
		c0.8,0,1.4,0.3,1.9,0.8c0.5-0.5,1.2-0.8,1.9-0.8h10.3c1.5,0,2.6-1.2,2.6-2.6v-27.1c0-1.5,1.2-2.6,2.6-2.6h28.1
		c1.5,0,2.6,1.2,2.6,2.6v27.1c0,1.5,1.2,2.6,2.6,2.6h24.1C2667.1,238.6,2668.3,239.7,2668.3,241.2z M2802.6,238.6h-28.1
		c-1.5,0-2.6,1.2-2.6,2.6v9c0,2.3-2.8,3.5-4.5,1.8c-3.7-3.7-8.1-6.9-13.1-9.7c-7.3-3.9-15.9-5.9-25.7-5.9c-11.2,0-21.3,2.8-30.4,8.3
		c-9.1,5.5-16.2,13.4-21.5,23.6c-5.3,10.2-7.9,22-7.9,35.2c0,13.4,2.6,25.3,7.9,35.6c5.3,10.3,12.5,18.3,21.5,24
		c9.1,5.7,19.1,8.5,30.2,8.5c9.8,0,18.4-2,25.9-6c5.1-2.8,9.5-6,13.1-9.8c1.6-1.7,4.5-0.6,4.5,1.8v9.2c0,1.5,1.2,2.6,2.6,2.6h28.1
		c1.5,0,2.6-1.2,2.6-2.6V241.2C2805.2,239.7,2804,238.6,2802.6,238.6z M2767.1,324.8c-3.2,5.8-7.4,10.2-12.8,13.2
		c-5.4,3.1-11.1,4.6-17.3,4.6c-6,0-11.6-1.6-16.9-4.7c-5.3-3.2-9.5-7.7-12.8-13.6c-3.2-5.9-4.8-12.8-4.8-20.7
		c0-7.9,1.6-14.7,4.8-20.5c3.2-5.8,7.4-10.1,12.7-13.1c5.2-3,10.9-4.5,17-4.5c6.1,0,11.9,1.5,17.3,4.6c5.4,3.1,9.6,7.5,12.8,13.2
		c3.2,5.8,4.7,12.7,4.7,20.7C2771.9,312.1,2770.3,319,2767.1,324.8z M2964.2,244.7c-9.1-5.5-19.2-8.3-30.4-8.3
		c-9.6,0-18.2,2-25.7,5.9c-5.1,2.7-9.5,5.9-13.1,9.7c-1.6,1.7-4.5,0.6-4.5-1.8v-53.1c0-1.5-1.2-2.6-2.6-2.6H2860
		c-1.5,0-2.6,1.2-2.6,2.6v169.7c0,1.5,1.2,2.6,2.6,2.6h27.8c1.5,0,2.6-1.2,2.6-2.6v-8.9c0-2.4,2.8-3.5,4.5-1.8
		c3.7,3.8,8.1,7,13.1,9.7c7.3,3.9,15.9,5.8,25.7,5.8c11.2,0,21.3-2.8,30.4-8.5c9.1-5.7,16.2-13.7,21.5-24
		c5.3-10.3,7.9-22.2,7.9-35.6c0-13.4-2.6-25.2-7.9-35.4C2980.4,258.1,2973.2,250.2,2964.2,244.7z M2954.9,324.4
		c-3.2,5.8-7.5,10.3-12.8,13.5c-5.3,3.2-11,4.7-17.1,4.7c-6,0-11.6-1.5-16.9-4.6c-5.3-3.1-9.5-7.5-12.8-13.4
		c-3.2-5.8-4.8-12.7-4.8-20.6c0-7.9,1.6-14.7,4.8-20.6c3.2-5.8,7.5-10.3,12.8-13.4c5.3-3.1,10.9-4.6,16.9-4.6
		c6.1,0,11.9,1.5,17.1,4.5c5.3,3,9.5,7.4,12.8,13.1c3.2,5.8,4.8,12.6,4.8,20.5C2959.8,311.6,2958.2,318.6,2954.9,324.4z
		 M3103.9,244.5c-9.9-5.4-21-8-33.5-8c-12.9,0-24.4,2.8-34.3,8.3c-9.9,5.5-17.7,13.4-23.2,23.6c-5.5,10.2-8.3,22.2-8.3,35.7
		c0,13.4,2.8,25.2,8.4,35.5c5.6,10.2,13.4,18.2,23.4,23.8c10,5.6,21.3,8.4,33.9,8.4c15.6,0,28.8-4.1,39.5-12.2
		c9.7-7.3,16.5-16.5,20.6-27.5c0.6-1.7-0.6-3.6-2.5-3.6h-30.5c-1,0-1.8,0.6-2.3,1.4c-5.3,9.6-13.8,14.4-25.5,14.4
		c-8.5,0-15.7-2.7-21.5-8c-5.2-4.8-8.4-11.1-9.6-19.1c-0.2-1.6,1-3.1,2.6-3.1l90.5,0c1.3,0,2.4-1,2.6-2.2c0.4-3.2,0.6-6.7,0.6-10.5
		c0-12.8-2.7-24.1-8.2-33.9C3121.4,257.4,3113.8,249.8,3103.9,244.5z M3097.9,291.8l-56.2,0c-1.7,0-2.9-1.6-2.6-3.2
		c1.6-7.3,4.8-13.1,9.7-17.5c5.6-5,12.5-7.4,20.7-7.4c8.7,0,16,2.6,22,7.7c5.3,4.5,8.3,10.3,9,17.5
		C3100.7,290.4,3099.5,291.8,3097.9,291.8z M3215.3,241.2v21.9c0,1.5-1.2,2.6-2.6,2.6h-24.1c-1.5,0-2.6,1.2-2.6,2.6v60.7
		c0,4.4,1.1,7.6,3.2,9.6c2.1,2,5.7,3,10.8,3h12.7c1.5,0,2.6,1.2,2.6,2.6v22.6c0,1.5-1.2,2.6-2.6,2.6h-18.2
		c-27.9,0-41.9-13.6-41.9-40.7v-60.5c0-1.5-1.2-2.6-2.6-2.6h-10.3c-1.5,0-2.6-1.2-2.6-2.6v-21.9c0-1.5,1.2-2.6,2.6-2.6h10.3
		c1.5,0,2.6-1.2,2.6-2.6v-27.1c0-1.5,1.2-2.6,2.6-2.6h28.1c1.5,0,2.6,1.2,2.6,2.6v27.1c0,1.5,1.2,2.6,2.6,2.6h24.1
		C3214.1,238.6,3215.3,239.7,3215.3,241.2z M3326.5,311.3c4.5,5.3,6.8,12.3,7,20.9c0,7.6-2.1,14.3-6.3,20.3
		c-4.2,6-10.2,10.7-18,14.1c-7.8,3.4-16.9,5.1-27.3,5.1c-10.7,0-20.3-1.9-28.9-5.8c-8.5-3.9-15.3-9.1-20.2-15.7
		c-4.3-5.8-7-12.1-7.9-19c-0.2-1.6,1-3,2.6-3h28.3c1.2,0,2.3,0.8,2.5,1.9c1,4.2,3.3,7.7,7.1,10.6c4.3,3.3,9.7,5,16.2,5
		c6.3,0,11.2-1.3,14.8-3.8c3.5-2.5,5.3-5.8,5.3-9.7c0-4.3-2.2-7.4-6.5-9.6c-4.3-2.1-11.2-4.5-20.7-7c-9.8-2.4-17.8-4.8-24-7.3
		c-6.2-2.5-11.6-6.4-16.1-11.6s-6.7-12.2-6.7-21c0-7.3,2.1-13.9,6.3-19.9c4.2-6,10.2-10.7,18-14.2c7.8-3.5,17-5.2,27.6-5.2
		c15.6,0,28.1,3.9,37.4,11.7c8.6,7.2,13.6,16.8,15.1,28.7c0.2,1.5-1.1,2.9-2.6,2.9h-26.5c-1.2,0-2.3-0.8-2.6-2
		c-0.8-4.3-2.9-7.7-6.2-10.4c-3.9-3.1-9-4.6-15.5-4.6c-9.3,0-15.3,2.7-18,8c-0.1,0.2-0.2,0.5-0.2,0.7c-1.5,6.3,0.5,10.9,6.1,13.8
		c4.4,2.3,11.3,4.6,20.6,7c9.5,2.4,17.3,4.8,23.4,7.3C3316.6,302.1,3322,306,3326.5,311.3z M3353.8,232.1c2.1,1.2,3.7,2.9,4.9,5
		c1.2,2.1,1.8,4.5,1.8,7.1c0,2.6-0.6,5-1.8,7.1c-1.2,2.1-2.8,3.8-4.9,5c-2.1,1.2-4.4,1.8-7,1.8s-5-0.6-7.1-1.8
		c-2.1-1.2-3.7-2.9-4.9-5c-1.2-2.1-1.8-4.5-1.8-7.1c0-2.6,0.6-5,1.8-7.1c1.2-2.1,2.8-3.8,4.9-5c2.1-1.2,4.4-1.8,7.1-1.8
		S3351.7,230.9,3353.8,232.1z M3354.8,252.5c2.1-2.2,3.1-4.9,3.1-8.3c0-3.4-1-6.1-3.1-8.3c-2.1-2.2-4.7-3.3-8.1-3.3
		c-3.4,0-6.1,1.1-8.1,3.3c-2.1,2.2-3.1,4.9-3.1,8.3c0,3.4,1,6.1,3.1,8.3c2.1,2.2,4.8,3.3,8.1,3.3
		C3350.1,255.8,3352.8,254.7,3354.8,252.5z M3351.8,244c-0.6,0.8-1.5,1.3-2.7,1.5l4.2,6l-3.5,0.1l-3.8-5.9h-1.6v5.9h-3v-14.9h6.4
		c1.5,0,2.7,0.4,3.6,1.2c0.9,0.8,1.4,1.9,1.4,3.3C3352.8,242.3,3352.4,243.3,3351.8,244z M3344.3,243.2h3.3c0.6,0,1.2-0.2,1.6-0.5
		c0.4-0.3,0.6-0.8,0.6-1.5c0-0.6-0.2-1.1-0.6-1.4c-0.4-0.3-0.9-0.5-1.6-0.5h-3.3V243.2z"/>
	<path class="st1" d="M5196.7,108.1h-1040c-99.4,0-180,80.6-180,180v0c0,99.4,80.6,180,180,180h1040c99.4,0,180-80.6,180-180v0
		C5376.7,188.7,5296.1,108.1,5196.7,108.1z M5196.7,456.1h-1040c-92.6,0-168-75.4-168-168c0-92.6,75.4-168,168-168h1040
		c92.6,0,168,75.4,168,168S5289.3,456.1,5196.7,456.1z M4236.6,244.7c-9.1-5.5-19.2-8.3-30.4-8.3c-9.6,0-18.2,2-25.7,5.9
		c-5.1,2.7-9.5,5.9-13.1,9.7c-1.6,1.7-4.5,0.6-4.5-1.8v-53.1c0-1.5-1.2-2.6-2.6-2.6h-27.8c-1.5,0-2.6,1.2-2.6,2.6v169.7
		c0,1.5,1.2,2.6,2.6,2.6h27.8c1.5,0,2.6-1.2,2.6-2.6v-8.9c0-2.4,2.8-3.5,4.5-1.8c3.7,3.8,8.1,7,13.1,9.7c7.3,3.9,15.9,5.8,25.7,5.8
		c11.2,0,21.3-2.8,30.4-8.5c9.1-5.7,16.2-13.7,21.5-24c5.3-10.3,7.9-22.2,7.9-35.6c0-13.4-2.6-25.2-7.9-35.4
		C4252.8,258.1,4245.6,250.2,4236.6,244.7z M4227.4,324.4c-3.2,5.8-7.5,10.3-12.8,13.5c-5.3,3.2-11,4.7-17.1,4.7
		c-6,0-11.6-1.5-16.9-4.6c-5.3-3.1-9.5-7.5-12.8-13.4c-3.2-5.8-4.8-12.7-4.8-20.6c0-7.9,1.6-14.7,4.8-20.6
		c3.2-5.8,7.5-10.3,12.8-13.4c5.3-3.1,10.9-4.6,16.9-4.6c6.1,0,11.9,1.5,17.1,4.5c5.3,3,9.5,7.4,12.8,13.1
		c3.2,5.8,4.8,12.6,4.8,20.5C4232.2,311.6,4230.6,318.6,4227.4,324.4z M4373.4,244.5c-9.9-5.4-21-8-33.5-8
		c-12.9,0-24.4,2.8-34.3,8.3c-9.9,5.5-17.7,13.4-23.2,23.6c-5.5,10.2-8.3,22.2-8.3,35.7c0,13.4,2.8,25.2,8.4,35.5
		c5.6,10.2,13.4,18.2,23.4,23.8c10,5.6,21.3,8.4,33.9,8.4c15.6,0,28.8-4.1,39.5-12.2c9.7-7.3,16.5-16.5,20.6-27.5
		c0.6-1.7-0.6-3.6-2.5-3.6H4367c-1,0-1.8,0.6-2.3,1.4c-5.3,9.6-13.8,14.4-25.5,14.4c-8.5,0-15.7-2.7-21.5-8
		c-5.2-4.8-8.4-11.1-9.6-19.1c-0.2-1.6,1-3.1,2.6-3.1l90.5,0c1.3,0,2.4-1,2.6-2.2c0.4-3.2,0.6-6.7,0.6-10.5
		c0-12.8-2.7-24.1-8.2-33.9C4390.9,257.4,4383.2,249.8,4373.4,244.5z M4367.4,291.8l-56.2,0c-1.7,0-2.9-1.6-2.6-3.2
		c1.6-7.3,4.8-13.1,9.7-17.5c5.6-5,12.5-7.4,20.7-7.4c8.7,0,16,2.6,22,7.7c5.3,4.5,8.3,10.3,9,17.5
		C4370.2,290.4,4369,291.8,4367.4,291.8z M4558.4,241.2v21.9c0,1.5-1.2,2.6-2.6,2.6h-24.1c-1.5,0-2.6,1.2-2.6,2.6v60.7
		c0,4.4,1.1,7.6,3.2,9.6c2.1,2,5.7,3,10.8,3h12.7c1.5,0,2.6,1.2,2.6,2.6v22.6c0,1.5-1.2,2.6-2.6,2.6h-18.2
		c-27.9,0-41.9-13.6-41.9-40.7v-60.5c0-1.5-1.2-2.6-2.6-2.6h-10.3c-0.8,0-1.4-0.3-1.9-0.8c-0.5,0.5-1.2,0.8-1.9,0.8h-24.1
		c-1.5,0-2.6,1.2-2.6,2.6v60.7c0,4.4,1.1,7.6,3.2,9.6c2.1,2,5.7,3,10.8,3h12.7c1.5,0,2.6,1.2,2.6,2.6v22.6c0,1.5-1.2,2.6-2.6,2.6
		h-18.2c-27.9,0-41.9-13.6-41.9-40.7v-60.5c0-1.5-1.2-2.6-2.6-2.6h-10.3c-1.5,0-2.6-1.2-2.6-2.6v-21.9c0-1.5,1.2-2.6,2.6-2.6h10.3
		c1.5,0,2.6-1.2,2.6-2.6v-27.1c0-1.5,1.2-2.6,2.6-2.6h28.1c1.5,0,2.6,1.2,2.6,2.6v27.1c0,1.5,1.2,2.6,2.6,2.6h24.1
		c0.8,0,1.4,0.3,1.9,0.8c0.5-0.5,1.2-0.8,1.9-0.8h10.3c1.5,0,2.6-1.2,2.6-2.6v-27.1c0-1.5,1.2-2.6,2.6-2.6h28.1
		c1.5,0,2.6,1.2,2.6,2.6v27.1c0,1.5,1.2,2.6,2.6,2.6h24.1C4557.2,238.6,4558.4,239.7,4558.4,241.2z M4692.7,238.6h-28.1
		c-1.5,0-2.6,1.2-2.6,2.6v9c0,2.3-2.8,3.5-4.5,1.8c-3.7-3.7-8.1-6.9-13.1-9.7c-7.3-3.9-15.9-5.9-25.7-5.9c-11.2,0-21.3,2.8-30.4,8.3
		c-9.1,5.5-16.2,13.4-21.5,23.6c-5.3,10.2-7.9,22-7.9,35.2c0,13.4,2.6,25.3,7.9,35.6c5.3,10.3,12.5,18.3,21.5,24
		c9.1,5.7,19.1,8.5,30.2,8.5c9.8,0,18.4-2,25.9-6c5.1-2.8,9.5-6,13.1-9.8c1.6-1.7,4.5-0.6,4.5,1.8v9.2c0,1.5,1.2,2.6,2.6,2.6h28.1
		c1.5,0,2.6-1.2,2.6-2.6V241.2C4695.3,239.7,4694.1,238.6,4692.7,238.6z M4657.2,324.8c-3.2,5.8-7.4,10.2-12.8,13.2
		c-5.4,3.1-11.1,4.6-17.3,4.6c-6,0-11.6-1.6-16.9-4.7c-5.3-3.2-9.5-7.7-12.8-13.6c-3.2-5.9-4.8-12.8-4.8-20.7
		c0-7.9,1.6-14.7,4.8-20.5c3.2-5.8,7.4-10.1,12.7-13.1c5.2-3,10.9-4.5,17-4.5c6.1,0,11.9,1.5,17.3,4.6c5.4,3.1,9.6,7.5,12.8,13.2
		c3.2,5.8,4.7,12.7,4.7,20.7C4662,312.1,4660.4,319,4657.2,324.8z M4854.3,244.7c-9.1-5.5-19.2-8.3-30.4-8.3c-9.6,0-18.2,2-25.7,5.9
		c-5.1,2.7-9.5,5.9-13.1,9.7c-1.6,1.7-4.5,0.6-4.5-1.8v-53.1c0-1.5-1.2-2.6-2.6-2.6h-27.8c-1.5,0-2.6,1.2-2.6,2.6v169.7
		c0,1.5,1.2,2.6,2.6,2.6h27.8c1.5,0,2.6-1.2,2.6-2.6v-8.9c0-2.4,2.8-3.5,4.5-1.8c3.7,3.8,8.1,7,13.1,9.7c7.3,3.9,15.9,5.8,25.7,5.8
		c11.2,0,21.3-2.8,30.4-8.5c9.1-5.7,16.2-13.7,21.5-24c5.3-10.3,7.9-22.2,7.9-35.6c0-13.4-2.6-25.2-7.9-35.4
		C4870.5,258.1,4863.3,250.2,4854.3,244.7z M4845,324.4c-3.2,5.8-7.5,10.3-12.8,13.5c-5.3,3.2-11,4.7-17.1,4.7
		c-6,0-11.6-1.5-16.9-4.6c-5.3-3.1-9.5-7.5-12.8-13.4c-3.2-5.8-4.8-12.7-4.8-20.6c0-7.9,1.6-14.7,4.8-20.6
		c3.2-5.8,7.5-10.3,12.8-13.4c5.3-3.1,10.9-4.6,16.9-4.6c6.1,0,11.9,1.5,17.1,4.5c5.3,3,9.5,7.4,12.8,13.1
		c3.2,5.8,4.8,12.6,4.8,20.5C4849.9,311.6,4848.3,318.6,4845,324.4z M4994,244.5c-9.9-5.4-21-8-33.5-8c-12.9,0-24.4,2.8-34.3,8.3
		c-9.9,5.5-17.7,13.4-23.2,23.6c-5.5,10.2-8.3,22.2-8.3,35.7c0,13.4,2.8,25.2,8.4,35.5c5.6,10.2,13.4,18.2,23.4,23.8
		c10,5.6,21.3,8.4,33.9,8.4c15.6,0,28.8-4.1,39.5-12.2c9.7-7.3,16.5-16.5,20.6-27.5c0.6-1.7-0.6-3.6-2.5-3.6h-30.5
		c-1,0-1.8,0.6-2.3,1.4c-5.3,9.6-13.8,14.4-25.5,14.4c-8.5,0-15.7-2.7-21.5-8c-5.2-4.8-8.4-11.1-9.6-19.1c-0.2-1.6,1-3.1,2.6-3.1
		l90.5,0c1.3,0,2.4-1,2.6-2.2c0.4-3.2,0.6-6.7,0.6-10.5c0-12.8-2.7-24.1-8.2-33.9C5011.5,257.4,5003.9,249.8,4994,244.5z
		 M4988,291.8l-56.2,0c-1.7,0-2.9-1.6-2.6-3.2c1.6-7.3,4.8-13.1,9.7-17.5c5.6-5,12.5-7.4,20.7-7.4c8.7,0,16,2.6,22,7.7
		c5.3,4.5,8.3,10.3,9,17.5C4990.8,290.4,4989.6,291.8,4988,291.8z M5105.4,241.2v21.9c0,1.5-1.2,2.6-2.6,2.6h-24.1
		c-1.5,0-2.6,1.2-2.6,2.6v60.7c0,4.4,1.1,7.6,3.2,9.6c2.1,2,5.7,3,10.8,3h12.7c1.5,0,2.6,1.2,2.6,2.6v22.6c0,1.5-1.2,2.6-2.6,2.6
		h-18.2c-27.9,0-41.9-13.6-41.9-40.7v-60.5c0-1.5-1.2-2.6-2.6-2.6h-10.3c-1.5,0-2.6-1.2-2.6-2.6v-21.9c0-1.5,1.2-2.6,2.6-2.6h10.3
		c1.5,0,2.6-1.2,2.6-2.6v-27.1c0-1.5,1.2-2.6,2.6-2.6h28.1c1.5,0,2.6,1.2,2.6,2.6v27.1c0,1.5,1.2,2.6,2.6,2.6h24.1
		C5104.2,238.6,5105.4,239.7,5105.4,241.2z M5216.6,311.3c4.5,5.3,6.8,12.3,7,20.9c0,7.6-2.1,14.3-6.3,20.3
		c-4.2,6-10.2,10.7-18,14.1c-7.8,3.4-16.9,5.1-27.3,5.1c-10.7,0-20.3-1.9-28.9-5.8c-8.5-3.9-15.3-9.1-20.2-15.7
		c-4.3-5.8-7-12.1-7.9-19c-0.2-1.6,1-3,2.6-3h28.3c1.2,0,2.3,0.8,2.5,1.9c1,4.2,3.3,7.7,7.1,10.6c4.3,3.3,9.7,5,16.2,5
		c6.3,0,11.2-1.3,14.8-3.8c3.5-2.5,5.3-5.8,5.3-9.7c0-4.3-2.2-7.4-6.5-9.6c-4.3-2.1-11.2-4.5-20.7-7c-9.8-2.4-17.8-4.8-24-7.3
		c-6.2-2.5-11.6-6.4-16.1-11.6c-4.5-5.2-6.7-12.2-6.7-21c0-7.3,2.1-13.9,6.3-19.9c4.2-6,10.2-10.7,18-14.2c7.8-3.5,17-5.2,27.6-5.2
		c15.6,0,28.1,3.9,37.4,11.7c8.6,7.2,13.6,16.8,15.1,28.7c0.2,1.5-1.1,2.9-2.6,2.9h-26.5c-1.2,0-2.3-0.8-2.6-2
		c-0.8-4.3-2.9-7.7-6.2-10.4c-3.9-3.1-9-4.6-15.5-4.6c-9.3,0-15.3,2.7-18,8c-0.1,0.2-0.2,0.5-0.2,0.7c-1.5,6.3,0.5,10.9,6.1,13.8
		c4.4,2.3,11.3,4.6,20.6,7c9.5,2.4,17.3,4.8,23.4,7.3C5206.7,302.1,5212.1,306,5216.6,311.3z M5243.9,232.1c2.1,1.2,3.7,2.9,4.9,5
		c1.2,2.1,1.8,4.5,1.8,7.1c0,2.6-0.6,5-1.8,7.1c-1.2,2.1-2.8,3.8-4.9,5c-2.1,1.2-4.4,1.8-7,1.8s-5-0.6-7.1-1.8
		c-2.1-1.2-3.7-2.9-4.9-5c-1.2-2.1-1.8-4.5-1.8-7.1c0-2.6,0.6-5,1.8-7.1c1.2-2.1,2.8-3.8,4.9-5c2.1-1.2,4.4-1.8,7.1-1.8
		S5241.8,230.9,5243.9,232.1z M5244.9,252.5c2.1-2.2,3.1-4.9,3.1-8.3c0-3.4-1-6.1-3.1-8.3c-2.1-2.2-4.7-3.3-8.1-3.3
		c-3.4,0-6.1,1.1-8.1,3.3c-2.1,2.2-3.1,4.9-3.1,8.3c0,3.4,1,6.1,3.1,8.3c2.1,2.2,4.8,3.3,8.1,3.3
		C5240.2,255.8,5242.9,254.7,5244.9,252.5z M5241.9,244c-0.6,0.8-1.5,1.3-2.7,1.5l4.2,6l-3.5,0.1l-3.8-5.9h-1.6v5.9h-3v-14.9h6.4
		c1.5,0,2.7,0.4,3.6,1.2c0.9,0.8,1.4,1.9,1.4,3.3C5242.9,242.3,5242.5,243.3,5241.9,244z M5234.4,243.2h3.3c0.6,0,1.2-0.2,1.6-0.5
		c0.4-0.3,0.6-0.8,0.6-1.5c0-0.6-0.2-1.1-0.6-1.4c-0.4-0.3-0.9-0.5-1.6-0.5h-3.3V243.2z"/>
</g>
<g id="Clear_space">
</g>
</svg>
