<?xml version="1.0" encoding="utf-8"?>
<!-- Generator: Adobe Illustrator 16.0.0, SVG Export Plug-In . SVG Version: 6.00 Build 0)  -->
<!DOCTYPE svg PUBLIC "-//W3C//DTD SVG 1.1//EN" "http://www.w3.org/Graphics/SVG/1.1/DTD/svg11.dtd">
<svg version="1.1" id="Layer_1" xmlns="http://www.w3.org/2000/svg" xmlns:xlink="http://www.w3.org/1999/xlink" x="0px" y="0px"
	 width="940px" height="274px" viewBox="0 0 940 274" enable-background="new 0 0 940 274" xml:space="preserve">
<g>
	<path fill="#FFFFFF" d="M64,8c0,17.615,0,35.231,0,52.225c10.419-0.801,20.33-2.338,30.212-2.179
		c30.247,0.488,52.356,17.804,60.851,46.914c5.371,18.404,5.235,36.964-0.445,55.129c-8.83,28.235-29.515,42.985-57.817,47.804
		c-27.398,4.664-54.008,0.437-80.071-8.373c-1.569-0.528-3.153-1.014-4.73-1.52c0-63.334,0-126.666,0-190C29.405,8,46.703,8,64,8z
		 M64.058,98.035c0,24.087-0.033,46.35,0.1,68.613c0.006,1.07,1.3,2.859,2.284,3.094c17.814,4.225,34.521-1.417,38.978-20.646
		c2.014-8.688,2.01-18.202,1.049-27.141c-1.35-12.553-8.327-22.012-21.367-24.368C78.495,96.393,71.418,97.792,64.058,98.035z"/>
	<path fill="#FFFFFF" d="M794,266c-7.163-2.002-14.34-3.957-21.48-6.036c-1.891-0.55-3.671-1.479-6.229-2.536
		c4.359-11.762,8.653-23.344,12.873-34.725c5.438,1.715,10.406,3.662,15.552,4.824c10.265,2.32,15.258-1.321,20.587-10.287
		c7.113-11.967,5.92-22.264,0.075-34.674c-18.063-38.354-34.709-77.375-51.896-116.144c-0.662-1.495-1.207-3.043-1.994-5.041
		c1.285-0.139,2.182-0.319,3.078-0.32c16.498-0.018,32.998,0.064,49.494-0.083c3.012-0.026,4.274,0.925,5.256,3.796
		c8.443,24.69,17.076,49.316,25.666,73.956c0.641,1.84,1.377,3.645,2.39,6.312c9.836-28.556,19.349-56.173,28.946-84.042
		c18.045,0,35.862,0,53.682,0c0,0.666,0,1.334,0,2c-0.79,1.391-1.727,2.719-2.348,4.182c-7.283,17.125-14.525,34.27-21.768,51.413
		c-15.972,37.808-32.054,75.569-47.854,113.45c-7.073,16.961-18.509,28.561-36.896,32.488c-1.737,0.371-3.425,0.973-5.136,1.467
		C808.667,266,801.333,266,794,266z"/>
	<path fill="#FFFFFF" d="M641.166,61.049c-6.227,17.565-12.206,34.451-18.196,51.332c-10.612,29.908-21.288,59.794-31.77,89.748
		c-1.124,3.213-2.562,4.379-5.991,4.303c-10.323-0.229-20.659-0.25-30.981,0.006c-3.669,0.092-5.148-1.172-6.163-4.627
		c-6.455-21.998-13.137-43.929-19.764-65.875c-0.359-1.194-0.902-2.335-1.727-4.437c-7.101,23.953-13.992,46.834-20.581,69.802
		c-1.115,3.888-2.661,5.29-6.798,5.157c-10.318-0.33-20.655-0.201-30.981-0.049c-2.801,0.041-4.095-0.938-5.016-3.555
		C442.719,144.71,422.162,86.595,401.634,28.47c-0.37-1.049-0.563-2.158-0.952-3.684c1.799-0.156,3.226-0.386,4.651-0.389
		c13.661-0.027,27.323,0.101,40.979-0.098c3.438-0.051,4.887,1.063,5.943,4.332c11.104,34.295,22.383,68.534,33.615,102.788
		c0.464,1.415,0.952,2.821,2.418,4.46c7.232-24.865,14.467-49.73,21.767-74.826c10.727,0,21.208-0.124,31.68,0.17
		c1.204,0.033,2.974,2.213,3.419,3.713c6.387,21.497,12.587,43.051,18.848,64.586c0.639,2.195,1.381,4.359,2.424,7.637
		c6.766-24.322,13.337-47.44,19.525-70.661c1.163-4.364,2.897-5.661,7.381-5.571C608.979,61.242,624.635,61.049,641.166,61.049z"/>
	<path fill="#FFFFFF" d="M305.559,181.48c-9.122,11.36-20.078,19.057-33.217,23.153c-18.985,5.921-38.309,6.617-57.59,1.31
		c-28.266-7.781-47.756-32.096-49.681-61.504c-0.899-13.729-0.396-27.297,4.282-40.418c10.566-29.639,36.123-46.506,69.874-46.152
		c38.188,0.398,63.744,23.453,68.659,62.104c0.901,7.093,1.285,14.251,1.868,21.382c0.05,0.61-0.208,1.248-0.429,2.449
		c-31.152,0-62.215,0-93.242,0c-0.49,10.903,5.031,20.617,14.761,24.428c16.732,6.553,30.93,1.973,42.854-11.727
		C284.248,164.775,294.686,172.957,305.559,181.48z M259.868,115.563c0.895-12.757-8.749-24.246-20.343-24.543
		c-12.193-0.312-23.274,11.287-23.208,24.543C230.84,115.563,245.364,115.563,259.868,115.563z"/>
	<path fill="#FFFFFF" d="M765.798,206.326c-13.882,0-27.51,0.07-41.134-0.126c-1.153-0.017-2.688-1.601-3.334-2.831
		c-1.205-2.287-1.887-4.85-2.987-7.844c-12.359,9.817-26.188,13.658-41.263,13.312c-22.554-0.521-39.42-12.95-44.35-32.565
		c-5.009-19.928,2.328-37.768,19.864-48.455c13.186-8.033,27.985-10.132,42.908-11.748c6.265-0.68,12.554-1.113,18.741-1.65
		c2.458-11.533-4.612-19.924-17.126-20.396c-9.288-0.35-17.656,2.69-25.389,7.654c-2.1,1.347-4.149,2.771-6.7,4.479
		c-7.606-8.462-15.247-16.962-23.234-25.848c9.377-8.499,19.818-14.802,31.725-18.267c20.469-5.956,41.06-6.451,61.259,1.126
		c18.622,6.985,29.974,21.032,30.679,40.548C766.684,137.617,765.798,171.596,765.798,206.326z M714.947,139.886
		c-8.941,1.771-17.194,2.794-25.046,5.149c-6.608,1.984-10.587,9.828-9.737,16.389c0.854,6.596,5.335,11.17,12.564,12.313
		c7.418,1.174,14.207-0.846,20.327-5.035c0.921-0.631,1.788-2.077,1.81-3.162C715.018,157.568,714.947,149.593,714.947,139.886z"/>
	<path fill="#FFFFFF" d="M380.834,24.723c0,12.015,0,23.787,0,36.326c6.111,0,11.875,0.188,17.618-0.072
		c3.302-0.148,5.014,0.713,6.119,4.091c3.497,10.688,7.401,21.243,11.396,32.55c-11.902,0-23.133,0-34.751,0
		c-0.099,2.138-0.233,3.749-0.235,5.36c-0.016,17.495-0.02,34.989,0.004,52.484c0.003,1.995,0.021,4.013,0.314,5.979
		c1.36,9.125,5.278,11.797,14.194,8.988c4.537-1.431,8.73-3.949,13.641-6.236c4.077,9.559,8.382,19.397,12.344,29.375
		c0.343,0.861-1.27,3.105-2.495,3.895c-14.06,9.027-29.654,12.361-46.158,11.737c-5.125-0.194-10.365-0.569-15.308-1.83
		c-17.884-4.562-27.931-17.767-28.384-38.045c-0.482-21.649-0.226-43.315-0.29-64.974c-0.006-1.967,0-3.934,0-6.529
		c-7.021,0-13.577,0-20.416,0c0-12.404,0-24.166,0-36.494c6.507,0,13.079,0,20.234,0c0-12.452,0-24.364,0-36.605
		C346.317,24.723,363.382,24.723,380.834,24.723z"/>
</g>
</svg>
