<svg width="250" height="57" viewBox="0 0 250 57" fill="none" xmlns="http://www.w3.org/2000/svg">
<path d="M59.1587 0L86.5225 26.7732L86.9481 26.5788L104.925 8.54318C107.616 7.40635 109.376 10.349 107.413 12.3854L89.7558 30.0548L102.574 42.8854C104.063 45.0302 102.104 47.4712 99.7507 46.3863C95.3398 42.0514 91.0933 37.4363 86.5203 33.3342L65.6861 54.1475C63.7858 56.0821 60.5525 53.7633 62.0791 51.4376L83.0145 30.5136L83.2352 30.0526L83.0145 29.5915L56.9094 3.49186C55.9074 1.97759 56.9702 0.524343 58.4855 0H59.161H59.1587Z" fill="white"/>
<path d="M206.957 43.4457C204.115 41.4297 204.07 37.6576 206.941 35.6596C206.504 34.5545 205.644 33.8606 205.207 32.7034C204.331 30.3868 204.23 26.6599 204.768 24.262C206.344 17.2489 215.101 15.3911 220.55 19.1315C221.297 17.0748 226.226 14.4079 226.748 17.6896C227.102 19.909 224.737 19.5813 223.616 20.6119C222.495 21.6425 223.2 21.6764 223.553 22.6731C226.325 30.5021 222.522 39.0295 213.358 38.2768C212.092 38.1729 209.118 36.679 208.983 38.8486C208.918 39.8906 209.85 40.2341 210.658 40.5279C215.576 42.3202 225.316 40.3697 225.859 48.0518C226.669 59.5512 206.02 59.2122 203.471 51.3221C202.458 48.1874 203.84 44.5893 206.954 43.4434L206.957 43.4457ZM212.971 20.9893C209.017 21.6538 208.627 26.6373 209.005 29.8037C209.778 36.2767 219.102 36.4394 219.777 29.6003C220.261 24.7004 218.904 19.9904 212.971 20.9893ZM211.617 44.6255C210.334 44.8922 207.968 46.5149 207.684 47.8891C206.261 54.7485 220.545 54.8705 221.34 49.8508C221.705 47.5433 220.817 46.2889 218.717 45.525C217.402 45.0481 212.89 44.361 211.62 44.6255H211.617Z" fill="white"/>
<path d="M4.49421 20.0355C10.9428 13.9468 20.7756 18.5415 21.3768 27.1164C21.5434 29.503 21.6019 34.2967 21.0751 36.5161C19.285 44.0739 9.95887 47.6675 4.37938 41.6488C4.57527 44.2931 1.70222 45.3057 0.110329 43.2173L0 3.27005C0.423303 1.04159 4.49421 1.84618 4.49421 3.26553V20.0377V20.0355ZM9.38471 21.665C6.94622 22.056 4.75765 24.4404 4.49196 26.8994C4.29832 28.7007 4.24428 34.1792 4.50772 35.8901C4.71037 37.2009 6.58146 39.0361 7.74779 39.626C11.9538 41.7528 16.4232 38.7943 16.8623 34.3261C17.3892 28.99 17.0312 20.4355 9.38246 21.6627L9.38471 21.665Z" fill="white"/>
<path d="M134.52 20.036C140.233 14.0671 150.277 18.4313 151.144 26.2513C151.707 31.3297 150.763 37.2761 151.182 42.4494C150.932 44.9966 146.927 45.148 146.659 42.2212C146.24 37.6445 147.071 32.392 146.677 27.7949C146.033 20.2846 135.957 19.6518 134.619 26.1021C133.732 30.3827 134.959 37.3303 134.532 41.9974C134.291 44.601 131.114 45.313 129.97 42.9376C129.576 29.8358 129.891 16.6391 129.81 3.50337C130.073 1.81734 132.438 1.37436 133.707 2.2784C133.912 2.4253 134.52 3.36551 134.52 3.48981V20.036Z" fill="white"/>
<path d="M29.4646 32.4164V35.6799C29.4646 35.7839 29.9779 36.8462 30.0973 37.0722C31.9481 40.6024 37.2281 41.294 40.6393 39.8837C42.1006 39.2803 44.1721 37.1241 45.406 39.5334C46.6151 41.8952 42.9832 43.6784 41.1122 44.1824C34.936 45.8504 26.7334 43.5519 25.1077 36.6586C24.4277 33.7747 24.4525 26.9831 25.4049 24.1873C28.2194 15.9312 40.5493 14.8034 44.9894 22.3883C46.3404 24.6981 47.4212 30.0093 44.8341 31.6999C44.6382 31.8287 43.3953 32.4118 43.2962 32.4118H29.4623L29.4646 32.4164ZM29.4646 28.816H41.2743C42.4158 28.816 41.7178 25.7061 41.3576 24.906C38.3697 18.241 27.974 21.4933 29.4646 28.816Z" fill="white"/>
<path d="M233.053 32.4168V35.6804C233.053 35.7844 233.566 36.8466 233.686 37.0727C235.536 40.6029 240.816 41.2945 244.228 39.8842C245.689 39.2808 247.76 37.1246 248.994 39.5339C250.219 41.9251 246.578 43.6744 244.7 44.1829C239.301 45.6452 231.99 44.088 229.412 38.6457C227.964 35.5878 227.865 27.187 229.054 24.0228C232.114 15.8842 244.144 14.8536 248.58 22.391C249.94 24.7031 251.045 30.1929 248.332 31.836C248.186 31.9241 246.963 32.4146 246.887 32.4146H233.053V32.4168ZM233.053 28.8165H244.863C246.004 28.8165 245.306 25.7066 244.946 24.9065C241.953 18.2347 231.612 21.4915 233.053 28.8165Z" fill="white"/>
<path d="M170.287 41.4235C168.938 42.3027 167.772 43.435 166.236 44.009C160.461 46.172 154.253 43.3355 154.541 36.5891C154.884 28.5997 164.19 28.941 170.064 28.8166C170.199 23.1122 166.819 20.1514 161.17 21.8284C159.83 22.2262 158.16 23.6885 157.011 22.3392C154.361 19.2225 159.875 17.5839 162.105 17.3602C178.595 15.7103 173.869 32.3288 174.558 42.879C173.293 45.4306 169.598 44.5402 170.287 41.4212V41.4235ZM170.064 32.417C167.513 32.5549 160.188 32.1865 159.371 35.337C158.293 39.4934 161.591 41.5998 165.338 40.4064C166.633 39.9951 170.064 37.5271 170.064 36.1303V32.4147V32.417Z" fill="white"/>
<path d="M182.817 43.6038C181.572 45.0119 178.852 44.3836 178.627 42.4195C179.107 35.1895 177.94 27.0328 178.605 19.9135C178.922 16.5188 183.085 16.8216 183.225 20.0332C189.196 13.9581 199.355 18.5416 199.993 26.6666C200.407 31.9191 199.707 37.7479 199.939 43.0614C198.689 45.0435 195.71 44.7791 195.476 42.2184C195.046 37.5264 196.194 31.2275 195.384 26.7774C194.152 20.0106 183.961 19.8072 183.331 27.1187C182.919 31.8897 183.869 37.5309 183.344 42.2139C183.297 42.6342 183.092 43.2919 182.817 43.6038Z" fill="white"/>
<path d="M54.6602 17.5587H61.5208C62.0837 17.5587 62.9709 18.8357 62.9979 19.4776C63.0294 20.2098 62.1873 21.6111 61.5208 21.6111H54.6602V36.8058C54.6602 36.9911 55.0745 38.2635 55.2051 38.5121C56.6889 41.3282 62.7435 38.5054 62.9754 41.9972C63.2005 45.3715 57.2901 44.3839 55.3334 43.785C52.636 42.9578 51.0824 41.2966 50.4519 38.5393C49.7832 28.0434 50.3393 17.4118 50.166 6.86847C50.7019 5.49207 52.3208 5.05135 53.5974 5.6774C53.8113 5.78136 54.6602 6.55206 54.6602 6.63794V17.5565V17.5587Z" fill="white"/>
<path d="M108.953 42.0175C107.246 40.3721 106.15 37.5605 105.954 35.2258C105.098 25.026 106.548 16.0512 119.083 17.3598C121.251 17.5858 126.081 19.3351 124.901 22.228C123.782 24.9763 121.35 22.558 119.828 22.0178C116.527 20.8471 111.981 21.8076 110.833 25.4826C110.203 27.4986 110.2 34.41 110.833 36.4237C112.171 40.675 117.451 41.1157 121.019 39.5042C122.404 38.8782 123.883 37.1673 125.115 39.4635C126.34 41.7462 123.543 43.3577 121.688 44.0018C117.896 45.3149 111.959 44.9126 108.953 42.0197V42.0175Z" fill="white"/>
</svg>
