<svg width="109" height="76" viewBox="0 0 109 76" fill="none" xmlns="http://www.w3.org/2000/svg">
<path d="M62.5073 41.7C42.6167 41.7 42.2682 55.4847 42.2682 55.4847C42.2682 55.4847 39.1306 75.3753 59.4537 75.3753H75.8582V71.5309C75.8582 68.8362 73.6723 66.6503 70.9769 66.6503H62.5073C62.5073 66.6503 57.7673 67.0459 57.7673 62.1557H79.4101C79.4101 62.1557 82.3882 41.7 62.4975 41.7H62.5073ZM65.6351 55.1361H57.437C57.437 55.1361 56.8437 48.8986 61.5361 48.8986C66.2285 48.8986 65.6351 55.1361 65.6351 55.1361ZM28.2945 41.7C16.8188 41.2571 15.4711 46.5148 15.4711 46.5148V28H5.70984C2.55263 28 0 30.5629 0 33.7099V75.3846H14.6231V69.5239C14.6231 69.5239 17.93 75.3846 25.6187 75.3846C33.3074 75.3846 39.6008 69.2319 39.2803 58.5471C39.2803 58.5471 39.7715 42.1429 28.2945 41.7094V41.7ZM19.0986 64.9447C16.7992 64.9447 14.9337 61.6658 14.9337 57.6237C14.9337 53.5815 16.7992 50.3025 19.0986 50.3025C21.3979 50.3025 23.2634 53.5815 23.2634 57.6237C23.2634 61.6658 21.3979 64.9447 19.0986 64.9447ZM79.5794 50.67V41.1347H85.5916V28.7821H95.4844C98.4527 28.7821 100.865 31.1847 100.865 34.1622V41.0499H108.13V50.6794H100.865V60.4032C100.865 61.3831 101.091 62.3536 101.628 63.1734C102.524 64.5491 104.389 65.9059 108.13 64.0496V73.6981C108.13 73.6981 104.775 75.7428 97.2841 75.7428C89.7942 75.7428 85.2991 71.2012 85.2431 65.0673C85.1857 58.9333 85.2431 50.6324 85.2431 50.6324L79.571 50.6794L79.5794 50.67Z" fill="black"/>
<path d="M14.5868 0.000904829C0.373896 0.000904829 0.124785 9.85769 0.124785 9.85769C0.124785 9.85769 -2.11722 24.0705 12.4054 24.0705H24.1271V21.3235C24.1271 19.398 22.5651 17.836 20.6395 17.836H14.5868C14.5868 17.836 11.2002 18.1188 11.2002 14.6245H26.6653C26.6653 14.6245 28.7929 0.00763491 14.58 0.00763491L14.5868 0.000904829ZM16.8221 9.60179H10.9646C10.9646 9.60179 10.5404 5.14468 13.8933 5.14468C17.2462 5.14468 16.8221 9.60179 16.8221 9.60179ZM44.9246 0.000904829H30.4491L30.4963 2.49199C30.5299 4.20219 31.9304 5.57559 33.6405 5.57559H43.881V8.82079C31.284 7.42039 27.8166 12.1805 27.8166 16.4356C27.8166 20.6907 30.503 24.0638 36.1585 24.0638C41.814 24.0638 44.0493 20.5762 44.0493 20.5762V24.0638H54.3504V9.42678C54.3504 4.22238 50.129 0.000904829 44.9246 0.000904829ZM43.9887 15.695C43.9887 16.9877 42.9451 18.0312 41.6524 18.0312H40.757C39.4643 18.0312 38.4207 16.9877 38.4207 15.695C38.4207 14.4023 39.4643 13.3587 40.757 13.3587H43.9887V15.695ZM78.4335 2.11498C78.521 3.98668 77.0196 5.54869 75.1479 5.52849C71.7277 5.49479 66.9945 5.72379 66.9676 7.28579C66.9407 9.25169 79.9281 7.33288 79.9281 16.1057C79.9281 24.084 69.5866 24.0638 69.5866 24.0638H57.9457V21.4784C57.9457 19.7683 59.3461 18.3948 61.0495 18.4285C64.6583 18.5025 70.0647 18.3275 69.5866 16.5837C68.8797 13.9848 56.5857 15.9306 56.5857 7.83779C56.5857 -0.254944 65.7422 0.000904829 65.7422 0.000904829H78.3257L78.42 2.11498H78.4335ZM90.9362 0.000904829L94.4844 13.1365L97.9248 0.000904829H108.125C108.125 0.000904829 100.308 24.1176 99.8638 25.5584C99.4195 26.9993 96.76 32.1027 91.2122 33.153C85.6645 34.2033 81.5575 32.2979 81.5575 32.2979V25.8143C81.5575 25.8143 86.1896 26.7905 87.5631 25.8143C88.9366 24.838 88.0546 22.3335 88.0546 22.3335L79.9281 0.000904829H90.9295H90.9362Z" fill="white"/>
</svg>
