<svg xmlns="http://www.w3.org/2000/svg" xmlns:xlink="http://www.w3.org/1999/xlink" viewBox="0 0 300 86.24"><defs><linearGradient id="linear-gradient" x1="43.58" y1="79.99" x2="43.58" y2="6.25" gradientUnits="userSpaceOnUse"><stop offset="0" stop-color="#fed600"/><stop offset="0.17" stop-color="#fecb00"/><stop offset="0.46" stop-color="#feaf00"/><stop offset="0.83" stop-color="#ff8100"/><stop offset="1" stop-color="#ff6a00"/></linearGradient></defs><g id="gbet"><path d="M104.71,59.37V48.87h27.18s2.1,29.94-24.43,29.94S77.26,61.21,76.6,52.94s6.31-28,26.92-28S129.4,39.28,129.4,39.28l-13.53,5.91s-1.19-8.27-11.62-8.27S90.92,47.42,91.31,54.25s6.56,14.06,12.94,14.06,11-4.34,11.23-8.67Zm73.81.79c0,10.59-8,18.65-16.86,18.65s-11.43-5-11.43-5v5H136.86V21.87h12.93V47.32s2.41-5.79,14-4.82C177.92,43.69,178.52,60.16,178.52,60.16Zm-11.84,0c0-4.55-4-8.23-9-8.23s-9,3.68-9,8.23,4,8.23,9,8.23S166.68,64.7,166.68,60.16Zm55.11,2.16H194.61s.25,8.06,7.36,8c5.85,0,6.28-3.63,6.28-3.63h12.67S220.14,79.44,202,78.81c-20.46-.71-19.82-16.49-19.82-16.49s-.43-20.24,20-20.24S221.79,62.32,221.79,62.32Zm-12.33-7.2s-.15-5.38-7-5.38-7.81,5.38-7.81,5.38Zm14.56-2h3.89V77.82h12.7V53.15h7.07V43.49H241V33h-13V43.49h-4Zm51.5-.72,4.76-8.65s-14.82-5.72-22.7.86-4.64,14-4.64,14,1.92,3.68,8.53,4.86,6.94,2.07,6.89,4.09-8,3.53-13.9-1.18l-5,8s4.64,5.06,15.43,4.8,15.45-6.34,15.43-13.8S271,56,271,56s-8.33-1.42-5.48-4.89C267.61,48.56,275.52,52.43,275.52,52.43Z" style="fill:#fff"/><path d="M48.68,6.25s6,21.06-11.51,30.37c-16.47,8.73-22.43,22-12.9,34.93s37.86,11.63,41.88-8.14C73.3,28.28,48.68,6.25,48.68,6.25Z" style="fill:url(#linear-gradient)"/></g></svg>