<?xml version="1.0" encoding="UTF-8"?><svg xmlns="http://www.w3.org/2000/svg" viewBox="0 0 140.86 82.26"><g id="a"/><g id="b"/><g id="c"/><g id="d"/><g id="e"/><g id="f"/><g id="g"/><g id="h"/><g id="i"/><g id="j"/><g id="k"/><g id="l"/><g id="m"/><g id="n"/><g id="o"/><g id="p"/><g id="q"/><g id="r"/><g id="s"/><g id="t"/><g id="u"/><g id="v"/><g id="w"/><g id="x"/><g id="y"/><g id="a`"/><g id="aa"/><g id="ab"/><g id="ac"/><g id="ad"/><g id="ae"/><g id="af"/><g id="ag"/><g id="ah"/><g id="ai"/><g id="aj"/><g id="ak"/><g id="al"/><g id="am"/><g id="an"/><g id="ao"/><g id="ap"><path d="M81.75,54.04c-.39,2.77-.81,5.53-1.15,8.3-.31,2.55-2.57,3.85-4.94,2.78-.43-.2-.5-.53-.57-.93-1.24-7.02-2.49-14.04-3.72-21.06-.04-.24-.06-.66,.04-.71,1.49-.7,3.09-.35,4.63-.28,1.06,.05,.91,1.1,.99,1.86,.32,3.17,.64,6.34,1.41,9.54,.33-2.46,.66-4.92,1-7.38,.09-.65,.29-1.3,.25-1.94-.14-2.1,1.07-2.28,2.73-2.2,1.17,.06,1.6,.51,1.73,1.63,.38,3.31,.84,6.62,1.34,10.49,.88-2.65,.61-4.91,1.05-7.07,.06-.32-.02-.66,.04-.98,.91-4.75-.65-3.87,4.42-4.04,1.3-.04,1.62,.46,1.41,1.62-1.2,6.77-2.38,13.53-3.56,20.3-.14,.82-.52,1.3-1.45,1.23-.65-.05-1.32-.08-1.97,0-1.45,.19-1.93-.44-2.07-1.85-.32-3.1-.83-6.18-1.26-9.27l-.35-.03Zm-79.68-.67c0,2.69,0,5.39,0,8.08,0,3.88,0,3.83,3.88,3.75,1.18-.03,1.65-.36,1.6-1.59-.08-2.16,.01-4.34-.03-6.5-.02-.95,.17-1.45,1.28-1.41,.98,.03,1.45,.28,1.41,1.34-.06,1.64-.01,3.28,0,4.93,0,3.2,0,3.08,3.26,3.24,1.88,.09,2.32-.56,2.29-2.31-.09-5.65-.02-11.3-.04-16.95-.02-4.48,.67-3.83-4-3.93-1.27-.03-1.57,.5-1.53,1.63,.06,1.77,.04,3.55,0,5.32-.02,.9,.4,2-1.29,2.04-1.66,.04-1.36-.99-1.37-1.94-.01-1.05,.02-2.1,0-3.15-.1-4.31,.98-3.83-4.02-3.9-1.11-.02-1.47,.38-1.45,1.49,.06,3.28,.02,6.57,.02,9.85h-.01Zm122.83,.15c0,3.35,.03,6.7-.02,10.05-.02,1.16,.31,1.68,1.56,1.62,1.83-.09,3.68,.02,5.51-.03,3.8-.11,5.75-1.59,6.35-5.34,.66-4.09,.63-8.26,.02-12.34-.55-3.7-2.04-4.91-5.74-5.27-1.95-.19-3.94-.02-5.9-.13-1.37-.08-1.86,.39-1.83,1.79,.08,3.22,.03,6.43,.03,9.65h0Zm5.49-5.06c.01-.51-.34-1.28,.6-1.39,.77-.09,1.42,.09,1.75,.91,.27,.68,.39,1.38,.38,2.11-.02,2.36-.02,4.72,0,7.08,0,.81-.13,1.57-.46,2.29-.34,.74-1.06,.69-1.71,.64-.84-.06-.56-.77-.57-1.22-.04-1.77-.02-3.54-.02-5.31h0c0-1.7-.03-3.41,.02-5.11Zm-21.33,5.14c0,1.71-.05,3.42,0,5.12,.14,4.09,2.38,6.41,6.45,6.76,3.63,.32,6.6-1.75,7.09-5.56,.54-4.22,.61-8.54-.05-12.75-.6-3.8-2.89-5.38-6.8-5.33-3.73,.06-5.93,1.74-6.52,5.46-.32,2.05-.06,4.19-.06,6.29h-.12Zm8.2,5.24c-.03,.78-.26,1.62-1.31,1.64-1.07,.02-1.33-.85-1.34-1.61-.06-3.53-.05-7.06,0-10.59,.01-.82,.41-1.6,1.4-1.56,.87,.04,1.2,.79,1.23,1.53,.06,1.83,.02,3.66,.02,5.49h.02c0,1.7,.05,3.4-.02,5.1Zm-10.23-10.5c-.17-3.69-2.36-6.15-5.59-6.41-4.71-.39-7.28,1.13-7.89,5.32-.62,4.27-.62,8.63,.03,12.92,.66,4.37,3.58,5.43,7,5.28,4.13-.18,6.34-2.63,6.46-6.67,.05-1.7,0-3.41,0-5.11,0-1.77,.07-3.54-.01-5.31Zm-5.51,10.32c-.02,.87-.18,1.79-1.34,1.8-1.17,.01-1.34-.97-1.35-1.8-.05-3.4-.04-6.8,0-10.2,.01-.89,.31-1.81,1.42-1.73,.93,.06,1.24,.88,1.25,1.72,.03,1.7,0,3.4,0,5.1h0c0,1.7,.03,3.4-.01,5.1ZM31.62,48.79c-.17-3.64-1.91-6.09-4.69-6.75-4.92-1.18-8.83,1.35-9.02,6-.15,3.74-.14,7.49,0,11.23,.14,3.69,2.53,5.92,6.32,6.24,3.63,.3,6.3-1.74,7.13-5.32,.5-2.15,.16-4.32,.28-5.78,0-2.34,.07-3.98-.01-5.62Zm-5.66,10.23c-.03,.71-.26,1.48-1.25,1.46-1.02-.03-1.32-.75-1.32-1.6-.02-3.53-.02-7.06,0-10.59,0-.89,.47-1.56,1.39-1.57,.91,0,1.17,.8,1.2,1.53,.06,1.83,.02,3.66,.02,5.49h0c0,1.76,.05,3.53-.02,5.29Zm37.52-9.79c-.33-1.22-.68-2.43-.99-3.65-1.02-4.04,.04-3.47-4.53-3.52-.13,0-.26,0-.39,0-1.07-.09-1.22,.46-.96,1.34,.47,1.62,.69,3.34,1.39,4.84,2.2,4.78,3.38,9.71,2.89,14.99-.14,1.51,.09,2.5,2.07,2.39,3.18-.17,3.57-.23,3.39-2.58-.36-4.74,.51-9.22,2.23-13.6,.5-1.27,.92-2.59,1.3-3.9,1.11-3.83,1.81-3.38-2.53-3.51-1.39-.04-1.98,.42-2.19,1.82-.27,1.8-.83,3.55-1.27,5.32l-.4,.06Zm-29.8,4.34c0,3.28,.06,6.57-.03,9.85-.04,1.41,.46,1.82,1.81,1.78,2.56-.09,5.13-.16,7.68,.02,1.91,.13,2.33-.59,2.26-2.34-.12-2.76-.03-2.76-2.79-2.76-.59,0-1.19-.08-1.77,0-1.45,.22-1.72-.44-1.7-1.76,.08-4.14,.03-8.27,.03-12.41,0-4,0-3.93-3.93-3.95-1.4,0-1.59,.53-1.57,1.72,.06,3.28,.02,6.57,.02,9.85h0Zm13.38,10.08c0,.85,0,1.55,1.2,1.53,3.09-.05,6.17-.03,9.26-.01,.76,0,.97-.33,1.06-1.06,.45-3.79,.29-4-3.44-4-.39,0-.79-.05-1.18,0-1.16,.17-1.42-.36-1.41-1.44,.06-4.2,.03-8.4,.02-12.61,0-4.2,0-4.14-4.23-4.07-1.11,.02-1.3,.4-1.29,1.36,.04,3.35,.01,6.7,.01,10.05,0,3.41,0,6.83,0,10.24Z" style="fill:#faf7fb;"/><path d="M105.53,66.24h2.61v4.38c.43-.75,1.14-1.05,1.9-1.05,1.61,0,2.24,1.23,2.24,3.21v3.93c0,2.33-.39,4.01-2.49,4.01-1.04,0-1.52-.56-1.76-1.1-.01,.38-.04,.68-.07,.93h-2.45c.03-.65,.02-1.83,.02-2.7v-11.61Zm4.14,10.77v-3.79c0-.81-.09-1.37-.73-1.37s-.8,.48-.8,1.43v3.78c0,1,.25,1.37,.77,1.37,.45,0,.76-.35,.76-1.42Zm8.17-1.19v1.58c0,.69,.16,1.2,.75,1.2,.64,0,.75-.54,.75-1.24v-.24h2.53v.15c0,1.45-.44,3.45-3.26,3.45s-3.35-1.58-3.35-3.8v-3.66c0-1.78,.81-3.69,3.36-3.69,2.25,0,3.29,1.36,3.29,3.67v2.57h-4.06Zm1.54-1.87v-1.06c0-.83-.18-1.22-.76-1.22-.5,0-.77,.36-.77,1.22v1.06h1.53Zm4.97-4.21h1.06v-2.45h2.59v2.45h1.22v2.33h-1.22v5.62c0,.49,.07,.79,.67,.79,.14,0,.36-.01,.47-.05v2.04c-.45,.18-1.11,.22-1.5,.22-1.58,0-2.26-.57-2.26-2.46v-6.17h-1.03v-2.33Zm9.87,7.31v.51c0,.6,.12,1.09,.67,1.09,.4,0,.6-.26,.6-.84s-.14-1-1.41-1.81c-1.6-1.02-2.24-1.8-2.24-3.37,0-1.98,1.07-3.06,3.06-3.06,2.39,0,3.05,1.33,3.05,3.16v.46h-2.41v-.66c0-.68-.19-.92-.58-.92s-.56,.29-.56,.78,.22,.76,1.14,1.33c1.98,1.24,2.58,2.11,2.58,3.72,0,2.12-.93,3.28-3.24,3.28-2.74,0-3.16-1.71-3.16-3.28v-.4h2.5Z" style="fill:#f1de2f;"/><path d="M75.86,24.54l.6,.6c.64,.31,.97,.86,1.18,1.5-.02,.31-.15,.57-.37,.78-.16,.13-.34,.21-.53,.25-.19,.02-.39,.01-.58-.02-.28-.09-.49-.28-.69-.48-.31-.33-.68-.61-.96-.97-.33-.68-.88-1.2-1.36-1.78-.19-.6-.35-1.2-.11-1.82,.28-.54,.75-.72,1.32-.72,.21,0,.41,.02,.61,.06,.29,.1,.51,.29,.7,.52,.16,.25,.19,.52,.16,.8-.02,.26,.03,.52,.11,.77,0,.17-.02,.34-.07,.5Z" style="fill:#f6e620;"/><path d="M80.81,12.88c1.19-1.4,1.93,.16,2.87,.43,.26-.15,.52-.21,.8-.05,.47,.85-.64,1.36-.45,2.15-.14,.4-.29,.79-.66,1.03-.63,.31-1.22,.25-1.75-.22-.96-.95-.31-2.29-.81-3.35Z" style="fill:#723c60;"/><path d="M60.93,3.9c.5-.76,.36-1.9,1.39-2.35,.56,.84,1.15,1.67,1.45,2.65,.4,.6,.55,1.19-.04,1.76-.17,.09-.35,.13-.54,.12-.48-.15-.72-.54-.96-.93-.13-.73-.94-.76-1.3-1.25Z" style="fill:#f2da52;"/><path d="M83.28,18.08c-1.66,.39-2.36,2.46-4.26,2.42-.14,.13-.29,.15-.47,.08-.12-.13-.19-.29-.2-.47,.03-.18,.11-.34,.22-.48,.35-.27,.63-.63,.97-.92,.47-.45,1.03-.77,1.54-1.17,1.13-.54,2.24-1.16,3.52-1.28,.3,.05,.6,.14,.85,.32,.34,2.05-1.26,1.27-2.17,1.5Z" style="fill:#78466a;"/><path d="M84.5,13.38c-.27-.02-.55-.05-.82-.07,.27-.24,.53-.48,.8-.72,.13-.2,.25-.2,.36,0,.53,.37,1.03,.16,1.41-.18,1.14-1.01,2.41-1.09,3.79-.69,.26-.15,.52-.19,.74,.07,0,.12,.01,.24,.02,.36-.06,.17-.15,.32-.28,.45-.39,.21-.75,.5-1.22,.52-.17,0-.35,.01-.52,.02-.43,0-.85-.02-1.27,.11-.51,.15-.93,.49-1.41,.72-.74,.35-1.29,.21-1.59-.6Z" style="fill:#723f7f;"/><path d="M80.81,12.88c2.41,.29,.3,2.01,.9,2.87-.07,.06-.13,.12-.2,.18-.45,.16-.88,0-1.32-.1-.48-.27-.8-.7-1.07-1.16-.03-.18,0-.35,.07-.51,.16-.41,.89,.14,.89-.54-.04-.53,.31-.67,.73-.74Z" style="fill:#fef63b;"/><path d="M85.33,16.95h-.75c-.41-.36-1.09-.28-1.36-.86l.09-1.11c.4-.41,.84-.67,1.44-.49,.57,.3,1.07,.69,1.27,1.35,0,.11,0,.22,0,.33-.18,.31-.37,.59-.68,.78Z" style="fill:#8e633d;"/><path d="M84.13,34.78l.36,.66c-.06,.09-.11,.18-.16,.27-.98,.65-1.79,.12-2.6-.4-.29-.4-.25-.8-.02-1.2,.2-.26,.46-.44,.76-.57,.45-.11,.83,.03,1.16,.34l.5,.89Z" style="fill:#d6c01f;"/><path d="M70.61,14.15c1.22-.96,2.41,.67,3.63,.03,.05,.08,.1,.16,.14,.24,.02,.19,0,.37-.07,.55-.14,.26-.34,.45-.61,.57-.35,.13-.7,.31-1.09,.27-.62-.2-1.21-.48-1.74-.89-.19-.22-.24-.49-.26-.77Z" style="fill:#6c3e41;"/><path d="M78.42,20.41c.2,.03,.39,.06,.59,.09-.16,.38-.33,.76-.49,1.14-.2,.81-.99,.85-1.55,1.19l-.77,.43c-.07-.05-.15-.1-.22-.15-.1-.15-.16-.32-.17-.5,.02-.18,.07-.35,.17-.51,.42-.47,.73-1.03,1.14-1.51,.4-.28,.83-.4,1.3-.17Z" style="fill:#784a57;"/><path d="M83.63,33.89c-.36,.33-.73,.19-1.09,0-.08-.05-.17-.1-.25-.14-.12-.16-.21-.33-.25-.52-.02-.2,.01-.4,.09-.58,.21-.37,.49-.63,.94-.66,.31,.03,.57,.18,.82,.34l.09,.02c.12,.57,.38,1.17-.35,1.55Z" style="fill:#d4b949;"/><path d="M77.36,26.78c-.3-.55-.6-1.09-.89-1.64,1.46-.04,1.52,1.06,1.67,2.08-.14,.12-.31,.17-.5,.16-.27-.12-.48-.26-.28-.6Z" style="fill:#6d3d4d;"/><path d="M54.44,18.41c-.14-.11-.29-.22-.43-.33,.29-.14,.57-.28,.86-.43,.57,.45,1.02-1.45,1.64-.08,.07,.57,.16,1.19-.5,1.46-.68,.28-1.21,0-1.56-.62Z" style="fill:#ad846a;"/><path d="M66.32,12.39c.9,.22,1.25-1.82,2.4-.59-.16,.27-.32,.54-.49,.81-.07,.28-.19,.52-.48,.64-.49,.1-.92-.07-1.31-.35-.13-.15-.17-.32-.13-.51Z" style="fill:#ddc063;"/><path d="M63.15,5.75l.35,.23c.63,.06,.65,.5,.6,.97-.01,.08-.06,.13-.12,.17-.45,.57-.98,.83-1.68,.41-.13-.19-.15-.39-.08-.61l.06-.61c-.04-.68,.36-.7,.86-.56Z" style="fill:#7b541c;"/><path d="M90.01,13.83c-.02,.66-.07,1.31-.8,1.62-.27,.11-.53,.1-.8,0-.14-.13-.23-.29-.27-.47-.01-.3,.11-.55,.26-.8,.22-.33,.44-.65,.87-.72,.31-.01,.58,.08,.74,.36Z" style="fill:#7d5064;"/><path d="M90.01,13.83l-.78-.12c-.37-.38-.33-.76-.02-1.14l1.11-.29c.53,.45,.52,.94,.12,1.47l-.43,.08Z" style="fill:#faea28;"/><path d="M90.44,13.75c-.04-.49-.08-.98-.12-1.47,.16-.04,.32-.08,.48-.11,.46,.66,1.12,1.37-.36,1.59Z" style="fill:#6e3e50;"/><path d="M86.01,15.83c-.51-.09-1.01-.21-1.25-.74,.02-.2,.11-.36,.26-.5,.56-.3,1.12-.27,1.7-.06,.17,.11,.3,.26,.38,.44,.05,.2,.05,.39-.01,.58-.06,.08-.11,.16-.17,.25l-.91,.02Z" style="fill:#e2c934;"/><path d="M79.42,14.17c-.06,.11-.1,.24-.11,.37,.07,.45-.05,.81-.49,1.02-.59,.11-1.05-.08-1.34-.61-.15-.46-.03-.84,.32-1.16,.13-.03,.25,0,.37,.07,.39,.23,.91-.08,1.25,.31Z" style="fill:#95761e;"/><path d="M70.61,14.15l.49,.27c.03,.32,.06,.64-.08,.95-.57,.66-1.14,1.07-1.73,.02,0-.23,.08-.41,.26-.55l1.06-.69Z" style="fill:#77494f;"/><path d="M77.8,13.79l.13,1.18c-.03,.62-.35,.93-.98,.89-.28-.16-.45-.4-.53-.71-.02-.31,0-.6,.15-.88,.12-.16,.25-.31,.39-.45l.83-.03Z" style="fill:#7b4e4c;"/><path d="M50.16,18.46l.85-.4c.33,.16,.7,.27,.84,.67,.04,.19,0,.36-.12,.51l-.03,.11c-.52-.15-1.26,.4-1.57-.47-.1-.1-.13-.2-.09-.29,.04-.09,.08-.13,.11-.13Z" style="fill:#6c3c5d;"/><path d="M51.69,18.9c-.3-.22-.72-.34-.68-.84,.23-.17,.46-.33,.69-.5,.59,.05,.9,.34,.79,.97-.17,.33-.36,.63-.8,.36Z" style="fill:#ead253;"/><path d="M67.81,13.07l.42-.47,.48,1.17c.2,.26,.18,.54,.09,.83-.15,.14-.33,.22-.53,.24-.21,0-.39-.07-.56-.19-.31-.32-.37-.7-.27-1.12,.08-.19,.2-.35,.37-.47Z" style="fill:#f7df5a;"/><path d="M62.23,6.92l.12,.55c.26,.22,.31,.49,.24,.8-.3,.48-.66,.75-1.21,.34,.05-.41,.09-.81,.14-1.22,.24-.16,.48-.31,.72-.47Z" style="fill:#bf996a;"/><path d="M68.67,14.59c.01-.27,.03-.55,.05-.82,.28,.36,.56,.71,.83,1.07,0,.11-.02,.22-.04,.32-.12,.26-.18,.56-.48,.7-.2,.02-.38-.05-.52-.19-.22-.4-.13-.75,.16-1.07Z" style="fill:#edcf77;"/><path d="M76.98,13.82c-.02,.13-.04,.26-.06,.39-.87,.69-1.75,.73-2.63,.02l-.06-.05c.84-.7,1.8-.45,2.74-.36Z" style="fill:#71463c;"/><path d="M60.93,3.9c.63,.2,1.31,.32,1.49,1.11,.1,.38-.05,.55-.44,.53l-1.06-1.64Z" style="fill:#9a7246;"/><path d="M50.16,18.46l-.03,.42c-.37-.07-.75-.16-.9-.56-.03-.1,.15-.27,.23-.41l.69,.54Z" style="fill:#704555;"/><path d="M61.99,5.54c.15-.18,.29-.35,.44-.53,.61-.12,.75,.24,.72,.74-.36,.08-.7,.18-.86,.56-.33-.17-.31-.48-.3-.78Z" style="fill:#efdb2d;"/><path d="M60.8,15.74l-.02-1.3c.24-.06,.45,0,.64,.16,.47,.76,.48,1.52-.02,2.27-.2,.17-.41,.19-.63,.06l.03-.79c.02-.13,.03-.26,0-.39Z" style="fill:#63372c;"/><path d="M79.42,14.17c-.42-.1-.83-.21-1.25-.31,.64-.08,1.27-.16,1.91-.24,.2,.68-.3,.54-.66,.55Z" style="fill:#d8c130;"/><path d="M75.79,24.05l-.29-.44c.12-.3,.24-.61,.67-.39l.04,.04c-.03,.25-.06,.51-.09,.76-.1,.16-.21,.18-.33,.04Z" style="fill:#784a57;"/><path d="M78.89,27.59c.04,.12,.05,.24,.04,.37l-.14,.13c-.14,.04-.26,0-.35-.13-.09-.15-.05-.25,.11-.32,.11-.05,.22-.07,.34-.05Z" style="fill:#fedf80;"/><path d="M78.55,27.64c0,.09,0,.17,0,.26-.23,.23-.36,.08-.47-.13l.09-.2,.39,.07Z" style="fill:#fee860;"/><path d="M77.8,27.24c.11-.04,.22-.04,.33-.02,.03,.12,.04,.23,.03,.35h0c-.11,.12-.23,.13-.37,.04-.07-.08-.1-.17-.07-.25,.02-.08,.05-.12,.07-.12Z" style="fill:#f8dc5f;"/><path d="M75.79,24.05c.11-.01,.22-.02,.33-.04-.09,.17-.17,.35-.26,.52-.03-.16-.05-.33-.08-.49Z" style="fill:#683a3a;"/><path d="M60.89,35.93c-.78,.75-1.34,2.11-2.81,1.08-.09-.58,.05-1.13,.17-1.69,.04-.19,.12-.36,.22-.52,.34-.33,.8-.5,1.14-.83,.16-.1,.33-.17,.52-.21,.28-.03,.57-.03,.85-.01,.19,.02,.37,.08,.54,.17,.15,.12,.26,.27,.33,.45,.14,.8-.61,1.06-.96,1.56Z" style="fill:#ebd33b;"/><path d="M57.3,35.24c.52-.03,1.04-.07,1.57-.1-.03,.13-.05,.26-.08,.4-.34,.3-.43,1.03-1.15,.69-.37-.24-.46-.57-.34-.98Z" style="fill:#e2c177;"/><path d="M62.34,34.27c0,.27,.01,.55,.02,.82-.49,.28-.98,.56-1.47,.84,.2-.58,.83-.97,.76-1.68,.23-.17,.46-.17,.69,.02Z" style="fill:#84575b;"/><path d="M57.63,36.22c.38-.23,.77-.46,1.15-.69,.08,.64-.28,1.08-.7,1.48-.15-.26-.3-.53-.45-.79Z" style="fill:#876031;"/><path d="M64.41,8.18c2.15,.45,1.46,2.24,1.69,3.6-.13,.25-.3,.46-.57,.56-.29,.07-.55,0-.79-.17-.19-.2-.38-.41-.5-.66-.05-.18-.09-.36-.11-.54-.04-.37-.1-.73-.19-1.09-.13-.46-.26-.92,0-1.38,.12-.16,.27-.27,.46-.33Z" style="fill:#e8ce4d;"/><path d="M64.41,8.18l-.1,.53c-.16,.22-.26,.49-.48,.66-.25,.15-.53,.19-.82,.13-.18-.06-.34-.16-.48-.3-.17-.25-.24-.52-.13-.81-.02-.31-.04-.62-.06-.93,.52-.24,1.04-.44,1.63-.34l.43,1.06Z" style="fill:#efd83d;"/><path d="M64.1,6.95c-.2-.33-.4-.65-.6-.98,.29-.55,.41-1.12,.13-1.72,.11,0,.22-.02,.33-.03,.53,.88,.56,1.79,.14,2.73Z" style="fill:#683f42;"/><path d="M65.4,12.19c.24-.14,.47-.27,.71-.41,.07,.2,.14,.4,.21,.6h.03c0,.21-.11,.33-.33,.35-.19-.04-.36-.14-.5-.28l-.12-.26Z" style="fill:#e6bba8;"/><path d="M73.35,22.8c.45,.44,.48,1.02,.54,1.59,.13,.45,.16,.88-.17,1.27-.14,.13-.29,.22-.47,.28-.28,.06-.54,.01-.8-.1-.17-.05-.34-.12-.51-.19-.31-.19-.66-.33-.91-.61-.1-.16-.19-.32-.27-.49-.27-.41-.38-.85-.29-1.34,.02-.28,.05-.56,.19-.81,.41-.52,.95-.87,1.55-1.13,.19-.03,.38-.01,.57,.04,.72,.29,.56,.92,.56,1.48Z" style="fill:#e6d229;"/><path d="M73.35,22.8l-.64-1.21c-.4-.3-.42-.67-.21-1.09,.21-.25,.49-.36,.82-.34,.7,.24,1.1,.82,1.53,1.38,.07,.31,0,.58-.21,.82-.44,.11-.97-.06-1.28,.44Z" style="fill:#886325;"/><path d="M73.38,25.54c.17-.38,.34-.76,.5-1.14,.4,.53,.79,1.06,1.19,1.59,.11,.43-.04,.76-.41,1-.19,.07-.39,.08-.59,.04-.51-.23-.77-.62-.73-1.18,.01-.1,.02-.2,.03-.3Z" style="fill:#eed162;"/><path d="M74.55,26.89c.17-.3,.35-.61,.52-.91,.25,.23,.5,.45,.75,.68,0,.08,0,.16-.01,.24,.03,.17,.08,.32,.18,.46,.11,.14,.17,.3,.2,.47,0,.19-.05,.36-.14,.53-.13,.15-.28,.26-.47,.33-.31,.07-.6,.02-.87-.15-.53-.51-.7-1.05-.16-1.65Z" style="fill:#a4851a;"/><path d="M76.21,22.42c-.02,.1-.04,.2-.06,.29-.11,.31-.3,.34-.55,.17l-.55-.4c0-.26,.12-.44,.33-.58,.08-.02,.15-.04,.23-.07,.08,.01,.16,.02,.23,.03,.14,.08,.25,.18,.34,.32l.04,.23Z" style="fill:#eacd65;"/><path d="M77.8,27.24c0,.09,0,.18,0,.27l-.05,.25c-.08,.15-.19,.27-.34,.36-.17,.04-.33,.03-.49-.04-.12-.13-.19-.28-.21-.45,.03-.17,.09-.32,.2-.45l.43-.4,.45,.46Z" style="fill:#a9853a;"/><path d="M75.8,27.99c.02-.11,.03-.23,.02-.34,.01-.3,.16-.45,.46-.46,.08,0,.16,.01,.24,0,.21,.1,.29,.27,.24,.49-.2,.47-.51,.6-.95,.31Z" style="fill:#7d6000;"/><path d="M76.27,27.19l-.46,.46-.34-.5c.1-.13,.2-.26,.31-.38l.04-.11c.15,.17,.3,.35,.45,.52Z" style="fill:#eccf60;"/><path d="M75.43,22.07c-.13,.14-.26,.28-.39,.42-.14-.04-.27-.08-.41-.12v-.63c.26-.23,.48-.1,.69,.09l.11,.25Z" style="fill:#6c3f28;"/><path d="M75.59,22.88c.18-.06,.37-.11,.55-.17,0,.17,.02,.34,.02,.5-.22,.13-.44,.26-.67,.39l.09-.73Z" style="fill:#76484f;"/><path d="M76.65,27.61c-.05-.14-.09-.28-.14-.42,.14,0,.28-.01,.41-.02-.01,.16-.03,.32-.04,.48l-.23-.04Z" style="fill:#fede85;"/><path d="M55.48,21.27l-.66-.41c-.05-.77,.42-1.04,1.08-1.14,.73,.07,1.17,.72,1.83,.92,.53,.19,.86,.54,.91,1.12-.15,.56-.41,.96-1.08,.74l-2.08-1.23Z" style="fill:#efd651;"/><path d="M59.27,25.58l-.46-.84c-.38-.81-.19-1.43,.65-1.81,.73-.06,1.25,.28,1.67,.83,.16,.29,.2,.61,.17,.93-.09,.41-.27,.78-.62,1.05-.51,.3-.95,.03-1.4-.16Z" style="fill:#f5e52b;"/><path d="M59.6,23.23c-.59,.33-.77,.88-.79,1.51-.42-.75-.84-1.5-1.25-2.25,.28-.29,.56-.58,.84-.88,.47-.33,.88-.16,1.28,.13,.13,.14,.22,.3,.28,.49,.06,.4-.01,.75-.36,1Z" style="fill:#d0ae5a;"/><path d="M59.27,25.58c.39-.33,.75-.22,1.11,.07,.4-.02,.65,.2,.83,.52,.07,.16,.1,.33,.11,.51-.01,.26-.13,.49-.25,.72-.07,.15-.14,.3-.22,.45-.11,.13-.24,.22-.4,.28-.18,.02-.31-.05-.4-.2-.04-.57-.03-1.15-.39-1.64-.1-.12-.21-.24-.31-.36-.04-.11-.07-.22-.07-.34Z" style="fill:#6e4541;"/><path d="M83.22,16.09c.59,.07,1.11,.24,1.36,.85-1.46-.38-1.94,1.64-3.35,1.38-.41-.08-.86,.18-1.25-.15-.32-.36-.49-.77-.45-1.26,.09-.39,.4-.6,.69-.82,.44-.38,1.04-.1,1.5-.38v.02c.49,.15,.93,.5,1.5,.35Z" style="fill:#eedc3a;"/><path d="M84.76,15.09c-.48-.04-.97-.07-1.45-.11-.09-.9,.84-1.03,1.2-1.59,.59,.53,1.09,.29,1.58-.16,.53,.3,1.07-.26,1.61,.01,.15,.13,.25,.29,.31,.47,.07,.71-.2,1.13-.97,1.13-.73-.18-1.46-.55-2.15,.1-.04,.05-.08,.1-.12,.16Z" style="fill:#e2c934;"/><path d="M60,12.56c.36-.31,.39-.74,.42-1.16,.1,0,.2,.01,.3,.02,.44,.15,.6,.49,.62,.92,0,.3-.04,.59-.21,.84-.14,.15-.31,.23-.51,.24l-1.15-.05c.17-.27,.35-.53,.52-.8Z" style="fill:#6b3c50;"/><path d="M55.83,20.07c-.34,.26-.67,.52-1.01,.78-.42-.07-.41-.42-.49-.72-.14-.56-.35-1.12,.15-1.61l-.05-.11c.79-.04,1.74,.35,2.06-.84l1.17,.1c.33-.06,.5,.13,.61,.4,.03,.18,.01,.36-.04,.53-.44,.42-.66,.96-.84,1.53-.14,.13-.3,.21-.48,.25-.39,.01-.71-.21-1.07-.31Z" style="fill:#f5e423;"/><path d="M58.01,18.2c-.12-.17-.23-.35-.35-.53,.47-.9,1.18-.51,1.84-.34,.19,.1,.26,.26,.23,.47-.18,.39-.49,.61-.9,.7-.32,.01-.58-.11-.82-.3Z" style="fill:#e7d153;"/><path d="M59.66,17.71c-.05-.12-.1-.25-.15-.37,.41-.16,.93,.02,1.25-.41,.11-.03,.23-.06,.35-.08,.18,.06,.33,.17,.44,.34,.08,.18,.12,.36,.13,.56-.02,.19-.09,.37-.18,.54-.25,.32-.6,.45-.98,.53-.19,0-.36-.05-.53-.13-.33-.25-.4-.58-.31-.97Z" style="fill:#a78b1f;"/><path d="M87.98,37.46l.12,.82-.06,.26c-.03,.18-.09,.35-.18,.51-.13,.14-.29,.23-.47,.28-.93-.18-1.89-.28-2.53-1.11-.3-.39-.71-.72-.77-1.26,.03-.56,.29-.97,.81-1.21,.96,.7,1.59,1.99,3.08,1.72Z" style="fill:#ead14a;"/><path d="M84.9,35.74l-.44,1.27c-.2,.25-.46,.29-.75,.19-.15-.12-.26-.27-.32-.45-.1-.75,.52-.92,.97-1.22l.13-.08,.41,.29Z" style="fill:#dabd45;"/><path d="M79.82,19.27c-.23,.34-.38,.79-.92,.75-.27-.17-.54-.01-.81-.02-.56-.12-.8-.49-.85-1.03,0-.2,.05-.39,.14-.57,.21-.36,.53-.56,.94-.65,.49-.07,.89,.19,1.31,.37,.14,.11,.25,.25,.33,.4,.05,.27-.03,.51-.14,.75Z" style="fill:#f4e12c;"/><path d="M77.68,18.7c.12,.47,.37,.83,.84,1,.13,.07,.18,.16,.15,.25-.03,.1-.06,.15-.1,.15-.08,.09-.13,.19-.16,.31-.41,.13-.82,.26-1.23,.39-.14-.11-.25-.25-.32-.41-.07-.26-.07-.53-.05-.8,.07-.51,.31-.86,.87-.89Z" style="fill:#e8cc4a;"/><path d="M79.82,19.27l-.07-.76c.02-.24,.15-.39,.39-.45,.36,.09,.73,.17,1.09,.26-.47,.32-.94,.64-1.41,.95Z" style="fill:#76530a;"/><path d="M78.58,20.1c-.02-.13-.03-.27-.05-.4,.12,.11,.25,.21,.38,.31-.11,.03-.22,.06-.33,.08Z" style="fill:#674009;"/><path d="M89.21,12.57l.02,1.14-.33,.8c-.97,.42-.95-.33-1.07-.91-.07-.63,.26-.92,.84-.99l.54-.04Z" style="fill:#6b3467;"/><path d="M87.57,13.24c-.5,.33-1,.67-1.49-.01,.4-.22,.81-.43,1.21-.65,.55,.03,.65,.25,.28,.66Z" style="fill:#fee96c;"/><path d="M87.57,13.24c-.09-.22-.19-.44-.28-.66,.48-.77,.93-.37,1.38,.04-.24,.21-.47,.43-.71,.64-.01,.34-.13,.38-.35,.12l-.04-.14Z" style="fill:#fce370;"/><path d="M78.9,15.34l.42-.8c.41,.27,.81,.54,1.22,.81,.12,.57-.26,.73-.69,.86-.33,.03-.62-.06-.87-.28-.14-.18-.17-.37-.07-.58Z" style="fill:#e3ce27;"/><path d="M79.72,15.87l.81-.53,1.19,.37c-.37,.27-.73,.54-1.1,.81-.66,.27-1.14,.29-.9-.66Z" style="fill:#b6867b;"/><path d="M79.33,28.79l.39,.45c.36,.67,.2,1.36,.04,2.04-.11,.18-.27,.32-.47,.4-.8,.06-1.16-.39-1.29-1.11-.08-.53-.04-1.03,.34-1.45,.11-.17,.26-.3,.43-.4,.2-.08,.38-.06,.56,.06Z" style="fill:#f6e038;"/><path d="M80.19,29.91c.61,.28,.97,.78,1.22,1.39,.28,.12,.34,.3,.16,.55-.58,.63-1.18,.64-1.8,.05-.12-.18-.19-.39-.2-.61,.17-.48,.13-1.05,.63-1.38Z" style="fill:#fdeb35;"/><path d="M80.19,29.91l-.45,1.23c-.15,.26-.27,.25-.36-.05,.11-.62,.23-1.24,.34-1.86,.38,.07,.41,.38,.47,.67Z" style="fill:#cbb12f;"/><path d="M82.11,31.49c.1,.04,.21,.06,.33,.05h0c.28,.17,.33,.41,.22,.69-.16,.25-.38,.36-.67,.33-.17-.05-.31-.15-.41-.3-.04-.18,0-.34,.11-.49,.13-.12,.27-.22,.43-.29Z" style="fill:#c1a243;"/><path d="M82.11,31.49l-.35,.35c-.26-.13-.3-.31-.12-.54,.24-.15,.42-.13,.47,.19Z" style="fill:#e5be95;"/><path d="M81.63,31.3c.04,.18,.08,.36,.12,.54l-.12,.03-.16,.18-.2-.13c.04-.2,.08-.41,.12-.61,.08,0,.15,0,.23,0Z" style="fill:#5c3500;"/><path d="M79.33,28.79l-.4-.03-.11-.22,.06-.24c.08-.03,.15-.07,.23-.1,.07,.04,.14,.08,.22,.13v.47Z" style="fill:#906557;"/><path d="M79.33,28.32l-.19,.05h-.19c-.1-.1-.14-.19-.11-.28,.03-.09,.07-.14,.1-.14h0c.13,.13,.26,.25,.39,.37Z" style="fill:#deb77d;"/><path d="M88.44,39c.31,.19,.44,.45,.36,.81h0c-.43,.24-.69,0-.92-.32-.05-.19-.03-.36,.07-.53,.17-.1,.34-.09,.49,.04Z" style="fill:#f0cd97;"/><path d="M88.44,39c-.13,.03-.25,.06-.38,.1-.11-.08-.15-.17-.15-.28,0-.11,.03-.17,.06-.17,.15-.14,.29-.13,.43,.02,.02,.11,.03,.22,.04,.33Z" style="fill:#dab19b;"/><path d="M88.4,38.67c-.11-.02-.22-.05-.33-.08l-.25-.13,.14-.24,.13,.06c.1,.13,.2,.26,.3,.39Z" style="fill:#7a4e4f;"/><path d="M82.61,32.24c-.06-.23-.12-.45-.18-.68,.61,0,1.15,.17,1.45,.77-.34,0-.68,0-1.02,0-.16,.17-.24,.13-.25-.09Z" style="fill:#693b4f;"/><path d="M61.14,14.57c-.12-.04-.24-.09-.37-.13,0-.18,0-.37,0-.55,.26-.45,.65-.54,1.12-.43,.85,.49,.8,1.48,1.23,2.21,.06,.33-.01,.64-.23,.9-.55,.33-.99,.15-1.36-.3-.36-.51,.12-1.22-.39-1.7Z" style="fill:#f7e836;"/><path d="M61.97,13.71c-.4,.06-.8,.12-1.2,.17-.05-.16-.09-.31-.14-.47l.15-.05c.18-.19,.39-.32,.66-.33,.17,.03,.32,.09,.46,.2,.11,.14,.13,.3,.07,.47Z" style="fill:#70443c;"/><path d="M63.17,9.03h.73c.26,.2,.33,.49,.4,.79,.03,.3,.02,.6-.1,.89-.57,.64-1.43,.64-2.14,.99-.78,.03-.95-.6-1.22-1.12l.38-.73c.42-.83,1.36-.4,1.95-.82Z" style="fill:#fbed0d;"/><path d="M60.83,10.58l1.11,.79c.33-.16,.49,.03,.62,.29,.1,.52-.28,.82-.53,1.17-.13,.12-.28,.21-.45,.27-.44,.03-.62-.24-.72-.61-.04-.36-.09-.72-.13-1.08l.11-.84Z" style="fill:#c09b5b;"/><path d="M62.41,8.4l.36,.62c-.42,.65-.95,.8-1.61,.37-.21-.34,0-.56,.21-.78,.35-.07,.69-.14,1.04-.21Z" style="fill:#7b5137;"/><path d="M61.15,9.39c.58,.08,1.13-.02,1.61-.37,.13,0,.27,0,.4,.01-.45,.74-1.18,.84-1.95,.82-.02-.15-.04-.31-.06-.46Z" style="fill:#f4e131;"/><path d="M54.49,18.52c-.05,.54-.1,1.08-.15,1.61-.47-.29-.95-.57-1.42-.86-.11-.08-.15-.18-.14-.28,.01-.11,.04-.16,.07-.16,.54-.17,1.05-.46,1.64-.31Z" style="fill:#f6df44;"/><path d="M52.84,18.83c.02,.15,.05,.3,.07,.45-.4-.01-.79-.02-1.19-.03-.01-.11-.03-.23-.04-.34,.27-.12,.53-.24,.8-.36,.12,.1,.24,.19,.36,.29Z" style="fill:#bd966f;"/><path d="M82.07,34.35l-.36,.66c-.05,.08-.1,.17-.15,.26-1.09,.37-2.13,.59-2.77-.73-.04-.43,.23-.72,.5-1,.2-.19,.41-.37,.66-.5,.17-.06,.34-.1,.52-.11,.26-.01,.52-.01,.78,0,.17,.02,.33,.07,.48,.15,.13,.1,.24,.22,.33,.37,.07,.15,.13,.3,.19,.46,0,.17-.05,.32-.17,.44Z" style="fill:#efdb2f;"/><path d="M84.36,35.52l-.7,1.16c-1.3,.24-2.09-.13-1.95-1.61v-.05c.87,.17,1.76,.34,2.64,.51Z" style="fill:#e7cd48;"/><path d="M82.07,34.35v-.45c.14-.14,.27-.14,.4,0h.06c-.15,.14-.31,.3-.46,.45Z" style="fill:#c39b61;"/><path d="M76.89,14.86l.17,.96c.75,.24,.65,.88,.68,1.46-.05,.43-.28,.76-.59,1.04-.27,.17-.56,.23-.87,.19-.49-.13-.85-.48-1.24-.78-.32-.39-.73-.62-1.21-.75-.37-.2-.67-.46-.78-.89-.05-.45,.12-.81,.42-1.13l.59-.39c.98-.26,1.97-.61,2.84,.28Z" style="fill:#f2e41c;"/><path d="M70.72,14.95c.12-.18,.25-.36,.37-.54,.53,.3,1.06,.6,1.58,.9,.12,.14,.19,.3,.22,.49-.06,.38-.2,.71-.56,.9-.18,.06-.36,.06-.55,.03-.17-.08-.31-.19-.43-.33-.3-.45-.39-.99-.64-1.46Z" style="fill:#e8d434;"/><path d="M76.89,14.86c-.91-.42-1.88-.28-2.84-.28,.08-.12,.16-.24,.24-.36,.88,0,1.75-.01,2.63-.02-.01,.22-.02,.44-.03,.66Z" style="fill:#e4c56f;"/><path d="M72.5,15.7c.06-.13,.12-.25,.17-.38,.26-.12,.52-.23,.78-.35,.04,.37,.08,.73,.12,1.1-.52,.35-.92,.35-1.07-.37Z" style="fill:#967622;"/><path d="M77.19,20.8c.16,.83-.31,1.29-.98,1.62l-.09-.11c-.1-.04-.18-.1-.24-.19l-.07-.17c-.35-.76-.26-1.35,.61-1.66,.32,.02,.55,.18,.71,.46l.07,.05Z" style="fill:#f9e247;"/><path d="M82.61,32.24c.09,.01,.18,.04,.25,.09-.12,.25-.24,.51-.37,.76-.11,.14-.25,.2-.43,.19-.16-.06-.3-.15-.41-.29-.03-.08-.06-.16-.1-.23,0-.18,.06-.32,.2-.43l.84-.1Z" style="fill:#efd558;"/><path d="M82.1,33.1h.4l.03,.44c-.07,.05-.15,.1-.22,.15-.08-.04-.16-.08-.24-.11-.09-.17-.08-.32,.04-.47Z" style="fill:#9e7d19;"/><path d="M82.12,33.49c.14,.01,.27,.03,.41,.04,0,.12-.02,.24-.05,.36-.13,0-.26,0-.4,0h0c-.12-.1-.16-.19-.1-.28,.05-.08,.1-.13,.14-.13Z" style="fill:#b08945;"/><path d="M65.9,12.45l.45-.07c.61-.03,1.06,.28,1.47,.69,.01,.12,.05,.22,.11,.33-.52,.51-1.16,.6-1.85,.49-.62-.27-1.29-.51-.82-1.41,.21-.07,.43-.08,.64-.02Z" style="fill:#875e43;"/><path d="M87.62,13.37c.11-.06,.22-.1,.35-.12,.03,.63,.3,1.08,.94,1.25-.1,.17-.2,.34-.29,.51-.55,.13-1.1,.33-1.64-.02-.04-.06-.09-.1-.16-.12-.14-.1-.18-.19-.12-.26,.05-.07,.11-.11,.16-.11,.79-.02,.62-.69,.77-1.14Z" style="fill:#936e32;"/><path d="M86.96,15c.55,0,1.1,.01,1.64,.02-.07,.1-.12,.21-.17,.33-.56,.02-1.03,.53-1.64,.3,.05-.22,.11-.43,.16-.65Z" style="fill:#f1d181;"/><path d="M86.84,14.51c0,.12-.02,.25-.04,.37-.64,.02-1.28,.03-1.92,.05,.44-1.15,1.22-.67,1.96-.42Z" style="fill:#f0e103;"/><path d="M77,16.93c.02-.37,.04-.74,.06-1.11,.29-.28,.59-.57,.88-.85,.32,.12,.64,.25,.96,.37,0,.2,.02,.4,.02,.6-.13,1.32-.78,1.62-1.92,.99Z" style="fill:#e6cb55;"/><path d="M70.72,14.95c.68,.13,1.02,.57,1.1,1.24-.15,.22-.16,.51-.34,.72-.52,.39-1.07,.71-1.68,.92-.3,.04-.59,.02-.86-.11-.27-.16-.46-.38-.6-.66-.1-.3-.08-.58,.05-.87,.15-.26,.5-.28,.66-.53,.15-.17,.3-.33,.45-.5,.56,.83,.85,.1,1.22-.21Z" style="fill:#f8e728;"/><path d="M66.12,13.37c.6,0,1.2,.02,1.8,.03-.02,.34-.03,.69-.05,1.03-.08,.2-.23,.32-.44,.35-.75-.04-1.35-.32-1.65-1.06,0-.24,.11-.36,.35-.35Z" style="fill:#f8db76;"/><path d="M67.5,14.53c.13,0,.25-.03,.36-.1,.13,.01,.25,.05,.37,.11,.47,.41,.21,.69-.16,.95-.21,.04-.4,0-.57-.13-.2-.28-.21-.55,0-.82Z" style="fill:#7d533e;"/><path d="M67.88,15.42c.12-.29,.24-.59,.35-.88l.43,.06,.14,1.13c-.21,.21-.45,.27-.73,.16-.15-.12-.21-.27-.2-.46Z" style="fill:#8a6919;"/><path d="M68,15.86c.27-.04,.54-.09,.8-.13,.08-.02,.17-.05,.25-.06-.12,.17-.25,.34-.37,.5-.1,.1-.22,.17-.35,.2-.14-.01-.27-.07-.37-.16l-.08-.19,.13-.16Z" style="fill:#eedd2c;"/><path d="M61.14,14.57c.51,.42,.37,1.02,.44,1.56,.55,.35,.78,.74,.18,1.25-.17,.07-.34,.07-.51,0-.05-.18-.1-.36-.15-.53,.01-.76,.02-1.52,.04-2.27Z" style="fill:#c3a63f;"/><path d="M78.94,27.95v.42h.02c-.12,.11-.26,.22-.4,.31-.26,.08-.51,.05-.74-.09-.13-.12-.21-.26-.26-.43,0-.17,.05-.33,.14-.48l.1-.16c.12,.05,.24,.07,.36,.06l.38,.33,.39,.05Z" style="fill:#a07a37;"/><path d="M71.49,31.55l.73-.05c.35-.2,.71-.33,1.11-.19,.16,.12,.27,.27,.33,.46,0,.2-.05,.38-.15,.55-.75,.23-1.43,.07-2.03-.42,0-.12,.01-.24,.02-.37Z" style="fill:#663652;"/><path d="M62.34,34.27c-.23,0-.46-.01-.69-.02-.09,.01-.17,.02-.26,.02-.78-.25-.52-.77-.35-1.28,.62-.82,1.08-1.87,2.41-1.68,.43,.16,.49,.56,.63,.92,.35,1.43-1.14,1.37-1.69,2.07l-.05-.04Z" style="fill:#855d3f;"/><path d="M60.02,34.31c-.38-.73-.32-1.51-.32-2.29,1.18,.11,1.26,.86,1.05,1.79-.06,.2-.15,.38-.28,.55l-.46-.04Z" style="fill:#ceb33f;"/><path d="M61.62,33.26c-.08,.34-.15,.68-.23,1.02-.2,0-.41,0-.61,0l-.16-.26c.06-.59-.25-1.21,.15-1.77,.74-.05,.79,.48,.85,1.01Z" style="fill:#e2c16a;"/><path d="M60.78,34.27l-.14,.11-.17-.03-.07-.14c.13-.18,.25-.18,.38,0v.06Z" style="fill:#f3df41;"/><path d="M60.79,34.21l-.19,.03-.19-.03c0-.8-.22-1.54-.71-2.19-.02-.28-.04-.56-.05-.84,.11,.03,.2,.08,.28,.17,.51,.18,1.15,.22,1.09,1.01l-.23,1.85Z" style="fill:#7f5d10;"/><path d="M66.12,13.37c-.04,.12-.05,.25-.05,.38,.24,.55,.67,.95,1.09,1.36,.1,.14,.17,.29,.23,.45,.05,.26,0,.51-.07,.76-.03,.17-.07,.35-.12,.52-.08,.17-.18,.32-.29,.46-.18,.22-.41,.38-.69,.46-.39,.09-.75-.01-1.07-.24-.4-.36-.83-.7-1.22-1.07-.21-.29-.39-.6-.58-.91-.25-.39-.41-.81-.39-1.28,0-.18,.02-.36,.05-.54,.14-.42,.46-.75,.63-1.16,.07-.16,.14-.32,.23-.47,.11-.14,.25-.24,.41-.31,.26-.06,.52-.06,.77,.05,.11,.13,.22,.25,.33,.38h.17c.1,.09,.12,.18,.06,.24-.05,.05-.1,.08-.15,.08-.23,.62,.6,.44,.65,.85Z" style="fill:#ead827;"/><path d="M64.65,10.99c.04,.13,.06,.25,.08,.38-.06,.27-.2,.49-.41,.66v.13c-.66,.21-.7-.27-.78-.72,.03-.17,.1-.33,.21-.47,.14-.11,.29-.18,.46-.23,.17,.03,.32,.1,.44,.23Z" style="fill:#734925;"/><path d="M64.04,9.83c-.05-.26-.1-.53-.15-.79,.14-.11,.28-.22,.42-.32,.12,.39,.24,.79,.37,1.18-.09,.11-.2,.16-.34,.16-.14-.01-.24-.08-.3-.22Z" style="fill:#ae9306;"/><path d="M64.4,9.85c.1,0,.19,0,.28,.04,0,.37-.02,.74-.03,1.1-.13,0-.25-.01-.38-.02-.14-.39-.29-.79,.12-1.12Z" style="fill:#684302;"/><path d="M64.32,12.04c.14-.22,.27-.44,.41-.66,.11,.15,.22,.29,.33,.44-.25,.08-.5,.15-.74,.22Z" style="fill:#6e3c48;"/><path d="M65.47,12.51c0-.12,.04-.23,.09-.34l.33,.27-.42,.06Z" style="fill:#e5b9ae;"/><path d="M61.01,32.36c-.37-.33-.99-.4-1.09-1.01,.1-.08,.21-.17,.31-.25,1.01-1-.36-2.49,.73-3.47,.78-.81,1.56-1.01,2.33,.01,.44,.79,1.34,1.35,1.23,2.42-.02,.67-.16,1.27-.92,1.48-.66,.57-1.32,1.15-1.98,1.72-.2-.3-.4-.59-.6-.89Z" style="fill:#f2e11f;"/><path d="M61.19,27.96c-.4,1.02,.12,2.32-.96,3.14,.22-.53,.26-1.05-.07-1.56-.11-.41-.41-.78-.24-1.25,.02-.13,.06-.25,.13-.36,.12,0,.23-.03,.34-.1,.3-.16,.57-.1,.81,.13Z" style="fill:#e0c644;"/><path d="M59.92,28.29c.2,.39,.43,.78,.25,1.25-.51-.34-1.04-.66-.25-1.25Z" style="fill:#f7d97c;"/><path d="M71.35,24.37c.02,.1,.05,.19,.08,.29,.3,.53,.69,1,1.06,1.49,.02,.09,.04,.18,.06,.27,0,.19-.05,.37-.13,.54-.23,.33-.56,.49-.92,.63-.18,.05-.37,.05-.56,.02-.49-.3-1.05-.3-1.6-.33-.19-.06-.36-.16-.51-.3-.13-.16-.22-.34-.27-.54-.02-.2-.01-.41,.02-.61,.19-.6,.63-1.03,1.08-1.44,.56-.39,1.13-.38,1.7,0Z" style="fill:#e9d42f;"/><path d="M71.35,24.37l-1.47,.44c-.41,.02-.8,0-1.07-.37-.16-.28-.2-.58-.13-.89,.11-.3,.32-.53,.57-.73,.82-.51,1.37-.16,1.81,.55l.28,.99Z" style="fill:#f5e040;"/><path d="M71.07,23.37c-.53-.07-1.01-.45-1.57-.21-.97-.31-.69-.91-.37-1.53,.13-.14,.28-.25,.45-.34,.38-.14,.75-.13,1.13,0,.17,.08,.33,.19,.45,.34,.21,.33,.31,.68,.08,1.04l-.17,.71Z" style="fill:#b09030;"/><path d="M72.63,20.5c.02,.37,.05,.73,.07,1.1-.15,.06-.31,.12-.46,.17-.54,.22-1.06,.27-1.57-.09v-.05c-.25-.25-.27-.55-.16-.87,.52-.63,1.11-1,1.93-.53,.06,.09,.13,.17,.19,.26Z" style="fill:#997046;"/><path d="M70.66,21.68c.52,.03,1.05,.06,1.57,.08-.32,.31-.39,.91-1,.89-.19-.32-.38-.65-.58-.97Z" style="fill:#b19322;"/><path d="M72.28,26.27c-.86-.23-.77-.97-.85-1.62,.29,.15,.58,.3,.86,.45,.23,.39,.32,.78-.01,1.17Z" style="fill:#8b603d;"/><path d="M73.22,25.61l.16-.07,.05,.14c.27,.38,.3,.81,.28,1.26-.07,.17-.19,.3-.35,.39-.19,.02-.36-.03-.51-.14-.11-.15-.18-.32-.2-.51,0-.19,0-.37,.02-.56,.08-.28,.18-.54,.55-.5Z" style="fill:#9e716e;"/><path d="M73.22,25.61l-.31,.78c-.18,.09-.33,.06-.44-.11-.02-.35-.13-.72,.14-1.04l.61,.37Z" style="fill:#deb77e;"/><path d="M72.61,25.24l-.02,1.13c-.11,.13-.23,.15-.36,.02l.06-.13c0-.39,0-.78,.01-1.17,.11,.04,.21,.09,.31,.14Z" style="fill:#7e5918;"/><path d="M76.55,20.45c-.25,.5-.5,1-.75,1.5-.12,.04-.25,.08-.37,.11l-.05-.05c-.59-.65-1.53-.81-2.09-1.5l-.66-.03,.02-.12c-.21-.15-.37-.33-.43-.58-.04-.26,.04-.5,.13-.73,.05-.16,.1-.32,.15-.48,.07-.16,.16-.3,.26-.44,.28-.34,.58-.65,.99-.83,.58-.26,1.02,.02,1.45,.35,.16,.07,.31,.16,.45,.26,.27,.23,.59,.36,.87,.58,.19,.2,.28,.45,.29,.73,.07,.44,.25,.91-.26,1.23Z" style="fill:#f1e219;"/><path d="M73.29,20.52c.88,.25,1.67,.61,2.09,1.5l-.76-.29c-.65-.18-1.26-.39-1.33-1.21Z" style="fill:#f0df1a;"/><path d="M72.61,30.95l-.82-.93c-.68-.61-.17-1.27-.07-1.91,.07-.17,.18-.33,.32-.45,.31-.25,.68-.17,1.03-.2,.16-.06,.32-.12,.48-.18l-.08-.06c.16-.28,.4-.45,.73-.49,.12,.05,.24,.1,.36,.16-.03,.55,.1,1.06,.45,1.49,.36,.5,.17,.97-.05,1.44-.1,.24-.24,.46-.41,.67-.11,.14-.25,.26-.41,.35-.24,.14-.49,.25-.76,.29-.24-.1-.67,.51-.76-.19Z" style="fill:#f8e91a;"/><path d="M74.18,26.74c-.18,.26-.36,.52-.73,.49,0-.52-.02-1.04-.03-1.56,.63,.09,.36,.82,.75,1.07Z" style="fill:#835e2b;"/><path d="M73.82,30.33l.02-.43,.15-.08,.16-.06,.04-.16c.27-.4,.55-.8,.82-1.2,.27-.02,.54-.04,.81-.06,.25-.19,.53-.17,.81-.11,.46,.23,.69,.66,.92,1.08,.2,.57,.56,1.08,.56,1.71-.17,.68-.59,1.14-1.23,1.41-.63,.17-1.09-.1-1.48-.55-.53-.7-.82,.16-1.23,.2-.13-.08-.23-.19-.3-.32-.05-.14-.12-.27-.2-.4-.08-.13-.12-.27-.11-.42,.07-.21,.11-.44,.28-.6Z" style="fill:#f9e81e;"/><path d="M76.76,28.41c-.32-.03-.63-.05-.95-.08,0-.11,0-.22-.01-.34,.33-.03,.67-.02,.86-.38,.08,0,.16,0,.23,.04,.04,.07,.07,.15,.08,.23,.14,.09,.2,.21,.17,.37-.09,.14-.22,.19-.38,.15Z" style="fill:#f1d552;"/><path d="M75.78,26.77c-.1,.13-.21,.25-.31,.38,.1-.13,.21-.25,.31-.38Z" style="fill:#fee380;"/><path d="M75.87,22.12c.11,.03,.19,.09,.24,.19-.11-.03-.19-.09-.24-.19Z" style="fill:#fee682;"/><path d="M77.04,28.32c-.02-.14-.05-.29-.07-.44,.15,0,.29,.01,.44,.02,.14-.1,.27-.08,.36,.07-.01,.12-.03,.23-.05,.35l-.2,.17c-.18,.02-.34-.04-.47-.17Z" style="fill:#fad681;"/><path d="M77.76,27.98c-.12,0-.24-.03-.36-.07,.1-.08,.2-.15,.3-.23,0,.11,.02,.21,.06,.31Z" style="fill:#6d4512;"/><path d="M59.52,22.01c-.37-.13-.74-.26-1.12-.4-.31-.12-.63-.23-.94-.35-.45-.31-.46-.71-.25-1.15l.06-.09c.18-.32,.23-.72,.58-.93,.6-.32,1.06,.05,1.55,.31,.16,.08,.32,.17,.46,.27,.12,.13,.22,.27,.3,.43,.09,.24,.2,.47,.19,.73-.04,.24-.14,.43-.34,.57-.03,.13-.32-.09-.25,.19,0,0,.02,.18,.02,.18,0,0-.07,.17-.07,.18l-.18,.06Z" style="fill:#f9e822;"/><path d="M57.21,20.12c.24,.35,.38,.72,.25,1.15-.75-.12-1.13-.74-1.62-1.2,.46,.02,.92,.03,1.38,.05Z" style="fill:#7b5b00;"/><path d="M59.6,23.23c-.08-.28-.21-.56,.07-.8,.47-.47,.98-.57,1.56-.21,.37,.37,.43,.8,.26,1.27-.18,.32-.43,.53-.81,.54l-1.08-.81Z" style="fill:#edd636;"/><path d="M60.81,26.35l-.43-.7,.44-.85c.2-.08,.4-.08,.61,0,.53,.33,.66,.79,.43,1.36-.29,.37-.61,.59-1.04,.19Z" style="fill:#f6ea20;"/><path d="M61.25,24.87c-.14-.03-.29-.05-.43-.08-.04-.25-.09-.5-.13-.75,.15-.13,.3-.27,.45-.4,.07,.02,.14,.05,.22,.07,.18,.17,.26,.37,.26,.61-.02,.15-.08,.29-.17,.42-.06,.04-.12,.09-.19,.13Z" style="fill:#b89739;"/><path d="M61.14,22.42c-.49,0-.98,0-1.46,.01-.05-.14-.11-.28-.16-.42l.11-.03c.14-.18,.22-.41,.43-.54,.14-.09,.28-.14,.44-.17,.17,0,.32,.05,.47,.12,.21,.15,.34,.35,.39,.61,0,.17-.08,.31-.22,.42Z" style="fill:#82582a;"/><path d="M60.81,26.35c.32,.03,.63,.03,.77-.35,.26-.45,.57-.83,1.18-.68,.61,.26,.79,.87,1.09,1.38,.12,.55-.09,.97-.51,1.31-.19,.08-.37,.06-.53-.07-.55-1.19-1.08,.16-1.62,.02l-.81-.13c0-.08,0-.15,.02-.23,.19-.12,.22-.31,.22-.52,.02-.14,.08-.25,.17-.35,0-.13,0-.26,.01-.39Z" style="fill:#7a4c41;"/><path d="M60.75,27.18c.22,.41-.15,.35-.35,.43,0-.15,.02-.3,.03-.46,.12-.15,.23-.13,.32,.02Z" style="fill:#bf9667;"/><path d="M60.75,27.18c-.11-.02-.21-.02-.32-.02-.04-.28,.12-.39,.37-.41l-.05,.43Z" style="fill:#fee988;"/><path d="M77,16.93c.69-.24,1.46-.32,1.92-.99,.27-.02,.53-.04,.8-.07,.07,.53,.5,.58,.9,.66-.18,.37-.56,.35-.88,.44-.16,.33-.18,.71-.42,1-.22,.2-.46,.3-.75,.17l-.87,.35c-.41,.16-.64-.03-.81-.38l.1-1.18Z" style="fill:#7e503c;"/><path d="M78.97,17.74c.02-.49,.32-.7,.77-.77,.32,.3,.65,.59,.4,1.09-.13,.15-.26,.3-.39,.45l-.09-.05c-.31-.16-.51-.43-.68-.72Z" style="fill:#f4e12c;"/><path d="M60.86,12.49l.57,.48c.16,.07,.22,.14,.18,.22-.05,.09-.1,.13-.15,.13-.23,.02-.45,.03-.68,.05,.03-.29,.05-.58,.08-.88Z" style="fill:#af7f90;"/><path d="M58.07,19.19c-.11,.43-.35,.74-.8,.83-.4-.39-.97-.76-.63-1.4,.32-.6,.89-.12,1.36-.12,.22,.21,.24,.44,.08,.69Z" style="fill:#f9ec1e;"/><path d="M58.07,19.19c-.03-.23-.05-.46-.08-.69,.03-.1,.04-.21,.02-.31,.22-.01,.45-.02,.67-.03,.44-.03,.74,.18,.93,.57,.1,.29,.08,.57-.05,.85-.12,.15-.27,.28-.44,.38l-1.06-.76Z" style="fill:#ac8c26;"/><path d="M59.29,18.83c-.2-.22-.4-.45-.6-.67,.32-.15,.65-.3,.97-.46,.11,.27,.22,.53,.33,.8l-.03,.23c-.08,.14-.19,.24-.33,.31-.17,.03-.28-.04-.34-.2Z" style="fill:#e7d432;"/><path d="M59.99,18.5l.41-.06c.49-.25,.91-.11,1.29,.25,.1,.16,.16,.34,.17,.53-.23,.99-.93,.7-1.57,.57-.17-.08-.31-.18-.43-.33-.08-.16-.11-.34-.07-.52,.03-.18,.1-.34,.22-.47l-.02,.02Z" style="fill:#e7ce43;"/><path d="M61.58,19.02c-.39-.19-.79-.39-1.18-.58,.26-.12,.52-.24,.77-.35l.19-.15c.17,.02,.31,.09,.42,.22,.07,.15,.1,.31,.08,.48-.05,.16-.15,.29-.28,.39Z" style="fill:#a98742;"/><path d="M61.26,17.38c.1-.02,.2-.03,.3-.05,.12-.14,.28-.2,.46-.17,.26,.12,.41,.32,.46,.6,0,.18-.08,.33-.21,.46-.26,.12-.5,.11-.69-.13l.02,.02c-.15-.1-.28-.23-.38-.38,.01-.12,.03-.23,.04-.34Z" style="fill:#ba994e;"/><path d="M61.21,17.72l.38,.38c-.14,0-.28-.01-.42-.02,0-.12,.01-.25,.04-.36Z" style="fill:#664208;"/><path d="M87.71,39.31c-.01-.09-.04-.18-.07-.27,0-.12,0-.24,.01-.35,.09-.19,.22-.22,.38-.08l.04-.02c0,.17,0,.34-.01,.51,0,.07,0,.14,0,.21h-.35Z" style="fill:#e5c280;"/><path d="M88.04,38.61c-.13,.02-.26,.04-.38,.08,.11-.16,.21-.32,.32-.48l.07,.4Z" style="fill:#fcdd82;"/><path d="M83.69,37.04l-.49,.04c-.1-.03-.2-.05-.31-.06-.25-.14-.49-.27-.74-.41-.7-1.1-1.7-1.13-2.81-.77-.4-.39-.81-.77-1.21-1.16-.18-.51,.16-.57,.53-.61,.18,.05,.29,.16,.33,.34,.91,.22,1.82,.43,2.72,.65,.29,.97,1.21,1.18,1.95,1.61,.01,.12,.02,.24,.02,.36Z" style="fill:#805262;"/><path d="M76.9,18.11c.27,.13,.54,.25,.81,.38,0,.07,0,.14-.02,.21l-.46,1.58c-.5-.21-.61-.79-1.01-1.1l-.03-.69-.16-.21,.06-.26,.82,.1Z" style="fill:#8d691c;"/><path d="M78.97,17.74c.39,.08,.64,.3,.68,.72-.48,.31-.9,.4-1.08-.31,.13-.13,.27-.27,.4-.4Z" style="fill:#fbef15;"/><path d="M76.21,19.18c.54,.18,.77,.64,1.01,1.1-.03,.16-.07,.32-.1,.48-.19-.1-.38-.2-.57-.3-.11-.43-.22-.85-.33-1.28Z" style="fill:#f0df1a;"/><path d="M76.91,31.9l.82-1.1c-.07-.75,.32-.71,.82-.47,.08,.52,.33,.92,.79,1.19,.11,.14,.14,.29,.1,.47-.11,.25-.29,.41-.53,.52-.22,.13-.44,.26-.69,.33-.17,.03-.34,.04-.52,.04-.17-.01-.34-.05-.51-.11-.15-.09-.27-.22-.36-.37-.04-.18-.02-.34,.08-.49Z" style="fill:#ecd53c;"/><path d="M78.55,30.33c-.27,.16-.54,.31-.82,.47-.46-.32-.73-.75-.74-1.32,.12-.31,.27-.59,.63-.68,.16-.02,.32-.03,.48-.03,.16,0,.32,.04,.47,.09,.14,.08,.27,.18,.38,.3l-.41,1.17Z" style="fill:#efd24d;"/><path d="M79.28,31.94l.05-.42c.01-.14,.03-.28,.04-.43,.12,.01,.24,.03,.36,.04,0,.13,.02,.25,.03,.38,.1,.1,.14,.2,.11,.3-.03,.1-.06,.16-.09,.16l-.26,.07-.25-.11Z" style="fill:#e0c341;"/><path d="M78.96,29.16h-.36c-.07-.07-.14-.13-.21-.2,.03-.09,.06-.18,.08-.27,.18-.12,.34-.1,.48,.06h-.03l.03,.41Z" style="fill:#9e7a1f;"/><path d="M79.72,31.94c.02-.14,.03-.28,.05-.43,.51,.13,1.01,.26,1.52,.4l.08-.03c.16,.21,.14,.45,.13,.69-.02,.17-.1,.3-.23,.4-.15,.07-.31,.11-.47,.12-.25,0-.5,0-.74,0-.17-.04-.31-.11-.44-.23-.09-.14-.14-.3-.14-.47,.04-.17,.12-.31,.24-.43Z" style="fill:#f4dc3a;"/><path d="M81.38,32.68v-.8c.08,.02,.17,.01,.26-.01,.04,.16,.09,.31,.13,.47-.02,.12-.04,.25-.04,.37-.12,.09-.24,.08-.35-.03Z" style="fill:#a68716;"/><path d="M78.96,28.76h-.43c-.1-.09-.13-.18-.08-.27,.04-.08,.08-.12,.12-.12,.13,0,.26,0,.39-.01v.4Z" style="fill:#e6c26d;"/><path d="M61.97,13.71c0-.11,0-.21-.02-.32,.08-.05,.15-.1,.23-.15,.54-.06,.84,.23,1.02,.7,.21,.43-.03,.86,.01,1.29-.05,.17-.14,.31-.26,.43-.08,.03-.16,.06-.24,.1-.76-.5-.73-1.28-.74-2.05Z" style="fill:#eddf20;"/><path d="M61.93,17.31c-.12,0-.25,.01-.37,.01,.16-.4,.22-.79,.02-1.19l1.18,.33c.43-.19,.71,.02,.94,.36,.02,.09,.04,.19,.05,.28-.03,.19-.12,.35-.27,.48-.36,.23-.71,.17-1.07,0-.17-.07-.34-.16-.49-.27Z" style="fill:#b5982c;"/><path d="M63.59,17.18c-.28-.24-.55-.48-.83-.72-.01-.24-.03-.47-.04-.71l.07-.09c1.3-.04,1.26,.63,.81,1.52Z" style="fill:#f1da45;"/><path d="M61.45,13.32c.02-.12,.01-.24-.03-.35,.06-.12,.12-.25,.17-.37,.34-.15,.48,.06,.6,.32,.02,.19-.02,.35-.15,.49l-.1-.02c-.17-.02-.33-.05-.5-.07Z" style="fill:#714154;"/><path d="M62.34,11.66c-.13-.1-.26-.19-.39-.29,.45-.72,1.18-.76,1.92-.78,.26,.09,.28,.22,.08,.4l-.03,.02c-.28,.48-.47,1.05-1.19,1.01-.19-.05-.32-.17-.39-.35Z" style="fill:#f4e131;"/><path d="M63.94,10.98c-.03-.13-.05-.26-.08-.4,.06-.25,.12-.51,.18-.76,.12,0,.24,.01,.35,.03-.04,.37-.08,.75-.12,1.12h-.34Z" style="fill:#ae8e1c;"/><path d="M62.34,11.66l.47-.03c.4,.19,.65,.49,.65,.95-.03,.21-.12,.39-.27,.54-.4,.25-.78,.12-1.16-.06-.14-.16-.29-.31-.43-.47,.24-.31,.49-.62,.73-.94Z" style="fill:#724541;"/><path d="M80.16,32.73h.72c.19,.12,.43,.17,.57,.37,.04,.17-.02,.29-.17,.37l-.81-.03c-.17-.06-.31-.15-.44-.27-.07-.18-.03-.32,.13-.43Z" style="fill:#997427;"/><path d="M79.79,33.93c-.14,.36-.46,.43-.79,.49-.08-.03-.16-.07-.24-.11-.02-.18,.02-.34,.13-.48,.14-.11,.3-.16,.48-.17,.18,.03,.32,.13,.42,.27Z" style="fill:#896821;"/><path d="M79.79,33.93l-.49-.08c-.09-.15-.09-.3,0-.45,.13-.1,.28-.15,.45-.16,.16,.04,.3,.12,.4,.25l-.35,.43Z" style="fill:#a8834a;"/><path d="M80.14,33.5l-.17-.03-.17,.02c-.24-.35-.07-.45,.27-.44,.13,.13,.27,.25,.4,.38-.11,.04-.22,.06-.33,.07Z" style="fill:#77530b;"/><path d="M81.28,33.47c-.02-.09-.02-.18-.01-.28-.12-.18-.11-.34,.03-.5h.09c.12,0,.23,0,.35,.02l-.02-.02c.14,.18,.19,.38,.18,.61-.01,.17-.1,.24-.27,.22-.12,0-.23-.02-.35-.05Z" style="fill:#dabe3a;"/><path d="M82.12,33.49c-.01,.14-.03,.28-.04,.42-.15-.13-.3-.26-.45-.39l.11-.04c.12-.25,.24-.26,.37,0v.02Z" style="fill:#cdaa51;"/><path d="M75.43,18.09l-1.47-.39c-.08,0-.16,.01-.24,.02-.11-.12-.18-.25-.22-.41,0-.16,.04-.31,.12-.45,.16-.18,.43-.2,.6-.36,.51,.03,1.13-.16,1.18,.67-.07,.31,.24,.61,.02,.92Z" style="fill:#93721e;"/><path d="M74.23,16.5l-.44,.57c-.34,.24-.69,.41-1.12,.32-.2-.06-.36-.17-.5-.32-.12-.19-.11-.38,.01-.56,.11-.27,.21-.54,.32-.81,.36,.12,.71,.25,1.07,.37,.22,.14,.44,.29,.65,.43Z" style="fill:#b18d40;"/><path d="M75.43,18.09c.02-.31-.57-.6-.02-.92,.22,.28,.44,.56,.66,.84l.11,.12c-.28,.21-.56,.21-.82-.04h.05Z" style="fill:#fee57a;"/><path d="M72.19,16.51c.03,.12,.05,.25,.05,.37,.12,.16,.14,.33,.08,.52-.22,.35-.5,.54-.93,.38-.2-.23-.24-.49-.16-.78,.15-.25,.38-.4,.65-.49,.1,0,.21,0,.31,0Z" style="fill:#cfad58;"/><path d="M71.88,16.5l-.4,.43c-.11-.07-.15-.15-.15-.25,0-.1,.03-.15,.05-.15l.43-.35c0,.11,.02,.21,.06,.32Z" style="fill:#8d6f01;"/><path d="M82.11,33.47c-.12,0-.24,0-.37,0,0-.26-.02-.53-.02-.79l.39,.41c0,.13,0,.25,0,.38Z" style="fill:#ba9c27;"/><path d="M69.11,17.25l.79-.06c.06,.07,.13,.15,.19,.22,.27,.97-.17,1.72-.76,2.43-.17,.13-.36,.2-.57,.23-.44,0-.82-.19-1.2-.37-.19-.12-.33-.28-.44-.47-.36-.89,.13-1.45,.78-1.93,.39-.27,.8-.23,1.21-.04Z" style="fill:#a17f22;"/><path d="M71.39,16.54l.09,.4c.01,.28,.03,.56,.04,.84,.04,.19,0,.36-.14,.5-.17,.09-.35,.13-.54,.13-.54-.11-.77-.49-.86-.99-.05-.07-.08-.14-.08-.23,.5-.22,.99-.43,1.49-.65Z" style="fill:#f5e041;"/><path d="M69.11,17.25l-.85,.44c-.3,.19-.46,.01-.58-.24-.02-.17,0-.34,.09-.5,.12-.13,.26-.22,.43-.26,.18,0,.33,.06,.48,.16l.43,.39Z" style="fill:#836209;"/><path d="M68.68,16.86c-.12,.04-.24,.05-.36,.04-.14-.08-.23-.2-.25-.36,.02-.16,.1-.28,.24-.37,.13,0,.25-.01,.38,0v.69Z" style="fill:#fbe540;"/><path d="M67.02,15.34c-1.04-.1-1.09-.79-.95-1.59,.5,.22,1.15,.16,1.43,.78l-.03,.71-.07,.23c-.16,.07-.29,.02-.38-.13Z" style="fill:#875e43;"/><path d="M67.88,15.42c.04,.15,.08,.29,.12,.44l-.11,.12c-.15,.02-.28,0-.41-.08l-.12-.17c-.03-.15,.03-.27,.17-.34l-.05-.14,.41,.18Z" style="fill:#d6b17e;"/><path d="M68.31,16.17l-.08,.43c-.15,.03-.28-.02-.38-.13l-.05-.21,.11-.18,.4,.1Z" style="fill:#f7d968;"/><path d="M67.5,15.74c.13,.08,.26,.16,.38,.24l.02,.1v.04c-.14,.13-.29,.16-.45,.07-.09-.16-.08-.31,.05-.45Z" style="fill:#fede8f;"/><path d="M78.57,28.37c-.02,.13-.03,.26-.03,.39l.02-.03c-.1,.15-.23,.26-.39,.35-.1,.02-.21,.04-.32,.03-.32-.18-.33-.45-.18-.74l.04-.05,.86,.04Z" style="fill:#6f3e38;"/><path d="M76.91,31.9l.1,.41c.25,.29,.35,.61,.16,.97-.12,.14-.27,.2-.46,.19-.78-.25-1.37-.67-1.32-1.61,.51,.01,1.01,.03,1.52,.04Z" style="fill:#7a4f45;"/><path d="M76.7,33.47c.08,0,.17,0,.25-.02l.22-.04c.21-.06,.43-.1,.66-.1,.15,0,.3,0,.45,.02,.15,.02,.29,.08,.43,.16,.05,.06,.1,.11,.15,.17l.08,.22c-.06,.15-.12,.29-.18,.44-.21,.13-.41,.25-.62,.38-.51-.37-1.39-.3-1.43-1.21Z" style="fill:#6b3d40;"/><path d="M73.51,32.33c-.04-.11-.07-.22-.09-.33,.07-.16,.19-.26,.36-.3,.17,.02,.32,.09,.44,.2,.03,.08,0,.13-.07,.16-.11,.35-.42,.21-.65,.27Z" style="fill:#e9ca72;"/><path d="M69.08,26.44c0,.11,0,.23,0,.34,.26,.27,.52,.55,.54,.96,.04,.51-.17,.91-.5,1.27l-1.29,.09c-.55-.24-.96-.62-1.22-1.15-.07-.3-.06-.59,0-.89,.32-.75,.54-1.62,1.66-1.47,.2,.06,.37,.16,.51,.32,.08,.19,.17,.36,.29,.53Z" style="fill:#eddb24;"/><path d="M72.27,28c-.16,.67-.32,1.35-.48,2.02-.76,.2-1.55,.45-1.63-.78-.08-.18-.09-.36-.04-.55,.09-.17,.21-.31,.37-.42,.44-.17,.81-.49,1.3-.53,.19,.03,.35,.12,.48,.27Z" style="fill:#e3cb3b;"/><path d="M63.6,31.54l.37-1.54c.68-.48,1.33-.8,1.87,.18,.05,.41,.02,.78-.48,.9-.59,.21-1.01,.57-1.04,1.25-.12,.01-.24,.04-.36,.09-.12-.29-.25-.58-.37-.87Z" style="fill:#7e5d00;"/><path d="M67.11,27.96c.63,.13,.82,.54,.73,1.14-.17,.4-.35,.81-.52,1.21-1.03-.2-.93-.91-.76-1.66,.08-.31,.25-.55,.55-.69Z" style="fill:#ebca67;"/><path d="M65.36,31.07l.12-1.02c-.12-.16-.16-.34-.12-.54,.21-.37,.51-.56,.95-.46,.42,.3,.16,.94,.6,1.23-.4,.48-.87,.83-1.54,.79Z" style="fill:#e8c86c;"/><path d="M66.91,30.28c-.51-.21-.73-.59-.71-1.14-.05-.17-.03-.33,.07-.48,.23-.16,.47-.18,.72-.04,.12,.56-.39,1.25,.34,1.69-.14-.01-.27-.02-.41-.03Z" style="fill:#916d20;"/><path d="M70.26,28.75c-.03,.17-.07,.33-.1,.5-.45,.38-.76,.12-1.03-.24-.3-.36-.11-.72,0-1.09,.14-.1,.29-.15,.46-.13,.16,.06,.29,.15,.41,.27,.1,.13,.18,.28,.24,.43l.03,.25Z" style="fill:#fee767;"/><path d="M72.61,30.95l.72-.23c.19,.07,.29,.21,.28,.41,0,.2-.1,.34-.28,.42-.37-.02-.74-.04-1.11-.06,.13-.18,.26-.36,.39-.54Z" style="fill:#f8da6f;"/><path d="M73.33,31.56l.19-.35,.08-.33,.17,.29h0c.29,.21,.27,.44,.05,.69-.13,.05-.27,.09-.4,.14-.03-.15-.06-.29-.09-.44Z" style="fill:#876513;"/><path d="M63.17,12.53c-.12-.3-.24-.59-.36-.89,.37-.21,.74-.42,1.1-.64,.06,.42,0,.88,.43,1.17l-.09,.45c-.43,.81-.76,.45-1.08-.09Z" style="fill:#b7944c;"/><path d="M64.43,16.07l1.06,.78c-.22,.39-.42,.8-.67,1.18-.13,.14-.28,.24-.45,.3-.19,.02-.36-.02-.53-.1-.14-.13-.23-.28-.29-.46l.03-.28,.02-.17c.4-.34-.25-1.37,.83-1.25Z" style="fill:#836108;"/><path d="M64.34,17.73c.12-.63,.68-.7,1.15-.88,.24,.16,.47,.32,.71,.47,.33,.22,.35,.51,.23,.85-.21,.28-.5,.41-.84,.44-.65,.04-1-.36-1.25-.88Z" style="fill:#f3dc45;"/><path d="M64.43,16.07c-.28,.42-.56,.84-.83,1.25v-.14c.02-.66-.11-1.24-.81-1.52-.02-.11-.03-.21-.02-.32,.38-.35,.76-.29,1.15-.02l.51,.74Z" style="fill:#b39528;"/><path d="M62.03,13.06l1.06-.13c.39,.24,.77,.49,.44,1.03l-.04,.08-.07,.35-.26-.25c-.37-.24-.75-.49-1.12-.73-.02-.12-.03-.23-.02-.35Z" style="fill:#d0b260;"/><path d="M63.53,13.96c-.14-.34-.29-.69-.44-1.03,.02-.14,.05-.27,.07-.41,.34,.3,.7,.32,1.08,.09,.16,.66-.32,.98-.71,1.35Z" style="fill:#92751f;"/><path d="M63.17,14.14c.11-.03,.22-.06,.32-.1,.14,.43,.28,.86,.42,1.29-.38,0-.77,.01-1.15,.02,.13-.4,.27-.8,.4-1.2Z" style="fill:#794d32;"/><path d="M66.29,18.11l-.08-.79c.14-.16,.29-.31,.43-.47,.08,.02,.17,.03,.25,.05,.15,.08,.28,.19,.38,.33,.12,.24,.17,.48,.07,.74-.08,.16-.19,.28-.35,.36-.27,.05-.51,0-.7-.22Z" style="fill:#89612c;"/><path d="M67.5,15.74c0,.12,.01,.24,.06,.36,.08,.15,.07,.3-.03,.43-.14,.1-.29,.13-.45,.11-.17-.17-.36-.32-.25-.61,.05-.12,.12-.22,.23-.29,.16-.22,.29-.21,.38,.05l.07-.05Z" style="fill:#77521e;"/><path d="M66.82,16.03l.36,.46c-.18,.2-.38,.21-.58,.03l.22-.49Z" style="fill:#d0b244;"/><path d="M66.6,16.52c.19-.01,.39-.02,.58-.03,.1,.03,.21,.05,.32,.06l.15,.22-.11,.25-.25,.1c-.19,0-.34-.06-.47-.2l-.18-.06c0-.11-.01-.22-.04-.33Z" style="fill:#fee17d;"/><path d="M67.43,15.79c-.13-.02-.26-.04-.38-.05,0-.13-.02-.26-.03-.4,.17,.01,.33,.03,.5,.04l-.09,.41Z" style="fill:#be976d;"/><path d="M65.6,29.61l-.12,.44c-.51,.03-1.04,.82-1.52-.06-.14-.82-1.16-1.15-1.15-2.05,.13,.02,.25,.06,.36,.12,.46-.09,.92-.26,1.4-.07,.64,.35,.89,.94,1.03,1.61Z" style="fill:#f0de25;"/><path d="M71.79,27.98c-.13,.57-.53,.74-1.05,.75-.13-.09-.26-.17-.39-.26-.3-.13-.57-.29-.64-.65,.02-.17,.08-.32,.18-.46,.35-.35,.79-.21,1.21-.21,.11,0,.22,.02,.32,.05l.2,.05c.1,.09,.17,.2,.22,.33,.01,.14,0,.27-.03,.4Z" style="fill:#845c3d;"/><path d="M71.08,27.15c-.32,.36-.76,.36-1.19,.4l-.23-.02c-.14-.07-.25-.18-.32-.32-.06-.16,0-.28,.15-.36,.64-.46,1.19-.46,1.6,.3Z" style="fill:#5c331d;"/><path d="M69.09,24.3l.8,.51c-.29,.37-.59,.73-.88,1.1-.05,.22-.15,.26-.29,.07h0c-.42-.45-.56-.94-.21-1.5,.17-.18,.37-.23,.6-.18Z" style="fill:#b4981e;"/><path d="M69.49,26.85l.03,.45c.13,.08,.25,.18,.37,.28v-.03c0,.13-.01,.25-.02,.38-.11,.16-.26,.21-.45,.12-.1-.05-.2-.1-.31-.13-.01-.38-.03-.76-.04-1.15,.14,.02,.27,.05,.41,.08Z" style="fill:#7f582f;"/><path d="M72.22,26.4c.12-.02,.24-.03,.36-.02,.11,0,.22,0,.33,.02,.04,.12,.06,.25,.05,.38-.08,.13-.2,.21-.36,.24l-.22-.04-.18-.14,.02-.43Z" style="fill:#d8b961;"/><path d="M71.4,27.19c.27-.12,.53-.25,.8-.37l.05-.05c.09,.09,.13,.19,.12,.29-.01,.11-.03,.16-.05,.16-.13,.11-.29,.18-.46,.19-.17-.04-.32-.11-.44-.24h-.01Z" style="fill:#b59839;"/><path d="M68.71,25.98c.1-.02,.2-.04,.29-.07,.03,.18,.05,.35,.08,.53-.12-.15-.25-.31-.37-.46Z" style="fill:#ecd151;"/><path d="M69.43,21.69c.08,.49-.34,1,.07,1.47-.15,.16-.3,.32-.45,.48-.61,.41-.98,.11-1.27-.42-.16-.51-.29-1.01-.13-1.55,.11-.19,.26-.33,.45-.43,.2-.07,.4-.1,.61-.08,.21,.04,.39,.12,.55,.26l.16,.26Z" style="fill:#f5e622;"/><path d="M68.27,22.84c.1,.43,.36,.69,.79,.8,.01,.22,.02,.44,.04,.66-.2,.03-.41,.06-.61,.1-.77,.29-.92-.21-1.02-.78,.09-.45,.22-.85,.8-.78Z" style="fill:#eed83c;"/><path d="M70.65,20.91c0,.24,0,.48,.01,.72-.27,0-.54,0-.8,0-.22-.4,.01-.63,.32-.82l.25-.04,.21,.14Z" style="fill:#9e7932;"/><path d="M70.29,20.93c-.14,.23-.29,.46-.43,.7-.14,.02-.29,.04-.43,.06h0c-.11-.14-.17-.3-.2-.47,.02-.18,.08-.33,.19-.47,.24-.14,.48-.15,.73-.03l.15,.21Z" style="fill:#b59046;"/><path d="M72.64,19.78c0,.2,0,.4,0,.59-.67,.18-1.33,.36-2,.54v-.15c-.59-.97-.14-1.58,.69-2.07,.82-.1,1.1,.44,1.3,1.09Z" style="fill:#d7ba39;"/><path d="M72.6,26.79c.12,0,.24,0,.36-.02,.04,.13,.07,.26,.11,.39,.11,.13,.23,.26,.36,.37-.12,.34-.41,.41-.72,.4-.16-.09-.28-.22-.33-.4,0-.27,.04-.54,.22-.76Z" style="fill:#ad9123;"/><path d="M73.43,27.54c-.12-.12-.24-.25-.36-.37,.16,.04,.31,.08,.47,.12-.02,.09-.05,.17-.11,.25Z" style="fill:#77520c;"/><path d="M72.64,19.78c-.55-.09-.81-.51-1.07-.93-.47-.05-.67-.28-.52-.76h.43c.16-.2,.41-.25,.64-.33,.17-.01,.32,.01,.48,.08,.13,.1,.23,.22,.29,.38,0,.16-.01,.32-.05,.47-.03,.24,.02,.47,.11,.69l-.32,.4Z" style="fill:#b68d5b;"/><path d="M73.96,17.7l-.83,.8-.25-.07c-.06-.26-.09-.51,.06-.75,.13-.12,.28-.2,.45-.23,.17,.02,.34,.07,.49,.16l.08,.08Z" style="fill:#e6ce3f;"/><path d="M75.38,18.08l.82,.04c0,.12,0,.24-.01,.35l-.8-.4Z" style="fill:#8e7500;"/><path d="M72.64,18.92v-.44c.09-.28,.2-.28,.31,0l.18,.03-.17,.43c-.11,.1-.22,.1-.32-.02Z" style="fill:#b68872;"/><path d="M72.64,18.92c.11,0,.22,0,.32,.02,0,.15,0,.29,0,.44-.11-.15-.22-.31-.33-.46Z" style="fill:#7d5321;"/><path d="M72.59,27.55c.04,.13,.08,.26,.12,.39-.15,.02-.29,.04-.44,.06-.16,0-.32-.02-.48-.03l-.27-.41c.07-.13,.18-.19,.32-.19,.14,0,.27,0,.41-.01,.14,0,.26,.06,.34,.18Z" style="fill:#d4b74f;"/><path d="M73.77,31.17c-.08,.03-.16,.04-.25,.04-.06-.16-.13-.32-.19-.48,.16-.13,.33-.26,.49-.4l-.05,.84Z" style="fill:#bea518;"/><path d="M74.17,29.92h-.17l-.17-.02c.11-.1,.23-.21,.34-.31h0c.11,.09,.14,.16,.1,.23-.04,.07-.08,.1-.11,.1Z" style="fill:#836800;"/><path d="M77.67,28.37c.06,.25,.12,.5,.18,.74-.28,.12-.56,.24-.85,.37-.08-.36-.16-.71-.24-1.07,.11,0,.2-.02,.28-.09,.21,.02,.42,.03,.63,.05Z" style="fill:#947308;"/><path d="M73.82,31.85c-.02-.23-.03-.46-.05-.69,.15,.24,.3,.49,.45,.73l-.41-.04Z" style="fill:#bea518;"/><path d="M74.17,29.92c.02-.11,.03-.21,.01-.32l.1,.16-.11,.16Z" style="fill:#fee74b;"/><path d="M59.63,20.52l-.04-.4c.12-.18,.28-.3,.49-.37,.53-.02,1.08-.07,1.19,.66-.17,.3-.44,.42-.77,.43-.31-.05-.59-.18-.87-.32Z" style="fill:#f8dd62;"/><path d="M59.98,20.04c-.13,.02-.25,.05-.38,.07-.16-.05-.31-.1-.47-.15,0-.08,.03-.16,.06-.24,.24-.21,.32-.71,.82-.41h-.01c.25,.25,.25,.49,0,.73Z" style="fill:#d1b42e;"/><path d="M60.22,21.67c-.09,.02-.19,.05-.28,.08-.15,.06-.26,.03-.34-.11v.03c-.06-.07-.1-.15-.1-.23,0-.09,.01-.13,.03-.13l.45-.34c.09-.21,.23-.26,.44-.19,.12,.16,.18,.34,.18,.53-.05,.2-.18,.32-.39,.36Z" style="fill:#ecd830;"/><path d="M60.33,20.98l-.17-.02h-.17c-.12-.14-.24-.29-.35-.44,.25,0,.51,0,.76,.01,.12,.17,.09,.32-.06,.45Z" style="fill:#937703;"/><path d="M59.6,21.64c.12,.03,.23,.07,.34,.11-.11,.08-.21,.16-.31,.23-.01-.12-.02-.23-.03-.35Z" style="fill:#775400;"/><path d="M59.53,21.31c.03,.12,.05,.24,.07,.36-.06-.08-.13-.15-.17-.24,0-.02,.06-.08,.1-.12Z" style="fill:#b6a400;"/><path d="M61.14,22.42c.04-.11,.06-.22,.06-.33,.29-.43,.69-.51,1.17-.41,.33,.12,.57,.35,.73,.67,.21,.61,.02,1.11-.45,1.51-.19,.12-.4,.18-.63,.2-.34-.02-.62-.2-.87-.41h-.01c0-.42,0-.82,0-1.23Z" style="fill:#f9eb1e;"/><path d="M62.74,25.69c-.45-.15-.78,.19-1.15,.32-.11-.38-.22-.75-.33-1.13l-.08-.13c.27-.2,.56-.29,.89-.24,.5,.24,.99,.49,.67,1.19Z" style="fill:#fce845;"/><path d="M61.15,23.65l.8,.05c.14,.11,.22,.26,.23,.44-.04,.18-.13,.32-.28,.42-.26,.03-.53,.1-.72-.16l-.04-.76Z" style="fill:#f0d071;"/><path d="M61.18,24.41l.78-.02c.16,.22,.21,.46,.16,.72-.32-.12-.63-.25-.95-.38,.01-.11,.01-.22,0-.33Z" style="fill:#997913;"/><path d="M62.3,22.04c-.37,.01-.73,.03-1.1,.04l-.45-.38c.05-.09,.11-.18,.16-.27,.49-.36,.96-.35,1.42,.05,.14,.19,.13,.38-.03,.55Z" style="fill:#e7c183;"/><path d="M60.22,21.67l.18-.43c.14-.09,.28-.09,.41,.02,.1,.14,.09,.27-.03,.4l-.02,.05c-.18-.01-.36-.03-.54-.04Z" style="fill:#e9c289;"/><path d="M62.13,25.11l-.16-.72-.02,.02c.73-.65,1.43-.38,2.13,.07,.64,.71,.55,1.41-.02,2.1-.14,.17-.32,.29-.54,.36-.69-.15-.84-.63-.79-1.24-.2-.19-.41-.38-.61-.57Z" style="fill:#dbbe4a;"/><path d="M64.33,28.32c-.48,.35-.89,.39-1.16-.25,.12-.38,.23-.76,.35-1.14,.02-.16,.03-.33,.05-.5,.81,.09,.92,.71,1.01,1.34-.01,.21-.1,.4-.25,.54Z" style="fill:#8f6f05;"/><path d="M60,19.31c-.27,.14-.54,.27-.82,.41,.03-.3,.07-.59,.1-.89,.11,.02,.23,.02,.34,.01,.12-.12,.24-.12,.37,0v.47Z" style="fill:#fede6b;"/><path d="M60,18.84l-.18,.03-.18-.02c.13-.12,.25-.24,.38-.36-.01,.12-.02,.24-.01,.36Z" style="fill:#8e6d0b;"/><path d="M59.98,20.04c0-.24,0-.49,0-.73,.55,0,1.11,.02,1.66,.03,.13-.16,.29-.24,.5-.23,.31,.08,.51,.29,.63,.58,.14,.56-.05,.99-.52,1.31-.18,.09-.38,.12-.58,.09-.3-.12-.48-.33-.51-.66l-1.19-.39Z" style="fill:#f6e143;"/><path d="M62.04,19.25c-.13,.03-.27,.06-.4,.09-.02-.1-.05-.21-.06-.31,.04-.08,.05-.16,0-.24,.14-.05,.27-.02,.39,.07,.09,.12,.11,.25,.06,.4Z" style="fill:#ebcb77;"/><path d="M61.96,18.87c-.13,0-.26-.02-.37-.08,0-.23,0-.47-.01-.7h.77l.13,.17c.01,.25-.1,.43-.29,.57-.07,.01-.15,.03-.22,.04Z" style="fill:#6f4724;"/><path d="M62.35,18.07c0-.12,0-.23,0-.35l.22-.12c.16,.09,.23,.22,.21,.4-.11,.14-.25,.19-.42,.12l-.02-.05Z" style="fill:#deb599;"/><path d="M61.93,17.31c.13-.01,.25,0,.38,.03,.29,.08,.3,.19,.04,.34v.04c-.14-.14-.28-.27-.42-.41Z" style="fill:#724f0b;"/><path d="M76.96,33.45l.05-1.14c.11,0,.22,.02,.33,.03,.14,.1,.24,.23,.32,.38,.04,.17,.03,.33-.02,.5-.14,.24-.31,.38-.6,.26l-.08-.03Z" style="fill:#eecf7a;"/><path d="M77.48,33.13c-.03-.11-.06-.21-.08-.32,.07-.21,.2-.38,.4-.47,.1,0,.2,0,.3-.01,.15,.07,.25,.19,.3,.35,.01,.16-.02,.32-.09,.46-.12,.12-.25,.19-.42,.21-.16-.01-.3-.08-.41-.21Z" style="fill:#795c03;"/><path d="M78.5,32.03c.26-.03,.52-.06,.78-.09h.1c.1,.17,.11,.33,0,.49-.24,.16-.49,.18-.75,.06-.15-.12-.19-.27-.13-.46Z" style="fill:#eacc5f;"/><path d="M78.5,32.03c.01,.07,.02,.14,.03,.21,.17,.09,.22,.23,.14,.41l-.21,.14-.19-.17c-.06-.1-.11-.2-.17-.31,.13-.09,.27-.19,.4-.28Z" style="fill:#f5db65;"/><path d="M77.8,32.33c-.13,.16-.27,.32-.4,.47-.02-.15-.04-.31-.06-.46,.15,0,.31,0,.47-.01Z" style="fill:#ddc442;"/><path d="M78.16,29.08l.39-.35c.02,.14,.04,.29,.05,.43-.15-.03-.3-.06-.44-.08Z" style="fill:#ebc08d;"/><path d="M79.3,32.31c.02-.12,.05-.24,.09-.36,.11,0,.22-.01,.33,0,.02,.12,0,.24-.05,.35-.12,.13-.24,.13-.36,.01Z" style="fill:#917600;"/><path d="M79.3,32.31c.12-.01,.24-.02,.36-.01,0,.13,.01,.26,.01,.39-.12,.15-.27,.25-.46,.3-.3,.01-.55-.07-.7-.36-.01-.13,0-.25,.01-.38,.26,.02,.51,.04,.77,.06Z" style="fill:#b1922f;"/><path d="M79.36,32.73c.1-.01,.21-.03,.31-.04,.16,.01,.32,.03,.49,.04-.03,.11-.06,.21-.09,.32-.09,.15-.18,.29-.27,.44h-.43c-.13-.09-.21-.22-.24-.38,.02-.16,.09-.29,.23-.38Z" style="fill:#e6c664;"/><path d="M81.3,32.69c0,.17-.02,.33-.03,.5-.13-.16-.26-.31-.39-.47,.14-.01,.28-.02,.42-.03Z" style="fill:#dcbd4b;"/><path d="M62.35,17.68c-.01-.11-.02-.22-.04-.34,.42,.05,.85,.1,1.27,.15l-.03,.03c.01,.14,0,.29-.02,.43-.07,.13-.17,.23-.3,.31l-.21,.04-.21-.06-.12-.18-.35-.37Z" style="fill:#9c773b;"/><path d="M79.32,33.08c.02,.14,.03,.27,.05,.41-.03,.12-.06,.24-.07,.36l-.17,.02h-.18v.02c-.24-.44-.3-.8,.38-.81Z" style="fill:#eac199;"/><path d="M73.39,17.68l-.18,.04h-.18l-.24-.05c-.14-.09-.25-.21-.32-.36-.02-.18,.06-.3,.21-.39,.37,.05,.74,.1,1.11,.14l.03,.18c-.12,.17-.23,.34-.43,.43Z" style="fill:#7b5229;"/><path d="M73.39,17.68l.43-.43c0,.13,.03,.25,.06,.38-.16,.02-.32,.04-.49,.06Z" style="fill:#dfb880;"/><path d="M72.69,16.92c-.03,.13-.04,.26-.04,.39l-.21,.1-.21-.11v-.43c.15,.01,.3,.03,.45,.04Z" style="fill:#f1ce7e;"/><path d="M72.22,18.04c-.24,.02-.49,.05-.73,.07,0-.11,0-.22,.03-.33,.24-.16,.47-.31,.71-.47v.02c.12,.09,.19,.21,.22,.36-.02,.15-.1,.27-.24,.35Z" style="fill:#805920;"/><path d="M71.06,18.09c.17,.25,.34,.5,.52,.76-.31,.64-.62,1.28-.93,1.92-.11,.07-.23,.13-.35,.17v-.08c-.38-.47-1.17-.51-1.28-1.24-.07-.91,.5-1.53,.97-2.2,.36,.23,.71,.45,1.07,.68Z" style="fill:#f0dc29;"/><path d="M69.02,19.61c1.08-.26,1.01,.65,1.26,1.24l-.82,.02c-.15,.22-.26,.47-.55,.55-.18-.02-.35-.08-.5-.2-.2-.22-.27-.48-.27-.77,0-.19,.05-.37,.12-.55,.11-.16,.25-.28,.42-.37,.12,0,.23,.03,.34,.07Z" style="fill:#d2b057;"/><path d="M66.9,18.12l.2-.42c-.11-.08-.15-.18-.14-.28,.02-.11,.04-.16,.07-.16,.15-.1,.32-.15,.5-.15,.2-.02,.31,.08,.36,.27,.12,.1,.25,.21,.37,.31-.35,.47-.84,.87-.78,1.54l-.22,.14c-.28,0-.5-.12-.66-.34-.2-.4,.06-.65,.3-.91Z" style="fill:#c6a353;"/><path d="M68.68,19.54l-.02,.62c-.17,.09-.34,.1-.51,.04-.15-.1-.28-.23-.36-.39l-.04-.27,.16-.22,.78,.21Z" style="fill:#c6a349;"/><path d="M67.9,19.33c0,.1-.03,.2-.06,.29-.32,.12-.42,.01-.32-.31l-.03-.08c.14,.03,.27,.07,.41,.1Z" style="fill:#fef262;"/><path d="M67.89,17.38l-.42-.06c-.15-.07-.21-.15-.19-.26,.03-.11,.06-.17,.1-.17l.17,.02,.18-.15,.17,.17v.45Z" style="fill:#906838;"/><path d="M67.9,16.44c.1,.08,.21,.13,.32,.17,.02,.1,.05,.2,.1,.3-.14,0-.28,.02-.42,.03h-.01c-.06-.1-.11-.18-.17-.26,.06-.08,.12-.16,.18-.23Z" style="fill:#906838;"/><path d="M67.5,16.55l.06-.46c.11,0,.22,0,.34,.02,0,.11,.01,.21,0,.32,.01,.08,.02,.15,0,.23-.18,.05-.32,0-.44-.14l.03,.03Z" style="fill:#d0b244;"/><path d="M79.32,33.08c-.37,.16-.39,.48-.39,.81h-.38c-.36-.38-.24-.82-.1-1.25l.06-.02c.28,.03,.56,.07,.84,.11,0,.12-.02,.24-.04,.35Z" style="fill:#754b26;"/><path d="M78.46,32.64c.03,.42,.07,.84,.1,1.26-.14-.02-.29-.04-.43-.06-.21-.24-.21-.48,.03-.7,.04-.17,.08-.35,.11-.52l.19,.02Z" style="fill:#be9b5b;"/><path d="M77.48,33.13c.1-.03,.2-.02,.3,.03,.21,.22,.2,.45,.02,.69-.3-.03-.6-.06-.76-.37,.15-.12,.3-.24,.44-.35Z" style="fill:#a17954;"/><path d="M77.8,33.85c0-.23-.01-.46-.02-.69,.12-.03,.25-.03,.37-.02,0,.23-.02,.47-.03,.7l-.16,.03-.16-.03Z" style="fill:#f5d097;"/><path d="M67.89,23.61c.07,.36,.24,.64,.59,.79,.07,.53,.15,1.06,.22,1.59-.9-.04-1.19,.7-1.61,1.27-.18,.08-.36,.08-.53-.01-.23-.18-.35-.43-.4-.72,.02-.49-.21-.9-.37-1.34-.05-.3-.05-.6-.03-.9,.02-.21,.07-.42,.16-.61,.12-.19,.27-.34,.47-.44,.59-.23,1.08-.04,1.51,.38Z" style="fill:#edd92c;"/><path d="M66.63,27.1c.15,.05,.3,.1,.46,.15,0,.24,.02,.47,.03,.71-.04,.22-.09,.44-.13,.66-.22,.06-.44,.11-.66,.17-.99-.17-1.49-.74-1.44-1.77,.15-.41,.46-.6,.89-.63,.45,.03,.68,.33,.86,.7Z" style="fill:#e7d322;"/><path d="M70.61,28.4c.03,.11,.08,.22,.13,.32-.16,0-.32,.02-.48,.03h0c-.09-.09-.13-.19-.12-.29,.01-.11,.04-.16,.06-.16,.17-.1,.31-.06,.41,.11Z" style="fill:#fee470;"/><path d="M65.14,27.19c.63,.36,1.06,.86,1.18,1.6,0,.13-.05,.24-.12,.35-.2,.16-.4,.31-.6,.47-.7-.16-1.16-.55-1.27-1.29,0-.1,0-.19,0-.29-.23-.41-.34-.88,.07-1.19,.29-.22,.58,.04,.74,.35Z" style="fill:#f9ee05;"/><path d="M70.61,28.4c-.11-.02-.21-.03-.32-.03-.26,.26-.52,.21-.79,.02-.05-.11-.07-.22-.07-.34,.15-.04,.3-.08,.45-.12,.28,.1,.63,.1,.73,.47Z" style="fill:#cbad4b;"/><path d="M69.49,28.39c.26,0,.53-.01,.79-.02-.01,.13-.02,.25-.03,.38-.32,.02-.64,.05-.76-.36Z" style="fill:#997f0a;"/><path d="M64.34,17.73l1.2,.41c.22,.26,.27,.55,.17,.88-.56,.78-1.16,.83-1.8,.09-.22-.46,0-.79,.34-1.07,.01-.11,.04-.21,.09-.3Z" style="fill:#d2b541;"/><path d="M64.25,18.03l-.29,.9c-.06,.05-.12,.09-.18,.14-.15,.03-.3,.02-.45-.03-.21-.12-.34-.3-.39-.53,0-.16,.07-.29,.17-.4,.07,0,.14,0,.21,0,.07-.13,.18-.19,.33-.18,.13,.04,.26,.09,.39,.13,.07,0,.13-.01,.2-.02Z" style="fill:#d8b46c;"/><path d="M64.05,18.05h-.55l-.11-.14,.14-.13c.01-.09,.02-.17,.03-.26l.5,.53Z" style="fill:#caae30;"/><path d="M65.51,18.91c.01-.26,.02-.51,.04-.77,.25,0,.5-.02,.74-.03,.2,0,.41,0,.61,0-.07,.25-.15,.5-.22,.75,.04,.41-.01,.79-.42,1.02-.31,.09-.59,.05-.83-.16-.17-.3-.11-.57,.08-.83Z" style="fill:#997912;"/><path d="M67.38,16.89c.03,.14,.06,.28,.09,.42l-.16-.02-.16,.02c-.25,.14-.39,.07-.43-.21,.05-.05,.08-.11,.1-.18,.19,0,.38-.02,.57-.02Z" style="fill:#f4cd96;"/><path d="M66.72,17.1l.43,.21c.03,.13,.02,.26-.04,.39l-.38-.6Z" style="fill:#5e3509;"/><path d="M67.47,16.52c.14,.05,.29,.09,.43,.14-.01,.08-.02,.17-.02,.25h-.33l-.08-.39Z" style="fill:#7e5912;"/><path d="M71.85,27.57h-.34c-.04-.13-.07-.26-.1-.38h.42c.27,.11,.28,.24,.02,.38Z" style="fill:#e9cb6e;"/><path d="M69.89,27.58l-.37-.28,.37,.28Z" style="fill:#a17f42;"/><path d="M72.59,27.55c-.12,.01-.25,.02-.37,.03-.11-.07-.15-.15-.13-.24,.03-.09,.06-.13,.09-.13,.02-.14,.05-.28,.07-.42,.11,0,.23,.01,.34,0,0,.25,0,.51,0,.76Z" style="fill:#fce266;"/><path d="M72.18,27.2c.04,.12,.05,.25,.03,.37h-.36c0-.13-.02-.26-.02-.39,.12,0,.24,0,.35,.02Z" style="fill:#9c820a;"/><path d="M67.89,23.61h-1.54c-.16-.12-.28-.27-.34-.45-.03-.19-.01-.38,.05-.57,.36-.55,.6-1.25,1.46-1.2,.19,.06,.33,.18,.43,.35,.11,.36,.21,.73,.32,1.09-.12,.26-.25,.51-.37,.77Z" style="fill:#eed44c;"/><path d="M67.95,21.74l-.46-.2c-.13-.14-.19-.31-.19-.49,.07-.39,.27-.68,.68-.77,.19,.02,.34,.11,.45,.26,.03,.36,.14,.72-.14,1.04-.12,.06-.24,.11-.36,.16Z" style="fill:#a1755d;"/><path d="M68.3,21.58v-1.11l.28-.04,.13,.84c.15,.09,.2,.17,.14,.23-.06,.05-.11,.08-.18,.08l-.19,.02-.19-.02Z" style="fill:#f5d578;"/><path d="M68.67,21.59c.01-.1,.03-.21,.04-.31,.14-.03,.28-.07,.41-.1,.13-.09,.24-.07,.33,.07-.01,.15-.02,.29-.03,.44-.25-.03-.5-.06-.75-.09Z" style="fill:#a1850c;"/><path d="M69.45,21.24c-.11,0-.22-.02-.33-.07l.33-.31c0,.12,0,.25,0,.37Z" style="fill:#e6c46e;"/><path d="M72.95,18.48c-.11,0-.22,0-.32,0,.01-.13,.01-.25,0-.38-.12-.09-.17-.18-.15-.29,.02-.11,.05-.16,.08-.16,.17-.12,.33-.1,.47,.06h0c-.03,.25-.06,.5-.08,.76Z" style="fill:#7d513a;"/><path d="M72.61,17.76l.02,.35c-.14-.02-.27-.05-.41-.07,.01-.13,.03-.26,.03-.38,.17-.13,.29-.1,.36,.11Z" style="fill:#673733;"/><path d="M61.16,20.43l.44,.42c-.12,.25-.34,.38-.61,.42l-.26,.03c-.11-.02-.23-.04-.34-.06-.03-.09-.05-.18-.06-.27,.02-.15,.04-.3,.06-.45l.77-.1Z" style="fill:#8a6a0b;"/><path d="M61.96,20.88l.46-1.23,.23-.14c.18,0,.35,.05,.51,.14,.35,.43,.91,.63,1.19,1.13,.07,.18,.11,.37,.1,.57-.1,.49-.32,.93-.7,1.26-.18,.09-.37,.13-.57,.12-.19-.06-.36-.15-.52-.27-.12-.14-.24-.28-.35-.42,0-.11,0-.21-.03-.32-.07-.23-.33-.28-.45-.46-.04-.15,0-.28,.13-.38Z" style="fill:#e8d232;"/><path d="M63.9,24.63c-.65-.07-1.3-.15-1.94-.22,0-.23,0-.47,0-.7,.15-.05,.29-.09,.44-.14,.57-.28,1.13-.65,1.81-.3,.18,.12,.31,.29,.37,.5,.03,.48-.13,.82-.67,.86Z" style="fill:#a18025;"/><path d="M64.32,23.67c-.64-.04-1.29-.07-1.93-.11,.09-.37,.18-.73,.27-1.1,.19,0,.38,0,.57,0,.14,.12,.31,.15,.48,.1,.18,.01,.34,.07,.49,.17,.25,.29,.4,.59,.11,.95Z" style="fill:#e4c55e;"/><path d="M62,21.28c.09,.15,.18,.3,.27,.44l-1.5-.06c.01-.12,0-.24-.04-.36l.07-.15c.41-.07,.83-.24,1.2,.13Z" style="fill:#a67d54;"/><path d="M63.9,24.63l.51-.49c.27-.31,.61-.32,.97-.22,.16,.07,.3,.17,.42,.31,.15,.32,.27,.64,.3,1,.04,.42,.3,.83,.08,1.27-.1,.15-.23,.25-.4,.3-.21,.14-.43,.27-.64,.41-.79-.22-.76,.35-.81,.84-.53-.4-.47-1.07-.76-1.59,.32-.57,.37-1.18,.33-1.81Z" style="fill:#f0de25;"/><path d="M62.76,19.69c-.12,0-.23-.02-.34-.04-.13-.13-.25-.26-.38-.4-.03-.13-.06-.25-.08-.38l-.02-.07c.25-.11,.51-.17,.77-.04,.14,.12,.22,.27,.26,.45-.01,.18-.08,.34-.21,.48Z" style="fill:#ac8751;"/><path d="M62,21.28c-.4-.04-.8-.09-1.2-.13,.27-.1,.53-.2,.8-.3,.12,0,.24,.02,.35,.03,.02,.13,.03,.26,.05,.4Z" style="fill:#6c4317;"/><path d="M62.74,18.91c-.27-.04-.53-.07-.8-.11,.14-.23,.28-.46,.42-.69,.11-.03,.22-.05,.33-.07l.14,.09c.08,.13,.13,.27,.13,.42l-.05,.22-.18,.13Z" style="fill:#a17c4a;"/><path d="M62.77,18.5c.01-.12,.04-.24,.07-.36,.09-.02,.18-.04,.28-.04l.03,.38c-.12,.14-.25,.15-.38,.02Z" style="fill:#714918;"/><path d="M63.52,17.79c0,.09,0,.19-.03,.28l-.17,.04c-.07-.19-.03-.31,.2-.31Z" style="fill:#eec78e;"/><path d="M72.61,17.76c-.12-.03-.24-.07-.36-.11,0-.11-.02-.22-.03-.33h.43l.39,.39-.43,.05Z" style="fill:#bb9362;"/><path d="M68.58,20.43c-.09,.01-.18,.03-.27,.04-.12-.05-.25-.09-.37-.14l-.14-.17,.09-.2c.15-.06,.28-.03,.39,.08,.12,.04,.24,.08,.36,.12-.02,.09-.04,.18-.07,.27Z" style="fill:#fee19b;"/><path d="M66.25,19.83c.14-.32,.29-.64,.43-.96,.28,.15,.56,.29,.83,.44l.32,.31,.13,.14c.09,.14,.06,.25-.07,.35l.03-.02c-.41,.28-.43,.8-.68,1.17-.14,.14-.31,.2-.5,.2-.18-.06-.34-.16-.47-.31-.26-.43-.44-.87-.02-1.31Z" style="fill:#ccaa4b;"/><path d="M67.9,20.1c.01-.12,.03-.23,.07-.35,.11,.1,.22,.19,.32,.29l-.39,.06Z" style="fill:#946e2d;"/><path d="M65.86,26.41l-.11-1.31c.21-.15,.4-.14,.58,.05,.41,.3,.71,.63,.33,1.15-.23,.34-.5,.32-.8,.11Z" style="fill:#907603;"/><path d="M65.86,26.41c.27-.04,.54-.07,.8-.11-.01,.27-.03,.53-.04,.8-.28-.11-.56-.22-.84-.32,.02-.13,.05-.25,.08-.37Z" style="fill:#bf9d3a;"/><path d="M66.34,25.15c-.19-.02-.39-.03-.58-.05-.1-.21-.2-.42-.29-.63,.25-.25,.51-.28,.77-.03l.11,.71Z" style="fill:#dcc13e;"/><path d="M66.26,23.22c.02,.13,.05,.25,.09,.37l-.16,.37c-.1,.17-.22,.2-.39,.09-.13-.24-.13-.48,0-.71,.13-.12,.28-.16,.45-.11Z" style="fill:#a17d32;"/><path d="M65.88,23.95c.1,.02,.2,.02,.31,.01,.02,.16,.03,.32,.05,.48-.26,0-.51,.02-.77,.03v-.06c-.1-.14-.11-.28-.02-.43,.14-.1,.29-.11,.44-.03Z" style="fill:#eed061;"/><path d="M62.76,19.69l.05-.45c.29-.42,.81-.03,1.13-.33l.02,.02c.52,.35,1.04,.22,1.55-.02l.04,.79c.31,.42,.17,.75-.2,1.04-.18,.09-.38,.13-.58,.12-.72-.31-1.49-.54-2.01-1.19v.02Z" style="fill:#f5e03e;"/><path d="M63.94,18.91c-.29,.4-.71,.36-1.13,.33-.03-.11-.05-.22-.07-.33l.03-.02c.24-.27,.49-.21,.76-.05l.42,.07Z" style="fill:#aa8b20;"/><path d="M63.52,18.84l-.76,.05c0-.13,0-.26,0-.39,.13,0,.25-.01,.38-.02l.38,.35Z" style="fill:#f2d26f;"/><path d="M65.15,20.47c.13-.26,.26-.51,.39-.77,.24,.04,.47,.08,.7,.13,.15,.33,.29,.66,.44,1-.64,.42-1.25,.76-1.54-.35Z" style="fill:#f0de25;"/><path d="M66.72,21.21c.12,.02,.23,.03,.35,.03,.14-.15,.26-.14,.37,.03,.02,.09,.04,.18,.05,.27-.53,.33-.48,1.19-1.21,1.35l-.27-.13c-.39-.38-.57-.8-.32-1.34,.29-.33,.61-.49,1.03-.22Z" style="fill:#9f7e1f;"/><path d="M66.26,23.22c-.12,.02-.24,.05-.36,.08l-.1-.18c.01-.14,.07-.26,.17-.36,.13-.07,.25-.05,.35,.07l-.04,.07c0,.11-.02,.22-.02,.33Z" style="fill:#fad68a;"/><path d="M67.44,21.28c-.12,0-.24-.02-.37-.03,0-.6,0-1.2,.85-1.16,.03,.08,.04,.17,.02,.26-.17,.31-.34,.63-.51,.94Z" style="fill:#946e2d;"/><path d="M64.04,22.9l-.51-.12v-.27l.42-1.25c.68-.43,1.25-.3,1.7,.35,.07,.27,.15,.54,.09,.83-.09,.17-.21,.3-.36,.41-.44,.21-.89,.18-1.35,.05Z" style="fill:#f7e627;"/><path d="M65.74,21.73l-1.78-.46c0-.11-.02-.21-.02-.32,.15-.44,.53-.46,.9-.5,.11,0,.21,.01,.32,.03,.44,.44,.99,.4,1.54,.36,.02,.13,.02,.26,.03,.39-.3,.1-.64,.15-.71,.55-.11,.16-.21,.15-.28-.04Z" style="fill:#edd64b;"/><path d="M64.83,20.45c-.16,.43-.56,.4-.9,.5-.56-.27-1.24-.43-1.18-1.27,.77,.05,1.45,.35,2.08,.78Z" style="fill:#95712c;"/><path d="M63.52,22.51c.01,.09,.02,.18,0,.27-.22,0-.33-.09-.3-.32,.1,.01,.2,.03,.3,.05Z" style="fill:#704b05;"/><path d="M64.04,22.9l1.12-.41c.1,.1,.2,.2,.28,.32,.07,.2,.08,.41,.08,.62,0,.21,0,.42,0,.63-.01,.12-.03,.23-.06,.35-.35-.09-.71-.19-1.06-.28-.03-.15-.06-.31-.09-.46-.09-.26-.18-.51-.27-.77Z" style="fill:#f5d76b;"/><path d="M65.53,24.06l-.37-.24c.13-.36,.21-.78,.76-.59l-.03,.07c0,.22,0,.43-.01,.65-.11,.05-.23,.08-.35,.11Z" style="fill:#69420b;"/><path d="M65.74,21.73c.09,0,.19,.01,.28,.04,.1,.36,.2,.71,.3,1.07-.12,0-.23,.02-.34,.08l-.24-.07c-.13-.11-.21-.25-.24-.42l.24-.69Z" style="fill:#b6972f;"/><path d="M65.92,23.23c-.25,.2-.51,.39-.76,.59,.01-.33,.03-.67,.04-1,.19-.22,.43-.17,.66-.11,.03,.07,.06,.14,.11,.2,0,.11-.02,.21-.05,.32Z" style="fill:#ca9e81;"/><path d="M65.86,22.71c-.22,.04-.44,.08-.66,.11-.05-.11-.06-.22-.03-.33,.11-.02,.22-.04,.33-.07,.12,.1,.24,.19,.36,.29Z" style="fill:#694600;"/></g><g id="aq"/><g id="ar"/><g id="as"/><g id="at"/><g id="au"/><g id="av"/><g id="aw"/><g id="ax"/><g id="ay"/><g id="b`"/><g id="ba"/><g id="bb"/><g id="bc"/><g id="bd"/><g id="be"/><g id="bf"/><g id="bg"/><g id="bh"/><g id="bi"/><g id="bj"/><g id="bk"/><g id="bl"/><g id="bm"/><g id="bn"/><g id="bo"/><g id="bp"/><g id="bq"/><g id="br"/><g id="bs"/><g id="bt"/><g id="bu"/><g id="bv"/><g id="bw"/><g id="bx"/><g id="by"/><g id="c`"/><g id="ca"/><g id="cb"/><g id="cc"/><g id="cd"/><g id="ce"/><g id="cf"/><g id="cg"/><g id="ch"/><g id="ci"/><g id="cj"/><g id="ck"/><g id="cl"/><g id="cm"/><g id="cn"/><g id="co"/><g id="cp"/><g id="cq"/><g id="cr"/><g id="cs"/><g id="ct"/><g id="cu"/><g id="cv"/><g id="cw"/><g id="cx"/></svg>