<svg width="250" height="86" viewBox="0 0 250 86" fill="none" xmlns="http://www.w3.org/2000/svg">
<path d="M27.6552 8.60845C28.0368 8.77296 28.4821 8.77296 28.8668 8.60845H29.8754C30.148 8.73707 30.4085 8.74006 30.6812 8.60845C31.0143 8.6264 31.3597 8.58153 31.6898 8.60845C31.7716 8.61443 32.1533 8.76698 32.4955 8.80586C32.6712 8.86269 32.6682 8.9285 32.4955 9.00328C32.6379 9.04515 32.6288 9.11395 32.4955 9.20069L32.2926 9.35324C32.7258 11.3005 32.9923 13.2148 33.0862 15.0992C28.6578 14.9736 24.4898 15.9158 20.4975 17.7433L20.1159 17.6686C18.671 15.6735 17.2868 13.6455 15.957 11.5876C16.3296 11.3423 16.4962 11.3334 16.7628 11.1898C17.0929 11.4081 17.5927 10.9385 17.7714 10.5946C20.2371 9.69722 22.9511 9.44596 25.4349 8.60845H27.6552Z" fill="#42311D"/>
<path d="M28.864 8.60645C28.661 8.93248 27.8462 8.9265 27.6523 8.60645H28.864Z" fill="#9D9389"/>
<path d="M30.6827 8.60645C30.4282 8.88462 30.1253 8.87864 29.877 8.60645H30.6827Z" fill="#E6E4E2"/>
<path d="M15.35 51.5512C14.2384 52.2063 13.1631 52.8045 12.1241 53.3399C11.8333 53.5284 11.5668 53.5942 11.3184 53.5373C11.2245 53.7796 10.9458 53.8424 10.7126 53.7347C10.7186 53.983 10.3491 54.2402 10.1068 54.1326C10.1431 54.3778 9.71298 54.4436 9.50095 54.33C9.59182 55.4038 10.1522 56.2024 10.8792 57.0609L10.7095 57.5095C10.8095 57.674 10.8761 57.6082 10.9125 57.3121L11.4123 57.5305C14.4504 61.7031 18.0095 65.1847 22.0866 67.9725C23.0407 66.2825 23.9403 64.5297 24.7854 62.7111L25.2337 62.8756C25.5276 62.5526 25.6608 62.5526 25.6366 62.8756C24.946 64.8647 24.0585 67.3503 22.8135 69.0373C23.0983 69.6595 20.3843 71.822 20.1631 71.852L19.3847 71.6216C12.8723 67.4879 9.54941 63.4918 5.86914 56.9083C6.37802 55.7687 8.04399 54.0787 9.298 53.9262C11.2245 52.9271 13.1721 51.955 15.1349 51.0068L15.347 51.1414C15.8922 51.2222 15.8407 51.3299 15.347 51.5393L15.35 51.5512Z" fill="#0B0601"/>
<path d="M48.8335 14.9721C53.7557 18.2025 57.5995 22.1926 60.5316 27.2985L60.3378 27.7501C59.9016 28.0283 55.6216 30.0413 55.3459 30.0353C54.7765 30.0234 54.3433 29.6375 54.0495 29.1859C52.2563 25.8567 49.297 22.752 46.1952 20.5954C44.9897 20.5984 44.8231 19.8057 45.8075 19.5485C46.0377 19.2135 46.2407 18.8814 46.4133 18.5554C46.0619 18.2802 46.1649 17.9692 46.6163 17.9602C46.7707 17.6072 46.9707 17.341 47.2221 17.1645C46.7162 16.9133 46.8889 16.4856 47.425 16.3689C47.6158 16.0429 47.8158 15.7767 48.0308 15.5733C48.0641 14.9182 48.1187 14.5742 48.8365 14.978L48.8335 14.9721Z" fill="#231B11"/>
<path d="M66.1807 43.7982C66.208 43.2568 66.4109 43.2867 66.5836 43.7982C67.253 49.2719 67.1137 52.8314 65.372 58.1137C64.9752 58.2752 64.5148 58.2632 63.9907 58.0778C62.1248 56.5314 60.1469 55.2632 58.0508 54.2731L58.0205 53.8095C59.0564 50.4056 59.529 46.906 59.4351 43.3106L59.9227 43.2059C60.1802 43.3047 60.1408 43.4482 59.9227 43.6038C60.3105 45.0186 60.1893 46.7474 59.9227 48.1772C59.9773 48.3866 60.0469 48.3836 60.1257 48.1772C60.1166 46.6278 60.1166 45.1023 60.1257 43.6038C60.0136 43.4034 60.0803 43.2059 60.3286 43.0085C60.368 42.856 60.4377 42.865 60.5316 43.0085C62.4065 43.2718 64.2876 43.538 66.1807 43.8042V43.7982Z" fill="#19130A"/>
<path d="M54.4831 31.0737L55.1161 31.3489C56.6246 34.0468 57.5848 37.011 58.3693 39.9812L58.1119 40.6153C58.124 40.9952 58.0452 41.1268 57.7878 40.9025C57.1577 38.5036 56.2551 36.2214 55.0889 34.0528C54.4679 34.0439 54.1196 33.3559 54.4831 32.8594C52.0447 28.0526 46.4107 22.8272 41.4401 20.4552C29.0059 14.5148 13.2428 20.2548 12.1645 34.8664L11.9191 35.0489C12.7551 35.1177 11.8646 38.2015 11.5132 38.2494C9.29901 37.9682 7.08176 37.7618 4.86148 37.6332C3.84069 37.5554 3.19854 37.8904 2.93501 38.6382L0.87527 40.5166L0.423944 40.4149C-0.530201 36.6431 0.236144 32.0069 1.6295 28.3817C2.51095 26.0875 3.79526 24.3766 5.06442 22.3217C5.35521 21.9956 5.48849 21.9956 5.46728 22.3217C6.10338 22.0973 6.90304 22.3097 6.07309 22.7195C5.99736 22.881 5.86106 23.0126 5.67023 23.1173C5.54604 23.4314 5.4794 23.7604 5.46728 24.1103C5.91255 24.4304 5.74898 24.6278 5.26434 24.7056C5.10077 24.8671 4.96749 25.0675 4.86148 25.3008C4.75243 25.6867 4.68579 26.0815 4.65853 26.4943C5.10077 26.8173 4.99172 26.9519 4.45559 26.8921C4.39501 27.263 4.26173 27.595 4.05272 27.8851C4.06181 28.4684 3.99517 29.0636 3.84978 29.6738C4.25264 29.7187 4.23447 29.9191 3.84978 30.0716C3.56202 30.3438 3.59231 30.634 3.64683 31.0647C4.11936 31.3728 3.68318 32.2671 3.24397 32.4556C3.41966 33.4845 3.41966 34.4148 3.24397 35.2403C3.26821 35.8385 3.49841 36.0868 3.89521 36.4128L10.4197 36.7987L10.5106 33.9033C10.4288 32.6111 10.6954 31.5313 11.3133 30.6669L11.5526 30.6818C11.9585 28.283 13.4458 26.1323 14.9633 24.2868C18.7163 19.7164 22.4147 17.7153 28.5758 16.9885C39.029 15.7561 49.4095 22.3934 54.48 31.0677L54.4831 31.0737Z" fill="#100B04"/>
<path d="M60.9377 28.2901C61.1073 28.5653 61.1679 28.299 61.5435 29.2831C61.7979 29.8365 62.1342 30.3001 62.5522 30.674C62.74 31.024 62.8127 31.3739 62.955 31.667C62.8945 32.035 63.0459 32.2862 63.3579 32.4627C63.4972 32.7857 63.6245 33.1297 63.7608 33.4557C63.7668 33.8416 63.9001 34.1078 64.1636 34.2514C64.1878 34.3082 64.1424 34.392 64.1636 34.4488C64.3363 34.712 64.4029 34.9752 64.3666 35.2444C64.6422 35.4927 64.721 35.8785 64.7694 36.2375C64.8058 36.3362 64.9088 36.4798 64.9724 36.6353C65.0966 37.1887 65.245 37.751 65.5782 38.2266C65.5994 38.3492 65.563 38.4958 65.5782 38.6244C65.6388 39.0581 65.7751 39.3871 65.981 39.6174C66.0113 39.8747 65.9689 40.1499 65.981 40.4131L66.184 41.4061C66.3233 41.783 66.3718 42.2227 66.3869 42.5996C66.6474 43.1171 66.5141 43.2846 66.0022 43.3892C65.7478 43.4401 61.1134 42.6474 60.9195 42.477C60.8408 42.4082 60.7862 42.3094 60.7378 42.2018L60.3349 42.0044C60.2259 41.9296 60.1229 41.8488 60.0441 41.7501C59.8654 41.5347 58.7235 37.1079 58.5629 36.39C58.5417 36.2883 58.6175 36.1657 58.7235 36.0371C57.8541 34.1886 57.0727 32.3341 56.376 30.4706C56.4487 30.2403 60.2047 28.4336 60.7135 28.2093C60.7681 28.1854 60.8499 28.2243 60.9407 28.2841L60.9377 28.2901Z" fill="#C67B04"/>
<path d="M46.2108 17.3562C46.235 17.0272 47.3921 14.5894 47.5466 14.5356C48.2069 14.3023 48.6007 15.1189 47.8252 15.3701C47.9101 15.7171 47.6677 16.091 47.4224 16.3632C47.3285 16.6144 47.3164 16.9075 47.2194 17.1588C46.962 17.3652 46.759 17.6314 46.6136 17.9544C46.547 18.1548 46.4743 18.3463 46.4107 18.5497C46.238 18.8847 46.0351 19.2167 45.8049 19.5427C45.7685 19.6325 45.3051 20.0632 45.402 20.138C45.7504 20.117 46.0684 20.111 46.4046 20.2456C47.9797 20.8798 52.3446 25.7044 53.435 27.2329C54.0893 28.1512 54.4376 29.9399 55.6947 29.5929C57.1577 29.1891 58.9418 27.6487 60.532 27.2957C60.6502 27.4991 60.6562 27.7504 60.735 27.8909C60.8137 28.1691 60.7986 28.2379 60.532 28.0884C58.9054 28.7823 57.3243 29.557 55.7886 30.4154C55.7462 31.0466 55.0555 31.2829 54.48 31.0705C54.4649 31.0466 54.1014 31.0466 53.9863 30.8701C46.6772 19.8119 34.2734 13.6741 21.2001 19.444C18.7738 20.5148 15.2177 24.2178 13.7698 26.4343C12.6037 28.214 11.6465 30.3197 11.5132 32.4644L11.3133 30.6757C10.7438 29.9129 11.392 27.4213 12.322 27.0983C12.3674 26.874 12.4371 26.6765 12.5249 26.5031C12.5734 26.3326 12.64 26.3385 12.7279 26.5031C12.8702 26.1441 12.9671 25.9647 13.0883 26.2608C14.6271 22.9855 17.3108 20.6375 19.9915 18.3523L20.4943 17.7062C24.6471 15.8936 28.5121 14.9753 33.0708 15.1847C33.4283 15.2026 33.2162 15.732 33.1042 15.9653C37.0904 16.6144 40.6495 17.9903 44.145 19.9495C45.1112 19.5786 45.7534 18.7441 46.0714 17.443L46.2138 17.3562H46.2108Z" fill="#030100"/>
<path d="M4.8611 37.6357C5.03679 37.6926 5.03376 37.7584 4.8611 37.8332C4.70965 38.1203 3.71007 38.2519 3.64949 37.8332C3.27086 41.7186 4.955 45.6669 6.48164 49.1037C6.57554 49.5643 8.45656 53.4169 8.72615 53.2972C10.6496 52.2713 12.6094 51.344 14.6085 50.5125C12.7093 46.974 11.1827 43.0018 10.7495 38.9608L11.11 38.237C11.4674 37.9558 11.7097 38.0066 11.8551 38.4284C12.3186 42.251 13.5363 45.9331 15.5051 49.4806L15.3476 50.1655C15.8413 50.2254 15.8292 50.4347 15.3476 50.5634L15.2143 50.9732C13.2243 51.9453 11.2524 52.9353 9.29561 53.9433C8.10217 54.8586 7.09047 56.0401 5.86674 56.9255C3.28904 52.3132 1.28988 48.2213 0.478095 42.8523C0.378137 42.1852 0.0600885 40.9349 0.420543 40.4235C0.599256 40.1692 3.06489 37.9378 3.32841 37.8242C3.94634 37.558 4.2553 37.6657 4.85808 37.6417L4.8611 37.6357Z" fill="#6C2C00"/>
<path d="M37.3346 9.80208C41.0179 10.5618 44.2287 12.0664 47.4213 13.9777C47.5152 14.0375 47.5121 14.1063 47.4213 14.1751L47.0881 14.4622L44.4316 13.2508L44.1711 13.7324L41.6207 14.6686C41.03 15.4344 40.0123 15.904 39.5761 14.7943L38.4493 15.2728C38.5068 15.1532 42.7263 16.8163 41.2693 17.0496C41.1754 17.0645 41.0694 17.0197 40.9603 16.9598L40.6362 17.1483C38.3433 16.2838 35.9988 15.7335 33.6059 15.4972C33.515 15.3895 33.2908 12.9966 33.4968 12.7842C33.5544 12.6107 33.621 12.6137 33.6998 12.7842C33.6089 11.6087 33.4059 10.4033 33.0879 9.16796C33.3181 8.86287 36.8075 9.61065 37.3316 9.80208H37.3346Z" fill="#E9A30F"/>
<path d="M39.7561 66.8619L40.2044 67.0892C40.5285 69.4253 40.8526 71.7613 41.1828 74.0974C46.1867 73.9598 52.2932 72.9608 56.0341 69.4701L56.5006 69.4462C57.1245 69.4941 57.0821 69.5988 56.7035 70.0415C50.1275 75.4554 46.2897 77.5133 37.3389 77.3966C37.2602 77.3278 37.1905 77.259 37.1572 77.1723C36.9573 76.6758 39.3865 75.0097 39.9651 74.8332C40.1953 74.4444 40.2498 74.0495 40.165 73.6188C40.0257 73.4932 40.0226 73.3526 40.165 73.221C39.7743 71.4862 39.4562 69.6526 39.3532 67.8549L39.5592 67.6545C39.435 67.2747 39.2805 66.6226 39.7621 66.8589L39.7561 66.8619Z" fill="#060300"/>
<path d="M37.3334 77.3939C32.0448 77.3251 28.0767 76.4696 23.415 74.0139C23.5998 73.4187 24.2056 73.2751 25.2294 73.5772C27.1559 74.31 28.8037 74.3938 30.7786 73.7178L33.7016 74.2113L34.0863 73.975C35.8704 74.2263 37.6636 74.4027 39.4689 74.5044C39.7779 74.2233 39.9748 74.0169 40.1565 73.6131C40.1595 73.655 40.3655 73.8374 40.3776 74.1036C40.4261 75.3599 37.9059 76.2363 37.3334 77.3909V77.3939Z" fill="#421701"/>
<path d="M22.8156 69.0469C22.9095 69.1277 22.9367 69.2563 22.8974 69.4328C22.9913 69.6063 25.9627 71.2035 26.3717 71.3591C28.6798 72.2474 30.7516 72.9264 33.0991 73.6802C33.3778 73.7699 33.5808 73.9464 33.708 74.2156C33.084 74.1707 31.8906 73.9883 31.412 74.0212C30.3639 74.0959 29.3038 74.6613 27.9528 74.6224C26.3656 74.5805 24.8965 73.4618 23.4214 74.0152C22.028 73.2794 20.7134 72.4718 19.3867 71.6283C19.8471 71.706 20.0016 71.4787 20.3015 71.2394C20.8558 70.7997 22.4733 69.5046 22.8156 69.0439V69.0469Z" fill="#4D1C01"/>
<path d="M32.4934 9.20339C33.0749 11.2374 33.4112 13.2923 33.502 15.3651C33.705 15.9843 33.5687 16.1817 33.0992 15.9603C33.0537 15.8407 33.2173 15.5356 32.981 15.5595C28.3254 15.1617 24.1635 16.5586 19.9895 18.3472C19.7593 18.3622 19.5352 18.1199 19.314 17.6204L17.3694 14.9673C17.2816 15.0151 17.1907 15.054 17.0998 15.057C16.8302 15.066 15.3006 12.8107 15.1491 12.383C15.1764 12.3291 15.0946 12.1706 15.1915 12.03C15.24 11.9612 15.7761 11.704 15.9579 11.5873C16.4819 11.5125 16.5485 11.683 16.8121 12.039C17.9419 13.5734 18.8869 15.6134 20.0986 17.1538C20.1925 17.2974 20.3166 17.3512 20.4893 17.3542C20.9225 17.3632 23.2124 16.1847 23.9212 15.9544C25.8567 15.3202 28.3496 14.8506 30.3851 14.7729C31.309 14.737 33.081 15.3442 33.0265 14.3691C32.9447 12.8974 32.2419 11.0489 32.0996 9.49652C32.0541 8.99102 32.0087 8.86839 32.4994 9.20339H32.4934Z" fill="#0F0702"/>
<path d="M58.7196 42.8016C59.0892 42.3948 60.5643 42.2393 60.737 42.8016C60.8945 42.9123 60.8279 42.9781 60.534 42.999C60.4704 42.9931 60.3977 42.9961 60.3311 42.999C60.2554 43.2294 60.116 43.3999 59.9282 43.1965C59.5163 43.6391 59.7828 47.4468 59.7011 48.4399C59.5405 50.3931 58.9196 52.2835 58.3138 54.129C58.6439 54.1141 58.965 54.144 59.2709 54.2816C60.734 54.9426 63.0027 57.2936 64.3779 57.8111C65.0109 58.0474 65.4653 57.3863 65.3744 58.1072C65.2412 58.514 65.0443 58.7084 64.9716 58.9028C64.7747 59.2289 64.6535 59.3036 64.5687 58.9028C64.4415 58.9417 64.3143 58.9746 64.1871 58.9806C63.8417 58.9986 60.2645 56.4441 59.6374 55.9536C59.6314 55.6904 59.5345 55.478 59.3255 55.3255C58.9892 55.5229 58.5712 55.3165 58.5197 54.9276C58.1835 55.3344 57.5353 55.134 57.1082 54.9276L56.9355 54.2576C58.0866 50.7012 58.9832 46.5345 57.9412 42.9183C58.2653 42.2812 58.5258 42.2393 58.7196 42.8016Z" fill="#0E0803"/>
<path d="M64.1633 61.0946C62.1066 65.2643 60.1589 67.1935 56.6998 70.0411C56.6816 69.8227 56.5907 69.6373 56.4968 69.4458L56.2242 69.4997C54.8702 67.2803 53.3375 65.1626 51.6292 63.1525L51.6564 62.6859C51.5141 62.6291 51.5171 62.5603 51.6564 62.4885C52.1623 62.1625 52.5742 61.986 52.6651 62.6859H52.868C53.4557 63.2662 53.9252 63.993 54.2796 64.8724C54.5582 65.025 54.7672 65.36 54.8854 65.6681L56.4998 67.8546C56.8815 67.8127 57.0996 68.0789 57.1602 68.6532C59.8863 66.703 61.7885 63.5922 63.4787 60.7566L63.9603 60.6998C64.1966 60.4874 64.2633 60.6191 64.1633 61.0976V61.0946Z" fill="#672E03"/>
<path d="M15.1472 12.388C15.2926 12.4927 15.3986 12.6513 15.338 12.8218C11.7638 15.1937 9.33145 18.4301 6.85976 21.8161L6.47507 21.3345L6.3418 21.161C7.12329 19.6266 8.10772 18.2267 9.29813 16.9615C10.2705 15.9894 13.5024 12.6513 14.5596 12.2893C14.8928 12.1757 14.914 12.3073 15.1472 12.391V12.388Z" fill="#E6C131"/>
<path d="M60.7339 42.2066C62.415 42.2665 64.2779 43.0172 65.8863 43.0172C66.274 43.0172 66.4557 43.0621 66.38 42.6045C66.4376 42.431 66.5042 42.434 66.583 42.6045C66.6405 42.9694 66.5375 43.421 66.583 43.7979C66.4588 43.8189 66.2831 43.765 66.1801 43.7979C64.3233 43.6573 62.5089 43.3253 60.7339 42.8049C60.1705 42.76 59.2709 42.748 58.7166 42.8049C58.5409 42.748 58.5439 42.6822 58.7166 42.6074C58.6287 41.8088 59.3012 41.6772 60.7339 42.2096V42.2066Z" fill="#5F2302"/>
<path d="M60.9369 28.2914C60.5189 28.7909 56.7447 30.3762 56.6872 30.6095C56.5084 31.3543 57.4899 32.7122 57.8018 33.466C58.1562 34.3215 58.4107 35.1769 58.7166 36.0444C58.7954 36.3764 58.6469 36.5319 58.3713 36.3405C57.614 34.3424 56.7871 32.3892 55.8936 30.4779C57.3021 29.5506 58.8469 28.755 60.534 28.091C60.6067 28.0311 60.6612 27.9504 60.737 27.8936C60.8097 28.0252 60.8854 28.2076 60.9399 28.2914H60.9369Z" fill="#F0B710"/>
<path d="M37.3346 9.80256C36.7894 9.6889 33.718 9.17143 33.4968 9.30005C33.2545 9.44961 33.4181 9.59318 33.4272 9.75769C33.512 11.3968 34.1117 13.2214 34.3117 14.8695C34.3056 15.046 33.9239 15.061 33.9027 14.8695C33.83 14.2204 33.821 13.4188 33.7028 12.7877C33.3575 11.5494 33.0213 10.2901 32.6942 9.00991C32.6366 9.1834 32.57 9.18041 32.4912 9.00991V8.8125C34.1148 9.00094 35.8171 9.16844 37.3316 9.80555L37.3346 9.80256Z" fill="#EEB81A"/>
<path d="M6.47717 21.334C7.17688 21.5553 7.37982 21.8843 7.08298 22.327C6.86489 22.7787 6.34389 22.5633 6.27725 22.1296C6.02282 22.1057 5.77746 22.0608 5.54423 21.998C5.47759 21.8424 6.91941 19.3598 7.28592 19.1474C7.94928 18.0527 8.44907 17.8134 9.30326 16.9609C8.89434 17.966 6.53169 20.3947 6.4802 21.334H6.47717Z" fill="#B36710"/>
<path d="M7.28073 19.1434C6.87181 19.8194 6.32658 20.8244 5.96916 21.5363C5.72683 22.0209 5.98127 21.8863 6.27206 22.1256C6.19633 22.2542 5.92675 22.323 5.46634 22.323C5.36335 22.3559 5.18767 22.3021 5.06348 22.323C5.60567 21.4466 6.06306 20.5134 6.68098 19.634C6.85363 19.3857 6.83243 19.0447 7.28073 19.1434Z" fill="#8A521B"/>
<path d="M48.8335 14.9725C48.4336 14.9576 48.2428 15.2986 48.0277 15.5678C47.7551 15.831 47.7703 15.7293 47.8248 15.3704C47.9793 15.0144 48.155 14.4162 47.6188 14.8679C47.2887 15.149 46.4708 16.848 46.2103 17.3565C46.1497 17.4851 46.0831 17.4821 46.0074 17.3565C45.8741 16.2408 46.489 14.808 47.4189 14.1769V13.9795C47.8642 14.2457 48.3488 14.6585 48.8304 14.9725H48.8335Z" fill="#50300F"/>
<path d="M64.9697 58.9051C64.6517 59.7366 64.6456 60.1105 64.164 61.0916L63.961 60.6938C63.5491 60.3079 64.1155 59.1414 64.5669 58.9051C64.6335 58.944 64.8516 58.8782 64.9697 58.9051Z" fill="#794318"/>
<path d="M17.7731 10.5967L18.073 10.9945C17.9306 10.8928 16.1556 12.176 16.7644 11.1949C17.0946 11.0154 17.346 10.7552 17.7731 10.5997V10.5967Z" fill="#65513B"/>
<path d="M62.5497 30.679C61.8257 30.652 61.7409 29.8115 61.541 29.2881C61.9499 29.5932 62.3134 30.2333 62.5497 30.679Z" fill="#915615"/>
<path d="M66.5838 42.6079H66.3809C66.0507 42.3955 66.1749 41.7853 66.178 41.4144C66.081 41.2649 66.0295 41.1333 66.178 41.0166C66.3597 41.6029 66.4839 41.9768 66.5808 42.6079H66.5838Z" fill="#8D5822"/>
<path d="M65.5755 38.228C65.0242 37.9498 64.9788 37.1841 64.9697 36.6367C65.1969 37.1901 65.4604 37.5789 65.5755 38.228Z" fill="#8F5F30"/>
<path d="M65.9775 39.6239C65.3232 39.7705 65.6322 39.1543 65.5746 38.6309C65.8412 38.8731 65.9411 39.2859 65.9775 39.6239Z" fill="#976632"/>
<path d="M63.3576 32.4665C62.8972 32.5802 62.8336 32.1614 62.7852 31.7905L62.9548 31.6709C63.085 31.9371 63.2425 32.1943 63.3576 32.4665Z" fill="#965B18"/>
<path d="M64.771 36.2422C64.6499 35.9161 64.4954 35.5841 64.3682 35.2491C64.4257 35.0756 64.4924 35.0786 64.5711 35.2491C64.6862 35.5841 64.8498 35.8593 64.7741 36.2422H64.771Z" fill="#814506"/>
<path d="M66.1827 41.0132C66.1827 41.1448 66.1827 41.2794 66.1827 41.411C65.8525 41.2405 65.9949 40.735 65.9797 40.418C66.2524 40.5526 66.1282 40.8397 66.1827 41.0132Z" fill="#82480E"/>
<path d="M64.1634 34.2556C63.5576 34.3812 63.7848 33.9595 63.7605 33.46C63.8605 33.6993 64.0453 33.9565 64.1634 34.2556Z" fill="#97642D"/>
<path d="M64.566 35.2488H64.3631C64.2298 34.8988 64.2177 34.5997 64.1602 34.4531C64.3843 34.6685 64.4661 34.9676 64.563 35.2488H64.566Z" fill="#98642D"/>
<path d="M33.5027 12.7856C33.636 13.5603 33.6602 14.5713 33.7057 15.3699C34.0813 15.2772 34.3084 15.1994 34.7143 15.2473C36.7589 15.4956 38.9731 16.4378 40.9662 16.9582L41.3176 16.7309C42.6988 17.374 43.9922 18.1128 45.2039 18.9443C45.5764 19.2075 44.798 20.0002 44.4193 19.8626C41.0147 17.8316 37.2739 16.5993 33.3513 16.007C33.3452 15.8006 33.3967 15.5883 33.5057 15.3669C33.3119 13.3778 32.5274 11.1704 32.4971 9.20523C32.4971 9.13942 32.4971 9.07362 32.4971 9.00781H32.7C33.1211 10.2581 33.3906 11.5174 33.5057 12.7856H33.5027Z" fill="#682702"/>
<path d="M15.3519 50.1593C15.4428 48.9928 16.8119 50.3866 17.2269 50.943L20.9041 55.6301C21.313 55.6061 21.6583 55.7019 21.937 55.9172C28.0011 62.731 38.6936 66.0422 47.1628 61.6362C48.4532 61.6961 48.6773 61.6482 49.6769 60.8915L52.2152 58.6511C53.4177 57.7867 54.1932 58.7678 53.1845 59.8475L51.358 61.9653C51.4277 62.1268 51.5276 62.3691 51.6579 62.6861C52.7211 63.2485 55.8622 68.1359 56.4983 69.4461C56.0591 70.4152 54.9474 70.9685 54.0114 71.4681C51.0702 73.0324 47.2173 74.0943 43.8884 74.4143C43.1978 74.4801 42.0437 74.2707 41.5015 74.4143C41.3531 74.4532 41.3531 75.1531 40.9684 74.8151C40.6655 74.5459 40.0203 67.8548 39.7568 66.8617C40.7867 66.7929 41.7953 66.7929 42.7828 66.8617C43.328 66.6344 44.0065 66.431 44.5972 66.4639C44.6941 66.3921 44.6972 66.3263 44.5972 66.2665C44.1216 66.5357 43.3462 66.7511 42.7828 66.6643C41.8256 66.8258 40.82 66.8946 39.7568 66.8617C39.4448 67.1519 39.5811 67.3194 39.5539 67.6574C39.3055 67.6394 39.1722 67.3074 39.151 66.6643C39.0935 66.8348 39.0268 66.8318 38.9481 66.6643C37.9091 66.4819 36.858 66.3682 35.8009 66.3203C35.5616 66.7241 34.7468 66.6105 34.7135 66.0661C34.4257 66.2336 33.9623 66.2216 33.9078 65.8687C33.408 65.743 32.9385 65.6114 32.4962 65.4709C30.9029 65.2615 29.0189 64.3701 27.5771 63.5805C27.5013 63.5386 27.4711 63.4219 27.4529 63.2843C26.7623 62.7788 26.3594 62.5994 25.6385 62.8865C25.5385 62.9194 25.3598 62.8626 25.2356 62.8865L25.0478 62.5276C21.001 59.8296 17.6116 56.0877 15.152 52.0766C15.3882 51.936 15.4367 51.7655 15.3519 51.5532C15.3277 51.4365 15.3701 51.284 15.3519 51.1554C15.0702 51.1554 15.0702 50.9549 15.3519 50.5601C15.3246 50.4375 15.3882 50.255 15.3519 50.1623V50.1593Z" fill="#19130A"/>
<path d="M25.2337 62.8831C25.2004 62.9399 24.9914 62.9968 24.8793 63.2211C24.4977 63.9838 22.762 68.303 22.2804 68.4376C21.7988 68.5722 18.3669 65.7097 17.7672 65.1713C15.1682 62.8323 13.0055 60.0894 10.9125 57.3166C10.9215 57.5021 10.9125 57.5768 10.7095 57.514C10.1915 56.7633 8.49226 54.9686 9.4979 54.3345C9.7796 54.3464 10.0492 54.3464 10.3036 54.3345C10.2915 54.0862 10.655 53.8529 10.9094 53.9367C10.8913 53.7093 11.3123 53.6346 11.5152 53.7392C11.5516 53.5658 11.7545 53.4341 12.121 53.3414C13.2327 52.8 14.308 52.2048 15.347 51.5527C15.4287 51.9386 16.8524 53.9187 17.2007 54.3973C19.4271 57.4572 22.2107 60.1163 25.3428 62.2849L25.4246 62.569C25.364 62.6767 25.2973 62.7784 25.2337 62.8831Z" fill="#221A10"/>
<path d="M27.4512 63.2783C27.3209 63.6043 26.8393 63.4039 26.8454 63.0808L26.0305 63.4936L23.5649 68.8148L23.2135 69.0451C23.2711 69.4011 23.5891 69.4011 23.8072 69.102C28.6931 71.5816 33.8757 73.9117 39.537 73.795C39.5461 73.5139 39.643 73.3494 39.955 73.2178C40.0126 73.0443 40.0792 73.0473 40.158 73.2178C40.1731 73.3464 40.1458 73.484 40.158 73.6156L39.8338 74.821C37.7741 74.7612 35.7507 74.3574 33.7031 74.2138C31.2405 73.4541 28.7173 72.8917 26.3698 71.8C25.5156 71.4021 23.7194 70.4839 23.056 69.9096C22.6895 69.5895 22.7804 69.4938 22.8107 69.0451C23.9526 67.5137 24.4706 64.5375 25.6337 62.8834C25.8337 62.8146 25.9972 62.5006 26.3032 62.5215C26.6091 62.5424 27.2997 62.9642 27.4512 63.2783Z" fill="#7C3501"/>
<path d="M15.3508 51.1568L9.29883 53.9415C9.42605 53.8458 9.50177 53.6663 9.75318 53.5048C11.4676 52.4041 13.906 51.9644 15.3478 50.5615C15.469 51.1029 15.3417 51.1239 15.3478 51.1568H15.3508Z" fill="#1F1509"/>
<path d="M15.3491 51.5527C15.4369 51.9924 15.131 52.0014 14.8523 52.1569C14.0708 52.5936 12.9683 53.0004 12.1201 53.3414C12.1444 53.3205 12.0565 53.0872 12.1565 52.9885L15.346 51.5527H15.3491Z" fill="#5F4D36"/>
<path d="M10.1047 54.1378C10.4076 53.9644 10.4985 54.0242 10.3077 54.3353C10.0532 54.4399 9.65643 54.7271 9.50195 54.3353C9.7049 54.2096 9.96842 54.2126 10.1078 54.1378H10.1047Z" fill="#715B41"/>
<path d="M10.9152 53.9391C10.7486 54.0198 10.5941 54.2202 10.3094 54.3369L10.1064 54.1395C10.2942 54.0378 10.4306 53.8643 10.7123 53.7416C10.9364 53.6998 11.0061 53.7177 10.9152 53.9391Z" fill="#574631"/>
<path d="M11.3148 53.5347C11.5268 53.5048 11.5965 53.5228 11.5177 53.7321C11.3118 53.8518 11.0725 53.8548 10.9119 53.9296L10.709 53.7321C10.924 53.6364 11.1179 53.6035 11.3148 53.5347Z" fill="#6B563D"/>
<path d="M12.1232 53.3408C11.8779 53.5472 11.7718 53.5891 11.5174 53.7386L11.3145 53.5412C11.7264 53.3917 12.0778 53.3588 12.1202 53.3438L12.1232 53.3408Z" fill="#574631"/>
<path d="M10.9119 57.3154L11.1118 58.1111C10.7302 58.0991 10.8029 57.6474 10.709 57.5158L10.9119 57.3184V57.3154Z" fill="#1A130B"/>
<path d="M46.4115 18.5485C46.2873 18.9433 46.4599 19.6342 45.8057 19.5415C45.9844 19.1048 45.8238 18.3959 46.4115 18.5485Z" fill="#614D35"/>
<path d="M48.0287 15.5646C47.8469 15.7919 47.8257 16.2406 47.4229 16.3602C47.5531 16.0133 47.6803 15.7052 47.8257 15.3672L48.0287 15.5646Z" fill="#775E41"/>
<path d="M47.2191 17.1579C47.101 17.475 46.9525 17.801 46.6133 17.9536C46.7435 17.5557 46.6708 17.0353 47.2191 17.1579Z" fill="#665038"/>
<path d="M66.1804 43.7987C64.8658 44.2175 62.0215 43.1347 60.5312 43.0031L60.7342 42.8057C62.491 42.9492 64.4266 43.5116 66.1804 43.7987Z" fill="#120A03"/>
<path d="M60.1285 48.1731C60.0709 48.3466 60.0043 48.3436 59.9255 48.1731C60.0588 46.4772 59.9134 45.2209 59.9255 43.5997C59.9831 43.4262 60.0497 43.4292 60.1285 43.5997C60.1345 43.7223 60.3223 43.9975 60.3284 44.2877C60.3617 45.6995 60.2618 46.8062 60.1285 48.1731Z" fill="#4D3D28"/>
<path d="M59.9257 50.557C59.6622 51.218 59.747 52.3158 59.123 52.7435C59.2624 52.1842 59.3775 51.6009 59.5199 51.0415C59.6047 50.7095 59.3169 50.4613 59.9288 50.56L59.9257 50.557Z" fill="#5C4831"/>
<path d="M60.129 48.1738C60.0654 48.8229 60.2956 49.6006 59.8261 50.1629C59.7443 49.5228 59.8746 48.8229 59.9261 48.1738H60.129Z" fill="#5A472F"/>
<path d="M60.1277 43.6001H59.9248C59.9248 43.4685 59.9248 43.3339 59.9248 43.2023C59.9581 43.1664 60.2822 43.0079 60.3277 43.0049C60.4307 43.2143 60.1247 43.5702 60.1247 43.6001H60.1277Z" fill="#56442D"/>
<path d="M54.4821 32.8629C54.7486 33.3355 54.8607 33.5628 55.0879 34.0564C55.8118 35.3844 58.5016 41.5581 58.3229 42.5841C58.3138 42.6319 57.9745 43.0866 57.8655 43.2032C57.7958 46.9062 57.2748 50.5494 56.2964 54.1298C56.9204 54.381 57.1234 54.7789 56.9023 55.3262C56.9477 55.4698 56.9871 55.6134 56.9992 55.7629C57.084 56.7829 53.4007 61.2786 52.4435 62.2656L51.656 62.484V62.6814C51.1259 62.4032 50.6988 62.6904 50.8866 62.0263C51.0926 61.3055 52.9251 59.783 53.2674 59.0023C53.3825 58.7421 53.222 58.6583 52.9645 58.7032C52.1527 58.8468 49.9022 61.6465 48.633 62.0054C48.1302 62.149 47.8182 61.8917 47.4123 61.9755C46.9731 62.0652 46.1038 62.6844 45.507 62.8878C37.6921 65.5349 29.9348 63.3753 23.7222 58.3054C23.0831 57.7849 22.0441 56.415 21.502 56.1039C21.19 55.9245 20.9355 56.1667 20.8325 56.0979C20.2146 55.7061 17.5582 51.9672 16.8675 51.1446C16.6919 50.9353 15.6741 49.7179 15.347 50.1606C14.099 46.993 12.6299 44.8154 11.8151 41.2171C11.6213 40.3527 11.6576 39.2101 11.4789 38.561C11.4244 38.3636 11.2941 38.2918 11.1124 38.235C11.0639 38.4055 10.9942 38.3995 10.9094 38.235C10.8064 38.3397 10.7065 38.4204 10.6065 38.4174C8.89815 38.3636 6.83538 38.229 5.13306 38.0555C5.03613 38.0465 4.94526 37.9538 4.85742 37.8371V37.6397C6.86567 37.559 9.15865 37.9089 11.1851 38.0226C11.6697 37.882 11.8636 35.6028 11.9181 35.0554C12.6451 31.6485 13.3054 28.6215 15.4378 25.6274C21.5504 17.0399 34.5631 16.2113 43.1323 21.3979C47.5244 24.057 52.1921 28.3164 54.479 32.8689L54.4821 32.8629Z" fill="#1F1509"/>
<path d="M7.2825 23.3171C7.52786 23.2992 7.75806 23.4996 7.88831 23.7149C8.44868 23.9722 8.98785 24.3042 9.50278 24.708L10.7144 25.5036C11.8866 25.9224 12.4258 26.4518 12.3289 27.0949C11.7443 28.417 11.5746 29.2964 11.3202 30.6723C10.9052 32.9186 10.8083 34.9316 10.9173 37.2348L3.79609 36.7981C3.13576 36.6126 3.2236 35.7871 3.25086 35.2457L3.44472 35.1859L3.25086 32.464C3.30538 31.435 3.41443 31.7341 3.65372 31.0731C3.57497 30.7261 3.5053 30.2445 3.85667 30.08C3.86273 29.9484 3.84455 29.8138 3.85667 29.6822C3.90816 29.0361 4.04144 28.4379 4.25953 27.8935C4.24136 27.6004 4.30799 27.2684 4.46248 26.9005C4.51094 26.7629 4.61393 26.6402 4.66542 26.5027C4.53214 26.1647 4.7472 25.6532 5.06828 25.5096C4.95621 25.2195 4.94712 24.8127 5.27123 24.714C5.37421 24.3191 5.10766 24.8067 5.47417 24.1187C5.32575 23.8077 5.54081 23.3889 5.87703 23.3231C5.70135 22.9881 5.94064 22.8086 6.27989 22.7279C6.5828 22.2762 7.53088 22.7727 7.28856 23.3231L7.2825 23.3171Z" fill="#312618"/>
<path d="M54.4857 32.8616C51.3295 27.2742 42.5786 19.6887 35.9783 18.8003C35.1908 18.6927 34.0004 18.5999 33.2158 18.5371C23.8622 17.7834 15.7141 21.9829 13.1939 31.2314C12.882 32.377 12.7911 33.4539 12.5366 34.5695C12.4215 35.081 12.7214 35.1139 11.9248 35.0511C11.9399 34.8986 11.737 34.6024 11.7642 34.3632C13.5211 19.1084 30.9925 13.8052 43.3752 21.2501C46.7162 23.2571 51.8292 27.8963 53.8799 31.1746C54.1798 31.6532 54.4463 32.2933 54.4857 32.8646V32.8616Z" fill="#19130A"/>
<path d="M55.084 34.0586C56.65 35.9251 57.0741 38.5154 57.8828 40.7437L58.107 40.6181C58.7309 40.7198 59.0944 42.1526 58.7128 42.6072V42.8046C58.5825 42.8196 58.2978 42.7358 58.2948 42.9153C58.5189 43.4627 58.6734 43.8844 58.7219 44.4886C58.9945 47.8536 58.3008 51.9784 57.1013 54.9336C57.4466 55.1669 57.3285 55.3464 56.8984 55.3314C56.7924 54.6076 56.023 54.6106 55.923 54.5089C55.605 54.1829 57.2043 48.7031 57.277 47.6532C57.3709 46.2683 57.1892 44.3062 57.5102 42.9452C57.5436 42.7986 57.8677 42.8226 57.904 42.673C58.1948 41.5184 55.7261 35.4614 55.087 34.0616L55.084 34.0586Z" fill="#19130A"/>
<path d="M60.5316 28.0908C59.3018 29.1257 56.7817 29.6462 55.8911 30.4777C56.9422 32.7659 58.4385 36.2685 59.4593 39.3614C59.5229 40.5219 59.8107 41.4043 60.3287 42.0085C60.4953 42.0324 60.68 42.0085 60.7315 42.2059C60.0682 42.182 59.1504 42.0504 58.7142 42.6037C58.3931 41.9995 58.2689 41.2697 58.1084 40.6146C57.3753 37.6385 56.1062 33.6752 54.4766 31.073C56.3879 29.9633 58.3931 28.707 60.5286 28.0908H60.5316Z" fill="#7F3601"/>
<path d="M6.27369 22.1287C6.46149 22.1347 6.88556 22.2573 7.07942 22.3261C7.13091 22.2394 7.18846 22.1616 7.26419 22.1138C7.65493 21.8685 11.6987 24.6772 12.3227 25.2126V25.7091L12.8194 25.8138C13.3949 25.4818 13.2798 26.4449 12.7286 26.5047C12.6589 26.4958 12.5771 26.5227 12.5256 26.5047C11.9804 26.3193 11.4443 25.9873 10.9111 25.5117L9.49961 24.716C8.91804 24.3631 8.37887 23.9653 7.88514 23.5226C7.63676 23.397 7.43684 23.3312 7.27933 23.3252C7.06124 23.1876 6.4312 22.7778 6.27067 22.7299C6.20706 22.8227 6.14042 22.8197 6.06772 22.7299C6.16162 22.1975 5.9405 22.3231 5.46191 22.3321C5.7739 22.2364 5.77693 22.1138 6.26764 22.1347L6.27369 22.1287Z" fill="#551E02"/>
<path d="M3.24654 32.4659C3.47069 33.3842 3.60699 34.5956 3.65849 35.5408C3.66757 35.6993 3.71604 36.2736 3.44948 35.9386C3.56156 35.6813 3.25865 35.3493 3.24654 35.2476C3.1587 34.4699 3.20413 33.2705 3.24654 32.4629V32.4659Z" fill="#4E3B26"/>
<path d="M3.85156 29.6794C3.91214 29.0483 3.78795 28.7791 4.05451 27.8907C4.11206 27.7172 4.1787 27.7202 4.25745 27.8907C4.13932 28.4889 4.11206 29.1141 3.85459 29.6794H3.85156Z" fill="#5E4A31"/>
<path d="M5.06301 25.5072C4.96305 25.8392 4.78434 26.1742 4.66015 26.5003C4.1543 26.1742 4.74799 25.6119 4.86309 25.3068C5.01455 25.1004 5.08118 25.1662 5.06604 25.5042L5.06301 25.5072Z" fill="#604B32"/>
<path d="M3.85298 30.0802C3.83178 30.5259 3.80149 30.6635 3.65004 31.0733C3.29867 30.7383 3.26535 29.8858 3.85298 30.0802Z" fill="#5F4B32"/>
<path d="M5.86993 23.3195C5.7215 23.5767 5.6064 23.8549 5.46707 24.1151C4.94607 23.7891 5.50039 23.3883 5.67001 23.1221C5.95474 22.8588 6.05773 22.9695 5.87296 23.3195H5.86993Z" fill="#624D33"/>
<path d="M4.25666 27.8934H4.05371C4.1991 27.4029 4.35056 27.1995 4.45657 26.9004C4.45657 27.2474 4.32027 27.5644 4.25363 27.8934H4.25666Z" fill="#745B3D"/>
<path d="M5.26436 24.7138C5.19469 24.98 5.14017 25.2462 5.06142 25.5094L4.85847 25.312C4.96146 25.0398 4.601 24.5851 5.26133 24.7167L5.26436 24.7138Z" fill="#654F35"/>
<path d="M6.07266 22.7225C6.14233 22.7225 6.22411 22.7075 6.27561 22.7225C6.15444 22.9289 5.99088 23.1113 5.87274 23.3177L5.6698 23.1203C5.76976 22.9647 5.42445 22.7045 6.07266 22.7225Z" fill="#6E573A"/>
<path d="M55.8953 30.4736C57.0554 32.2234 57.8096 34.1946 58.4942 36.1657L58.7183 36.0401C59.4029 37.9724 60.1783 39.9286 60.3328 42.0044C60.033 41.9595 59.6725 42.0882 59.5635 41.6694C59.1545 39.1269 58.3791 36.6294 57.4038 34.2544C57.1584 33.6562 55.6348 30.8415 55.7045 30.5963C55.7348 30.4976 55.8529 30.5125 55.8923 30.4766L55.8953 30.4736Z" fill="#F1B60F"/>
<path d="M33.5029 15.3672L33.5241 15.7381C37.4436 16.106 41.1784 17.5148 44.5346 19.4919C45.2676 19.5129 45.0768 19.2018 45.204 18.9446C45.0283 18.1759 45.2828 17.6793 46.0097 17.3533H46.2127C45.7977 18.1729 45.3615 20.4072 44.1136 20.3384C43.5895 20.3085 41.1481 18.801 40.3576 18.454C39.364 18.0173 38.1767 17.5657 37.1347 17.2546C36.3229 17.0153 33.5725 16.5876 33.2181 16.3782C32.994 16.2466 33.1454 16.0791 33.103 15.9624L33.5059 15.3672H33.5029Z" fill="#401301"/>
<path d="M19.9898 18.3526C20.1867 19.1931 18.5298 19.9319 17.9695 20.4374C16.0551 22.1603 14.3982 24.1315 13.2926 26.4705C13.1745 26.5543 12.8898 26.5214 12.7262 26.5034L12.9261 25.9082C12.6808 25.9381 12.5111 25.8454 12.3203 25.7078C12.5929 25.4446 12.8928 25.1574 13.2199 24.8523C14.5891 22.1723 16.5822 20.1682 19.0296 18.3436L17.1728 15.4213L17.3637 14.9727C17.8846 15.6157 19.8263 17.6736 19.9868 18.3526H19.9898Z" fill="#6C2D01"/>
<path d="M12.5234 26.5018C12.6203 26.795 12.3962 26.9326 12.3204 27.0971C12.3174 26.9236 12.3871 26.6753 12.2871 26.5407C12.2326 26.4659 11.0664 25.772 10.709 25.5088H10.9119C11.3451 25.7361 12.2386 26.4091 12.5264 26.5018H12.5234Z" fill="#1F1308"/>
<path d="M4.45694 43.4025C4.5993 43.7943 4.66594 43.6627 4.65988 43.0047C4.24188 42.7295 3.6391 38.0364 3.95109 38.0214L7.95547 38.1949C9.41546 38.4881 10.4029 38.5 10.9148 38.2338C10.9845 38.2428 11.0633 38.2159 11.1178 38.2338C11.2874 42.6487 13.2745 46.6389 14.9253 50.638C12.9776 51.7238 10.83 52.657 8.80057 53.668C8.48858 53.6351 8.30078 53.4467 8.12207 53.2133C7.03162 51.7956 5.38079 47.5392 4.81437 45.7385C4.40847 44.4494 3.01512 39.194 3.34226 38.2159C3.39375 38.0633 3.49977 37.8839 3.65728 37.833L3.93897 38.162C3.98138 39.9118 4.15707 41.6586 4.463 43.3995L4.45694 43.4025Z" fill="#EDA60E"/>
<path d="M47.4219 14.1774C46.9706 15.2303 46.5193 16.337 46.0104 17.357C45.7469 17.8834 45.4682 18.4129 45.2047 18.9483C44.8624 19.2414 44.723 18.9273 44.4625 18.7957C43.9718 18.5504 41.064 17.1476 40.967 16.9592C40.9549 16.9382 41.379 16.9651 40.958 16.669C39.8372 15.8883 35.0059 15.0269 34.812 14.7727C34.6576 14.5723 34.8969 14.5214 35.018 14.3748C35.7995 14.7158 36.6234 14.5064 37.4261 14.5812C37.7169 14.6081 37.9501 14.9701 38.1985 14.9342C38.4469 14.8983 40.0614 14.0907 40.1553 14.1774L39.9553 14.9701C41.0034 15.2542 40.8762 14.6351 41.4153 14.327C41.8 14.1086 43.8113 13.5493 43.99 13.3788C44.408 12.975 43.0116 12.8464 43.4872 12.3857L47.4189 14.1774H47.4219Z" fill="#E29A0C"/>
<path d="M33.7079 12.7856H33.5049C33.299 11.5891 32.7992 10.2581 32.6992 9.00781C33.2747 10.0338 33.4837 11.5802 33.7079 12.7856Z" fill="#EFB616"/>
<path d="M39.5567 67.6561C39.4325 69.3491 39.9656 71.4878 40.1625 73.2226H39.9595L39.5203 72.8158L38.8176 68.5864C38.5813 67.7519 38.6934 67.1118 39.1508 66.6631C39.493 67.0041 39.2204 67.4049 39.5536 67.6561H39.5567Z" fill="#421701"/>
<path d="M17.371 14.972L19.564 18.4238C18.1706 19.6172 16.647 20.7239 15.4506 22.1268C14.6176 23.1019 13.9845 24.6363 13.3121 25.3871C12.9849 25.755 12.7971 25.758 12.3246 25.7072C11.2493 24.9175 8.16877 22.725 7.08134 22.3272C6.90869 21.9862 6.4513 21.7678 6.47554 21.3341C7.02379 21.714 6.77541 21.4687 6.9935 21.1577C8.87756 18.4776 10.0225 16.5902 12.6305 14.3798C13.3726 13.7516 14.8448 12.9919 15.1477 12.3877C15.3264 12.4505 15.4384 12.4027 15.6414 12.5881C16.0564 12.974 16.853 14.3379 17.3679 14.972H17.371Z" fill="#F4B413"/>
<path d="M64.568 58.9082C64.6558 59.5842 64.2469 60.1286 63.9622 60.6969C62.8808 62.8625 59.6064 67.5555 57.6194 68.8567C56.6471 69.4938 56.7561 68.399 56.4986 67.8516C55.8413 67.1457 55.3173 66.3202 54.8842 65.4647C54.6691 65.3361 54.4964 65.1088 54.4813 64.8695C54.4116 64.8545 54.3541 64.8157 54.3086 64.7588C53.8694 64.1995 52.785 62.7937 53.4726 62.2852L53.3908 62.0728C55.1598 59.8803 56.8682 57.6968 58.516 55.5252C58.4069 54.939 59.4762 55.594 59.3399 55.6568C59.3187 55.6658 59.0218 55.4475 59.3247 55.3278C61.2512 56.3269 62.8445 57.8673 64.568 58.9052V58.9082Z" fill="#B76A02"/>
<path d="M58.514 54.9343C57.051 57.6922 54.9518 60.5128 52.6649 62.6873C52.3802 62.6873 51.9894 62.448 51.6562 62.4899C53.8402 60.3423 55.6576 58.1558 56.8995 55.3322C56.9601 55.1976 57.0449 55.0719 57.1024 54.9343C57.6961 54.5246 58.0263 54.7938 58.514 54.9343Z" fill="#D7790C"/>
<path d="M59.3219 55.3304L59.5248 55.7253L58.5162 55.5279C58.3253 55.4411 58.3253 55.2407 58.5162 54.9326C58.9917 55.0672 59.0038 55.1659 59.3219 55.3304Z" fill="#B4770D"/>
<path d="M58.5151 54.9317C58.4848 55.1142 58.5605 55.3804 58.5151 55.5269C58.3273 56.1282 56.2948 59.0146 55.7768 59.6846C55.2589 60.3546 54.0866 61.7754 53.4748 62.2839C53.3082 62.93 53.1052 63.0646 52.869 62.6817C52.8084 62.6937 52.7296 62.6817 52.666 62.6817L58.5151 54.9287V54.9317Z" fill="#F7DA38"/>
<path d="M54.4826 64.8724C54.4221 64.9771 54.3554 64.9741 54.2797 64.8724C53.7981 64.1545 53.265 63.4576 52.8682 62.6859C52.9651 62.665 53.3589 62.3838 53.474 62.2881C53.3195 62.647 53.3377 62.7966 53.4982 63.1406C53.6587 63.4845 54.2585 64.5135 54.4826 64.8724Z" fill="#C98A0B"/>
<path d="M56.5002 67.8546C55.7369 67.6153 55.3219 66.3232 54.8857 65.6681V65.4707C55.4007 66.3082 56.0035 66.8018 56.5002 67.8576V67.8546Z" fill="#BF7F09"/>
<path d="M54.8871 65.4644V65.6619C54.7205 65.4076 54.4751 65.1534 54.2812 64.8662H54.4842C54.5902 65.0367 54.7356 65.2162 54.8871 65.4614V65.4644Z" fill="#C3840A"/>
<path d="M26.6463 63.482C26.8401 63.3025 26.9946 63.3414 27.1976 63.4341C28.9726 64.2298 30.5416 64.8848 32.3439 65.5369C32.4015 65.5578 32.4499 65.6117 32.4953 65.6715C32.7619 65.5847 33.3586 65.5668 33.504 65.8689C33.922 66.1231 34.3249 66.1889 34.7156 66.0663C35.903 66.2219 37.9749 66.2458 38.9502 66.6615C38.3202 67.0205 37.2994 66.7872 36.7299 66.4641C36.424 66.5419 36.3574 66.6077 36.527 66.6615C37.4024 66.838 38.2111 66.838 38.9472 66.6615C39.0078 66.6885 39.1168 66.6316 39.1501 66.6615C38.9896 68.8032 39.8317 71.1542 39.9559 73.2211C40.0043 74.0377 39.9225 74.241 39.0502 74.2321C35.6728 74.1992 31.2171 72.9878 28.1214 71.6657C26.7402 71.0764 25.1772 69.9847 23.8717 69.4911C23.6112 69.3924 23.2901 69.4493 23.0145 69.4433C22.9024 69.0814 23.1993 69.0903 23.2144 69.0455C23.3325 68.8959 23.5203 68.7284 23.5294 68.8839L26.0465 63.4341C26.2343 63.0782 26.5463 63.0872 26.6433 63.479L26.6463 63.482Z" fill="#CB7E05"/>
<path d="M27.4509 63.2809C29.1048 63.927 30.804 65.0427 32.4942 65.4674C32.6699 65.5242 32.6669 65.59 32.4942 65.6648C32.1762 65.59 31.7521 65.5751 31.2311 65.4136C29.6318 64.917 28.2263 63.9808 26.6421 63.4783C26.2787 63.1313 26.3362 63.0027 26.8451 63.0805C27.0177 63.1284 27.2843 63.2151 27.4509 63.2779V63.2809Z" fill="#C5880C"/>
<path d="M50.6485 64.2779C49.2824 65.0915 47.8133 65.8064 46.2109 66.0666L50.4455 64.0805C50.7696 63.9369 50.8363 63.9639 50.6485 64.2779Z" fill="#4A3B28"/>
<path d="M42.7799 66.6604C42.9556 66.7172 42.9526 66.7831 42.7799 66.8578C41.8318 66.9655 40.6081 67.1749 39.7539 66.8578C40.2083 66.4301 42.0196 66.7412 42.7799 66.6604Z" fill="#52412C"/>
<path d="M50.6492 64.2784L50.4463 64.0809L52.0577 63.0879C52.0608 63.8177 51.146 63.9822 50.6492 64.2813V64.2784Z" fill="#51402C"/>
<path d="M44.5976 66.2598C44.7733 66.3166 44.7702 66.3824 44.5976 66.4572C43.9857 66.6067 43.4163 66.7832 42.7832 66.855V66.6576C43.2921 66.6037 44.0402 66.3495 44.5976 66.2598Z" fill="#4C3D29"/>
<path d="M33.9066 65.8655C33.8521 66.0241 33.7158 66.0241 33.5038 65.8655C33.1615 65.7399 32.8162 65.7429 32.4951 65.6681V65.4707C32.9162 65.5754 33.5523 65.4169 33.9066 65.8685V65.8655Z" fill="#C2840B"/>
<path d="M33.9049 65.8652C34.2442 65.9669 34.2896 66.0087 34.7106 66.0626C34.1654 66.7565 33.5899 65.8981 33.499 65.8652C33.6262 65.8861 33.7959 65.8352 33.9019 65.8652H33.9049Z" fill="#DEA510"/>
<path d="M44.5977 66.2628C44.8884 66.215 45.1277 66.221 45.4034 66.0654C45.5488 66.7354 44.9945 66.3675 44.5977 66.4632V66.2658V66.2628Z" fill="#4F3F2B"/>
<path d="M26.8447 63.0827C26.769 63.1814 26.7145 63.4267 26.6418 63.4805C26.5993 63.5134 26.3691 63.4057 26.2237 63.6061C25.4089 64.7278 24.7486 67.4108 23.8581 68.7898C23.6521 69.1068 23.6309 69.391 23.2129 69.047C23.9853 67.01 25.1818 65.1346 25.936 63.0827C26.2359 62.6609 26.5448 63.0019 26.8417 63.0827H26.8447Z" fill="#F1C013"/>
<path d="M28.8625 61.0972C28.3718 60.819 28.5233 60.5917 29.0655 60.6993C29.4381 60.5857 29.9954 60.8339 30.2771 61.0972C30.6315 61.1331 31.1404 61.3993 31.2858 61.6924C33.3213 62.174 35.3386 62.6376 37.3378 63.0833C38.2253 62.9337 39.2703 62.9666 40.1608 63.0833C40.4395 62.8559 40.7091 62.7871 40.9666 62.8859C42.0146 62.5987 43.0899 62.4013 44.1925 62.2906C44.2258 62.0274 44.7226 61.8749 44.9982 61.8928C45.5313 61.474 46.3431 61.2138 47.0155 61.0972C48.0878 60.3314 49.1631 59.6016 50.2415 58.9107C52.5041 56.5297 53.9672 53.8018 55.0818 50.7599C55.1818 49.5305 55.3454 48.1336 55.6876 46.9821C55.8815 46.001 55.8815 44.981 55.6876 43.9999C55.5301 43.8474 55.5362 43.5572 55.6876 43.4047C55.3605 43.3179 55.4029 42.962 55.6876 42.8095C55.7361 42.3219 55.8694 42.1903 56.0905 42.4116C58.1048 59.0273 43.9441 68.8501 28.8595 61.1002L28.8625 61.0972Z" fill="#C37405"/>
<path d="M28.6639 19.5431C28.6942 19.7884 28.358 19.9858 27.6553 20.1384L27.0313 20.6798C12.9766 23.9401 12.5374 41.0134 19.3648 51.0127L19.386 51.7515C19.6647 52.2331 19.3981 52.2989 18.5803 51.9489C16.7326 49.4274 16.2358 48.575 15.1514 45.5868C15.0151 45.1082 14.9485 44.6446 14.9485 44.196C13.4794 39.9874 13.2674 35.2435 14.7455 31.0739C14.6789 30.7808 14.8455 30.3381 15.1484 30.2783C15.9783 26.9402 18.6197 23.3688 21.8062 21.9271C23.5206 20.4345 26.371 19.4564 28.6639 19.5401V19.5431Z" fill="#E59C0B"/>
<path d="M36.5323 19.7423C37.4561 19.85 38.6223 20.3405 39.4917 20.7024C48.1729 24.3157 54.9761 33.1574 56.0968 42.406L55.6939 42.8038L55.4486 42.6004C54.9427 38.9692 53.6978 35.338 51.6623 32.2661L51.0141 32.1195C46.2585 24.6268 37.6379 19.0693 28.4054 20.4093L27.6572 20.1371L28.6659 19.5419C28.8719 19.2757 29.2747 19.2637 29.4716 19.5419C31.0407 19.2099 32.6097 19.1141 34.2514 19.3893L36.5323 19.7423Z" fill="#D78B08"/>
<path d="M19.3839 51.7511L20.1866 52.1668C22.2646 54.8678 24.8544 57.1321 27.629 59.1152L28.0561 59.9049C28.5589 60.0783 28.8951 60.3416 29.0647 60.7005L28.8618 61.0983C24.0123 58.6067 21.7466 56.2796 18.5752 51.9545L18.7812 51.5566L19.284 51.9515L19.3839 51.757V51.7511Z" fill="#D38407"/>
<path d="M14.7449 31.0744C14.2512 32.9169 13.8332 36.6468 13.9301 38.5372C14.0271 40.4276 14.5874 42.3569 14.9479 44.1964C15.0751 44.322 15.0812 44.5284 14.9176 44.5763C14.5359 44.6929 13.7575 40.4874 13.7393 39.8204C13.2577 36.5272 13.606 34.1941 14.545 31.0714C14.6026 30.8979 14.6692 30.9009 14.748 31.0714L14.7449 31.0744Z" fill="#EAAF0F"/>
<path d="M21.8059 21.9308C18.7284 23.8361 16.3779 26.9199 15.1481 30.282C14.9482 30.4614 14.8815 30.3268 14.9451 29.8841C16.3021 26.3098 18.1165 23.8182 21.4 21.7333C21.8271 21.5778 21.9604 21.6436 21.8029 21.9308H21.8059Z" fill="#EEBD1B"/>
<path d="M4.8619 37.8346C6.73082 37.9005 9.06923 38.0231 10.9139 38.2325C11.0108 38.8636 10.6564 38.6064 10.2687 38.5735C8.20293 38.403 6.12501 38.2803 4.05618 38.2325C3.80477 38.4807 4.51659 42.3423 4.66199 43.0063C4.69531 43.3024 4.62867 43.434 4.45904 43.4041C4.02286 41.6334 3.71087 39.6532 3.65332 37.8376C3.85021 37.7748 4.57415 37.8287 4.86493 37.8376L4.8619 37.8346Z" fill="#F4C917"/>
<path d="M29.6716 19.1455C31.9646 18.9271 31.1831 19.4386 29.4687 19.5433C29.2021 19.5612 28.9265 19.5164 28.6629 19.5433C26.2064 19.7975 23.9013 20.6321 21.8052 21.9302L21.4023 21.7328C23.8407 20.1834 26.7425 19.2113 29.6716 19.1485V19.1455Z" fill="#E5AE16"/>
<path d="M36.5284 19.7446C34.3718 19.4963 31.7183 19.4006 29.4678 19.5472C29.7071 19.1165 30.5825 19.4754 30.8793 19.3468V19.1524H29.6707C31.8607 18.6349 34.3869 19.2182 36.5284 19.7476V19.7446Z" fill="#DA940A"/>
<path d="M13.7365 39.8213C13.9576 41.3468 14.4938 42.8722 14.7482 44.3977C14.833 44.3678 14.9118 44.2003 14.9451 44.1973C15.039 44.1883 15.1026 44.2063 15.142 44.299C15.1693 44.6998 15.5873 45.313 15.145 45.5882C15.1117 45.4984 14.8694 45.319 14.7815 45.0587C14.2303 43.4166 13.7729 41.5591 13.7305 39.8213H13.7365Z" fill="#E4A30E"/>
<path d="M15.1478 30.2777C15.0509 30.5409 14.8116 30.8221 14.7449 31.0733H14.542C14.6874 30.5918 14.7661 30.3495 14.9449 29.8799L15.1478 30.2777Z" fill="#E3B217"/>
<path d="M9.4992 24.7129C8.88128 24.366 8.42086 24.0339 7.88472 23.7199C7.79082 23.6601 7.79385 23.5913 7.88472 23.5225C8.4663 23.8934 8.95397 24.3151 9.4992 24.7159V24.7129Z" fill="#1E1208"/>
<path d="M10.9136 25.5124H10.7106C10.3896 25.2761 9.93218 25.0339 9.49902 24.7168C9.93823 24.9621 10.4713 25.2791 10.9106 25.5124H10.9136Z" fill="#211206"/>
<path d="M7.88999 23.5179V23.7153C7.62343 23.5598 7.47804 23.4401 7.28418 23.3175L7.38414 23.123C7.53256 23.2846 7.70824 23.4012 7.88999 23.5179Z" fill="#1D1107"/>
<path d="M4.65998 43.0049C4.9235 44.1953 5.51719 45.3529 5.66561 46.5823C5.37483 46.6301 5.40209 46.2473 5.31728 46.0379C4.98711 45.2093 4.66906 44.2641 4.45703 43.4027L4.65998 43.0049Z" fill="#F4C316"/>
<path d="M38.9523 66.6593C38.5676 67.3772 37.1894 66.773 36.5321 66.6593C36.414 66.5636 36.4806 66.4978 36.7351 66.4619C37.459 66.5128 38.1799 66.7939 38.9554 66.6593H38.9523Z" fill="#C98B0B"/>
<path d="M36.7274 66.4654L36.5245 66.6628C36.2822 66.6209 35.9762 66.6927 35.7188 66.6628V66.4684C36.0519 66.4804 36.3942 66.4445 36.7274 66.4684V66.4654Z" fill="#E6AD10"/>
<path d="M55.694 42.8034C55.7091 43.0008 55.6849 43.2012 55.694 43.3986C55.6364 43.5721 55.5698 43.5691 55.491 43.3986C55.4335 43.5721 55.3668 43.5691 55.2881 43.3986C54.9973 42.8453 54.8337 42.1872 54.7974 41.4245L53.8766 37.4343C53.195 36.7584 52.7104 35.8461 52.4226 34.7005C51.8835 33.8689 51.629 33.0553 51.6563 32.2627C53.7887 34.6676 55.4335 39.3905 55.6909 42.8004L55.694 42.8034Z" fill="#E0990B"/>
<path d="M55.0874 50.7597C54.218 54.1007 52.864 56.6073 50.247 58.9105C49.9622 59.1737 49.8592 59.063 50.044 58.713C49.9562 58.5007 50.0016 58.3421 50.1349 58.1806C52.4188 55.3929 53.1124 53.9871 54.4301 50.6879C54.5058 50.4994 54.6875 50.4067 54.8874 50.3618C55.051 50.2242 55.1176 50.3588 55.0904 50.7597H55.0874Z" fill="#EEBD1D"/>
<path d="M55.6905 43.9966C55.8844 44.9807 55.8844 45.9977 55.6905 46.9787C55.6148 48.5551 55.4785 49.249 55.0847 50.7565L54.8817 50.3587C54.4668 49.8682 54.7939 48.0466 55.2846 47.7744C55.2846 47.1014 55.3512 46.4374 55.4875 45.7853C55.0605 45.558 55.0574 45.0136 55.4875 44.7922C55.327 44.3346 55.33 43.865 55.4875 43.4014H55.6905C55.6996 43.5988 55.6844 43.7992 55.6905 43.9966Z" fill="#E6B018"/>
<path d="M37.1349 62.6846C37.2591 62.7146 37.347 62.7385 37.3379 62.8821C37.5136 62.9389 37.5105 63.0047 37.3379 63.0795C35.469 62.9449 33.0457 62.3347 31.2859 61.6886C31.0163 61.4254 31.1253 61.4194 31.4888 61.4912L32.0219 61.2549C33.5546 61.7544 35.1418 62.1103 36.7472 62.2599L37.1349 62.6846Z" fill="#D0890B"/>
<path d="M50.0452 58.7091L50.2482 58.9065C49.1244 59.8966 48.3489 60.4081 47.0222 61.093C46.8465 61.0362 46.8496 60.9704 47.0222 60.8956C46.9768 60.761 46.9526 60.6474 46.995 60.6085C47.2858 60.3542 49.6151 58.5506 49.7847 58.5865C49.8756 58.6044 49.9634 58.6523 50.0482 58.7091H50.0452Z" fill="#E9B71C"/>
<path d="M43.7925 62.0868C44.1136 62.0389 44.2499 62.1047 44.1954 62.2842C42.7959 62.7179 42.3961 62.7388 40.9694 62.8794C40.7514 62.9034 40.6817 62.9063 40.7665 62.682C41.3057 62.0838 43.0746 61.6949 43.7925 62.0868Z" fill="#D28D0D"/>
<path d="M30.2759 60.8955C30.3971 60.9553 30.3971 61.0211 30.2759 61.0929C29.967 60.9553 29.5459 60.9643 29.0643 60.6951C28.6918 60.4857 28.3404 60.0969 28.0557 59.8995C28.5433 59.3132 30.2699 60.2046 30.2759 60.8925V60.8955Z" fill="#D0890B"/>
<path d="M47.02 60.8954V61.0928C46.2083 61.5116 45.7872 61.5894 45.0027 61.8885C44.827 61.8316 44.83 61.7658 45.0027 61.6911C44.8997 61.1078 45.3026 60.9612 45.8084 61.2932C46.3112 60.8505 46.7141 60.7159 47.02 60.8954Z" fill="#E3AB18"/>
<path d="M55.6914 46.9821C55.7368 46.031 55.7247 44.9572 55.6914 44C56.0276 44.7358 56.0337 46.2045 55.6914 46.9821Z" fill="#E0990B"/>
<path d="M40.1609 62.8815C40.3366 62.9383 40.3336 63.0041 40.1609 63.0789C39.3098 63.1298 38.183 63.1387 37.3379 63.0789V62.8815C38.2436 62.729 39.2462 62.7738 40.1609 62.8815Z" fill="#DB920C"/>
<path d="M45.0016 61.8893C44.7926 61.9701 44.6229 62.1555 44.1958 62.2871L43.793 62.0897C43.902 61.4706 44.5411 61.2612 45.0046 61.6919V61.8893H45.0016Z" fill="#EDB71B"/>
<path d="M31.487 61.4945L31.2841 61.6919C30.8691 61.5394 30.5601 61.2253 30.2754 61.0967V60.8993C30.648 60.3758 31.4749 60.9292 31.487 61.4945Z" fill="#CD880C"/>
<path d="M40.9678 62.8825C40.8376 62.8945 40.5862 63.056 40.1621 63.08V62.8825C40.2287 62.8048 40.3651 62.739 40.565 62.6851C40.5862 62.5027 40.6558 62.5146 40.7679 62.6851L40.9709 62.8825H40.9678Z" fill="#D18C0D"/>
<path d="M51.6558 32.2633C52.6523 33.9952 53.2369 35.5655 53.876 37.432C56.7385 46.3186 54.7938 56.7247 45.8067 61.2892C45.5432 61.4028 45.316 61.5733 45.001 61.687C44.586 61.8365 44.2165 61.9622 43.7894 62.0848C42.711 62.3959 41.8871 62.6053 40.7634 62.68C40.6967 62.683 40.6301 62.677 40.5604 62.68C39.4639 62.8894 38.225 62.8625 37.1316 62.68C35.4141 62.5963 33.1151 62.0788 31.4824 61.4866C31.1341 61.3609 30.6525 61.0588 30.2708 60.8913C29.5317 60.5653 28.8532 60.0837 28.0505 59.8983C24.8337 57.6789 21.635 54.936 19.3784 51.7475C11.7998 41.0512 12.4752 23.1015 27.6477 20.1373C35.8533 18.5341 44.165 22.7964 49.2265 28.991C50.0928 30.0499 50.738 31.2344 51.6527 32.2663L51.6558 32.2633Z" fill="#1D170E"/>
<path d="M55.2865 43.4037C55.3441 43.8314 55.4107 44.298 55.4895 44.7946C55.4895 45.1266 55.5016 45.4586 55.4895 45.7876C55.3532 46.4367 55.2865 47.1007 55.2865 47.7767C55.1866 48.4886 55.0442 49.7329 54.8837 50.361C54.1628 53.1428 52.1969 56.759 50.0433 58.7122C49.3375 59.3523 47.932 60.3962 47.0173 60.8988C46.7325 61.0573 46.1389 61.153 45.8057 61.2966C46.6901 60.2916 47.9987 59.7741 49.0346 58.8139C53.6933 54.5067 55.6621 47.9382 54.6201 41.7735C54.3748 40.3198 53.7478 38.935 53.872 37.4424C54.5899 39.5481 55.123 41.1185 55.2835 43.4067L55.2865 43.4037Z" fill="#36220C"/>
<path d="M55.4912 44.7922C55.1217 44.5141 55.3216 43.8411 55.2883 43.4014H55.4912C55.4912 43.865 55.4912 44.3286 55.4912 44.7922Z" fill="#D49B12"/>
<path d="M55.2867 47.7762C55.3745 47.1511 55.0595 46.2597 55.4896 45.7871C55.4624 46.5887 55.3897 47.0524 55.2867 47.7762Z" fill="#D49B12"/>
<path d="M40.5636 62.6865C40.5091 62.878 40.3304 62.875 40.1608 62.8839C39.2278 62.9348 38.2737 62.848 37.3377 62.8839L37.1348 62.6865C38.204 62.7374 39.4944 62.7434 40.5636 62.6865Z" fill="#C37405"/>
<path d="M42.7809 29.2818C42.5295 27.9508 42.3357 26.6138 41.9752 25.3066C42.4689 25.6476 43.1323 25.5818 43.623 25.7673C46.2492 26.7723 50.3959 32.6887 51.6015 35.2013C55.5665 43.4508 54.9849 53.0642 47.5214 58.9059C42.5598 62.7884 36.3049 63.27 30.6073 60.4673C28.6111 59.4862 24.0403 56.0524 22.7075 54.3385C22.1775 53.6565 21.9503 52.7023 21.4959 52.1549C21.2142 51.814 20.6327 51.6255 20.4903 51.3503C20.3691 51.117 20.6175 50.115 20.351 49.8069C20.2449 49.6873 19.6725 49.7501 19.4725 49.3672C19.3059 49.0502 19.5907 48.7002 19.5059 48.3652C19.4422 48.1169 18.9213 47.6683 18.9849 47.5845C19.0242 47.5307 19.6876 47.5277 19.5876 47.088C19.5543 46.9384 18.9818 46.5825 18.9879 46.4868C18.997 46.3252 19.5119 46.2505 19.5695 46.1607C19.624 46.077 19.3635 44.5814 19.5907 44.2016C20.4025 44.0131 19.73 44.9523 19.7906 44.9972C19.8815 45.066 20.5176 44.8177 20.3994 45.395L21.1991 44.4049C20.9295 45.1527 22.3774 45.748 22.4228 45.9364C22.5258 46.3851 22.023 47.0312 22.4077 47.2914C22.4501 47.3183 23.3558 47.3422 23.4194 47.2974C23.5557 47.2046 23.6677 46.7949 23.8222 46.5915C24.2796 46.729 24.422 47.0581 24.0252 47.3871C24.2099 47.408 24.1978 47.4768 24.0252 47.5845C26.1516 54.4192 31.7825 61.3646 39.8125 59.7374C44.1925 58.8491 46.3794 55.6456 45.81 51.3623L45.6403 51.0781C46.3279 49.3343 46.4097 47.4439 46.2128 45.5984L45.8645 45.066C44.6832 40.0349 43.6048 34.9859 42.6295 29.9249L42.7809 29.2968V29.2818Z" fill="#19130B"/>
<path d="M36.1247 24.3137C36.47 24.227 36.8971 24.221 37.1334 24.5111C37.3939 24.3885 37.7059 24.3406 37.9391 24.5111C38.3813 24.4124 38.6509 24.4782 38.7448 24.7086C39.6263 24.6936 40.5017 24.6936 41.368 24.7086C41.9223 24.9538 42.2221 28.585 42.7795 29.282C43.7942 34.648 45.4874 40.2534 46.2084 45.5836C47.5926 53.208 40.2957 57.1144 33.8226 53.6596C33.7469 53.6177 33.7196 53.4921 33.7045 53.3366C33.3047 53.1721 33.1048 52.9717 33.0987 52.7413C32.2082 52.176 28.3976 49.0503 28.3219 48.3384C28.1644 46.8817 29.688 48.1559 30.1545 48.7631C32.1355 48.7721 31.9749 47.7133 29.6729 45.5866C29.4124 44.9674 29.8758 44.3183 30.4604 44.6803C30.9723 45.4669 31.5145 45.9694 32.0931 46.1818L32.3263 46.1399C33.0533 46.8757 33.8499 47.5846 34.9161 47.7731C35.11 47.788 35.3281 47.785 35.5219 47.7731C35.7461 47.2556 36.1641 47.0851 36.5306 47.5757C37.0304 47.5667 37.1637 47.6983 36.9335 47.9735C36.6639 48.4311 35.5977 48.3833 35.1191 48.1709C34.695 48.126 34.695 48.1918 35.1191 48.3683C36.8608 48.4311 38.0239 47.803 38.9508 46.3792C38.9902 45.5567 38.9326 44.7461 38.7751 43.9474L38.9508 43.7949L38.7085 43.5915C38.4268 41.731 38.036 40.1427 37.5393 38.8237C37.3121 38.7279 37.3151 38.5215 37.5393 38.4258C37.5393 37.8814 37.3727 37.3012 37.1364 36.8346C37.0788 37.011 37.0122 37.008 36.9335 36.8346C36.6306 36.5803 36.7305 36.1616 36.9335 35.8415C36.5215 35.7727 36.2974 34.4895 36.7305 34.2502C36.3489 33.1674 36.0369 32.0428 35.7976 30.8703L35.5189 30.6699C35.3099 30.4455 35.1766 30.1135 35.116 29.6768C35.0373 29.7755 34.9616 29.8533 34.8889 29.8503C33.1684 29.7576 31.0783 29.5901 29.379 29.3657C29.2367 29.3478 29.1428 29.2162 29.0671 29.0786C29.1155 28.2052 30.0424 24.7265 30.627 24.1851C30.7542 24.0655 30.9208 24.0655 31.0844 24.1073C31.0965 23.9817 31.1147 23.883 31.1662 23.8651C31.4146 23.7813 31.7387 23.7843 32.0022 23.7992C33.3834 23.871 34.7738 24.0026 36.1277 24.3077L36.1247 24.3137Z" fill="#E39C0D"/>
<path d="M38.1444 46.383C38.4109 46.5625 38.2474 46.7749 37.9414 46.7808C37.8718 47.077 37.6597 47.397 37.3356 47.3761C37.1478 47.741 36.8722 47.8068 36.5299 47.5735C36.121 47.6871 35.9877 47.744 35.5212 47.7709C35.5606 47.5077 35.7 47.2325 35.7242 46.9753C34.9366 43.1436 34.0188 39.3389 32.9678 35.5641L33.304 35.2441C33.6554 33.9489 33.9734 32.6388 34.2551 31.3138L34.7155 31.0685C34.8518 31.0176 34.9669 30.9877 35.0124 31.0296C35.4092 31.4035 37.4114 40.1645 37.6385 41.3131C37.9687 42.9702 38.2565 44.6841 38.1444 46.38V46.383Z" fill="#5D2300"/>
<path d="M38.9516 23.3191C37.6582 23.4626 36.4829 22.9063 35.2198 22.7268C33.8386 22.5294 31.3305 22.2781 29.9826 22.5294C29.6858 22.5862 28.2954 23.4925 27.8138 23.7288C26.6052 24.3211 25.0937 24.8176 23.8367 25.4158C23.2157 25.712 22.9371 26.8157 22.0132 25.9034L22.2131 26.696C21.8799 26.696 21.0167 26.696 20.841 26.9503C20.5744 27.3361 21.2075 27.4887 19.9959 27.4917C19.8444 27.2165 20.7895 25.5175 20.9016 25.5086C21.1197 25.4876 21.259 25.9961 20.9985 26.1965C21.2499 26.711 21.7285 25.5504 21.7285 25.3979C21.7224 24.8834 21.1136 25.1137 22.2283 24.2284C24.8514 22.1495 28.6165 21.1326 32.003 21.321C33.3569 21.3958 36.5041 21.7637 37.6794 22.2871C37.846 22.3619 39.2848 23.0469 38.9546 23.3161L38.9516 23.3191Z" fill="#19130B"/>
<path d="M26.4443 31.0751C26.8865 30.8537 27.5802 31.1468 27.6559 31.6703C28.6948 31.3263 30.6183 31.5596 31.7723 31.8198C33.305 31.7839 33.6503 34.0991 33.305 35.2507C33.8806 37.6136 35.8918 45.0585 35.7252 46.9818C34.1713 44.1463 34.3137 38.9178 32.463 36.3813C31.4422 34.9815 28.8826 35.7292 27.356 34.2576C26.732 33.6534 26.1444 32.0472 26.0535 31.1977C26.0384 31.0601 26.2444 30.9165 26.2444 30.8776C26.417 30.7969 26.4776 30.8717 26.4473 31.0751H26.4443Z" fill="#010100"/>
<path d="M30.8804 44.9895C31.3105 45.0732 32.1163 45.7612 32.092 46.1829C31.9254 46.6495 31.5438 46.138 31.3832 45.9885C31.147 45.7642 30.4351 44.6275 30.0777 44.9924C29.4083 45.6714 32.2647 46.6495 31.8951 48.4681C31.7861 49.0065 30.4745 49.2548 30.0202 49.1351C29.5113 49.0035 29.0963 47.825 28.4632 48.0703C29.1327 48.5908 29.5173 49.2727 29.9687 49.9667L33.1007 52.7454C31.8709 52.7065 30.5624 51.5251 29.6506 50.6576C28.6026 49.6616 27.4455 48.3275 27.0487 46.9785C26.7609 47.2268 26.6579 47.1221 26.8457 46.7811C26.3247 46.8529 26.14 46.159 26.4429 45.7881C26.6307 45.2287 26.9608 44.7262 27.4394 44.2746L27.2516 43.9994C27.1426 43.9396 27.1426 43.8738 27.2516 43.802C28.0937 43.2546 28.648 42.2974 29.7597 43.2187C30.2443 43.6225 30.5654 44.5737 30.8804 44.9954V44.9895Z" fill="#EBA50F"/>
<path d="M29.8726 24.1143C30.0755 24.2518 29.9089 24.4852 29.6696 24.5121C29.7423 24.5869 29.7302 24.6616 29.703 24.7544C29.391 25.7145 28.9184 27.1323 28.5307 28.0356C28.5095 28.0835 28.3974 28.0924 28.2611 28.0895C28.3884 28.6757 27.1313 29.0137 26.8496 28.4873C27.4312 26.9169 27.9946 24.4732 29.8756 24.1143H29.8726Z" fill="#9C540A"/>
<path d="M25.4351 45.1882C26.3923 44.5152 26.2287 45.3976 26.0409 46.1812C26.4256 46.2979 26.4256 46.4774 26.0409 46.5791C26.162 47.2042 24.4143 47.8652 24.0236 47.3747C24.0205 47.2969 23.657 46.8722 23.8206 46.5791C23.963 46.3906 24.0054 46.2171 24.2235 45.9838C24.4204 46.0018 24.9898 45.7296 25.0292 45.3886C25.1716 45.263 25.3684 45.242 25.4321 45.1912L25.4351 45.1882Z" fill="#864002"/>
<path d="M28.2595 28.0908C28.5867 28.1925 28.8108 29.2304 28.2595 29.2843L27.5447 29.7838C26.7268 30.732 26.2907 30.8307 26.2422 30.0799C26.3997 29.4458 26.642 29.045 26.848 28.4886L28.2595 28.0908Z" fill="#B0610C"/>
<path d="M35.5214 23.9178C35.373 24.1003 35.1125 24.0225 34.9156 23.9178C33.6283 23.9716 32.35 23.9058 31.0839 23.7204C30.7961 24.0075 30.5477 24.3425 30.3387 24.7254L29.8753 24.7164C29.6118 24.9797 29.5815 24.872 29.6723 24.519C29.739 24.3934 29.7935 24.2289 29.8753 24.1212C30.1964 23.6815 30.3478 23.3435 30.9839 23.3076L35.5244 23.9238L35.5214 23.9178Z" fill="#E39C0D"/>
<path d="M28.2607 29.2817C28.9029 29.874 27.1884 31.5281 26.4463 31.0704C26.3767 31.0076 26.307 30.9418 26.2434 30.873C26.2464 30.5261 26.1162 30.5919 26.2434 30.0774C26.2222 30.2598 26.3615 30.3316 26.516 30.2539C27.2218 29.9039 27.0824 29.2159 28.2607 29.2817Z" fill="#713102"/>
<path d="M34.9175 47.7729C33.5968 47.6772 33.0486 47.052 32.0944 46.1816C31.6189 45.7479 31.3008 45.5445 30.8828 44.9882C31.2584 44.6771 31.3432 44.9702 31.5886 45.1796C32.6821 46.1098 33.4333 47.2674 34.9175 47.7699V47.7729Z" fill="#5D2300"/>
<path d="M27.2519 43.8008V43.9982C27.6729 44.2734 26.8187 45.2694 26.4462 44.9912L26.2887 44.9464C26.5007 45.8437 26.4189 46.2565 26.0433 46.1847C25.9555 45.5087 26.3765 45.0361 25.4375 45.1917C26.1342 44.6233 26.4795 44.3033 27.2519 43.8008Z" fill="#E6A217"/>
<path d="M39.5544 24.3177C39.0819 24.539 38.7457 24.539 38.5458 24.3177C38.0944 24.4523 37.6916 24.4523 37.3342 24.3177C37.0737 24.4284 36.6647 24.3566 36.5284 24.1203C36.2982 24.225 36.0953 24.225 35.9226 24.1203C35.7469 24.0634 35.75 23.9976 35.9226 23.9229C37.0918 23.9797 38.4246 23.9498 39.5544 24.3207V24.3177Z" fill="#BD7D14"/>
<path d="M40.9664 24.7119C41.0845 24.7418 41.2844 24.673 41.3692 24.7119L41.2662 25.1127C40.4484 24.8375 39.5942 24.8136 38.7461 24.7119C38.9248 24.1825 40.4302 24.3081 40.9664 24.7119Z" fill="#E1AF1F"/>
<path d="M39.5569 24.3149C40.0627 24.3359 40.7654 24.1325 40.9684 24.7128C40.3171 24.5423 39.3236 24.2731 38.7481 24.7128C38.3937 24.6709 38.009 24.5213 37.9424 24.5154C38.003 24.3837 38.2059 24.3149 38.5482 24.3179C38.8814 24.3389 39.2206 24.303 39.5569 24.3179V24.3149Z" fill="#E2AE1D"/>
<path d="M24.2257 45.9849C24.4832 45.7097 24.7921 45.599 25.0314 45.3896L25.2283 45.4884C24.9466 45.7456 24.7315 46.1434 24.3287 46.1853L24.2227 45.9849H24.2257Z" fill="#C26904"/>
<path d="M35.5208 23.9157C35.6541 23.9217 35.7904 23.9097 35.9237 23.9157V24.1131C35.6511 24.2567 34.9605 24.2567 34.915 23.9157C35.115 23.9246 35.3179 23.9067 35.5208 23.9157Z" fill="#E3AA1D"/>
<path d="M26.4427 51.5523L27.0454 51.651C28.2237 53.0897 29.7443 54.2054 31.4436 54.9771L31.6859 55.5275L32.1312 55.3809C35.242 56.8944 38.9011 56.6821 41.7726 54.7318L41.8574 54.3131C43.481 53.7179 44.3957 52.7069 45.4135 51.4207C45.5074 51.304 45.6528 51.301 45.8073 51.3549C46.4494 51.2442 46.1647 51.6719 46.2041 52.0488C46.9159 58.8775 39.8946 61.5636 34.0637 59.8497C29.187 58.4139 24.5162 52.3509 24.0225 47.5801C24.2557 47.6608 24.5041 47.7566 24.6586 47.957C25.3159 48.8154 26.2246 50.5533 26.4427 51.5553V51.5523Z" fill="#060301"/>
<path d="M26.04 46.5827C26.4459 46.3374 26.7427 46.8639 26.4428 47.1779L26.6973 47.2497C27.5969 48.8919 28.654 50.3904 29.8717 51.7484C29.0963 52.6038 27.5 51.8321 26.9366 51.4253L26.4428 51.548C25.4614 50.3336 24.7011 48.9666 24.0226 47.5728C24.0166 47.507 24.0257 47.4412 24.0226 47.3754L26.04 46.5797V46.5827Z" fill="#551E00"/>
<path d="M45.8062 51.3528C45.2004 52.6988 43.1467 54.2153 41.7715 54.7327C41.0566 55.2651 40.3751 55.5792 39.4906 55.7018C38.7667 55.8035 37.2189 55.8305 36.9281 55.1276C36.5676 54.9421 36.1648 54.8763 35.7165 54.9301C35.668 55.1036 35.5983 55.0976 35.5135 54.9301C34.9531 54.5533 34.3473 54.2242 33.6991 53.9371C33.2145 53.8234 32.8116 53.626 32.4875 53.3419C32.2452 53.3688 32.021 53.1085 32.2846 52.944C32.542 52.6359 33.0115 52.7705 33.6961 53.3419C36.4162 54.2781 38.5001 55.1006 41.4171 54.0926C45.3973 52.7167 46.4271 49.4983 46.203 45.5889C46.4483 47.4015 46.5967 49.585 45.8001 51.3557L45.8062 51.3528Z" fill="#803601"/>
<path d="M35.1183 29.681C35.2274 29.8963 35.3455 30.1536 35.1183 30.2762C35.1668 30.8116 35.088 30.8654 34.7155 30.4736C33.2525 30.4646 31.7531 30.3181 30.2749 30.1685C30.1689 30.1565 30.0689 30.0788 29.9629 29.992C29.8569 29.9053 29.763 29.7946 29.6752 29.678C28.9149 29.9262 27.8487 30.1715 28.6665 29.2802C28.6059 28.7776 28.6574 28.7776 29.0694 29.0827C30.1871 28.9481 33.1313 29.343 34.4247 29.4776C34.6731 29.5045 34.9093 29.5374 35.1214 29.678L35.1183 29.681Z" fill="#893B02"/>
<path d="M31.0847 23.7178C31.6209 23.7567 31.6209 23.8883 31.0847 24.1156C30.588 24.7198 29.3976 28.9463 29.0674 29.0868C28.7463 29.2603 28.6403 29.1796 28.8645 28.8894C28.713 28.5484 28.7584 28.2403 28.8645 27.8964C28.7342 27.8545 28.6312 27.8126 28.6221 27.7528C28.5706 27.4178 29.5218 25.0219 29.8731 24.7168C29.9216 24.6091 30.4305 23.8524 30.482 23.8195C30.6667 23.6789 30.8818 23.7447 31.0817 23.7238L31.0847 23.7178Z" fill="#F6E25F"/>
<path d="M38.9497 46.3819C38.5226 48.1497 36.8566 48.6582 35.1179 48.371C34.9423 48.3142 34.9453 48.2484 35.1179 48.1736C35.7359 48.1916 36.3477 48.1916 36.9323 47.9762C36.7385 47.704 37.0535 47.5485 37.3352 47.5784C37.4563 47.366 37.7138 47.1327 37.941 47.1806C38.1318 46.6751 38.4014 46.2773 38.7467 45.9871V45.7897C38.9285 45.7329 38.9951 45.9333 38.9497 46.3849V46.3819Z" fill="#F8DC30"/>
<path d="M37.5388 38.827C38.1537 38.7283 37.8569 38.9856 37.9477 39.3116C38.3233 40.6875 38.7444 42.4014 38.9534 43.7983C38.9352 44.2828 38.9261 44.3726 38.5505 43.9957C38.3021 43.6128 38.2537 42.88 38.3476 42.4044C38.1749 42.2309 38.0386 41.9647 37.9447 41.6088C37.4692 41.54 37.5085 40.9926 37.9447 40.8131C37.5358 40.3764 37.4298 39.4223 37.5419 38.824L37.5388 38.827Z" fill="#EFC017"/>
<path d="M34.9167 23.9163C35.0863 24.2364 35.6012 24.1078 35.9254 24.1137C36.1253 24.1167 36.3312 24.0958 36.5312 24.1137C36.6554 24.2603 36.5221 24.3291 36.1283 24.3112C34.8319 24.1736 33.4597 24.027 32.1633 23.9313C31.7756 23.9014 31.4212 23.8834 31.085 24.1137V23.7159C32.2087 23.5963 33.7111 23.8655 34.9167 23.9133V23.9163Z" fill="#F9E22E"/>
<path d="M35.5196 30.6778C36.0588 30.5641 35.9195 30.944 36.0164 31.27C36.3102 32.2421 36.5556 33.2561 36.7282 34.2552C36.6737 34.7846 36.4768 34.7607 36.3254 34.2552C35.974 33.289 35.7559 32.1195 35.7196 31.0756C35.4803 31.0906 35.3803 30.8692 35.5166 30.6778H35.5196Z" fill="#F0C118"/>
<path d="M38.9511 46.3821L38.7482 45.7869C38.5785 45.407 38.6058 44.8208 38.7482 44.396C38.4634 44.4947 38.3907 44.2195 38.5452 43.9982L38.9481 43.8008C39.1147 44.9075 39.2177 45.2724 38.9481 46.3851L38.9511 46.3821Z" fill="#F3CA20"/>
<path d="M37.5393 38.4283C37.5817 38.6107 37.6513 38.5659 37.5393 38.8261C37.512 39.0056 37.4454 39.1372 37.3363 39.2239C36.8365 38.7453 36.6033 37.7194 36.7305 37.0374C36.7154 36.8609 36.7366 36.7921 36.9334 36.84C36.9849 36.8131 37.0819 36.8669 37.1364 36.84C37.3636 37.2797 37.5574 37.8929 37.5393 38.4313V38.4283Z" fill="#C36704"/>
<path d="M36.7306 34.2555C36.7791 34.5456 36.8942 35.4489 36.9336 35.8467C36.867 36.2775 36.7337 36.4091 36.5307 36.2446C36.1279 35.745 35.9582 35.075 36.1279 34.4559C36.1309 34.2315 36.1975 34.1657 36.3308 34.2584C36.4338 34.2255 36.6095 34.2794 36.7337 34.2584L36.7306 34.2555Z" fill="#C26304"/>
<path d="M37.5394 38.4304C37.4364 37.9967 37.0002 37.4254 37.1365 36.8392C37.1486 36.8332 37.1395 36.5999 37.3364 36.6417C37.397 37.234 37.8847 37.8532 37.5394 38.4304Z" fill="#F0C218"/>
<path d="M35.521 30.6776C35.5695 30.8122 35.6816 30.9408 35.724 31.0754C35.7694 31.3805 35.6997 31.5121 35.521 31.4733C35.0576 31.5361 34.7698 30.6058 35.1182 30.2798C35.0848 30.1003 35.1394 29.873 35.1182 29.6846C35.4423 29.9298 35.4059 30.3456 35.521 30.6776Z" fill="#C36504"/>
<path d="M37.3347 24.3156C37.4498 24.4113 37.3801 24.4771 37.1317 24.513C36.7258 24.4681 36.3411 24.3365 36.123 24.3156L36.5259 24.1182C36.9167 24.1511 37.2923 24.3156 37.3316 24.3156H37.3347Z" fill="#F1CA24"/>
<path d="M36.9345 36.8388C36.8678 36.8777 36.8103 36.9884 36.7315 37.0362C36.4074 36.8897 36.3165 36.5218 36.5286 36.2406L36.9314 35.8428C36.9617 36.1688 36.9102 36.5098 36.9314 36.8358L36.9345 36.8388Z" fill="#C36404"/>
<path d="M37.334 47.3779C37.4825 47.4348 37.4794 47.5036 37.334 47.5753C37.2553 47.6232 37.1826 47.8804 36.9312 47.9732L36.5283 47.5753C36.7494 47.5155 37.1917 47.4587 37.334 47.3779Z" fill="#ECB919"/>
<path d="M33.0999 52.7478C33.324 52.8854 33.5633 53.1217 33.7057 53.343C33.2937 53.2024 32.385 52.9811 32.2941 52.9452C31.9034 53.1695 31.0341 52.5534 30.8826 52.1496C29.8497 52.0598 26.5965 47.8124 26.6844 47.2531C26.7207 47.0228 26.8237 46.9002 27.0509 46.9809C28.6078 49.6968 30.4828 51.1446 33.1029 52.7478H33.0999Z" fill="#984201"/>
<path d="M38.5463 24.3138L37.9405 24.5112C37.677 24.4813 37.3953 24.5411 37.1348 24.5112L37.3377 24.3138C37.7375 24.3377 38.1465 24.2868 38.5493 24.3138H38.5463Z" fill="#F9E12E"/>
<path d="M35.1173 48.1693V48.3667C34.875 48.3279 34.4631 48.2591 34.3086 48.0676C34.4752 47.7625 34.981 48.1633 35.1173 48.1663V48.1693Z" fill="#F2C323"/>
<path d="M29.6706 29.6807C31.076 29.917 32.5633 29.9769 34.0142 30.0816C34.3989 30.1085 34.826 29.8602 34.7139 30.4764C35.0834 30.608 35.1228 30.958 34.7139 31.0716C34.4171 32.5014 34.2898 34.0777 33.3024 35.2472C33.1964 34.8165 32.633 32.4386 32.5057 32.3548C30.9337 32.0138 29.2071 32.0377 27.6532 31.6698C27.2897 30.6289 28.6134 29.5372 29.6706 29.6807Z" fill="#340D00"/>
<path d="M35.5222 31.4688C36.0008 32.3332 36.1401 33.4609 36.128 34.4509C36.2673 35.0432 36.3915 35.6474 36.5309 36.2396C36.5945 36.5058 36.6672 36.7691 36.7338 37.0353C36.9095 37.7681 37.1609 38.4979 37.3396 39.2218C37.482 39.7632 37.6819 40.2926 37.9454 40.813C37.9757 41.0703 37.9121 41.3544 37.9454 41.6087C38.1665 41.9586 38.2362 42.2907 38.1484 42.6017C38.3755 43.1431 38.6027 44.1242 38.3513 44.5908C38.6421 45.5271 38.5754 46.1223 38.1484 46.3795C37.6607 41.9377 36.443 37.454 35.3889 33.096C35.2284 32.4349 35.1224 31.6273 34.7195 31.071C34.7558 30.8945 34.671 30.6223 34.7195 30.4757C34.7316 30.4339 35.0345 30.3471 35.1224 30.2783C35.192 30.6492 35.4555 31.1517 35.5252 31.4718L35.5222 31.4688Z" fill="#EF9905"/>
<path d="M38.7493 45.9857C38.622 46.6707 38.3343 46.7843 37.9435 47.1791C37.7376 47.215 37.7376 47.0834 37.9435 46.7813C38.0162 46.6916 38.095 46.5032 38.1465 46.3835C38.4312 45.7165 38.3676 45.3246 38.3494 44.5948C38.407 44.4213 38.4736 44.4243 38.5524 44.5948C38.6251 45.0166 38.6917 45.4802 38.7553 45.9857H38.7493Z" fill="#E4960F"/>
<path d="M37.9417 47.1771C37.6086 47.5151 37.6116 47.4074 37.3359 47.5749V47.3775C37.3723 47.3565 37.9115 46.8181 37.9417 46.7822V47.18V47.1771Z" fill="#EBB917"/>
<path d="M28.6627 29.2838C28.6839 29.3047 28.5718 29.6188 28.802 29.6846C29.0564 29.7593 29.4108 29.6367 29.6713 29.6816C28.6081 29.9597 28.2477 30.8361 27.654 31.6707C27.0028 31.5151 26.9664 31.56 26.4424 31.0754C27.1148 30.6866 28.0447 29.9867 28.2568 29.2867C28.4415 28.7812 28.484 28.7543 28.6596 29.2867L28.6627 29.2838Z" fill="#4E1B01"/>
<path d="M27.0495 46.9798C26.6557 47.0904 27.0374 47.5899 27.1434 47.7814C28.0127 49.3577 29.4212 51.0716 30.8812 52.1484C31.1478 52.4266 31.0357 52.5313 30.6783 52.3458C30.2603 52.7526 29.5606 52.2561 29.8725 51.7506C28.6155 50.617 27.1464 48.7116 26.4437 47.1772C26.1771 46.6777 26.3377 46.5161 26.8465 46.7793C26.8799 46.8452 27.0041 46.902 27.0495 46.9768V46.9798Z" fill="#CF6E03"/>
<path d="M27.2523 43.9956C27.743 44.0285 29.1697 42.4342 29.2697 43.5947L27.7642 44.3994L26.4466 45.7842C26.2921 45.5779 26.2982 45.198 26.4466 44.9886C26.6223 44.9677 27.0706 44.19 27.2523 43.9956Z" fill="#FAE445"/>
<path d="M26.4431 44.9895C26.4764 45.2377 26.3946 45.5578 26.4431 45.7851C26.4673 45.8898 26.7823 46.6555 26.8459 46.7782L26.4431 47.176C26.3431 46.9606 26.0493 46.6136 26.0402 46.5807C26.0129 46.4701 26.0584 46.3115 26.0402 46.1829C26.4279 45.9018 26.1856 45.2258 26.2462 44.7891C26.3492 44.7921 26.4309 44.9925 26.4431 44.9895Z" fill="#DD7A05"/>
<path d="M29.8734 24.7141C29.5735 25.3692 29.0495 27.1429 28.8647 27.8937C28.7648 28.2437 28.7163 28.5428 28.8647 28.8868C28.8859 28.9167 28.8889 29.1619 29.0677 29.0842C29.0071 29.0931 28.8163 29.2995 28.6648 29.2816C28.6345 29.2547 28.3801 29.2876 28.2619 29.2816C28.477 28.5787 28.2347 28.2855 28.2619 28.0881C28.3498 27.451 29.3282 25.1568 29.6735 24.5107L29.8764 24.7082L29.8734 24.7141Z" fill="#D78D13"/>
<path d="M26.4415 51.5518C26.9988 50.0981 27.5198 51.4441 27.8046 51.5458C28.2771 51.7193 29.3191 51.7133 29.8704 51.7492C30.1036 51.9586 30.4247 52.15 30.6761 52.3444C31.288 52.5538 32.1088 52.9786 32.4905 53.5379C32.8449 53.5558 33.2053 53.7263 33.4991 53.9357C33.9868 54.0464 34.2534 54.2468 34.3049 54.5309C34.2443 55.2458 32.4208 55.5061 31.6817 55.524C29.4069 54.498 28.0166 53.499 26.4385 51.5488L26.4415 51.5518Z" fill="#441600"/>
<path d="M34.3114 54.5362C34.6295 54.2072 35.2656 54.5871 35.523 54.934C35.5897 54.943 35.6593 54.9221 35.726 54.934C36.1743 54.8772 36.5771 54.943 36.9376 55.1315C38.855 55.4575 39.9424 55.4276 41.778 54.7336C39.6486 57.2193 35.6805 57.1026 32.7969 56.1335C32.288 55.963 32.0336 55.6818 31.6943 55.5293C31.7367 55.3378 31.8488 55.2391 32.0366 55.1793C32.3789 55.0716 34.1327 54.5422 34.3175 54.5362H34.3114Z" fill="#360F00"/>
<path d="M32.2941 52.9441L32.497 53.3419C32.6151 53.4017 32.6121 53.4675 32.497 53.5393C31.8124 53.1594 31.2975 52.8274 30.6826 52.3459L30.8856 52.1484C31.3581 52.4954 31.7397 52.7317 32.2971 52.9441H32.2941Z" fill="#B35603"/>
<path d="M33.7059 53.9375C34.2269 54.2067 35.596 54.2845 35.5203 54.9305C35.1871 54.8797 34.8933 54.5058 34.3087 54.5327C34.0633 54.3682 33.7422 54.0601 33.5029 53.9375H33.7059Z" fill="#B65703"/>
<path d="M33.7067 53.9361H33.5038C33.2281 53.7955 32.8465 53.7327 32.4951 53.5382V53.3408L33.7067 53.9361Z" fill="#B45503"/>
<path d="M36.9304 55.1272C36.5426 55.0614 36.1095 55.1032 35.7188 54.9298C35.7854 54.9417 36.5548 54.526 36.9304 55.1272Z" fill="#B75803"/>
<path d="M28.8641 28.8866C28.4249 28.2405 28.7672 28.2884 28.8641 27.8936V28.8866Z" fill="#E9B51D"/>
<path d="M38.7498 45.7853C38.7407 45.8511 38.7619 45.9199 38.7498 45.9827C38.4409 45.7494 38.5014 44.9747 38.5469 44.5918C38.3621 44.3077 38.453 44.2 38.7498 44.3944C38.7892 44.7713 38.7922 45.4144 38.7498 45.7853Z" fill="#B95703"/>
<path d="M37.9429 40.8172C37.2977 40.9937 37.4674 39.7524 37.3371 39.2259C37.2372 38.9358 37.531 38.8491 37.5401 38.8281C37.6037 39.5131 37.8642 40.1323 37.9429 40.8172Z" fill="#C26504"/>
<path d="M38.5465 43.9963C38.5617 44.1129 38.7373 44.2834 38.7495 44.3941C38.701 44.4599 38.5526 44.5437 38.5465 44.5915H38.3436C38.3254 43.8796 38.2133 43.2934 38.1406 42.6024C38.1437 42.4319 38.1527 42.3542 38.3436 42.405C38.4526 42.8686 38.4768 43.5057 38.5465 43.9963Z" fill="#BA5802"/>
<path d="M38.3444 42.404L38.1414 42.6015C38.1232 42.41 37.99 41.9823 37.9385 41.6084C38.1323 41.8088 38.2808 42.1408 38.3413 42.404H38.3444Z" fill="#C26203"/>
<path d="M36.3254 34.2548C36.3041 34.2608 36.2527 34.4582 36.1224 34.4522C35.8892 33.4592 35.7347 32.4601 35.5166 31.4701L35.7195 31.0723C36.0103 32.0234 36.2345 33.2528 36.3254 34.2518V34.2548Z" fill="#C16304"/>
<path d="M75.5898 85.7293V50.4482H93.8025C94.3982 50.4482 97.0822 51.1758 97.8252 51.4238C105.349 53.9535 106.885 62.9185 100.325 67.429C104.873 70.1738 107.082 74.2974 104.826 79.4595C103.177 83.2293 98.1967 85.7293 94.1372 85.7293H75.5898ZM82.9425 64.9555H92.8018C93.2804 64.9555 95.342 64.023 95.8138 63.6394C97.3667 62.3695 97.4136 59.7538 96.2623 58.2459C95.9243 57.8027 94.2275 56.7115 93.8058 56.7115H82.9459V64.9555H82.9425ZM82.9425 79.4628H94.8065C95.265 79.4628 97.1191 77.9813 97.4638 77.4687C99.3479 74.6678 97.2094 70.5607 94.1372 70.5607H82.9425V79.4628Z" fill="#FEA905"/>
<path d="M137.747 50.4428L136.743 57.0367H118.028V64.95H131.06V70.8859H118.028V79.1299H138.078V85.7238H110.843C110.806 85.7238 110.341 85.2642 110.341 85.2278V50.9355C110.341 50.8991 110.806 50.4395 110.843 50.4395H137.747V50.4428Z" fill="#FEA905"/>
<path d="M185.802 50.2127C191.793 49.5745 198.583 51.0692 203.205 54.9416C203.309 55.4674 199.738 60.2524 199.41 60.2789C195.461 57.4283 188.694 54.5976 183.965 56.9753C181.451 58.2418 180.806 61.4363 183.413 62.9277C189.46 66.3834 203.576 62.7557 204.249 74.3628C204.895 85.5235 190.903 87.4283 182.609 85.1565C180.976 84.7101 173.955 81.6281 173.527 80.2458C173.302 79.5249 176.943 75.6426 177.683 74.8655C181.702 78.6949 187.281 80.7914 192.907 79.6505C196.398 78.9429 198.801 74.8655 195.34 72.597C190.002 69.095 175.96 72.1836 174.842 62.4879C173.992 55.1334 178.741 50.9733 185.802 50.2193V50.2127Z" fill="#FEA905"/>
<path d="M172.169 57.0422H160.138V85.7293H152.785V57.0422H140.754L141.758 50.4482H171.667C171.704 50.4482 172.169 50.9079 172.169 50.9443V57.0455V57.0422Z" fill="#FEA905"/>
<path d="M149.435 0V13.1911C150.59 12.8439 151.51 12.0403 152.685 11.6171C162.598 8.03571 172.845 16.121 172.51 26.2301C172.126 37.8604 158.973 44.5535 149.104 38.2506C149.027 38.535 149.201 40.2281 149.1 40.2281H141.413V1.31944L149.435 0ZM154.027 17.5562C153.013 17.7116 149.807 19.0145 149.499 20.0132C149.288 20.6944 149.295 30.7076 149.505 31.4219C149.971 32.9894 154.763 34.3287 156.272 34.3022C168.096 34.1038 167.758 15.4365 154.03 17.5562H154.027Z" fill="white"/>
<path d="M109 0V26.5443C109 27.1924 108.394 29.5469 108.166 30.3373C103.759 45.5654 79.5557 44.6792 75.5898 29.5304L83.5985 26.3756C84.6962 32.576 91.8581 35.8664 97.1358 31.9808C98.2937 31.1276 100.312 28.2506 100.312 26.8717V8.24404H88.2805L91.9551 0H109Z" fill="white"/>
<path d="M138.406 40.228H130.719C130.632 40.228 130.919 38.5778 130.548 38.5778C123.624 43.0851 110.806 40.929 111.676 30.8331C112.409 22.3113 124.464 22.0302 130.719 24.0706C131.488 18.1876 127.944 16.554 122.569 17.1823C121.124 17.351 116.117 19.5203 115.397 19.0739C115.136 18.9118 112.841 13.7796 113.018 13.5316C119.454 10.896 129.939 8.43566 135.581 13.8358C136.572 14.7849 138.409 18.0256 138.409 19.2888V40.228H138.406ZM130.678 29.0606C129.986 28.0057 119.644 26.6202 119.042 31.187C118.252 37.1724 129.979 35.3966 130.668 33.4158C130.806 33.0256 130.799 29.2425 130.678 29.0606Z" fill="white"/>
<path d="M245.682 40.8864H237.995C237.895 40.8864 238.209 39.1338 237.831 38.9089C231.091 43.8626 217.798 41.3196 218.986 31.194C219.98 22.7317 231.794 22.8573 237.998 24.5637C239.17 14.6199 228.661 17.6755 222.834 19.8117C222.453 18.942 219.916 14.7423 220.304 14.2066C226.79 11.0716 239.213 8.82626 243.955 15.7178C244.347 16.2833 245.682 19.104 245.682 19.6199V40.8864ZM237.938 34.2396C238.206 33.8163 238.209 29.8051 237.429 29.4083C235.154 28.2542 227.105 27.9797 226.369 31.2304C225.505 35.0399 229.735 36.1378 232.774 35.8997C233.587 35.8368 237.633 34.7224 237.941 34.2396H237.938Z" fill="white"/>
<path d="M184.19 11.8691V30.1694C184.19 30.5298 185.318 32.59 185.679 32.9869C187.426 34.8883 191 35.0801 193.309 34.2236C193.979 33.9756 196.218 32.4412 196.218 31.8195V11.8691H203.905V40.887H196.72C196.127 40.887 196.161 39.0417 196.214 38.5788C191.081 42.7091 182.115 42.2957 178.366 36.5715C177.861 35.7977 176.499 32.9009 176.499 32.1502V11.8724H184.186L184.19 11.8691Z" fill="white"/>
<path d="M215.603 0.65918V40.8873H207.584V1.65124L215.603 0.65918Z" fill="white"/>
</svg>
