<svg width="250" height="142" viewBox="0 0 250 142" fill="none" xmlns="http://www.w3.org/2000/svg">
<path d="M114.461 0L125.017 3.18503L135.639 0H135.942L194.836 17.5876H184.297C168.112 12.7431 151.925 7.85849 135.688 3.20816C134.069 3.66274 132.418 4.07206 130.821 4.59703C130.698 4.63726 130.395 4.67245 130.395 4.82331L173.355 17.5876H162.816L124.996 6.34694L87.1808 17.5876H76.6421L119.602 4.82331C119.493 4.63323 119.081 4.56283 118.874 4.49646C117.345 4.00568 115.771 3.56116 114.208 3.20816L65.6998 17.5876H55.1611L114.158 0H114.461Z" fill="#7A4997"/>
<path d="M159.338 75.1724L168.161 90.65L177.288 75.1724H185.962L172.044 97.9352V110.849H164.279V98.0358L150.262 75.1724H159.338Z" fill="white"/>
<path d="M148.447 75.1724V82.1066H137.353V110.849H129.588V82.1066H118.545C118.534 82.1066 118.394 81.9668 118.394 81.9558V75.1724H148.446H148.447Z" fill="white"/>
<path d="M115.57 75.1724H107.805V110.849H115.57V75.1724Z" fill="white"/>
<path d="M10.8414 108.136L113.805 138.695C115.507 138.187 117.506 137.812 119.144 137.174C119.25 137.132 119.387 137.136 119.402 136.981L22.3879 108.136H33.1284L124.999 135.379C155.65 126.389 186.266 117.278 216.872 108.136H227.713L130.598 136.981C130.707 137.171 131.118 137.241 131.327 137.307C132.929 137.823 134.568 138.257 136.194 138.695L239.26 108.136H250C249.969 108.327 249.788 108.301 249.659 108.349C248.822 108.662 247.822 108.907 246.951 109.168C210.126 120.242 173.179 130.914 136.347 141.964C132.53 141.047 128.797 139.727 124.998 138.703L113.815 142L0.729416 108.464L0 108.136H10.8414Z" fill="#7A4997"/>
<path d="M113.251 26.833V43.0136L127.622 26.833H136.95L123.15 42.3418L137.958 62.51H128.731L117.788 47.8379C117.654 47.7474 117.105 48.3579 116.981 48.4876C115.718 49.8061 114.524 51.199 113.252 52.5104V62.51H105.638C105.627 62.51 105.487 62.3702 105.487 62.3592V26.833H113.252H113.251Z" fill="white"/>
<path d="M34.9937 62.5097L49.4266 26.8448L58.0414 26.8257L72.7104 62.5097H64.0876L61.6512 56.8979L46.1317 56.8758L45.7927 57.0408L43.5146 62.5097H34.9927H34.9937ZM58.9948 50.3499L53.8011 37.485L48.5065 50.3499H58.9948Z" fill="white"/>
<path d="M34.1866 21.0039V51.1023C33.893 60.8193 24.7536 65.4445 16.0369 61.9538C13.6287 60.9893 11.2115 59.3359 9.79199 57.1475L14.8737 52.1603C16.612 55.5334 21.3981 57.5971 24.5518 54.7681C25.5365 53.8851 26.4213 51.9119 26.4213 50.6005V21.0039H34.1866Z" fill="white"/>
<path d="M239.208 26.833V33.6164C239.208 33.6275 239.068 33.7673 239.057 33.7673H228.014V62.51H220.4C220.389 62.51 220.248 62.3702 220.248 62.3592V33.7673H209.155V26.833H239.207H239.208Z" fill="white"/>
<path d="M190.882 26.1589C205.604 25.5867 215.935 41.6064 207.685 54.3606C200.246 65.8607 183.505 66.0005 175.753 54.7428C167.337 42.5216 176.565 26.7141 190.881 26.1579L190.882 26.1589ZM190.681 33.1948C182.326 33.934 177.874 43.7234 182.289 50.7431C187.583 59.1618 199.526 57.1363 202.225 47.8136C204.35 40.469 198.499 32.5039 190.681 33.1948Z" fill="white"/>
<path d="M149.152 50.9527V62.5101H141.487V26.8331L159.089 26.8291C175.49 28.5589 175.14 50.1632 157.878 50.9567C155.007 51.0885 152.032 50.8501 149.151 50.9527H149.152ZM149.152 43.8173H157.975C158.217 43.8173 159.221 43.5377 159.517 43.4442C164.076 41.996 164.381 36.1408 159.868 34.3949C159.452 34.234 158.266 33.869 157.874 33.869H149.151V43.8183L149.152 43.8173Z" fill="white"/>
<path d="M86.0013 67.7659C92.7779 67.2741 99.3205 69.4846 104.066 74.3321L98.1744 79.6985C96.9758 78.6274 95.8499 77.5242 94.4234 76.6995C86.7085 72.2402 77.6055 76.3213 74.5516 84.2925C72.1041 90.6816 74.4971 97.9035 80.1004 101.726C86.0568 105.791 93.4892 104.415 98.1754 99.1928L104.07 104.478C102.73 105.947 100.943 107.274 99.2004 108.253C83.6436 117.001 63.803 104.842 65.7653 86.9928C66.864 76.9962 75.9822 68.492 86.0023 67.7649L86.0013 67.7659Z" fill="white"/>
<path d="M88.321 26.1591C93.8012 25.9278 99.1916 28.2097 102.963 32.1088L97.3675 37.1825C93.2039 32.3954 86.4475 31.7407 81.6846 36.1276C72.1699 44.8912 82.5502 60.6987 93.7901 54.924C95.1944 54.2029 96.2285 53.1761 97.3686 52.1543L102.964 57.1325C95.9087 64.4489 84.6234 65.1418 76.7441 58.641C63.2777 47.5321 71.4294 26.8722 88.322 26.1581L88.321 26.1591Z" fill="white"/>
</svg>
