<svg width="256" height="114" viewBox="0 0 256 114" fill="none" xmlns="http://www.w3.org/2000/svg">
<path d="M238.991 54.1192H229.605C228.932 54.1192 228.382 53.5694 228.382 52.8958V32.4959L213.595 4.46672C213.389 4.08182 213.403 3.62818 213.623 3.25702C213.843 2.88587 214.241 2.66592 214.667 2.66592H225.345C225.798 2.66592 226.211 2.91336 226.43 3.32576L234.167 17.9796C234.167 17.9796 234.236 18.0483 234.291 18.0483L242.152 3.32576C242.358 2.92711 242.784 2.66592 243.237 2.66592H253.929C254.355 2.66592 254.753 2.88587 254.973 3.25702C255.193 3.62818 255.207 4.08182 255.001 4.46672L240.228 32.4409L240.2 52.8958C240.2 53.5694 239.65 54.1192 238.977 54.1192H238.991ZM230.828 51.6586H237.768V32.4822C237.768 32.0423 237.878 31.6161 238.098 31.245L251.909 5.11281H243.993L236.6 19.1205C236.16 19.9591 235.28 20.4952 234.318 20.4952C233.357 20.4952 232.491 19.9728 232.024 19.1343L224.616 5.11281H216.715L230.539 31.2862C230.732 31.6711 230.828 32.0835 230.828 32.4822V51.6586ZM212.826 54.1192H201.846C201.406 54.1192 201.007 53.8856 200.787 53.5144L190.673 36.3587C190.673 36.3587 190.494 36.3587 190.453 36.3587L186.317 42.3934L186.289 52.8958C186.289 53.5694 185.74 54.1192 185.066 54.1192H175.68C175.007 54.1192 174.457 53.5694 174.457 52.8958V3.88937C174.457 3.21579 175.007 2.66592 175.68 2.66592H185.066C185.74 2.66592 186.289 3.21579 186.289 3.88937V20.8664C186.289 20.8664 186.344 20.9763 186.399 20.9901L186.55 20.9351L198.671 3.18829C198.905 2.85838 199.276 2.65218 199.688 2.65218H211.149C211.603 2.65218 212.029 2.89961 212.235 3.31201C212.441 3.71066 212.413 4.20554 212.166 4.57669L198.039 25.2378C198.039 25.2378 198.011 25.334 198.039 25.3752L213.884 52.2635C214.104 52.6484 214.117 53.1157 213.884 53.5006C213.664 53.8855 213.252 54.1192 212.812 54.1192H212.826ZM202.56 51.6586H210.682L195.936 26.6262C195.428 25.7876 195.455 24.7016 196.005 23.8631L208.827 5.09906H200.334L188.584 22.3097C187.952 23.2308 186.784 23.6844 185.657 23.3132C184.585 22.9833 183.857 21.9936 183.857 20.8526V5.12656H176.917V51.6724H183.857V42.4759C183.857 41.9398 184.022 41.4312 184.324 40.9913L188.447 34.9566C188.914 34.2555 189.711 33.8431 190.577 33.8431C191.566 33.8706 192.377 34.3517 192.817 35.1353L202.56 51.6724V51.6586ZM153.761 54.1192C146.863 54.1192 140.83 51.2187 136.776 45.9675C133.189 41.3212 131.307 35.1628 131.307 28.1245C131.307 21.0863 133.203 14.9278 136.79 10.2815C140.844 5.03033 146.877 2.14355 153.775 2.14355C159.382 2.14355 164.824 4.09556 169.111 7.64217C169.606 8.05457 169.702 8.78314 169.331 9.3055L163.766 17.0586C163.56 17.3472 163.257 17.5259 162.9 17.5672C162.556 17.6084 162.213 17.4984 161.952 17.2648C159.726 15.2853 156.812 14.1993 153.761 14.1993C143.894 14.1993 143.125 24.8528 143.125 28.1108C143.125 34.8328 145.915 42.0223 153.761 42.0223C156.689 42.0223 159.396 41.06 161.594 39.2592C161.856 39.0393 162.199 38.9431 162.529 38.998C162.873 39.0393 163.175 39.218 163.367 39.5067L168.919 47.246C169.304 47.7821 169.194 48.5107 168.686 48.923C164.412 52.3184 159.258 54.1055 153.761 54.1055V54.1192ZM153.761 4.60419C147.632 4.60419 142.287 7.16104 138.714 11.7936C135.47 16.0001 133.753 21.6499 133.753 28.1245C133.753 34.5991 135.47 40.249 138.714 44.4554C142.3 49.1018 147.632 51.6586 153.761 51.6586C158.296 51.6586 162.584 50.2977 166.226 47.6996L162.103 41.9398C159.671 43.6031 156.798 44.4692 153.761 44.4692C144.114 44.4692 140.679 36.015 140.679 28.1108C140.679 20.2065 144.114 11.7524 153.761 11.7524C156.95 11.7524 160 12.7421 162.515 14.5842L166.638 8.83812C162.941 6.10256 158.406 4.60419 153.761 4.60419ZM106.983 54.1192C96.7586 54.1192 88.4308 46.2975 88.4308 36.6749V4.19179C88.4308 3.51821 88.9804 2.96835 89.6538 2.96835H99.0398C99.7131 2.96835 100.263 3.51821 100.263 4.19179V36.6749C100.263 39.5754 103.341 42.036 106.969 42.036C110.597 42.036 113.689 39.5754 113.689 36.6749V3.90311C113.689 3.22953 114.239 2.67967 114.912 2.67967H124.298C124.971 2.67967 125.521 3.22953 125.521 3.90311V36.6749C125.521 46.2975 117.193 54.1192 106.955 54.1192H106.983ZM90.8906 5.41523V36.6749C90.8906 44.9366 98.119 51.6586 106.997 51.6586C115.874 51.6586 123.116 44.9366 123.116 36.6749V5.12656H116.176V36.6749C116.176 40.9088 111.971 44.4829 106.997 44.4829C102.022 44.4829 97.8304 40.9088 97.8304 36.6749V5.41523H90.8906ZM82.9888 54.1192H56.2602C55.5868 54.1192 55.0371 53.5694 55.0371 52.8958V3.90311C55.0371 3.22953 55.5868 2.67967 56.2602 2.67967H65.6461C66.3195 2.67967 66.8692 3.22953 66.8692 3.90311V41.8986C66.8692 41.9673 66.9379 42.036 67.0066 42.036H82.9888C83.6622 42.036 84.2119 42.5859 84.2119 43.2595V52.8821C84.2119 53.5556 83.6622 54.1055 82.9888 54.1055V54.1192ZM57.4832 51.6586H81.7658V44.4829H67.0203C65.5911 44.4829 64.4368 43.3145 64.4368 41.8986V5.12656H57.4969V51.6586H57.4832ZM21.561 48.6894C21.561 48.6894 21.5335 48.6894 21.5197 48.6894C19.6233 48.6481 17.988 47.7271 16.655 46.0225C15.9541 45.1153 15.5419 43.6994 15.4869 42.0085C13.0683 42.6134 10.7321 42.2147 8.89061 40.8676C6.41701 39.0255 5.97725 35.6576 7.76375 32.4822C9.41282 29.5679 12.8896 28.5507 15.748 27.9871C16.5588 27.8358 17.6719 27.6846 18.8125 27.5609C18.7988 27.5609 18.785 27.5609 18.7713 27.5609C16.4901 27.0798 12.2987 25.9801 9.67392 24.0006C8.12105 22.8046 7.09038 20.7564 6.99418 18.6394C6.91173 16.7974 7.53013 15.0928 8.71196 13.9656C10.8558 11.9448 13.3981 12.0823 15.6518 12.7421C16.1465 10.2953 17.9742 8.17829 19.7607 7.57344C21.6709 6.92735 25.5462 6.89986 28.0198 10.9551C29.8063 13.9106 29.6139 17.6084 29.1742 20.0965C30.5209 18.1033 32.541 15.9726 35.3032 15.1203C38.6701 14.0893 41.6247 15.134 43.6035 18.0758C44.964 20.1103 45.019 22.3785 43.8234 24.3442C46.3932 25.1278 47.8499 26.7636 48.166 29.2243C48.8393 34.5579 45.2251 35.8363 41.5972 36.3725C41.1024 36.4412 40.6077 36.4549 40.2917 36.4549C37.502 36.3862 34.6573 34.9703 32.3624 33.5544C33.1869 34.4892 34.0664 35.3965 34.9322 36.1113C38.2028 38.8193 42.4904 40.3177 42.9439 40.4689C43.4524 40.6064 43.8372 41.0188 43.9333 41.5412C43.9883 41.7886 44.0983 42.6134 43.4524 43.7956C42.8752 44.8816 42.1469 45.294 41.7621 45.4452C41.7071 45.4727 41.6521 45.4864 41.5834 45.5002C41.3498 45.5551 41.1024 45.5551 40.8826 45.5002C40.8139 45.4864 40.7177 45.4589 40.6077 45.4039C40.539 45.3764 35.1108 42.4484 31.634 38.9156C30.9332 38.2145 30.2461 37.4172 29.5452 36.5512C29.8475 38.4757 29.9163 40.7851 28.9818 43.4244C27.7862 46.8336 25.1614 48.7168 21.5885 48.7168L21.561 48.6894ZM16.7649 39.0393C17.0123 39.0393 17.2734 39.1218 17.4795 39.273C17.8368 39.5342 18.0292 39.9466 17.988 40.3864C17.7956 42.4484 18.1529 43.9468 18.5926 44.5242C19.1836 45.294 20.173 46.215 21.451 46.2425H21.4785C24.0621 46.2425 25.7661 45.019 26.6319 42.5859C27.7312 39.4792 27.1541 36.991 26.6456 34.7916L26.3433 33.4444C26.2883 33.197 26.2471 32.9496 26.1921 32.7296L25.8623 31.1488C25.7524 30.6264 25.986 30.104 26.4257 29.8428C26.4257 29.8291 26.3982 29.8154 26.3982 29.7879C26.1097 29.348 26.1234 28.7844 26.4395 28.3582C26.7555 27.9321 27.3052 27.7671 27.7999 27.9321C28.3496 28.1108 29.0093 28.4407 29.8063 28.9218C30.0537 29.0593 30.411 29.3067 30.8645 29.6092L31.0843 29.7604L31.1118 29.7879C33.1869 31.2175 37.0485 33.8981 40.2917 33.9806C40.5802 33.9806 40.8963 33.9806 41.2124 33.9256C45.4587 33.2932 46.0359 32.056 45.7061 29.5129C45.4725 27.6022 44.1807 26.6536 41.4048 26.3375C40.9238 26.2825 40.5253 25.9526 40.3741 25.4852C40.2229 25.0178 40.3741 24.5229 40.7314 24.193C42.3667 22.7359 42.6553 21.0451 41.5697 19.4092C40.1817 17.361 38.3677 16.7149 36.0178 17.4297C32.7059 18.447 30.6171 22.186 29.8888 23.7531L29.7651 24.0143C28.5145 26.6124 28.2947 27.0798 27.4701 27.6297C27.1403 27.8496 26.7281 27.9046 26.357 27.7671C25.986 27.6297 25.6974 27.3135 25.6012 26.9286C25.3401 25.9526 25.986 22.7221 26.3845 21.2925C26.7555 19.9453 27.8137 15.3265 25.9173 12.2198C23.8422 8.79688 20.6815 9.82787 20.544 9.88286C19.4034 10.2678 17.8093 12.2335 17.9742 14.3092C18.0017 14.7354 17.8231 15.134 17.4795 15.3952C17.136 15.6427 16.6962 15.7114 16.2977 15.5602C13.3843 14.4192 11.7215 14.4742 10.3885 15.7389C9.72889 16.3712 9.38533 17.3747 9.4403 18.5157C9.50901 19.9041 10.1824 21.2787 11.1581 22.0211C13.4805 23.7806 17.6032 24.7841 19.2523 25.1415C24.2957 26.1175 24.9828 26.6811 25.2164 26.8598C25.4088 27.0111 25.5737 27.1623 25.7111 27.341C25.9447 27.6571 26.0272 28.0695 25.9035 28.4544C25.7798 28.8393 25.4913 29.128 25.1065 29.2517C24.6255 29.403 23.5811 29.5267 21.4785 29.7329H21.2861C19.5821 29.9253 17.4658 30.1453 16.229 30.3927C13.8928 30.8601 11.0619 31.6574 9.90754 33.6919C8.71196 35.8088 8.89061 37.8021 10.361 38.8881C11.9414 40.0565 14.0302 40.139 16.2702 39.1493C16.4351 39.0805 16.6 39.0393 16.7649 39.0393ZM38.4777 41.2387C39.5771 41.9673 40.5253 42.5309 41.1024 42.8608C41.1437 42.7921 41.1986 42.7096 41.2536 42.6134C41.2811 42.5721 41.3086 42.5172 41.3223 42.4759C40.649 42.2147 39.632 41.8023 38.4777 41.225V41.2387ZM30.2736 30.9701L30.3972 30.7639L30.2598 30.9563L30.2736 30.9701Z" fill="#44290E"/>
<path d="M28.8725 28.3043C31.14 29.8714 35.1802 32.6757 38.8219 32.7719C39.2067 32.7719 39.5914 32.7719 39.9625 32.7032C44.4837 32.0296 45.9953 30.4488 45.5418 26.8747C45.1296 23.5892 42.2849 22.8469 40.1136 22.5995C42.2162 20.73 42.6147 18.3381 41.1581 16.1661C39.9762 14.4203 37.8187 12.5645 34.177 13.678C30.5216 14.8052 28.2541 18.558 27.2372 20.7025L27.1135 20.9637C25.9316 23.4243 25.7805 23.7405 25.2308 24.1116C25.1071 23.6442 25.4644 21.0874 26.0141 19.0666C26.5363 17.1696 27.4983 12.3858 25.4094 8.94917C23.3344 5.54003 20.1049 5.52628 18.5383 6.0624C16.9305 6.61226 14.8966 9.07289 15.1165 11.7947C12.5742 10.805 9.96315 10.2413 7.86058 12.2346C6.93985 13.1144 6.44513 14.4753 6.51384 15.9874C6.5963 17.7607 7.44832 19.479 8.72635 20.455C11.4061 22.4758 16.0235 23.5343 17.384 23.8229C18.5933 24.0566 22.2625 24.8127 22.8671 25.3076C23.0458 25.445 23.1145 25.5275 23.1557 25.5825C22.7297 25.72 21.0531 25.8849 19.5552 26.0361C17.7138 26.2286 15.625 26.4485 14.3469 26.696C11.7222 27.2183 8.5477 28.1256 7.13224 30.6275C5.6206 33.3081 5.93667 35.9886 7.92929 37.4733C9.88069 38.9166 12.478 39.0541 15.1302 37.8719C14.9241 40.0439 15.2539 41.9546 15.996 42.9169C16.6281 43.7279 17.9337 45.0888 19.8301 45.1301H19.9263C23.0045 45.1438 25.2033 43.5905 26.2477 40.6212C27.4708 37.1571 26.8249 34.339 26.3027 32.0709C26.2202 31.7272 26.1515 31.411 26.0828 31.1086C26.0004 30.71 25.9316 30.3388 25.8492 29.9814C25.7255 29.3903 25.6156 28.8679 25.5194 28.4143C26.715 30.3663 28.6389 33.2531 30.9613 35.6175C34.3144 39.0129 39.6189 41.8859 39.6739 41.9134C39.7014 41.9134 39.7426 41.9134 39.7701 41.9409C39.7976 41.9409 39.8251 41.9271 39.8388 41.9271C39.9075 41.8996 40.4435 41.7072 40.9107 40.8274C41.3917 39.9476 41.2817 39.439 41.268 39.384C41.268 39.3153 41.1993 39.2603 41.1306 39.2466C41.0893 39.2328 36.307 37.6657 32.6241 34.614C29.9856 32.4283 27.3059 28.7442 25.8767 26.6135C26.2065 26.7235 26.7562 26.9571 27.6494 27.4933C27.938 27.6582 28.3503 27.9469 28.8725 28.3043ZM201.709 50.6012L191.512 33.3081C191.278 32.8957 190.852 32.6482 190.385 32.6345H190.33C189.877 32.6345 189.451 32.8544 189.203 33.2256L185.039 39.3153C184.875 39.549 184.792 39.8239 184.792 40.0989V50.6012H175.324V1.20987H184.792V18.3243C184.792 18.9292 185.191 19.4515 185.768 19.6302C185.891 19.6715 186.029 19.699 186.166 19.699C186.62 19.699 187.046 19.479 187.307 19.0941L199.524 1.20987H211.081L196.844 22.0359C196.555 22.4758 196.528 23.0531 196.803 23.5068L212.771 50.6012H201.709ZM229.674 50.6012V30.0364C229.674 29.8164 229.619 29.5965 229.523 29.404L214.626 1.20987H225.387L233.192 15.9874C233.44 16.441 233.907 16.716 234.415 16.716C234.924 16.716 235.391 16.441 235.625 15.9874L243.43 1.20987H254.204L239.308 29.404C239.198 29.5965 239.143 29.8164 239.143 30.0364V50.6012H229.674ZM153.226 50.6012C146.657 50.6012 140.927 47.8519 137.079 42.8619C133.63 38.3943 131.816 32.442 131.816 25.6375C131.816 18.8329 133.63 12.8807 137.079 8.41306C140.927 3.42306 146.657 0.6875 153.226 0.6875C158.599 0.6875 163.78 2.54328 167.903 5.95243L162.296 13.7742C159.809 11.5748 156.62 10.3788 153.226 10.3788C144.417 10.3788 141.27 18.2556 141.27 25.6375C141.27 33.0194 144.417 40.8961 153.226 40.8961C156.442 40.8961 159.479 39.8239 161.911 37.8307L167.504 45.6387C163.423 48.8829 158.503 50.6012 153.226 50.6012ZM106.076 50.6012C96.4431 50.6012 88.61 43.2743 88.61 34.2566V1.51229H98.0785V34.2566C98.0785 37.8582 101.748 40.8961 106.076 40.8961C110.405 40.8961 114.088 37.8582 114.088 34.2566V1.22362H123.557V34.2566C123.557 43.2743 115.71 50.6012 106.076 50.6012ZM54.9415 50.6012V1.22362H64.4099V39.5215C64.4099 40.2776 65.0283 40.8961 65.7842 40.8961H81.8901V50.6012H54.9415Z" fill="#EAAE56"/>
<path d="M28.8725 28.3043C31.14 29.8714 35.1802 32.6757 38.8219 32.7719C39.2067 32.7719 39.5914 32.7719 39.9625 32.7032C44.4837 32.0296 45.9953 30.4488 45.5418 26.8747C45.1296 23.5892 42.2849 22.8469 40.1136 22.5995C42.2162 20.73 42.6147 18.3381 41.1581 16.1661C39.9762 14.4203 37.8187 12.5645 34.177 13.678C30.5216 14.8052 28.2541 18.558 27.2372 20.7025L27.1135 20.9637C25.9316 23.4243 25.7805 23.7405 25.2308 24.1116C25.1071 23.6442 25.4644 21.0874 26.0141 19.0666C26.5363 17.1696 27.4983 12.3858 25.4094 8.94917C23.3344 5.54003 20.1049 5.52628 18.5383 6.0624C16.9305 6.61226 14.8966 9.07289 15.1165 11.7947C12.5742 10.805 9.96315 10.2413 7.86058 12.2346C6.93985 13.1144 6.44513 14.4753 6.51384 15.9874C6.5963 17.7607 7.44832 19.479 8.72635 20.455C11.4061 22.4758 16.0235 23.5343 17.384 23.8229C18.5933 24.0566 22.2625 24.8127 22.8671 25.3076C23.0458 25.445 23.1145 25.5275 23.1557 25.5825C22.7297 25.72 21.0531 25.8849 19.5552 26.0361C17.7138 26.2286 15.625 26.4485 14.3469 26.696C11.7222 27.2183 8.5477 28.1256 7.13224 30.6275C5.6206 33.3081 5.93667 35.9886 7.92929 37.4733C9.88069 38.9166 12.478 39.0541 15.1302 37.8719C14.9241 40.0439 15.2539 41.9546 15.996 42.9169C16.6281 43.7279 17.9337 45.0888 19.8301 45.1301H19.9263C23.0045 45.1438 25.2033 43.5905 26.2477 40.6212C27.4708 37.1571 26.8249 34.339 26.3027 32.0709C26.2202 31.7272 26.1515 31.411 26.0828 31.1086C26.0004 30.71 25.9316 30.3388 25.8492 29.9814C25.7255 29.3903 25.6156 28.8679 25.5194 28.4143C26.715 30.3663 28.6389 33.2531 30.9613 35.6175C34.3144 39.0129 39.6189 41.8859 39.6739 41.9134C39.7014 41.9134 39.7426 41.9134 39.7701 41.9409C39.7976 41.9409 39.8251 41.9271 39.8388 41.9271C39.9075 41.8996 40.4435 41.7072 40.9107 40.8274C41.3917 39.9476 41.2817 39.439 41.268 39.384C41.268 39.3153 41.1993 39.2603 41.1306 39.2466C41.0893 39.2328 36.307 37.6657 32.6241 34.614C29.9856 32.4283 27.3059 28.7442 25.8767 26.6135C26.2065 26.7235 26.7562 26.9571 27.6494 27.4933C27.938 27.6582 28.3503 27.9469 28.8725 28.3043ZM201.709 50.6012L191.512 33.3081C191.278 32.8957 190.852 32.6482 190.385 32.6345H190.33C189.877 32.6345 189.451 32.8544 189.203 33.2256L185.039 39.3153C184.875 39.549 184.792 39.8239 184.792 40.0989V50.6012H175.324V1.20987H184.792V18.3243C184.792 18.9292 185.191 19.4515 185.768 19.6302C185.891 19.6715 186.029 19.699 186.166 19.699C186.62 19.699 187.046 19.479 187.307 19.0941L199.524 1.20987H211.081L196.844 22.0359C196.555 22.4758 196.528 23.0531 196.803 23.5068L212.771 50.6012H201.709ZM229.674 50.6012V30.0364C229.674 29.8164 229.619 29.5965 229.523 29.404L214.626 1.20987H225.387L233.192 15.9874C233.44 16.441 233.907 16.716 234.415 16.716C234.924 16.716 235.391 16.441 235.625 15.9874L243.43 1.20987H254.204L239.308 29.404C239.198 29.5965 239.143 29.8164 239.143 30.0364V50.6012H229.674ZM153.226 50.6012C146.657 50.6012 140.927 47.8519 137.079 42.8619C133.63 38.3943 131.816 32.442 131.816 25.6375C131.816 18.8329 133.63 12.8807 137.079 8.41306C140.927 3.42306 146.657 0.6875 153.226 0.6875C158.599 0.6875 163.78 2.54328 167.903 5.95243L162.296 13.7742C159.809 11.5748 156.62 10.3788 153.226 10.3788C144.417 10.3788 141.27 18.2556 141.27 25.6375C141.27 33.0194 144.417 40.8961 153.226 40.8961C156.442 40.8961 159.479 39.8239 161.911 37.8307L167.504 45.6387C163.423 48.8829 158.503 50.6012 153.226 50.6012ZM106.076 50.6012C96.4431 50.6012 88.61 43.2743 88.61 34.2566V1.51229H98.0785V34.2566C98.0785 37.8582 101.748 40.8961 106.076 40.8961C110.405 40.8961 114.088 37.8582 114.088 34.2566V1.22362H123.557V34.2566C123.557 43.2743 115.71 50.6012 106.076 50.6012ZM54.9415 50.6012V1.22362H64.4099V39.5215C64.4099 40.2776 65.0283 40.8961 65.7842 40.8961H81.8901V50.6012H54.9415Z" fill="#E1B165"/>
<path d="M238.882 51.2884H229.413C229.029 51.2884 228.726 50.9859 228.726 50.601V30.0362C228.726 29.9262 228.699 29.8163 228.644 29.72L213.761 1.53961C213.651 1.33341 213.651 1.07223 213.775 0.866032C213.898 0.659834 214.118 0.536115 214.366 0.536115H225.126C225.387 0.536115 225.621 0.673581 225.73 0.907272L233.536 15.6848C233.783 16.1247 234.525 16.1384 234.745 15.6848L242.551 0.907272C242.675 0.687327 242.908 0.536115 243.156 0.536115H253.93C254.177 0.536115 254.397 0.659834 254.52 0.866032C254.644 1.07223 254.658 1.33341 254.534 1.53961L239.638 29.7338C239.583 29.8437 239.555 29.94 239.555 30.0499V50.6148C239.555 50.9997 239.253 51.3021 238.868 51.3021L238.882 51.2884ZM230.101 49.9137H238.195V30.0362C238.195 29.6925 238.277 29.3489 238.456 29.0602L252.803 1.89702H243.582L235.968 16.3034C235.625 16.977 234.924 17.4031 234.154 17.4031C233.385 17.4031 232.698 16.9907 232.327 16.3171L224.714 1.89702H215.506L229.867 29.0877C230.018 29.3901 230.101 29.72 230.101 30.0362V49.9137ZM212.51 51.2884H201.448C201.201 51.2884 200.981 51.1646 200.857 50.9447L190.66 33.6515C190.537 33.4453 190.344 33.3216 190.111 33.3216C189.849 33.3216 189.643 33.4316 189.52 33.6103L185.356 39.7138C185.273 39.8375 185.232 39.975 185.232 40.1124V50.6148C185.232 50.9997 184.93 51.3021 184.545 51.3021H175.077C174.692 51.3021 174.389 50.9997 174.389 50.6148V1.2097C174.389 0.824793 174.692 0.522369 175.077 0.522369H184.545C184.93 0.522369 185.232 0.824793 185.232 1.2097V18.3241C185.232 18.6266 185.424 18.8878 185.727 18.9702C185.809 18.9977 185.864 19.0115 185.919 19.0115C186.153 19.0115 186.359 18.9015 186.496 18.709L198.713 0.824793C198.837 0.632341 199.057 0.522369 199.277 0.522369H210.834C211.095 0.522369 211.329 0.659834 211.439 0.893525C211.562 1.11347 211.548 1.3884 211.397 1.60835L197.16 22.4344C197.023 22.6543 197.009 22.943 197.133 23.1629L213.101 50.2574C213.225 50.4636 213.225 50.7385 213.101 50.9447C212.978 51.1509 212.758 51.2884 212.51 51.2884ZM201.846 49.9137H211.315L195.951 23.8503C195.552 23.1904 195.566 22.3244 196.006 21.6508L209.515 1.88328H199.62L187.609 19.4651C187.115 20.1937 186.18 20.5648 185.287 20.2624C184.435 20.0012 183.844 19.2039 183.844 18.3104V1.89702H175.75V49.9137H183.844V40.0987C183.844 39.6725 183.968 39.2601 184.215 38.9165L188.379 32.8405C188.75 32.2906 189.382 31.947 190.069 31.947C190.866 31.9745 191.499 32.3456 191.856 32.9642L201.846 49.9137ZM152.965 51.2884C146.177 51.2884 140.254 48.4428 136.268 43.2879C132.737 38.7103 130.868 32.6068 130.868 25.6373C130.868 18.6678 132.737 12.5781 136.268 7.98674C140.24 2.83179 146.177 0 152.965 0C158.49 0 163.849 1.92452 168.082 5.41614C168.357 5.64983 168.412 6.04848 168.205 6.3509L162.599 14.1727C162.489 14.3239 162.31 14.4339 162.118 14.4614C161.925 14.4889 161.733 14.4201 161.582 14.2964C159.232 12.2207 156.167 11.0797 152.965 11.0797C144.651 11.0797 141.697 18.6128 141.697 25.6511C141.697 32.6893 144.651 40.2224 152.965 40.2224C156.044 40.2224 158.888 39.2189 161.211 37.3081C161.362 37.1844 161.54 37.1294 161.733 37.1569C161.925 37.1844 162.09 37.2806 162.2 37.4318L167.793 45.2399C168.013 45.5423 167.944 45.9547 167.656 46.1746C163.451 49.5151 158.366 51.2884 152.952 51.2884H152.965ZM152.965 1.37465C146.616 1.37465 141.078 4.02774 137.368 8.83903C134.015 13.1829 132.242 18.984 132.242 25.6373C132.242 32.2906 134.015 38.1054 137.368 42.4356C141.078 47.2606 146.63 49.9137 152.965 49.9137C157.844 49.9137 162.447 48.3878 166.295 45.5011L161.499 38.8065C159.039 40.621 156.098 41.5833 152.952 41.5833C143.634 41.5833 140.309 33.3491 140.309 25.6373C140.309 17.9255 143.634 9.69131 152.952 9.69131C156.236 9.69131 159.383 10.7773 161.898 12.7705L166.694 6.07597C162.791 3.03799 157.94 1.37465 152.952 1.37465H152.965ZM105.816 51.2884C95.8112 51.2884 87.6621 43.6453 87.6621 34.2564V1.51212C87.6621 1.12722 87.9644 0.824793 88.3492 0.824793H97.8176C98.2024 0.824793 98.5047 1.12722 98.5047 1.51212V34.2564C98.5047 37.4868 101.858 40.2086 105.816 40.2086C109.773 40.2086 113.14 37.4868 113.14 34.2564V1.22344C113.14 0.838539 113.443 0.536115 113.827 0.536115H123.296C123.681 0.536115 123.983 0.838539 123.983 1.22344V34.2564C123.983 43.6453 115.834 51.2884 105.816 51.2884ZM89.0363 2.19945V34.2564C89.0363 42.8892 96.5671 49.9137 105.816 49.9137C115.064 49.9137 122.609 42.8892 122.609 34.2564V1.91077H114.514V34.2564C114.514 38.2291 110.529 41.5833 105.816 41.5833C101.102 41.5833 97.1305 38.2291 97.1305 34.2564V2.19945H89.0363ZM81.6292 51.2884H54.6807C54.2959 51.2884 53.9936 50.9859 53.9936 50.601V1.22344C53.9936 0.838539 54.2959 0.536115 54.6807 0.536115H64.1491C64.5339 0.536115 64.8362 0.838539 64.8362 1.22344V39.5213C64.8362 39.9062 65.1385 40.2086 65.5233 40.2086H81.6292C82.014 40.2086 82.3163 40.5111 82.3163 40.896V50.601C82.3163 50.9859 82.014 51.2884 81.6292 51.2884ZM55.3678 49.9137H80.9421V41.5833H65.5233C64.3827 41.5833 63.462 40.6623 63.462 39.5213V1.91077H55.3678V49.9137ZM19.7066 45.8172H19.6654C17.5079 45.776 16.0649 44.4426 15.1992 43.3429C14.4846 42.4081 14.0998 40.7997 14.1273 38.9027C11.6125 39.7275 9.1526 39.4251 7.25617 38.0367C4.96121 36.3321 4.57643 33.2941 6.26673 30.2974C7.8196 27.5618 11.1865 26.5721 13.9486 26.036C15.2816 25.7748 17.4667 25.5548 19.2119 25.3624H19.3768C19.6792 25.3211 19.9952 25.2799 20.325 25.2524C19.4043 25.0187 18.2362 24.7575 16.9719 24.5101C15.158 24.1252 10.6917 23.0255 8.02573 21.0185C6.5828 19.9187 5.63458 18.008 5.53839 16.0285C5.45593 14.3239 6.03311 12.7705 7.09126 11.7533C9.23505 9.71881 11.8049 10.035 14.141 10.8323C14.3884 8.30291 16.2299 6.03473 18.0163 5.42989C19.7754 4.82504 23.3896 4.81129 25.6983 8.60534C27.9383 12.3032 26.9213 17.2932 26.3716 19.2589C26.193 19.905 26.0418 20.5923 25.9181 21.2247C26.0006 21.0597 26.083 20.881 26.1792 20.6886L26.3167 20.4136C27.3748 18.1729 29.7385 14.2414 33.6688 13.0317C37.6953 11.7945 40.1139 13.8565 41.4194 15.7948C42.8074 17.8568 42.6974 20.1937 41.1995 22.1319C42.9723 22.5031 45.5146 23.5341 45.9131 26.8058C46.4216 30.7648 44.6351 32.6755 39.7566 33.4041C39.3581 33.4591 38.9321 33.4866 38.5198 33.4866C34.672 33.3904 30.6317 30.5861 28.2131 28.9227L28.5704 28.3316L28.1856 28.8952L27.9657 28.744C27.9657 28.744 27.897 28.7028 27.8695 28.6753C29.2025 30.4623 31.0028 32.648 32.7755 34.1052C36.321 37.0332 40.8697 38.5453 41.0621 38.614C41.3232 38.669 41.5843 38.9302 41.653 39.2601C41.6942 39.4251 41.8042 40.1262 41.227 41.1709C40.7323 42.1057 40.1276 42.4493 39.8116 42.5731C39.7703 42.5868 39.7428 42.6005 39.7016 42.6005C39.5367 42.6418 39.3443 42.628 39.2069 42.5731C39.2481 42.6005 39.1794 42.5731 39.0832 42.5318C39.0282 42.5043 33.6413 39.6038 30.1782 36.0984C29.0101 34.9025 27.8283 33.4728 26.6602 31.837V31.9057C27.2237 34.2564 27.897 37.1844 26.6053 40.841C25.4784 44.0439 23.0185 45.8035 19.6792 45.8035L19.7066 45.8172ZM14.8694 37.1844C15.0068 37.1844 15.158 37.2256 15.2679 37.3081C15.4603 37.4456 15.5702 37.693 15.5565 37.9267C15.3778 39.8787 15.6527 41.6795 16.2848 42.4906C16.9582 43.3566 18.0851 44.4013 19.583 44.4426H19.6242C22.4963 44.4426 24.3928 43.0817 25.341 40.3873C26.4953 37.1019 25.8769 34.3939 25.3685 32.2219L25.0661 30.8747C25.0112 30.6136 24.9699 30.3661 24.915 30.1324L24.5851 28.5516C24.5164 28.2217 24.6951 27.8917 24.9974 27.768C25.2035 27.6855 25.4234 27.713 25.6021 27.8093C25.3959 27.5068 25.2035 27.2319 25.0386 26.9845C24.8737 26.737 24.8875 26.4209 25.0661 26.1872C25.2448 25.9535 25.5471 25.8573 25.8357 25.9535C26.3442 26.1184 26.99 26.4346 27.7459 26.902C27.9932 27.0395 28.3505 27.2869 28.7765 27.5893L28.9964 27.7405L29.0239 27.768C31.1677 29.2526 35.1529 32.002 38.5748 32.0982C38.9046 32.0982 39.2619 32.0982 39.5917 32.0432C44.2503 31.3559 44.9374 29.7338 44.5939 26.9845C44.319 24.785 42.8349 23.6578 39.7703 23.3004C39.4955 23.2729 39.2756 23.0805 39.1932 22.8193C39.1107 22.5581 39.1932 22.2831 39.3855 22.1044C41.2408 20.4549 41.5706 18.4479 40.32 16.5646C38.7946 14.3102 36.7058 13.5678 34.1085 14.3514C30.6867 15.4099 28.5567 18.984 27.5947 21.0185L27.471 21.2797C26.248 23.8365 26.0556 24.2214 25.3547 24.7025C25.1761 24.8263 24.9424 24.8538 24.7226 24.7713C24.5164 24.6888 24.3515 24.5238 24.2966 24.3039C24.1042 23.6028 24.5714 20.771 25.0799 18.9015C25.4646 17.4994 26.5778 12.6468 24.5577 9.32016C22.7025 6.26842 19.8716 6.25468 18.4973 6.72206C17.1643 7.1757 15.3504 9.3614 15.5427 11.7533C15.5565 11.987 15.4603 12.2207 15.2679 12.3581C15.0755 12.4956 14.8281 12.5368 14.6083 12.4406C12.3133 11.5471 9.93591 10.9697 8.0807 12.743C7.29739 13.4854 6.88513 14.6676 6.95384 15.9597C7.02255 17.5406 7.77837 19.0527 8.89149 19.9187C11.3239 21.7608 15.5702 22.7918 17.2743 23.1629C19.528 23.6028 22.3726 24.2352 23.046 24.785C23.2659 24.95 23.3758 25.0874 23.4445 25.1837C23.582 25.3624 23.6094 25.5961 23.5407 25.8023C23.472 26.0085 23.3071 26.1734 23.101 26.2422C22.6475 26.3934 21.4519 26.5171 19.528 26.7095H19.3631C17.6316 26.902 15.4878 27.1357 14.2097 27.3831C11.7361 27.878 8.74033 28.7303 7.4623 30.9847C6.1293 33.3354 6.37666 35.6723 8.06696 36.937C9.82597 38.2291 12.1347 38.3529 14.5808 37.2531C14.6632 37.2119 14.7594 37.1982 14.8556 37.1982L14.8694 37.1844ZM26.3579 28.8677C27.9657 31.3834 29.5873 33.5003 31.1952 35.1362C34.081 38.0504 38.4786 40.5935 39.5092 41.1846C39.6467 41.0747 39.8528 40.8822 40.0452 40.5111C40.2238 40.1949 40.2925 39.9475 40.32 39.7825C39.042 39.3289 35.098 37.7755 31.9235 35.1499C29.8622 33.4453 27.8283 30.916 26.3579 28.8815V28.8677ZM40.6223 39.8787C40.6223 39.8787 40.6911 39.9062 40.7323 39.92C40.7185 39.92 40.6773 39.9062 40.6223 39.8787Z" fill="#44290E"/>
<path d="M239.143 52.1548H229.702C229.317 52.1548 229.015 51.8524 229.015 51.4675V30.9576C229.015 30.8477 228.987 30.7377 228.932 30.6415L214.09 2.54352C213.981 2.33732 213.981 2.07614 214.104 1.86994C214.228 1.66374 214.448 1.54002 214.695 1.54002H225.428C225.675 1.54002 225.909 1.67749 226.033 1.91118L233.811 16.6475C234.044 17.0874 234.8 17.1011 235.02 16.6475L242.812 1.91118C242.935 1.69123 243.169 1.54002 243.416 1.54002H254.163C254.397 1.54002 254.63 1.66374 254.754 1.86994C254.878 2.07614 254.891 2.33732 254.768 2.54352L239.912 30.6552C239.857 30.7652 239.83 30.8614 239.83 30.9714V51.4812C239.83 51.8661 239.527 52.1686 239.143 52.1686V52.1548ZM230.389 50.7802H238.456V30.9576C238.456 30.614 238.538 30.284 238.717 29.9816L253.022 2.90093H243.829L236.243 17.2661C235.899 17.9397 235.199 18.352 234.429 18.352C233.659 18.352 232.972 17.9397 232.601 17.2661L225.002 2.88718H215.822L230.141 29.9954C230.293 30.2978 230.375 30.6277 230.375 30.9439V50.7664L230.389 50.7802ZM212.854 52.1548H201.819C201.571 52.1548 201.351 52.0311 201.228 51.8111L191.058 34.573C190.935 34.3668 190.742 34.2431 190.509 34.2431C190.248 34.2431 190.042 34.353 189.918 34.5317L185.768 40.6077C185.685 40.7314 185.644 40.8689 185.644 41.0064V51.4812C185.644 51.8661 185.342 52.1686 184.957 52.1686H175.516C175.131 52.1686 174.829 51.8661 174.829 51.4812V2.22735C174.829 1.84245 175.131 1.54002 175.516 1.54002H184.957C185.342 1.54002 185.644 1.84245 185.644 2.22735V19.2868C185.644 19.5892 185.836 19.8367 186.139 19.9329C186.221 19.9604 186.276 19.9741 186.331 19.9741C186.565 19.9741 186.771 19.8642 186.908 19.6717L199.084 1.84245C199.208 1.64999 199.428 1.54002 199.647 1.54002H211.163C211.425 1.54002 211.644 1.67749 211.768 1.91118C211.892 2.13112 211.864 2.40605 211.727 2.61225L197.531 23.3695C197.394 23.5895 197.38 23.8782 197.504 24.0981L213.431 51.1238C213.555 51.33 213.555 51.6049 213.431 51.8111C213.307 52.0311 213.087 52.1548 212.84 52.1548H212.854ZM202.217 50.7802H211.658L196.349 24.7992C195.951 24.1393 195.964 23.2733 196.404 22.6135L209.872 2.91468H200.005L188.035 20.4415C187.54 21.1701 186.633 21.5412 185.713 21.2388C184.861 20.9776 184.27 20.1803 184.27 19.2868V2.91468H176.203V50.7939H184.27V41.0064C184.27 40.5802 184.393 40.1678 184.641 39.8242L188.791 33.7619C189.162 33.2121 189.794 32.8684 190.481 32.8684C191.265 32.8959 191.911 33.2671 192.254 33.8856L202.217 50.7802ZM153.487 52.1548C146.726 52.1548 140.817 49.323 136.845 44.1681C133.314 39.6042 131.458 33.5145 131.458 26.5725C131.458 19.6305 133.327 13.5545 136.845 8.9769C140.803 3.8357 146.712 1.00391 153.487 1.00391C158.984 1.00391 164.344 2.92842 168.562 6.4063C168.837 6.63999 168.892 7.03864 168.686 7.32732L163.093 15.1216C162.983 15.2728 162.804 15.3828 162.612 15.4103C162.42 15.424 162.227 15.369 162.076 15.2453C159.726 13.1696 156.689 12.0286 153.487 12.0286C145.201 12.0286 142.246 19.5343 142.246 26.5587C142.246 33.5832 145.201 41.0888 153.487 41.0888C156.552 41.0888 159.396 40.0853 161.719 38.1883C161.87 38.0646 162.049 38.0096 162.241 38.0371C162.433 38.0646 162.598 38.1608 162.708 38.312L168.288 46.0926C168.494 46.395 168.439 46.8074 168.15 47.0273C163.959 50.3678 158.888 52.1273 153.487 52.1273V52.1548ZM153.487 2.39231C147.152 2.39231 141.628 5.03164 137.931 9.82919C134.592 14.1594 132.833 19.9466 132.833 26.5862C132.833 33.2258 134.592 39.0131 137.931 43.3433C141.641 48.1408 147.166 50.7939 153.487 50.7939C158.352 50.7939 162.942 49.268 166.776 46.395L161.994 39.7279C159.548 41.5425 156.607 42.491 153.473 42.491C144.184 42.491 140.872 34.2843 140.872 26.6C140.872 18.9157 144.184 10.6952 153.473 10.6952C156.744 10.6952 159.877 11.7812 162.392 13.7607L167.174 7.09363C163.285 4.06939 158.448 2.40605 153.473 2.40605L153.487 2.39231ZM106.475 52.1548C96.4981 52.1548 88.3764 44.5392 88.3764 35.1778V2.52977C88.3764 2.14487 88.6787 1.84245 89.0635 1.84245H98.5044C98.8892 1.84245 99.1916 2.14487 99.1916 2.52977V35.1778C99.1916 38.3945 102.531 41.1163 106.475 41.1163C110.419 41.1163 113.772 38.3945 113.772 35.1778V2.2411C113.772 1.85619 114.074 1.55377 114.459 1.55377H123.9C124.285 1.55377 124.587 1.85619 124.587 2.2411V35.1778C124.587 44.5392 116.466 52.1548 106.475 52.1548ZM89.7506 3.2171V35.1778C89.7506 43.7832 97.2539 50.7939 106.475 50.7939C115.696 50.7939 123.213 43.7969 123.213 35.1778V2.92842H115.146V35.1778C115.146 39.1368 111.175 42.4772 106.475 42.4772C101.775 42.4772 97.8173 39.1368 97.8173 35.1778V3.2171H89.7506ZM82.3573 52.1548H55.4912C55.1064 52.1548 54.8041 51.8524 54.8041 51.4675V2.2411C54.8041 1.85619 55.1064 1.55377 55.4912 1.55377H64.9321C65.3169 1.55377 65.6192 1.85619 65.6192 2.2411V40.429C65.6192 40.8002 65.9216 41.1163 66.3063 41.1163H82.3573C82.7421 41.1163 83.0444 41.4188 83.0444 41.8037V51.4812C83.0444 51.8661 82.7421 52.1686 82.3573 52.1686V52.1548ZM56.1783 50.7802H81.6702V42.4772H66.2926C65.1657 42.4772 64.2313 41.5562 64.2313 40.4153V2.92842H56.1646V50.7939L56.1783 50.7802ZM20.6271 46.6974H20.5859C18.4421 46.6562 16.9854 45.3228 16.1334 44.223C15.4188 43.2883 15.034 41.6799 15.0615 39.7967C12.5467 40.6215 10.1005 40.319 8.21785 38.9306C5.93663 37.2261 5.55185 34.2018 7.2284 31.2188C8.76754 28.497 12.1344 27.5072 14.8828 26.9574C16.2021 26.6962 18.3871 26.4763 20.1324 26.2838L20.3385 26.2563C20.6271 26.2288 20.9294 26.2013 21.2455 26.1601C20.3248 25.9264 19.1567 25.6652 17.9061 25.4178C16.1059 25.0329 11.6397 23.9331 8.98741 21.9399C7.54448 20.8402 6.59626 18.9431 6.51381 16.9636C6.43135 15.2728 7.00853 13.7195 8.06668 12.7022C10.2105 10.6815 12.7665 10.9976 15.1027 11.7812C15.3501 9.25183 17.1778 6.9974 18.9643 6.39255C20.7233 5.7877 24.3238 5.77396 26.6187 9.568C28.8587 13.2521 27.8418 18.2283 27.2921 20.1941C27.1134 20.8402 26.9623 21.5138 26.8523 22.1598C26.9348 21.9949 27.0172 21.8162 27.1134 21.6237L27.2371 21.3488C28.2953 19.1219 30.6589 15.1903 34.5755 13.9806C38.5882 12.7572 40.9931 14.8054 42.2986 16.73C43.7003 18.8194 43.6041 21.1151 42.0788 23.0534C43.8515 23.4245 46.3663 24.4555 46.7786 27.7134C47.2733 31.6587 45.5006 33.5557 40.6358 34.2843C40.2373 34.3393 39.8113 34.3668 39.399 34.3668C35.5649 34.2705 31.5247 31.48 29.1198 29.8167L29.4771 29.2256L29.0923 29.7892L28.8724 29.638C28.8724 29.638 28.8037 29.5967 28.7763 29.5692C30.1092 31.3563 31.8957 33.5282 33.6685 34.9854C37.2003 37.9134 41.7352 39.4118 41.9276 39.4805C42.1887 39.5355 42.4498 39.7967 42.5185 40.1403C42.5597 40.2915 42.6697 40.9789 42.0925 42.0373C41.5978 42.9721 40.9931 43.3158 40.677 43.4395C40.6358 43.4532 40.6083 43.467 40.5671 43.467C40.3885 43.5082 40.2098 43.4945 40.0724 43.4395C40.1273 43.467 40.0312 43.4395 39.9487 43.3983C39.9212 43.3845 34.5068 40.4565 31.0987 36.9924C29.9306 35.7964 28.7625 34.3805 27.5944 32.7447V32.8134C28.1579 35.1641 28.8175 38.0783 27.5394 41.7212C26.4126 44.9104 23.9665 46.6699 20.6271 46.6699V46.6974ZM15.8036 38.0921C15.941 38.0921 16.0784 38.1333 16.2021 38.2158C16.3945 38.3533 16.5044 38.6007 16.4907 38.8344C16.312 40.7864 16.5869 42.5735 17.219 43.3845C17.8924 44.2505 19.0193 45.2953 20.5172 45.3228C23.4305 45.364 25.3132 43.9756 26.2614 41.2813C27.4158 38.0096 26.7974 35.3153 26.2889 33.1433L25.9866 31.7687C25.9316 31.5212 25.8904 31.2875 25.8354 31.0539L25.5056 29.473C25.4369 29.1431 25.6155 28.8132 25.9179 28.6895C26.124 28.607 26.3439 28.6345 26.5225 28.7307C26.3164 28.4283 26.124 28.1533 25.9591 27.9059C25.7942 27.6585 25.8079 27.3423 25.9866 27.1086C26.1652 26.8749 26.4676 26.7787 26.7424 26.8749C27.2509 27.0399 27.883 27.356 28.6526 27.8097C28.8999 27.9471 29.2572 28.1946 29.6832 28.4833L29.9031 28.6345L29.9306 28.662C32.0606 30.1328 36.0322 32.8821 39.454 32.9784C39.7838 32.9784 40.1411 32.9784 40.4709 32.9234C45.1158 32.2361 45.8029 30.614 45.4593 27.8784C45.1845 25.6927 43.7003 24.5517 40.6496 24.2081C40.3747 24.1806 40.1548 23.9881 40.0724 23.7407C39.9899 23.4795 40.0724 23.2046 40.2648 23.0259C42.1062 21.39 42.4498 19.3693 41.1855 17.4998C39.6601 15.2453 37.5713 14.503 34.9877 15.2866C31.5797 16.3451 29.4496 19.9054 28.4877 21.9261L28.364 22.1873C27.1409 24.7304 26.9485 25.1291 26.2477 25.5965C26.069 25.7202 25.8354 25.7477 25.6293 25.6652C25.4231 25.5827 25.2582 25.4178 25.2033 25.1978C25.0109 24.4968 25.4781 21.6787 25.9866 19.8092C26.3714 18.407 27.4707 13.5682 25.4644 10.2553C23.6092 7.21735 20.792 7.2036 19.4178 7.67098C18.0848 8.12462 16.2708 10.3103 16.4632 12.6885C16.4769 12.9222 16.3807 13.1559 16.1884 13.2933C15.996 13.4308 15.7486 13.472 15.5287 13.3758C13.2475 12.4823 10.8838 11.9049 9.0149 13.6782C8.24533 14.4205 7.81932 15.589 7.88803 16.8949C7.95674 18.4758 8.69883 19.9741 9.82569 20.8402C12.2581 22.6685 16.4769 23.7132 18.181 24.0706C20.0224 24.428 23.2381 25.1154 23.939 25.6927C24.1589 25.8577 24.2688 25.9951 24.3375 26.0914C24.4749 26.2701 24.5162 26.5038 24.4474 26.7099C24.3787 26.9161 24.2138 27.0811 24.0077 27.1498C23.5679 27.2873 22.3861 27.4248 20.4759 27.6172L20.2698 27.6447C18.552 27.8234 16.4082 28.0434 15.1439 28.2908C12.6841 28.7857 9.68827 29.638 8.41024 31.8787C7.09098 34.2293 7.3246 36.5525 9.0149 37.8172C10.7602 39.1093 13.0689 39.2193 15.5012 38.1333C15.5837 38.0921 15.6799 38.0783 15.7761 38.0783L15.8036 38.0921ZM27.2509 29.8029C28.8587 32.3185 30.4665 34.4218 32.0744 36.0576C34.9603 38.9856 39.344 41.515 40.361 42.0786C40.4984 41.9686 40.7045 41.7762 40.8969 41.405C41.0756 41.0888 41.1443 40.8414 41.1718 40.6764C39.8937 40.2228 35.9634 38.6832 32.8027 36.0576C30.7551 34.353 28.7213 31.8237 27.2509 29.8029ZM41.4741 40.7864C41.4741 40.7864 41.5428 40.8139 41.584 40.8277C41.5703 40.8277 41.5291 40.8139 41.4741 40.7864Z" fill="#44290E"/>
<path d="M239.747 50.8352H230.279C230.045 50.8352 229.866 50.6565 229.866 50.4228V29.858C229.866 29.7067 229.825 29.5555 229.756 29.4043L214.86 1.23764C214.791 1.11392 214.791 0.948966 214.86 0.838993C214.928 0.715274 215.066 0.632795 215.217 0.632795H225.977C226.128 0.632795 226.266 0.715274 226.348 0.85274L234.154 15.6303C234.497 16.2489 235.528 16.2626 235.858 15.6303L243.664 0.85274C243.732 0.715274 243.87 0.632795 244.035 0.632795H254.808C254.96 0.632795 255.083 0.701528 255.166 0.838993C255.234 0.962712 255.248 1.11392 255.166 1.23764L240.269 29.4318C240.187 29.5693 240.146 29.7205 240.146 29.8717V50.4365C240.146 50.6702 239.967 50.8489 239.733 50.8489L239.747 50.8352ZM230.691 50.0241H239.335V29.8717C239.335 29.5693 239.417 29.2806 239.555 29.0332L254.121 1.45759H244.282L236.586 16.0152C236.284 16.5925 235.679 16.9637 235.006 16.9637C234.333 16.9637 233.742 16.6063 233.426 16.0152L225.73 1.45759H215.904L230.485 29.0469C230.622 29.3081 230.691 29.5968 230.691 29.8717V50.0241ZM213.376 50.8352H202.313C202.162 50.8352 202.038 50.7527 201.956 50.629L191.759 33.3358C191.594 33.0472 191.306 32.8684 190.976 32.8684C190.618 32.8684 190.316 33.0197 190.151 33.2808L185.987 39.3706C185.877 39.5355 185.809 39.728 185.809 39.9204V50.4228C185.809 50.6565 185.63 50.8352 185.396 50.8352H175.928C175.694 50.8352 175.516 50.6565 175.516 50.4228V1.03144C175.516 0.797754 175.694 0.619048 175.928 0.619048H185.396C185.63 0.619048 185.809 0.797754 185.809 1.03144V18.1459C185.809 18.5583 186.083 18.9294 186.496 19.0532C186.99 19.2181 187.348 19.0119 187.568 18.682L199.785 0.797754C199.867 0.687781 199.991 0.619048 200.128 0.619048H211.685C211.836 0.619048 211.974 0.701528 212.056 0.838993C212.125 0.976459 212.125 1.14142 212.029 1.26514L197.792 22.0912C197.586 22.4073 197.572 22.806 197.764 23.1221L213.733 50.2166C213.802 50.3403 213.815 50.5053 213.733 50.629C213.664 50.7527 213.527 50.8352 213.376 50.8352ZM202.547 50.0241H212.647L197.05 23.5483C196.706 22.9709 196.72 22.2286 197.105 21.6375L210.902 1.44384H200.348L188.255 19.1494C187.829 19.7817 187.032 20.1117 186.248 19.8367C185.506 19.603 184.998 18.9157 184.998 18.1459V1.44384H176.354V50.0104H184.998V39.9204C184.998 39.5493 185.108 39.1919 185.314 38.9032L189.478 32.8135C189.794 32.3323 190.344 32.0437 190.948 32.0437C191.635 32.0574 192.185 32.3873 192.487 32.9234L202.56 50.0104L202.547 50.0241ZM153.83 50.8352C147.138 50.8352 141.284 48.0309 137.353 42.9309C133.849 38.3946 132.008 32.3598 132.008 25.4591C132.008 18.5583 133.863 12.5098 137.353 7.9872C141.27 2.90097 147.124 0.0966797 153.83 0.0966797C159.286 0.0966797 164.591 1.9937 168.768 5.45783C168.933 5.5953 168.961 5.84274 168.837 6.02144L163.23 13.8432C163.161 13.9395 163.051 13.9944 162.942 14.0082C162.832 14.0082 162.708 13.9807 162.625 13.912C160.221 11.795 157.101 10.6128 153.83 10.6128C145.324 10.6128 142.287 18.2834 142.287 25.4591C142.287 32.6348 145.324 40.3053 153.83 40.3053C156.964 40.3053 159.877 39.2743 162.254 37.3361C162.337 37.2673 162.461 37.2261 162.57 37.2398C162.68 37.2536 162.79 37.3223 162.845 37.4048L168.438 45.2128C168.562 45.3915 168.535 45.639 168.356 45.7765C164.192 49.0756 159.176 50.8214 153.817 50.8214L153.83 50.8352ZM153.83 0.921472C147.385 0.921472 141.778 3.60205 138.013 8.48207C134.633 12.8672 132.832 18.737 132.832 25.4591C132.832 32.1811 134.619 38.0509 138.013 42.436C141.778 47.3298 147.399 50.0104 153.83 50.0104C158.86 50.0104 163.587 48.4158 167.545 45.3778L162.433 38.2433C159.973 40.1266 157.019 41.1301 153.83 41.1301C144.706 41.1301 141.462 33.0334 141.462 25.4591C141.462 17.8847 144.706 9.78799 153.83 9.78799C157.142 9.78799 160.331 10.9152 162.832 12.9909L167.957 5.85648C163.972 2.68103 158.97 0.935219 153.844 0.935219L153.83 0.921472ZM106.681 50.8352C96.8276 50.8352 88.8021 43.3158 88.8021 34.0781V1.34762C88.8021 1.11392 88.9808 0.935219 89.2144 0.935219H98.6828C98.9164 0.935219 99.095 1.11392 99.095 1.34762V34.0919C99.095 37.4735 102.572 40.3191 106.681 40.3191C110.79 40.3191 114.28 37.4735 114.28 34.0919V1.05894C114.28 0.825247 114.459 0.646542 114.692 0.646542H124.161C124.395 0.646542 124.573 0.825247 124.573 1.05894V34.0919C124.573 43.3296 116.548 50.8489 106.681 50.8489V50.8352ZM89.6266 1.74627V34.0781C89.6266 42.8622 97.2811 50.0104 106.681 50.0104C116.08 50.0104 123.749 42.8622 123.749 34.0781V1.45759H115.105V34.0781C115.105 37.8997 111.243 41.1301 106.681 41.1301C102.118 41.1301 98.2705 37.8997 98.2705 34.0781V1.74627H89.6266ZM82.4944 50.8352H55.5459C55.3122 50.8352 55.1336 50.6565 55.1336 50.4228V1.05894C55.1336 0.825247 55.3122 0.646542 55.5459 0.646542H65.0143C65.2479 0.646542 65.4265 0.825247 65.4265 1.05894V39.3568C65.4265 39.8929 65.8525 40.3191 66.3885 40.3191H82.4944C82.728 40.3191 82.9067 40.4978 82.9067 40.7315V50.4365C82.9067 50.6702 82.728 50.8489 82.4944 50.8489V50.8352ZM55.9581 50.0241H82.0821V41.1439H66.3885C65.399 41.1439 64.602 40.3466 64.602 39.3568V1.45759H55.9581V50.0104V50.0241ZM20.5718 45.3778C20.5718 45.3778 20.5443 45.3778 20.5306 45.3778H20.4344C18.4967 45.3366 17.1088 44.0581 16.2842 42.9997C15.5559 42.0511 15.1849 40.3328 15.2811 38.3258C12.7113 39.2743 10.1964 39.0269 8.3 37.6248C6.12872 36.0027 5.77142 33.1159 7.39301 30.2429C8.89091 27.6035 12.1753 26.6413 14.8825 26.1051C16.2018 25.844 18.3731 25.624 20.1321 25.4453H20.3107C21.0803 25.3491 21.9461 25.2666 22.6194 25.1841C21.7124 24.868 19.9534 24.4418 17.9196 24.0569C16.1331 23.672 11.7081 22.586 9.09705 20.6203C7.72282 19.5618 6.81583 17.7335 6.71964 15.8365C6.65093 14.2144 7.18687 12.7298 8.19006 11.7675C10.3338 9.73301 12.9449 10.1729 15.3085 11.0252C15.4047 8.34461 17.4386 6.04893 19.019 5.49907C20.7092 4.92172 24.1586 4.92172 26.3711 8.56455C28.5561 12.1661 27.5529 17.0599 27.0169 19.0119C26.6596 20.3316 26.3985 21.7887 26.2886 22.7647C26.5085 22.3523 26.8246 21.7063 27.333 20.6478L27.4704 20.3728C28.5148 18.1734 30.8373 14.3106 34.6576 13.1284C38.5192 11.9462 40.8416 13.912 42.1059 15.7815C43.5214 17.8985 43.329 20.2354 41.5975 22.1461C43.2878 22.4348 46.1324 23.3008 46.5447 26.6688C47.0257 30.4903 45.3628 32.2499 40.6218 32.9509C40.2782 33.0059 39.9072 33.0197 39.4262 33.0197C35.6746 32.9234 31.6618 30.1604 29.2707 28.497L29.4768 28.1396L29.2432 28.4833L29.0233 28.3321C28.611 28.0572 28.295 27.8235 28.0476 27.686C27.9239 27.6173 27.8003 27.5485 27.6903 27.4798C29.0645 29.4043 31.2908 32.3186 33.4895 34.1331C37.0625 37.1024 41.6662 38.6283 41.8586 38.697C42.0372 38.7382 42.2296 38.9169 42.2708 39.1369C42.3121 39.2881 42.3945 39.8929 41.8723 40.8552C41.4188 41.7075 40.8829 42.0236 40.5943 42.1336C40.4843 42.1749 40.292 42.1886 40.182 42.1336L40.0858 42.1061C40.0309 42.0786 34.6851 39.1919 31.2633 35.7277C29.8341 34.2706 28.4049 32.4698 26.9895 30.3528C26.9895 30.3941 27.0032 30.4216 27.0169 30.4628L27.1544 31.0951C27.2093 31.3151 27.2506 31.5488 27.3193 31.7962C27.8552 34.1194 28.5148 36.9924 27.2506 40.5803C26.1512 43.7145 23.8425 45.3641 20.5856 45.3641L20.5718 45.3778ZM15.7346 37.2811C15.817 37.2811 15.8995 37.3086 15.9819 37.3636C16.1056 37.446 16.1606 37.5973 16.1468 37.7347C15.9544 39.783 16.2568 41.6113 16.9301 42.491C17.6447 43.412 18.8403 44.5118 20.4481 44.5393C23.4852 44.5668 25.4916 43.0821 26.4673 40.3053C27.6491 36.9512 27.0169 34.2019 26.5085 31.9887C26.4535 31.7412 26.3985 31.5075 26.3436 31.2738L26.2062 30.6278C26.1512 30.3803 26.11 30.1329 26.055 29.8992L25.7252 28.3183C25.6839 28.1259 25.7939 27.9197 25.9725 27.851C26.1649 27.7822 26.3711 27.851 26.481 28.0159C28.2537 30.9164 30.0677 33.3221 31.868 35.1504C34.96 38.2846 39.701 40.9377 40.3881 41.3226C40.5531 41.2263 40.8691 41.0064 41.1577 40.4565C41.4463 39.9342 41.4875 39.5768 41.4875 39.4118C40.5668 39.0956 36.3342 37.5423 32.9673 34.7517C30.2189 32.4698 27.5117 28.7032 26.1374 26.6688C26.0412 26.5175 26.0412 26.3251 26.1512 26.1876C26.2611 26.0502 26.4398 25.9952 26.6047 26.0502C27.0857 26.2151 27.7178 26.5175 28.4599 26.9712C28.7072 27.1086 29.0508 27.3423 29.4768 27.6448L29.6967 27.796L29.7242 27.8235C31.8817 29.3218 35.9219 32.0986 39.4125 32.1949C39.8522 32.1949 40.182 32.1811 40.4843 32.1261C44.7719 31.4938 46.1324 30.0779 45.7201 26.7512C45.3354 23.7132 42.6419 23.0672 40.6493 22.8335C40.4843 22.8197 40.3469 22.7097 40.3057 22.5448C40.2507 22.3936 40.3057 22.2149 40.4294 22.1186C42.3945 20.3728 42.7518 18.2284 41.4051 16.2214C39.7972 13.8432 37.5985 13.0734 34.8913 13.8982C31.3595 14.9842 29.1882 18.627 28.1988 20.7028L28.0751 20.9639C26.852 23.5208 26.6871 23.8507 26.055 24.2769C25.945 24.3456 25.8076 24.3731 25.6839 24.3181C25.5603 24.2769 25.4641 24.1669 25.4366 24.0432C25.2717 23.3971 25.7252 20.6065 26.2199 18.7782C26.6184 17.3486 27.7453 12.3998 25.6565 8.97695C23.7051 5.774 20.723 5.774 19.2663 6.26888C17.8509 6.75001 15.9132 9.05943 16.1193 11.575C16.1193 11.7125 16.0644 11.85 15.9544 11.9325C15.8445 12.0149 15.6933 12.0424 15.5559 11.9874C13.1785 11.0664 10.7186 10.4616 8.73975 12.3449C7.90147 13.1422 7.46172 14.3931 7.51669 15.7815C7.59914 17.4448 8.38245 19.0394 9.56428 19.9467C12.0516 21.8162 16.3255 22.8747 18.057 23.2459C19.5274 23.5345 23.0317 24.2494 23.7188 24.813C23.9249 24.9642 24.0211 25.0742 24.0761 25.1566C24.1586 25.2666 24.1723 25.4041 24.1311 25.5278C24.0898 25.6515 23.9936 25.7477 23.87 25.789C23.444 25.9264 22.2072 26.0502 20.352 26.2426H20.187C18.4555 26.4351 16.298 26.6688 15.02 26.9162C12.4914 27.4248 9.41312 28.3046 8.08012 30.6415C6.67841 33.1296 6.95326 35.604 8.76723 36.9512C10.6087 38.3121 13.0136 38.4358 15.5559 37.3086C15.6109 37.2811 15.6658 37.2673 15.7208 37.2673L15.7346 37.2811ZM41.5975 39.4668C41.5975 39.4668 41.625 39.4668 41.6524 39.4805C41.6524 39.4805 41.625 39.4805 41.5975 39.4668Z" fill="#F9D96C"/>
<path d="M24.7357 114C18.7304 114 11.8867 109.67 9.22072 107.8C8.69851 107.443 8.54735 106.742 8.84968 106.192L13.5358 97.793C13.7144 97.4768 14.003 97.2706 14.3466 97.1882C14.6901 97.1194 15.0612 97.1882 15.336 97.4081L16.2155 98.0817C19.6786 100.666 22.4682 101.931 24.7082 101.931C28.5835 101.931 30.2738 101.051 30.9472 100.529C31.332 100.226 31.7443 99.8 31.7443 98.659C31.7443 97.3806 31.7443 94.9887 24.5433 91.7583C17.4798 88.5966 10.5812 84.6651 10.5812 74.5888C10.5812 67.3444 15.7345 60.0312 27.2368 60.0312C32.9948 60.0312 38.0932 61.5021 42.3808 64.4164C42.9305 64.7876 43.0816 65.5161 42.7381 66.0797L37.4198 74.6163C37.0763 75.1662 36.3617 75.3587 35.7982 75.0425L35.6196 74.9463C33.943 73.9428 30.1089 72.087 27.2506 72.087C25.1892 72.087 23.7738 72.4031 23.0592 73.008C22.7431 73.2692 22.3171 73.9428 22.3171 74.6713C22.3171 76.5271 22.3171 77.5581 29.3119 80.6923C35.4409 83.4416 43.6038 88.2804 43.6038 98.6453C43.6038 103.292 41.6799 107.347 38.1756 110.096C34.8775 112.681 30.3563 113.986 24.722 113.986L24.7357 114ZM11.5569 106.412C14.1954 108.158 19.9534 111.54 24.7357 111.54C29.8066 111.54 33.8193 110.412 36.664 108.172C39.5636 105.903 41.1577 102.522 41.1577 98.6453C41.1577 89.71 33.8331 85.4074 28.3224 82.933C21.4513 79.8538 19.8847 78.3004 19.8847 74.6713C19.8847 73.1455 20.6955 71.7846 21.4925 71.1247C22.6881 70.1212 24.5708 69.6263 27.2643 69.6263C30.2189 69.6263 33.8056 71.1385 35.9769 72.3069L40.0308 65.7911C36.3754 63.5779 32.0741 62.4644 27.2643 62.4644C17.4523 62.4644 13.0548 68.5404 13.0548 74.5751C13.0548 83.2079 18.7166 86.4384 25.5603 89.5038C31.703 92.2669 34.2041 94.9062 34.2041 98.6453C34.2041 100.817 33.2147 101.862 32.4726 102.439C30.851 103.718 28.24 104.364 24.722 104.364C21.9873 104.364 18.7991 103.003 14.9925 100.199L11.5294 106.385L11.5569 106.412ZM200.059 113.368H172.644C171.97 113.368 171.421 112.818 171.421 112.144V63.1655C171.421 62.4919 171.97 61.942 172.644 61.942H200.059C200.733 61.942 201.282 62.4919 201.282 63.1655V72.788C201.282 73.4616 200.733 74.0115 200.059 74.0115H183.404C183.404 74.0115 183.266 74.0527 183.266 74.149V80.1699C183.266 80.2387 183.335 80.3074 183.404 80.3074H197.957C198.63 80.3074 199.18 80.8573 199.18 81.5309V91.1534C199.18 91.827 198.63 92.3769 197.957 92.3769H183.404C183.404 92.3769 183.266 92.4181 183.266 92.5143V101.133C183.266 101.216 183.335 101.271 183.404 101.271H200.059C200.733 101.271 201.282 101.821 201.282 102.494V112.117C201.282 112.79 200.733 113.34 200.059 113.34V113.368ZM173.867 110.921H198.823V103.745H183.39C181.961 103.745 180.806 102.577 180.806 101.161V92.5418C180.806 91.1122 181.975 89.9575 183.39 89.9575H196.72V82.7818H183.39C181.961 82.7818 180.806 81.6133 180.806 80.1974V74.1764C180.806 72.7468 181.975 71.5921 183.39 71.5921H198.823V64.4164H173.867V110.948V110.921ZM165.951 113.368H154.985C154.545 113.368 154.146 113.134 153.927 112.763L143.799 95.6073C143.799 95.6073 143.661 95.6073 143.606 95.6073C143.592 95.6073 143.579 95.6073 143.579 95.6073L139.442 101.642L139.415 112.131C139.415 112.804 138.865 113.354 138.192 113.354H128.806C128.132 113.354 127.583 112.804 127.583 112.131V63.1517C127.583 62.4781 128.132 61.9283 128.806 61.9283H138.192C138.865 61.9283 139.415 62.4781 139.415 63.1517V80.115C139.415 80.115 139.456 80.2387 139.525 80.2524C139.607 80.2524 139.648 80.2249 139.69 80.1837L151.797 62.4506C152.03 62.1207 152.401 61.9145 152.813 61.9145H164.275C164.728 61.9145 165.14 62.162 165.36 62.5744C165.566 62.973 165.539 63.4679 165.291 63.839L151.164 84.4864C151.164 84.4864 151.137 84.5826 151.164 84.6376L167.009 111.498C167.229 111.883 167.243 112.351 167.009 112.736C166.776 113.12 166.377 113.354 165.937 113.354L165.951 113.368ZM155.686 110.921H163.794L149.048 85.9023C148.54 85.05 148.567 83.964 149.117 83.1392L161.938 64.3889H153.446L141.696 81.5996C141.201 82.3007 140.404 82.7268 139.552 82.7268C139.264 82.7268 139.003 82.6856 138.769 82.6031C137.697 82.2732 136.969 81.2697 136.969 80.1287V64.3889H130.029V110.921H136.969V101.725C136.969 101.202 137.134 100.694 137.436 100.254L141.559 94.2327C142.012 93.5316 142.809 93.0917 143.689 93.0917C144.651 93.1192 145.475 93.6003 145.915 94.3701L155.686 110.921ZM122.952 113.368H113.057C112.521 113.368 112.054 113.024 111.889 112.516L108.934 103.388C108.934 103.388 108.866 103.292 108.811 103.292H93.6119C93.6119 103.292 93.5019 103.333 93.4745 103.402L90.5199 112.502C90.355 113.01 89.8877 113.354 89.3518 113.354H79.4711C79.0726 113.354 78.7153 113.162 78.4817 112.845C78.248 112.529 78.1793 112.117 78.303 111.746L94.1891 62.7393C94.354 62.2307 94.8212 61.887 95.3571 61.887H107.066C107.601 61.887 108.069 62.2307 108.234 62.7393L124.133 111.746C124.257 112.117 124.188 112.529 123.955 112.845C123.721 113.162 123.35 113.354 122.965 113.354L122.952 113.368ZM113.95 110.921H121.261L106.159 64.3614H96.2366L81.1477 110.921H88.4585L91.1383 102.646C91.5093 101.573 92.4988 100.858 93.5981 100.858H108.797C109.938 100.858 110.927 101.587 111.257 102.659L113.937 110.921H113.95ZM68.5872 113.368H59.2013C58.5279 113.368 57.9782 112.818 57.9782 112.144V74.149C57.9782 74.0527 57.9095 74.0115 57.8408 74.0115H46.9844C46.3111 74.0115 45.7614 73.4616 45.7614 72.788V63.1655C45.7614 62.4919 46.3111 61.942 46.9844 61.942H80.8041C81.4775 61.942 82.0272 62.4919 82.0272 63.1655V72.788C82.0272 73.4616 81.4775 74.0115 80.8041 74.0115H69.9477C69.9477 74.0115 69.8103 74.0527 69.8103 74.149V112.144C69.8103 112.818 69.2606 113.368 68.5872 113.368ZM60.4106 110.921H67.3504V74.1627C67.3504 72.7331 68.5185 71.5784 69.934 71.5784H79.5536V64.4027H48.18V71.5784H57.7996C59.2288 71.5784 60.3831 72.7468 60.3831 74.1627V110.921H60.4106ZM234.951 107.869C231.295 107.869 228.657 105.986 227.448 102.577C226.513 99.9375 226.582 97.6281 226.884 95.7035C226.197 96.5696 225.496 97.3531 224.795 98.0542C221.305 101.587 215.877 104.515 215.822 104.543C215.726 104.584 215.588 104.639 215.492 104.653C215.368 104.694 215.313 104.68 215.176 104.694C215.08 104.694 214.983 104.694 214.887 104.666C214.777 104.639 214.667 104.611 214.557 104.556C213.953 104.295 213.389 103.732 212.963 102.962C212.317 101.752 212.427 100.941 212.496 100.652C212.592 100.144 213.032 99.7175 213.582 99.6076C213.582 99.6076 218.048 98.1367 221.47 95.2774C222.336 94.5626 223.215 93.669 224.04 92.7205C221.717 94.1502 218.886 95.5523 216.138 95.6211C215.602 95.6211 215.203 95.5936 214.819 95.5386C211.177 95.0025 207.563 93.724 208.236 88.3904C208.552 85.9297 210.009 84.2939 212.592 83.5104C211.397 81.5446 211.438 79.2764 212.785 77.2419C214.777 74.3139 217.718 73.2554 221.085 74.2727C223.847 75.1112 225.867 77.2557 227.228 79.2627C226.761 76.6233 226.623 73.008 228.382 70.1212C230.856 66.066 234.731 66.0797 236.641 66.7396C238.428 67.3307 240.255 69.4339 240.75 71.9083C243.004 71.2484 245.546 71.111 247.676 73.1317C248.858 74.2589 249.476 75.9635 249.394 77.8055C249.298 79.9225 248.267 81.9707 246.714 83.1529C244.103 85.1187 239.912 86.2322 237.658 86.7133C237.631 86.7133 237.617 86.7133 237.589 86.727C238.799 86.8645 239.843 87.002 240.654 87.1532C243.512 87.7305 247.003 88.7615 248.638 91.6621C250.425 94.8375 249.971 98.2054 247.511 100.034C245.67 101.395 243.334 101.793 240.915 101.188C240.846 102.893 240.434 104.295 239.747 105.202C239.005 106.178 237.397 107.828 234.992 107.869H234.951ZM229.962 89.0227C230.402 89.2839 230.636 89.8063 230.526 90.3286L230.196 91.882C230.155 92.1019 230.1 92.3631 230.045 92.6243L229.894 93.3116C229.839 93.5453 229.798 93.779 229.729 94.0127C229.234 96.1847 228.657 98.6865 229.756 101.793C230.622 104.213 232.326 105.45 234.841 105.45H234.868C236.298 105.422 237.301 104.364 237.782 103.732C238.222 103.154 238.593 101.656 238.414 99.5801C238.373 99.1402 238.565 98.7278 238.922 98.4666C239.28 98.2192 239.733 98.1642 240.132 98.3429C242.358 99.3464 244.447 99.2501 246.027 98.0817C247.498 96.982 247.663 94.9887 246.481 92.8855C245.34 90.851 242.509 90.0537 240.159 89.5863C238.909 89.3389 236.71 89.1189 235.088 88.954L234.786 88.9265C232.752 88.7203 231.735 88.6103 231.268 88.4591C230.883 88.3354 230.595 88.033 230.471 87.6618C230.347 87.2769 230.43 86.8645 230.663 86.5483C230.773 86.4109 230.911 86.2597 231.144 86.081C231.667 85.6548 232.793 85.2424 237.026 84.3764C238.785 84.0052 242.894 82.988 245.216 81.2422C246.192 80.4999 246.865 79.1252 246.92 77.7368C246.975 76.6096 246.618 75.5923 245.958 74.96C244.625 73.6953 242.963 73.6403 240.049 74.7813C239.651 74.9325 239.211 74.8775 238.867 74.6163C238.524 74.3689 238.345 73.9565 238.373 73.5304C238.538 71.4409 236.944 69.4889 235.817 69.104C235.679 69.049 232.519 68.018 230.43 71.4409C228.616 74.4239 229.509 78.7815 229.962 80.5274C230.279 81.6683 231.034 85.1599 230.732 86.1909C230.622 86.5621 230.334 86.8645 229.976 87.002C229.605 87.1257 229.193 87.0845 228.877 86.8645C228.052 86.3146 227.832 85.8473 226.596 83.2629L226.458 82.9467C225.551 81.0497 223.504 77.6406 220.329 76.6783C217.979 75.9635 216.165 76.6096 214.777 78.6578C213.692 80.2799 213.994 81.9845 215.629 83.4279C215.987 83.744 216.138 84.2527 215.987 84.72C215.835 85.1874 215.437 85.5173 214.956 85.5723C212.166 85.8885 210.874 86.837 210.641 88.7478C210.325 91.2909 210.888 92.5281 215.148 93.1604C215.451 93.2017 215.767 93.2154 216.083 93.2154C219.257 93.1329 223.119 90.4798 225.194 89.0502C225.799 88.6241 226.238 88.3216 226.554 88.1429C227.393 87.6481 228.039 87.3319 228.561 87.1669C229.055 87.0157 229.605 87.1807 229.921 87.5931C230.237 88.0055 230.251 88.5828 229.949 89.0227C229.949 89.0365 229.921 89.0502 229.908 89.0777L229.962 89.0227ZM215.066 101.67C215.066 101.67 215.107 101.752 215.135 101.807C215.19 101.903 215.231 101.986 215.286 102.054C215.849 101.738 216.77 101.188 217.842 100.474C216.715 101.023 215.739 101.422 215.066 101.683V101.67ZM214.338 101.931C214.228 101.972 214.159 101.986 214.145 101.986C214.214 101.986 214.269 101.958 214.338 101.931ZM104.784 93.6828H97.5971C96.7726 93.6828 95.9893 93.2841 95.5083 92.6243C95.0136 91.9507 94.8762 91.0984 95.1373 90.3011L98.7377 79.2214C99.0813 78.1492 100.071 77.4344 101.198 77.4344C102.324 77.4344 103.286 78.1492 103.657 79.2077L107.244 90.3011C107.505 91.1122 107.368 91.9507 106.873 92.6243C106.392 93.2841 105.609 93.6828 104.784 93.6828ZM101.211 79.8813C101.211 79.8813 101.101 79.9088 101.088 79.9637L97.4872 91.0435L97.6109 91.2222H104.798L106.09 90.6586L104.922 91.0297L101.335 79.9637C101.335 79.9637 101.266 79.8675 101.211 79.8675V79.8813Z" fill="#44290E"/>
<path d="M229.261 86.6713C230.168 86.1352 230.704 85.9015 231.048 85.7916C229.605 87.9223 226.925 91.6063 224.287 93.792C220.617 96.8575 215.835 98.4109 215.78 98.4246C215.711 98.4384 215.656 98.4934 215.643 98.5621C215.643 98.6171 215.533 99.1257 216 100.005C216.481 100.885 217.017 101.078 217.072 101.105C217.099 101.105 217.113 101.119 217.141 101.119C217.182 101.105 217.209 101.105 217.237 101.091C217.292 101.064 222.596 98.1909 225.949 94.7955C228.272 92.4311 230.196 89.5444 231.391 87.5924C231.295 88.046 231.185 88.5684 231.062 89.1595C230.993 89.5169 230.91 89.888 230.828 90.2867C230.759 90.5891 230.69 90.919 230.608 91.2489C230.086 93.5171 229.44 96.3351 230.663 99.7993C231.721 102.769 233.906 104.322 236.998 104.308H237.081C238.977 104.267 240.296 102.906 240.915 102.095C241.657 101.133 241.987 99.2219 241.794 97.05C244.433 98.2322 247.03 98.0947 248.981 96.6513C250.974 95.1667 251.29 92.4861 249.778 89.8055C248.377 87.3037 245.189 86.3964 242.578 85.874C241.3 85.6266 239.211 85.4067 237.355 85.2142C235.871 85.063 234.181 84.898 233.755 84.7606C233.796 84.7056 233.879 84.6231 234.044 84.4856C234.648 83.9908 238.331 83.2484 239.54 83.001C240.887 82.7123 245.505 81.6538 248.184 79.6331C249.462 78.6571 250.314 76.9388 250.397 75.1655C250.466 73.6534 249.971 72.2924 249.05 71.4127C246.948 69.4194 244.337 69.983 241.794 70.9728C242.014 68.251 239.98 65.7766 238.372 65.2405C236.806 64.7043 233.576 64.7181 231.501 68.1272C229.412 71.5639 230.388 76.3477 230.897 78.2447C231.446 80.2654 231.817 82.8223 231.68 83.2897C231.13 82.9185 230.979 82.6024 229.797 80.1417L229.687 79.8805C228.657 77.7361 226.389 73.9695 222.734 72.8561C219.092 71.7563 216.934 73.5984 215.753 75.3442C214.31 77.5161 214.708 79.908 216.811 81.7776C214.626 82.025 211.781 82.7673 211.369 86.0527C210.915 89.6268 212.427 91.2077 216.962 91.8813C217.333 91.9363 217.704 91.95 218.089 91.95C221.731 91.8538 225.771 89.0495 228.052 87.4824C228.56 87.125 228.973 86.8363 229.261 86.6713ZM102.242 76.0865C101.637 76.0865 101.115 76.4714 100.936 77.035L97.3082 88.1972C97.1708 88.6233 97.2395 89.077 97.5006 89.4344C97.7617 89.7918 98.174 89.998 98.6137 89.998H105.856C106.296 89.998 106.708 89.7918 106.969 89.4344C107.23 89.077 107.299 88.6233 107.161 88.1972L103.547 77.035C103.355 76.4714 102.833 76.0865 102.242 76.0865ZM114.184 109.848L111.202 100.652C111.023 100.088 110.501 99.7031 109.896 99.7031H94.5735C93.9826 99.7031 93.4604 100.088 93.268 100.652L90.2859 109.848H80.3228L96.3325 60.4429H108.137L124.161 109.848H114.184ZM25.1614 110.48C19.3072 110.48 12.3399 105.93 10.2373 104.459L14.9646 95.9915L15.8579 96.6651C19.582 99.4419 22.6191 100.789 25.1614 100.789C29.2291 100.789 31.2355 99.8818 32.2112 99.1119C32.8021 98.6446 33.4892 97.9023 33.4892 96.2527C33.4892 93.9158 32.5135 91.3177 25.5049 88.1697C18.4689 85.0217 12.1612 81.4201 12.1612 71.99C12.1612 65.2955 16.971 58.5459 27.7174 58.5459C33.2831 58.5459 38.1753 59.9618 42.2842 62.7523L36.9248 71.3577L36.7461 71.2615C34.8909 70.148 30.8644 68.2372 27.7174 68.2372C25.3126 68.2372 23.6635 68.6359 22.6878 69.4607C22.1244 69.928 21.5059 70.959 21.5059 72.0862C21.5059 74.7806 22.1793 76.1002 29.2841 79.2894C35.152 81.915 42.9576 86.5201 42.9576 96.2527C42.9576 100.542 41.1849 104.294 37.9554 106.824C34.8497 109.257 30.5483 110.48 25.1614 110.48ZM156.455 109.848L146.244 92.5549C146.011 92.1562 145.585 91.895 145.117 91.8813H145.063C144.609 91.8813 144.183 92.1012 143.936 92.4861L139.772 98.5758C139.607 98.8095 139.524 99.0707 139.524 99.3456V109.848H130.056V60.4704H139.524V77.5711C139.524 78.176 139.923 78.7121 140.5 78.8908C140.624 78.932 140.761 78.9458 140.899 78.9458C141.352 78.9458 141.778 78.7258 142.039 78.3547L154.256 60.4704H165.813L151.576 81.2827C151.288 81.7226 151.26 82.2999 151.535 82.7673L167.504 109.848H156.455ZM174.251 109.848V60.4704H201.887V70.1755H185.094C184.338 70.1755 183.719 70.7803 183.719 71.5501V77.6261C183.719 78.3822 184.338 79.0008 185.094 79.0008H199.77V88.7058H185.094C184.338 88.7058 183.719 89.3107 183.719 90.0805V98.7683C183.719 99.5381 184.338 100.143 185.094 100.143H201.887V109.848H174.251ZM59.8881 109.848V71.5501C59.8881 70.7803 59.2697 70.1755 58.5138 70.1755H47.575V60.4704H81.6695V70.1755H70.7307C69.9749 70.1755 69.3565 70.7803 69.3565 71.5501V109.848H59.8881Z" fill="#EAAE56"/>
<path d="M229.261 86.6713C230.168 86.1352 230.704 85.9015 231.048 85.7916C229.605 87.9223 226.925 91.6063 224.287 93.792C220.617 96.8575 215.835 98.4109 215.78 98.4246C215.711 98.4384 215.656 98.4934 215.643 98.5621C215.643 98.6171 215.533 99.1257 216 100.005C216.481 100.885 217.017 101.078 217.072 101.105C217.099 101.105 217.113 101.119 217.141 101.119C217.182 101.105 217.209 101.105 217.237 101.091C217.292 101.064 222.596 98.1909 225.949 94.7955C228.272 92.4311 230.196 89.5444 231.391 87.5924C231.295 88.046 231.185 88.5684 231.062 89.1595C230.993 89.5169 230.91 89.888 230.828 90.2867C230.759 90.5891 230.69 90.919 230.608 91.2489C230.086 93.5171 229.44 96.3351 230.663 99.7993C231.721 102.769 233.906 104.322 236.998 104.308H237.081C238.977 104.267 240.296 102.906 240.915 102.095C241.657 101.133 241.987 99.2219 241.794 97.05C244.433 98.2322 247.03 98.0947 248.981 96.6513C250.974 95.1667 251.29 92.4861 249.778 89.8055C248.377 87.3037 245.189 86.3964 242.578 85.874C241.3 85.6266 239.211 85.4067 237.355 85.2142C235.871 85.063 234.181 84.898 233.755 84.7606C233.796 84.7056 233.879 84.6231 234.044 84.4856C234.648 83.9908 238.331 83.2484 239.54 83.001C240.887 82.7123 245.505 81.6538 248.184 79.6331C249.462 78.6571 250.314 76.9388 250.397 75.1655C250.466 73.6534 249.971 72.2924 249.05 71.4127C246.948 69.4194 244.337 69.983 241.794 70.9728C242.014 68.251 239.98 65.7766 238.372 65.2405C236.806 64.7043 233.576 64.7181 231.501 68.1272C229.412 71.5639 230.388 76.3477 230.897 78.2447C231.446 80.2654 231.817 82.8223 231.68 83.2897C231.13 82.9185 230.979 82.6024 229.797 80.1417L229.687 79.8805C228.657 77.7361 226.389 73.9695 222.734 72.8561C219.092 71.7563 216.934 73.5984 215.753 75.3442C214.31 77.5161 214.708 79.908 216.811 81.7776C214.626 82.025 211.781 82.7673 211.369 86.0527C210.915 89.6268 212.427 91.2077 216.962 91.8813C217.333 91.9363 217.704 91.95 218.089 91.95C221.731 91.8538 225.771 89.0495 228.052 87.4824C228.56 87.125 228.973 86.8363 229.261 86.6713ZM102.242 76.0865C101.637 76.0865 101.115 76.4714 100.936 77.035L97.3082 88.1972C97.1708 88.6233 97.2395 89.077 97.5006 89.4344C97.7617 89.7918 98.174 89.998 98.6137 89.998H105.856C106.296 89.998 106.708 89.7918 106.969 89.4344C107.23 89.077 107.299 88.6233 107.161 88.1972L103.547 77.035C103.355 76.4714 102.833 76.0865 102.242 76.0865ZM114.184 109.848L111.202 100.652C111.023 100.088 110.501 99.7031 109.896 99.7031H94.5735C93.9826 99.7031 93.4604 100.088 93.268 100.652L90.2859 109.848H80.3228L96.3325 60.4429H108.137L124.161 109.848H114.184ZM25.1614 110.48C19.3072 110.48 12.3399 105.93 10.2373 104.459L14.9646 95.9915L15.8579 96.6651C19.582 99.4419 22.6191 100.789 25.1614 100.789C29.2291 100.789 31.2355 99.8818 32.2112 99.1119C32.8021 98.6446 33.4892 97.9023 33.4892 96.2527C33.4892 93.9158 32.5135 91.3177 25.5049 88.1697C18.4689 85.0217 12.1612 81.4201 12.1612 71.99C12.1612 65.2955 16.971 58.5459 27.7174 58.5459C33.2831 58.5459 38.1753 59.9618 42.2842 62.7523L36.9248 71.3577L36.7461 71.2615C34.8909 70.148 30.8644 68.2372 27.7174 68.2372C25.3126 68.2372 23.6635 68.6359 22.6878 69.4607C22.1244 69.928 21.5059 70.959 21.5059 72.0862C21.5059 74.7806 22.1793 76.1002 29.2841 79.2894C35.152 81.915 42.9576 86.5201 42.9576 96.2527C42.9576 100.542 41.1849 104.294 37.9554 106.824C34.8497 109.257 30.5483 110.48 25.1614 110.48ZM156.455 109.848L146.244 92.5549C146.011 92.1562 145.585 91.895 145.117 91.8813H145.063C144.609 91.8813 144.183 92.1012 143.936 92.4861L139.772 98.5758C139.607 98.8095 139.524 99.0707 139.524 99.3456V109.848H130.056V60.4704H139.524V77.5711C139.524 78.176 139.923 78.7121 140.5 78.8908C140.624 78.932 140.761 78.9458 140.899 78.9458C141.352 78.9458 141.778 78.7258 142.039 78.3547L154.256 60.4704H165.813L151.576 81.2827C151.288 81.7226 151.26 82.2999 151.535 82.7673L167.504 109.848H156.455ZM174.251 109.848V60.4704H201.887V70.1755H185.094C184.338 70.1755 183.719 70.7803 183.719 71.5501V77.6261C183.719 78.3822 184.338 79.0008 185.094 79.0008H199.77V88.7058H185.094C184.338 88.7058 183.719 89.3107 183.719 90.0805V98.7683C183.719 99.5381 184.338 100.143 185.094 100.143H201.887V109.848H174.251ZM59.8881 109.848V71.5501C59.8881 70.7803 59.2697 70.1755 58.5138 70.1755H47.575V60.4704H81.6695V70.1755H70.7307C69.9749 70.1755 69.3565 70.7803 69.3565 71.5501V109.848H59.8881Z" fill="#E1B165"/>
<path d="M24.9011 111.168C19.0057 111.168 12.2308 106.866 9.57851 105.024C9.28992 104.818 9.19373 104.433 9.37238 104.13L14.0997 95.6624C14.1959 95.4837 14.3608 95.3599 14.5532 95.3187C14.7456 95.2775 14.9517 95.3187 15.1029 95.4424L15.9961 96.116C19.5966 98.7966 22.4962 100.103 24.8874 100.103C28.7627 100.103 30.6316 99.2777 31.5111 98.5766C32.0333 98.1642 32.5281 97.5869 32.5281 96.2535C32.5281 94.1502 31.6073 91.7858 24.9561 88.8028C17.7139 85.5587 11.2138 81.8333 11.2138 71.9908C11.2138 64.9526 16.2298 57.8594 27.4572 57.8594C33.1602 57.8594 38.1899 59.3165 42.4087 62.1895C42.7111 62.3957 42.8073 62.8081 42.6011 63.1243L37.2417 71.7296C37.0493 72.0458 36.6507 72.142 36.3347 71.9771L36.156 71.8809C34.4382 70.8499 30.453 68.9391 27.4572 68.9391C25.2447 68.9391 23.7055 69.2965 22.8673 69.9976C22.4138 70.3825 21.9328 71.2348 21.9328 72.1008C21.9328 74.369 22.2351 75.4962 29.3124 78.6716C35.359 81.3797 43.3982 86.1498 43.3982 96.2672C43.3982 100.776 41.5292 104.721 38.1349 107.374C34.9192 109.904 30.4667 111.182 24.9149 111.182L24.9011 111.168ZM10.884 104.254C13.3576 105.917 19.6516 109.794 24.9011 109.794C30.1507 109.794 34.3008 108.612 37.2691 106.288C40.3199 103.897 42.0102 100.336 42.0102 96.2535C42.0102 86.9333 34.4382 82.4657 28.749 79.9226C21.6992 76.7609 20.5586 75.2625 20.5586 72.087C20.5586 70.7261 21.2732 69.5164 21.9878 68.9253C23.0871 67.9906 24.8736 67.5507 27.4572 67.5507C30.5354 67.5507 34.3695 69.269 36.4309 70.4375L41.0895 62.9593C37.2142 60.485 32.6243 59.234 27.4572 59.234C17.1917 59.234 12.5881 65.6399 12.5881 71.9908C12.5881 81.0086 18.7034 84.4864 25.5195 87.5382C32.8991 90.8511 33.916 93.6829 33.916 96.2535C33.916 98.2055 33.0365 99.1265 32.3769 99.6489C31.3188 100.487 29.1612 101.477 24.9011 101.477C22.2076 101.477 19.0332 100.089 15.1853 97.2157L14.9242 97.0095L10.884 104.24V104.254ZM201.626 110.536H173.991C173.606 110.536 173.304 110.234 173.304 109.849V60.4712C173.304 60.0863 173.606 59.7839 173.991 59.7839H201.626C202.011 59.7839 202.314 60.0863 202.314 60.4712V70.1763C202.314 70.5612 202.011 70.8636 201.626 70.8636H184.833C184.449 70.8636 184.146 71.166 184.146 71.5509V77.6269C184.146 78.0118 184.449 78.3142 184.833 78.3142H199.51C199.895 78.3142 200.197 78.6167 200.197 79.0016V88.7066C200.197 89.0915 199.895 89.3939 199.51 89.3939H184.833C184.449 89.3939 184.146 89.6964 184.146 90.0813V98.7691C184.146 99.154 184.449 99.4564 184.833 99.4564H201.626C202.011 99.4564 202.314 99.7588 202.314 100.144V109.849C202.314 110.234 202.011 110.536 201.626 110.536ZM174.678 109.161H200.939V100.831H184.833C183.693 100.831 182.772 99.9101 182.772 98.7691V90.0813C182.772 88.9403 183.693 88.0193 184.833 88.0193H198.823V79.6889H184.833C183.693 79.6889 182.772 78.7679 182.772 77.6269V71.5509C182.772 70.41 183.693 69.489 184.833 69.489H200.939V61.1585H174.678V109.161ZM167.243 110.536H156.195C155.947 110.536 155.727 110.412 155.604 110.192L145.393 92.8993C145.269 92.6931 145.063 92.5694 144.843 92.5694C144.582 92.5694 144.376 92.6794 144.266 92.8581L140.089 98.9615C140.006 99.0853 139.965 99.209 139.965 99.3464V109.849C139.965 110.234 139.663 110.536 139.278 110.536H129.809C129.425 110.536 129.122 110.234 129.122 109.849V60.4712C129.122 60.0863 129.425 59.7839 129.809 59.7839H139.278C139.663 59.7839 139.965 60.0863 139.965 60.4712V77.5719C139.965 77.8743 140.171 78.1493 140.46 78.2318C140.57 78.273 141.037 78.2318 141.229 77.9568L153.432 60.0863C153.556 59.8939 153.776 59.7839 153.996 59.7839H165.553C165.814 59.7839 166.048 59.9214 166.158 60.155C166.281 60.375 166.268 60.6499 166.116 60.8699L151.88 81.6821C151.742 81.9021 151.728 82.2045 151.866 82.4244L167.834 109.505C167.958 109.711 167.958 109.986 167.834 110.192C167.711 110.412 167.491 110.536 167.243 110.536ZM156.593 109.161H166.048L150.684 83.1118C150.285 82.4382 150.313 81.5584 150.739 80.8986L164.248 61.1448H154.353L142.342 78.7266C141.944 79.2902 141.312 79.6202 140.638 79.6202C140.405 79.6202 140.199 79.5927 140.02 79.5239C139.182 79.2627 138.577 78.4517 138.577 77.5582V61.1448H130.483V109.148H138.577V99.3327C138.577 98.9203 138.701 98.5217 138.948 98.1642L143.112 92.0745C143.469 91.5109 144.115 91.1673 144.802 91.1673C145.572 91.181 146.218 91.5796 146.575 92.1845L156.579 109.134L156.593 109.161ZM123.9 110.536H113.923C113.621 110.536 113.36 110.344 113.264 110.055L110.282 100.859C110.186 100.57 109.924 100.391 109.636 100.391H94.3132C94.0246 100.391 93.7498 100.584 93.6536 100.872L90.6715 110.055C90.5753 110.344 90.3142 110.536 90.0119 110.536H80.0488C79.8289 110.536 79.6228 110.426 79.4991 110.247C79.3754 110.069 79.3342 109.835 79.4029 109.629L95.4126 60.2238C95.5088 59.9351 95.7699 59.7427 96.0722 59.7427H107.877C108.179 59.7427 108.44 59.9351 108.536 60.2238L124.56 109.629C124.629 109.835 124.587 110.069 124.464 110.247C124.34 110.426 124.134 110.536 123.914 110.536H123.9ZM114.432 109.161H122.966L107.382 61.1311H96.5807L81.0107 109.161H89.5309L92.3618 100.446C92.6504 99.5939 93.4475 99.0165 94.327 99.0165H109.65C110.557 99.0165 111.34 99.5939 111.615 100.446L114.446 109.161H114.432ZM69.0962 110.536H59.6278C59.243 110.536 58.9407 110.234 58.9407 109.849V71.5509C58.9407 71.166 58.6383 70.8636 58.2536 70.8636H47.3147C46.9299 70.8636 46.6276 70.5612 46.6276 70.1763V60.4712C46.6276 60.0863 46.9299 59.7839 47.3147 59.7839H81.4093C81.794 59.7839 82.0964 60.0863 82.0964 60.4712V70.1763C82.0964 70.5612 81.794 70.8636 81.4093 70.8636H70.4704C70.0856 70.8636 69.7833 71.166 69.7833 71.5509V109.849C69.7833 110.234 69.481 110.536 69.0962 110.536ZM60.3149 109.161H68.4091V71.5509C68.4091 70.41 69.3298 69.489 70.4704 69.489H80.7221V61.1585H48.0018V69.489H58.2536C59.3942 69.489 60.3149 70.41 60.3149 71.5509V109.161ZM236.793 104.996C233.316 104.996 230.911 103.278 229.757 100.034C228.465 96.3772 229.138 93.4492 229.674 91.0985C229.674 91.071 229.674 91.0435 229.688 91.016C228.52 92.6519 227.338 94.0815 226.17 95.2775C222.721 98.7691 217.32 101.683 217.279 101.711C217.224 101.738 217.128 101.766 217.073 101.78C216.949 101.821 216.853 101.821 216.702 101.78C216.633 101.78 216.564 101.752 216.509 101.711C215.987 101.477 215.506 100.996 215.149 100.322C214.572 99.2502 214.682 98.5629 214.723 98.3842C214.792 98.068 215.053 97.8068 215.396 97.7381C215.396 97.7381 220.041 96.226 223.6 93.2567C225.346 91.8133 227.118 89.6826 228.506 87.8268C228.41 87.8956 228.3 87.9643 228.204 88.0468C225.703 89.7651 221.663 92.5419 217.87 92.6381C217.43 92.6381 217.032 92.6244 216.633 92.5557C211.741 91.8271 209.954 89.9163 210.463 85.9573C210.875 82.6994 213.417 81.6684 215.19 81.2835C213.665 79.3452 213.568 77.0496 214.956 74.9463C216.276 73.0081 218.681 70.9598 222.707 72.1833C226.61 73.3655 229.001 77.3245 230.087 79.5652L230.21 79.8538C230.307 80.0463 230.389 80.225 230.471 80.39C230.348 79.7576 230.197 79.0703 230.018 78.4105C229.482 76.4172 228.479 71.3997 230.691 67.7569C233 63.9628 236.614 63.9766 238.373 64.5814C240.16 65.1725 242.001 67.4407 242.249 69.9838C244.598 69.1865 247.155 68.8704 249.298 70.9048C250.37 71.9221 250.934 73.4892 250.851 75.1938C250.755 77.1733 249.807 79.0703 248.378 80.17C245.822 82.0945 241.699 83.1805 239.459 83.6616C237.947 83.9641 236.875 84.2115 236.106 84.404C236.381 84.4314 236.655 84.4589 236.917 84.4864L237.205 84.5139C238.964 84.6926 241.149 84.9263 242.482 85.1875C245.258 85.7374 248.625 86.7271 250.15 89.4627C251.841 92.4594 251.456 95.4974 249.161 97.202C247.264 98.6041 244.818 98.9066 242.304 98.068C242.331 99.965 241.946 101.587 241.232 102.508C240.545 103.415 239.06 104.941 236.875 104.983H236.834L236.793 104.996ZM231.131 86.9058C231.214 86.9058 231.296 86.9196 231.392 86.9608C231.708 87.0845 231.873 87.4144 231.804 87.7444L231.475 89.3115C231.433 89.5314 231.378 89.7651 231.337 89.9988L231.172 90.7824C231.131 90.9886 231.076 91.2085 231.021 91.4284C230.526 93.6004 229.894 96.3085 231.062 99.5801C232.024 102.274 233.921 103.635 236.71 103.635H236.752C238.428 103.594 239.583 102.398 240.132 101.697C240.764 100.886 241.053 99.099 240.874 97.1333C240.847 96.8858 240.957 96.6521 241.163 96.5147C241.355 96.3772 241.616 96.3497 241.836 96.4459C244.269 97.5319 246.577 97.4219 248.336 96.116C250.027 94.8513 250.274 92.5144 248.941 90.1637C247.677 87.9231 244.681 87.0708 242.207 86.5622C240.929 86.3147 238.772 86.0948 237.054 85.9161L236.765 85.8886C234.91 85.6961 233.742 85.5724 233.302 85.4349C233.096 85.3662 232.931 85.2013 232.863 84.9813C232.794 84.7614 232.835 84.5414 232.973 84.3627C233.055 84.2527 233.179 84.129 233.371 83.9778C233.893 83.5517 235.487 83.098 239.074 82.3695C240.874 81.9846 245.107 80.9398 247.539 79.1115C248.666 78.2592 249.408 76.7334 249.477 75.1663C249.532 73.8604 249.12 72.6919 248.336 71.9358C246.467 70.1625 244.09 70.7536 241.809 71.6334C241.589 71.7159 241.342 71.6884 241.149 71.5509C240.957 71.4135 240.861 71.1798 240.874 70.9461C241.067 68.5404 239.253 66.3685 237.92 65.9286C236.546 65.4475 233.715 65.475 231.846 68.5267C229.908 71.7159 230.829 76.2935 231.323 78.108C231.791 79.8126 232.327 82.7819 232.107 83.5242C232.052 83.7304 231.887 83.9091 231.681 83.9778C231.475 84.0465 231.241 84.019 231.062 83.8953C230.362 83.4142 230.169 83.0293 228.946 80.4724L228.822 80.1838C227.847 78.163 225.703 74.5889 222.295 73.5442C219.698 72.7606 217.609 73.5029 216.083 75.7574C214.833 77.6269 215.176 79.6476 217.032 81.2972C217.238 81.4759 217.306 81.7646 217.224 82.0121C217.141 82.2732 216.922 82.4519 216.647 82.4932C213.582 82.8368 212.084 83.9778 211.809 86.1773C211.466 88.9266 212.153 90.5487 216.825 91.236C217.169 91.291 217.499 91.291 217.856 91.291C221.237 91.2085 225.057 88.5692 227.352 87.0021C227.957 86.5759 228.383 86.2872 228.685 86.1085C229.496 85.6274 230.114 85.325 230.609 85.1738C230.884 85.0775 231.186 85.1738 231.365 85.4212C231.543 85.6549 231.543 85.9711 231.378 86.2185C231.214 86.4659 231.021 86.7409 230.815 87.0295C230.911 86.9746 231.035 86.9471 231.159 86.9471L231.131 86.9058ZM216.083 98.9615C216.111 99.1265 216.193 99.3739 216.358 99.6901C216.509 99.9788 216.702 100.212 216.894 100.364C217.911 99.8001 222.336 97.2432 225.208 94.329C226.816 92.6931 228.424 90.6036 230.018 88.1018C228.52 90.1363 226.486 92.6656 224.466 94.3427C221.264 97.0095 217.32 98.5491 216.07 98.9753L216.083 98.9615ZM215.767 99.0715L215.685 99.099C215.712 99.099 215.74 99.0853 215.767 99.0715ZM105.596 90.6861H98.3535C97.6938 90.6861 97.0754 90.37 96.6906 89.8476C96.2921 89.3115 96.1959 88.6379 96.402 87.9918L100.03 76.8296C100.305 75.9773 101.088 75.4 101.995 75.4C102.902 75.4 103.658 75.9636 103.947 76.8159L107.561 87.9918C107.767 88.6379 107.657 89.3115 107.272 89.8476C106.887 90.3837 106.255 90.6999 105.609 90.6999L105.596 90.6861ZM101.981 76.7746C101.679 76.7746 101.418 76.9671 101.336 77.242L97.7076 88.4042C97.6389 88.6241 97.6663 88.8441 97.8038 89.0228C97.9274 89.2015 98.1336 89.2977 98.3672 89.2977H105.609C105.829 89.2977 106.035 89.2015 106.173 89.009C106.296 88.8303 106.338 88.6104 106.269 88.3905L102.655 77.2283C102.559 76.9533 102.297 76.7609 102.009 76.7609L101.981 76.7746Z" fill="#44290E"/>
<path d="M25.0656 112.034C19.019 112.034 11.8456 107.346 9.79799 105.903C9.50941 105.697 9.42695 105.312 9.59186 105.009L14.3055 96.5689C14.4016 96.3902 14.5666 96.2803 14.7589 96.239C14.9513 96.1978 15.1575 96.239 15.3086 96.3627L16.2019 97.0363C19.7886 99.7031 22.6882 101.009 25.0656 101.009C28.9272 101.009 30.7824 100.184 31.6757 99.4832C32.1979 99.0708 32.6926 98.4935 32.6926 97.1738C32.6926 95.0706 31.7719 92.7199 25.1343 89.7369C17.9059 86.5065 11.4333 82.7949 11.4333 72.9799C11.4333 65.9691 16.4355 58.8896 27.6217 58.8896C33.2972 58.8896 38.3132 60.3468 42.532 63.2061C42.8344 63.4123 42.9168 63.8247 42.7244 64.1408L37.3787 72.7187C37.1863 73.0211 36.7878 73.1311 36.4717 72.9661L36.2931 72.8699C34.589 71.8389 30.6175 69.9419 27.6217 69.9419C25.4229 69.9419 23.8838 70.2993 23.0455 71.0004C22.592 71.3853 22.111 72.2375 22.111 73.0898C22.111 75.3443 22.4134 76.4852 29.4632 79.6469C35.4823 82.3413 43.494 87.0976 43.494 97.1875C43.494 101.683 41.625 105.614 38.2445 108.267C35.0288 110.783 30.6038 112.061 25.0656 112.061V112.034ZM11.0898 105.133C13.5496 106.796 19.8298 110.659 25.0656 110.659C30.3014 110.659 34.4378 109.477 37.3924 107.154C40.4432 104.762 42.1198 101.215 42.1198 97.16C42.1198 87.8674 34.5753 83.4135 28.8997 80.8704C21.8637 77.7087 20.7368 76.224 20.7368 73.0623C20.7368 71.7152 21.4514 70.5055 22.166 69.9144C23.2654 68.9934 25.0519 68.5397 27.6217 68.5397C30.7 68.5397 34.5066 70.2443 36.5679 71.4128L41.2128 63.9621C37.3512 61.5015 32.775 60.2506 27.6217 60.2506C17.3837 60.2506 12.7938 66.6427 12.7938 72.9661C12.7938 81.9564 18.8954 85.4342 25.6978 88.4722C33.0499 91.7714 34.0668 94.6032 34.0668 97.16C34.0668 99.112 33.1873 100.033 32.5277 100.542C31.4695 101.366 29.3257 102.356 25.0794 102.356C22.3996 102.356 19.2252 100.968 15.3911 98.1085L15.13 97.9023L11.1035 105.119L11.0898 105.133ZM201.255 111.401H173.702C173.317 111.401 173.015 111.099 173.015 110.714V61.4877C173.015 61.1028 173.317 60.8004 173.702 60.8004H201.255C201.64 60.8004 201.942 61.1028 201.942 61.4877V71.1653C201.942 71.5502 201.64 71.8526 201.255 71.8526H184.517C184.132 71.8526 183.83 72.1551 183.83 72.54V78.6022C183.83 78.9734 184.132 79.2895 184.517 79.2895H199.152C199.537 79.2895 199.84 79.5919 199.84 79.9768V89.6544C199.84 90.0393 199.537 90.3417 199.152 90.3417H184.517C184.132 90.3417 183.83 90.6442 183.83 91.0291V99.6894C183.83 100.074 184.132 100.377 184.517 100.377H201.255C201.64 100.377 201.942 100.679 201.942 101.064V110.742C201.942 111.127 201.64 111.429 201.255 111.429V111.401ZM174.389 110.041H200.568V101.738H184.503C183.376 101.738 182.456 100.817 182.456 99.6757V91.0153C182.456 89.8881 183.376 88.9533 184.503 88.9533H198.452V80.6504H184.503C183.376 80.6504 182.456 79.7294 182.456 78.5884V72.5262C182.456 71.399 183.376 70.4642 184.503 70.4642H200.568V62.1613H174.389V110.013V110.041ZM166.982 111.401H155.961C155.713 111.401 155.493 111.278 155.37 111.058L145.187 93.8196C145.077 93.6134 144.857 93.4897 144.637 93.4897C144.376 93.4897 144.17 93.5997 144.06 93.7784L139.896 99.8681C139.813 99.9918 139.772 100.116 139.772 100.253V110.728C139.772 111.113 139.47 111.415 139.085 111.415H129.644C129.259 111.415 128.957 111.113 128.957 110.728V61.5015C128.957 61.1166 129.259 60.8142 129.644 60.8142H139.085C139.47 60.8142 139.772 61.1166 139.772 61.5015V78.5472C139.772 78.8496 139.978 79.1246 140.267 79.207C140.391 79.2483 140.844 79.207 141.036 78.9321L153.212 61.1166C153.336 60.9241 153.556 60.8142 153.776 60.8142H165.292C165.539 60.8142 165.773 60.9516 165.896 61.1853C166.02 61.4053 165.992 61.6802 165.855 61.8864L151.659 82.6299C151.522 82.8499 151.508 83.1386 151.646 83.3722L167.573 110.37C167.696 110.577 167.696 110.852 167.573 111.058C167.449 111.278 167.229 111.401 166.982 111.401ZM156.345 110.041H165.773L150.464 84.0733C150.065 83.3997 150.093 82.5337 150.519 81.8739L163.986 62.1888H154.119L142.15 79.7157C141.751 80.2793 141.119 80.6092 140.446 80.6092C140.212 80.6092 140.006 80.5817 139.827 80.513C138.989 80.2518 138.384 79.4407 138.384 78.5472V62.1888H130.318V110.041H138.384V100.253C138.384 99.8406 138.508 99.442 138.755 99.0983L142.905 93.0361C143.263 92.4725 143.895 92.1288 144.596 92.1288C145.365 92.1425 146.011 92.5412 146.368 93.1323L156.345 110.041ZM123.762 111.401H113.813C113.511 111.401 113.25 111.209 113.167 110.934L110.199 101.765C110.103 101.476 109.855 101.298 109.553 101.298H94.2716C93.983 101.298 93.7219 101.49 93.612 101.779L90.6437 110.934C90.5475 111.223 90.2864 111.401 89.9978 111.401H80.0621C79.8422 111.401 79.6361 111.291 79.5124 111.113C79.3887 110.934 79.3475 110.714 79.4162 110.494L95.3847 61.2403C95.4809 60.9516 95.742 60.7729 96.0306 60.7729H107.794C108.096 60.7729 108.357 60.9654 108.44 61.2403L124.422 110.494C124.491 110.7 124.45 110.934 124.326 111.113C124.202 111.291 123.996 111.401 123.776 111.401H123.762ZM114.308 110.041H122.814L107.286 62.1613H96.5116L80.9966 110.041H89.4893L92.3065 101.339C92.5951 100.487 93.3784 99.9231 94.2579 99.9231H109.539C110.432 99.9231 111.23 100.5 111.491 101.353L114.308 110.041ZM69.1233 111.401H59.6824C59.2976 111.401 58.9952 111.099 58.9952 110.714V72.5262C58.9952 72.1413 58.6929 71.8389 58.3081 71.8389H47.3968C47.012 71.8389 46.7097 71.5365 46.7097 71.1516V61.474C46.7097 61.0891 47.012 60.7867 47.3968 60.7867H81.3951C81.7799 60.7867 82.0822 61.0891 82.0822 61.474V71.1516C82.0822 71.5365 81.7799 71.8389 81.3951 71.8389H70.4838C70.099 71.8389 69.7967 72.1413 69.7967 72.5262V110.714C69.7967 111.099 69.4943 111.401 69.1095 111.401H69.1233ZM60.3695 110.041H68.4362V72.54C68.4362 71.4128 69.3569 70.478 70.4975 70.478H80.7217V62.1751H48.0976V70.478H58.3219C59.4487 70.478 60.3832 71.399 60.3832 72.54V110.041H60.3695ZM236.311 105.889C232.848 105.889 230.457 104.185 229.303 100.94C228.011 97.2975 228.685 94.3695 229.234 92.0326C229.234 92.0051 229.234 91.9776 229.248 91.9501C228.08 93.5859 226.912 95.0156 225.744 96.1978C222.322 99.6619 216.921 102.59 216.866 102.617C216.811 102.645 216.715 102.672 216.66 102.686C216.55 102.727 216.44 102.727 216.289 102.686C216.22 102.686 216.152 102.659 216.083 102.617C215.561 102.384 215.093 101.903 214.722 101.243C214.132 100.129 214.269 99.4282 214.31 99.2907C214.365 99.0021 214.626 98.7271 214.97 98.6584C214.97 98.6584 219.601 97.1463 223.146 94.1908C224.878 92.7611 226.651 90.6304 228.039 88.7746C227.942 88.8434 227.846 88.9121 227.736 88.9946C225.249 90.7129 221.223 93.476 217.43 93.5722C216.99 93.5722 216.591 93.5584 216.193 93.4897C211.314 92.7611 209.542 90.8641 210.036 86.9189C210.449 83.6747 212.977 82.6437 214.75 82.2588C213.238 80.3205 213.128 78.0386 214.516 75.9491C215.822 74.0246 218.213 71.9764 222.239 73.1861C226.128 74.3683 228.52 78.3135 229.592 80.5542L229.715 80.8429C229.811 81.0353 229.894 81.214 229.976 81.379C229.853 80.7467 229.701 80.0593 229.523 79.3995C228.987 77.42 227.997 72.4162 230.196 68.7734C232.505 64.9931 236.092 65.0069 237.851 65.598C239.637 66.1891 241.465 68.4435 241.712 70.9866C244.048 70.1893 246.604 69.8731 248.748 71.9076C249.82 72.9249 250.384 74.4782 250.301 76.1828C250.205 78.1486 249.257 80.0593 247.827 81.1453C245.285 83.0561 241.163 84.1558 238.936 84.6232C237.438 84.9256 236.353 85.173 235.597 85.3655C235.858 85.393 236.133 85.4205 236.38 85.448L236.696 85.4755C238.84 85.6954 240.723 85.9016 241.96 86.149C244.722 86.6989 248.075 87.6887 249.6 90.4105C251.277 93.3935 250.892 96.4177 248.611 98.1223C246.728 99.5107 244.282 99.8131 241.781 98.9883C241.808 100.885 241.424 102.494 240.709 103.415C240.022 104.322 238.538 105.834 236.353 105.889H236.311ZM230.677 87.8536C230.76 87.8536 230.842 87.8674 230.925 87.9086C231.241 88.0323 231.406 88.3622 231.337 88.6922L230.705 91.6614C230.65 91.8814 230.608 92.115 230.54 92.3487C230.045 94.5069 229.427 97.215 230.581 100.473C231.543 103.154 233.426 104.514 236.215 104.514H236.257C237.933 104.487 239.074 103.291 239.623 102.576C240.242 101.765 240.53 99.9781 240.365 98.0261C240.338 97.7786 240.448 97.5449 240.654 97.4075C240.846 97.27 241.108 97.2425 241.327 97.3387C243.76 98.4247 246.055 98.3147 247.8 97.0226C249.49 95.7579 249.738 93.4347 248.405 91.0841C247.154 88.8434 244.158 87.9911 241.685 87.4962C240.407 87.2488 238.167 87.0151 236.545 86.8501L236.229 86.8226C234.388 86.6302 233.247 86.5065 232.807 86.369C232.601 86.3003 232.436 86.1353 232.367 85.9291C232.299 85.7229 232.34 85.4892 232.464 85.3105C232.546 85.2005 232.67 85.0768 232.862 84.9119C233.384 84.4857 234.979 84.0321 238.551 83.3035C240.338 82.9186 244.571 81.8739 246.975 80.0456C248.089 79.1933 248.831 77.6812 248.913 76.1003C248.968 74.8081 248.556 73.6259 247.786 72.8836C245.931 71.1241 243.554 71.7014 241.272 72.5812C241.053 72.6637 240.805 72.6362 240.613 72.4987C240.42 72.3613 240.324 72.1276 240.338 71.8939C240.53 69.502 238.716 67.33 237.397 66.8901C236.023 66.4228 233.192 66.4365 231.351 69.4745C229.413 72.6499 230.334 77.2138 230.828 79.0283C231.296 80.7329 231.818 83.6884 231.612 84.4307C231.557 84.6369 231.392 84.8019 231.186 84.8844C230.98 84.9531 230.746 84.9256 230.567 84.8019C229.866 84.3345 229.674 83.9359 228.451 81.3927L228.327 81.1041C227.365 79.0971 225.208 75.523 221.827 74.492C219.244 73.7084 217.155 74.4507 215.629 76.7052C214.393 78.5747 214.736 80.5817 216.578 82.2175C216.784 82.3962 216.852 82.6849 216.77 82.9324C216.688 83.1935 216.468 83.3722 216.193 83.3997C213.128 83.7434 211.644 84.8844 211.369 87.0701C211.026 89.8056 211.713 91.4277 216.371 92.1151C216.715 92.17 217.045 92.17 217.388 92.17C220.755 92.0876 224.576 89.462 226.857 87.8949C227.448 87.4825 227.887 87.18 228.176 87.0013C228.987 86.5202 229.605 86.2178 230.1 86.0666C230.375 85.9841 230.677 86.0666 230.856 86.314C231.034 86.5477 231.034 86.8639 230.87 87.1113C230.705 87.3587 230.512 87.6337 230.306 87.9223C230.402 87.8674 230.526 87.8399 230.65 87.8399L230.677 87.8536ZM215.657 99.8681C215.684 100.033 215.767 100.28 215.932 100.583C216.083 100.872 216.275 101.105 216.468 101.243C217.485 100.679 221.868 98.1498 224.768 95.2218C226.362 93.5997 227.97 91.5102 229.564 89.0083C228.08 91.0428 226.046 93.5584 224.026 95.2355C220.838 97.9023 216.894 99.4282 215.657 99.8544V99.8681ZM215.355 99.9781L215.272 100.006C215.3 100.006 215.327 99.9918 215.355 99.9781ZM105.513 91.6202H98.2981C97.6385 91.6202 97.0201 91.304 96.6353 90.7816C96.2505 90.2455 96.1406 89.5719 96.3467 88.9396L99.9609 77.8049C100.236 76.9526 101.019 76.389 101.912 76.389C102.806 76.389 103.575 76.9526 103.864 77.8049L107.464 88.9396C107.67 89.5857 107.56 90.2593 107.176 90.7954C106.791 91.3178 106.172 91.6339 105.513 91.6339V91.6202ZM101.912 77.7499C101.61 77.7499 101.349 77.9424 101.266 78.2173L97.6522 89.352C97.5835 89.5719 97.611 89.7919 97.7484 89.9706C97.8721 90.1493 98.0782 90.2593 98.2981 90.2593H105.513C105.733 90.2593 105.939 90.163 106.076 89.9843C106.2 89.8056 106.241 89.5857 106.172 89.3657L102.572 78.2448C102.476 77.9699 102.215 77.7774 101.926 77.7774L101.912 77.7499Z" fill="#44290E"/>
<path d="M25.7677 110.728C19.7898 110.728 12.6576 106.068 10.61 104.638C10.4313 104.515 10.3763 104.281 10.4863 104.102L15.2136 95.6343C15.2686 95.5243 15.3785 95.4556 15.4885 95.4281C15.6121 95.4006 15.7221 95.4281 15.8183 95.4968L16.7115 96.1704C20.3532 98.8922 23.3215 100.212 25.7677 100.212C29.7254 100.212 31.6494 99.3459 32.5563 98.6173C33.106 98.1774 33.6832 97.5313 33.6832 96.0879C33.6832 93.8885 32.7487 91.4416 25.9463 88.3761C18.7866 85.1732 12.3552 81.5028 12.3552 71.8253C12.3552 64.9245 17.2887 57.9688 28.3237 57.9688C33.958 57.9688 38.9465 59.4121 43.1241 62.2439C43.3028 62.3676 43.3577 62.6151 43.2478 62.8075L37.8883 71.4129C37.7784 71.5916 37.531 71.6603 37.3386 71.5641L37.16 71.4679C35.3048 70.3544 31.3882 68.4986 28.3237 68.4986C26.015 68.4986 24.4622 68.8698 23.5552 69.6258C23.033 70.052 22.5245 70.9867 22.5245 71.9352C22.5245 74.2584 22.8406 75.5231 30.0553 78.7673C36.0331 81.4479 43.9762 86.1492 43.9762 96.1017C43.9762 100.528 42.1484 104.391 38.8091 107.003C35.6346 109.491 31.2508 110.742 25.7677 110.742V110.728ZM11.3795 104.171C13.702 105.765 20.2845 109.903 25.7677 109.903C31.2508 109.903 35.291 108.707 38.3006 106.329C41.4201 103.882 43.1516 100.239 43.1516 96.0879C43.1516 86.6028 35.4834 82.0802 29.7254 79.4958C22.7581 76.3616 21.7 75.0007 21.7 71.9215C21.7 70.6568 22.3871 69.5159 23.033 68.9797C24.0774 68.0862 25.8089 67.6601 28.3237 67.6601C31.4707 67.6601 35.4147 69.4884 37.3936 70.6431L42.3271 62.7113C38.3556 60.1132 33.642 58.7935 28.3237 58.7935C17.8659 58.7935 13.1798 65.3369 13.1798 71.8253C13.1798 81.008 19.3775 84.5408 26.2761 87.6338C33.5046 90.878 34.5077 93.6135 34.5077 96.0879C34.5077 97.9025 33.7382 98.741 33.0785 99.2634C32.0616 100.074 29.9591 101.023 25.7677 101.023C23.1292 101.023 20.0097 99.6483 16.2168 96.8165L15.6946 96.4316L11.3795 104.157V104.171ZM202.493 110.096H174.857C174.624 110.096 174.445 109.917 174.445 109.683V60.3057C174.445 60.072 174.624 59.8933 174.857 59.8933H202.493C202.727 59.8933 202.905 60.072 202.905 60.3057V70.0107C202.905 70.2444 202.727 70.4231 202.493 70.4231H185.7C185.164 70.4231 184.738 70.8493 184.738 71.3854V77.4614C184.738 77.9975 185.164 78.4236 185.7 78.4236H200.377C200.61 78.4236 200.789 78.6023 200.789 78.836V88.5411C200.789 88.7748 200.61 88.9535 200.377 88.9535H185.7C185.164 88.9535 184.738 89.3796 184.738 89.9157V98.6035C184.738 99.1397 185.164 99.5658 185.7 99.5658H202.493C202.727 99.5658 202.905 99.7445 202.905 99.9782V109.683C202.905 109.917 202.727 110.096 202.493 110.096ZM175.27 109.271H202.081V100.391H185.7C184.711 100.391 183.913 99.5933 183.913 98.6035V89.9157C183.913 88.926 184.711 88.1287 185.7 88.1287H199.964V79.2484H185.7C184.711 79.2484 183.913 78.4511 183.913 77.4614V71.3854C183.913 70.3956 184.711 69.5983 185.7 69.5983H202.081V60.7181H175.27V109.271ZM168.11 110.096H157.061C156.91 110.096 156.786 110.013 156.704 109.889L146.493 92.5963C146.328 92.3214 146.026 92.1289 145.71 92.1289C145.353 92.1289 145.05 92.2801 144.885 92.5413L140.722 98.6448C140.598 98.8097 140.543 98.9884 140.543 99.1809V109.683C140.543 109.917 140.364 110.096 140.131 110.096H130.662C130.429 110.096 130.25 109.917 130.25 109.683V60.3057C130.25 60.072 130.429 59.8933 130.662 59.8933H140.131C140.364 59.8933 140.543 60.072 140.543 60.3057V77.4064C140.543 77.8325 140.832 78.2037 141.23 78.3274C141.519 78.4236 142.068 78.2999 142.316 77.9425L154.533 60.0582C154.615 59.9483 154.739 59.8795 154.876 59.8795H166.433C166.585 59.8795 166.722 59.962 166.804 60.0995C166.873 60.2369 166.859 60.4019 166.777 60.5256L152.54 81.3379C152.334 81.654 152.32 82.0527 152.512 82.3826L168.481 109.463C168.55 109.587 168.55 109.752 168.481 109.876C168.412 109.999 168.275 110.082 168.124 110.082L168.11 110.096ZM157.295 109.271H167.382L151.784 82.8088C151.441 82.2177 151.454 81.4616 151.839 80.8842L165.636 60.7043H155.082L142.989 78.4099C142.646 78.891 142.096 79.1797 141.505 79.1797C141.299 79.1797 141.134 79.1522 140.969 79.0972C140.227 78.8635 139.718 78.1624 139.718 77.3926V60.7043H131.075V109.257H139.718V99.1671C139.718 98.8097 139.828 98.4661 140.034 98.1637L144.198 92.0739C144.514 91.5928 145.064 91.2904 145.669 91.2904C146.328 91.3041 146.892 91.6478 147.208 92.1702L157.295 109.257V109.271ZM124.767 110.096H114.79C114.611 110.096 114.446 109.986 114.391 109.807L111.409 100.611C111.286 100.212 110.915 99.9507 110.489 99.9507H95.166C94.7538 99.9507 94.3827 100.226 94.2453 100.624L91.2632 109.821C91.2083 109.986 91.0434 110.109 90.8647 110.109H80.9016C80.7642 110.109 80.6405 110.041 80.5718 109.944C80.4893 109.834 80.4756 109.697 80.5168 109.573L96.5265 60.1682C96.5815 60.0032 96.7464 59.8795 96.925 59.8795H108.73C108.908 59.8795 109.073 59.9895 109.128 60.1682L125.152 109.573C125.193 109.697 125.165 109.834 125.097 109.944C125.014 110.054 124.891 110.109 124.767 110.109V110.096ZM115.092 109.271H124.203L108.455 60.6906H97.2549L81.5062 109.271H90.6036L93.4895 100.363C93.7368 99.6208 94.424 99.1259 95.1935 99.1259H110.516C111.299 99.1259 111.973 99.6208 112.22 100.363L115.106 109.271H115.092ZM69.9627 110.096H60.4943C60.2607 110.096 60.0821 109.917 60.0821 109.683V71.3854C60.0821 70.8493 59.6561 70.4231 59.1201 70.4231H48.1813C47.9477 70.4231 47.769 70.2444 47.769 70.0107V60.3057C47.769 60.072 47.9477 59.8933 48.1813 59.8933H82.2758C82.5094 59.8933 82.6881 60.072 82.6881 60.3057V70.0107C82.6881 70.2444 82.5094 70.4231 82.2758 70.4231H71.337C70.801 70.4231 70.375 70.8493 70.375 71.3854V109.683C70.375 109.917 70.1964 110.096 69.9627 110.096ZM60.9066 109.271H69.5505V71.3854C69.5505 70.3956 70.3475 69.5983 71.337 69.5983H81.8635V60.7181H48.5935V69.5983H59.1201C60.1096 69.5983 60.9066 70.3956 60.9066 71.3854V109.271ZM237.646 104.556C234.293 104.556 231.984 102.906 230.871 99.772C229.606 96.1979 230.266 93.3111 230.802 90.988C230.857 90.7405 230.912 90.5068 230.967 90.2869L231.118 89.5858C231.118 89.5858 231.118 89.5446 231.118 89.5308C229.703 91.6478 228.26 93.4486 226.831 94.9057C223.409 98.3699 218.063 101.257 218.008 101.284C217.981 101.298 217.898 101.325 217.857 101.339C217.747 101.38 217.623 101.353 217.568 101.339C216.991 101.092 216.565 100.652 216.222 100.033C215.658 98.9884 215.809 98.3561 215.823 98.2874C215.864 98.0812 216.043 97.9025 216.277 97.8475C216.29 97.8475 221.031 96.2941 224.604 93.2974C226.748 91.5241 228.933 88.706 230.417 86.644C230.307 86.7128 230.184 86.7815 230.06 86.8502C229.771 87.0152 229.373 87.2901 228.878 87.6475C226.405 89.3521 222.406 92.0877 218.681 92.1839C218.352 92.1702 217.926 92.1839 217.486 92.1152C212.731 91.4141 211.054 89.6408 211.549 85.833C211.975 82.4651 214.82 81.5991 216.51 81.3104C214.792 79.3996 214.586 77.0627 215.988 74.9457C217.252 73.09 219.561 71.1242 223.436 72.2927C227.229 73.4474 229.579 77.3239 230.637 79.5371L230.761 79.812C231.283 80.898 231.585 81.5441 231.819 81.9565C231.709 81.008 231.462 79.5646 231.091 78.1899C230.568 76.2379 229.579 71.3029 231.737 67.7563C233.963 64.1135 237.412 64.1135 239.089 64.6908C240.669 65.2132 242.717 67.5089 242.799 70.2169C245.149 69.3646 247.774 68.9247 249.918 70.9592C250.934 71.9215 251.47 73.4061 251.388 75.0282C251.305 76.9252 250.385 78.7535 249.011 79.7983C246.509 81.6953 242.414 82.7675 240.202 83.2487C237.549 83.7848 236.175 84.1422 235.474 84.3759C236.12 84.4583 236.945 84.5408 237.687 84.6096L237.976 84.6371C239.721 84.8158 241.906 85.0494 243.239 85.2969C245.946 85.833 249.244 86.7953 250.728 89.4346C252.35 92.3076 251.993 95.1944 249.821 96.8165C247.911 98.2324 245.396 98.4661 242.84 97.5176C242.923 99.5246 242.565 101.243 241.837 102.178C241.177 103.044 239.762 104.501 237.687 104.556H237.646ZM231.998 87.0152C231.998 87.0152 232.108 87.0152 232.149 87.0427C232.341 87.1114 232.437 87.3176 232.396 87.5101L232.066 89.0772C232.025 89.2971 231.97 89.5308 231.929 89.7645L231.778 90.4656C231.723 90.6993 231.668 90.933 231.613 91.1804C231.104 93.3799 230.472 96.1429 231.654 99.4971C232.657 102.301 234.636 103.731 237.563 103.731H237.604C239.405 103.69 240.628 102.425 241.191 101.683C241.865 100.803 242.167 98.9884 241.988 96.9265C241.988 96.7753 242.043 96.6378 242.153 96.5553C242.277 96.4728 242.428 96.4591 242.565 96.5141C245.053 97.6275 247.526 97.5038 249.34 96.1567C251.154 94.8095 251.429 92.3214 250.027 89.847C248.708 87.5101 245.644 86.6303 243.101 86.1217C241.81 85.8742 239.652 85.6543 237.921 85.4618L237.632 85.4344C235.845 85.2556 234.636 85.1182 234.238 84.9945C234.114 84.9532 234.018 84.857 233.977 84.7195C233.935 84.5958 233.963 84.4583 234.045 84.3484C234.114 84.2521 234.224 84.1559 234.403 84.0047C234.87 83.6198 236.546 83.1524 239.982 82.4513C241.796 82.0664 246.083 80.9942 248.557 79.1384C249.739 78.2312 250.522 76.6366 250.605 74.987C250.673 73.5986 250.22 72.3476 249.382 71.5503C247.403 69.6808 244.929 70.2719 242.565 71.1929C242.428 71.2479 242.277 71.2204 242.167 71.1379C242.057 71.0555 241.988 70.918 242.002 70.7668C242.208 68.2374 240.284 65.928 238.855 65.4606C237.398 64.9657 234.416 64.9657 232.465 68.1687C230.472 71.4541 231.407 76.1142 231.901 77.97C232.41 79.8258 232.877 82.6026 232.685 83.2349C232.644 83.3586 232.547 83.4686 232.424 83.5098C232.3 83.5511 232.163 83.5373 232.053 83.4686C231.407 83.0287 231.256 82.7125 230.032 80.1557L229.909 79.8807C228.919 77.8188 226.707 74.1484 223.216 73.0899C220.482 72.2652 218.297 73.0487 216.689 75.4131C215.356 77.4201 215.713 79.5646 217.678 81.3104C217.802 81.4204 217.843 81.5853 217.802 81.7365C217.747 81.8877 217.623 81.9977 217.458 82.0252C215.466 82.2451 212.758 82.905 212.374 85.943C211.948 89.2696 213.322 90.6718 217.623 91.3179C218.008 91.3729 218.393 91.3866 218.695 91.3866C222.158 91.2904 226.033 88.6373 228.342 87.0427C228.919 86.644 229.345 86.3416 229.661 86.1629C230.445 85.6955 231.063 85.3931 231.53 85.2419C231.695 85.1869 231.888 85.2419 231.984 85.3931C232.08 85.5443 232.094 85.723 231.984 85.8742C230.582 87.9362 227.847 91.7303 225.14 93.9572C221.746 96.789 217.5 98.3286 216.634 98.6173C216.634 98.796 216.689 99.1397 216.964 99.662C217.183 100.061 217.445 100.363 217.719 100.514C218.503 100.102 223.189 97.4488 226.253 94.3559C228.054 92.5276 229.854 90.1357 231.64 87.2214C231.723 87.0977 231.846 87.029 231.998 87.029V87.0152ZM106.462 90.2456H99.22C98.6428 90.2456 98.1069 89.9707 97.7771 89.5171C97.4335 89.0497 97.3511 88.4586 97.5297 87.9087L101.158 76.7465C101.391 76.0042 102.078 75.5093 102.862 75.5093C103.645 75.5093 104.305 76.0042 104.552 76.7328L108.166 87.895C108.345 88.4586 108.249 89.0359 107.919 89.5033C107.589 89.957 107.039 90.2319 106.476 90.2319L106.462 90.2456ZM102.848 76.3341C102.422 76.3341 102.065 76.5953 101.941 76.994L98.313 88.1562C98.2168 88.4586 98.258 88.7748 98.4504 89.0222C98.6291 89.2696 98.9177 89.4209 99.2337 89.4209H106.476C106.792 89.4209 107.067 89.2834 107.259 89.0222C107.438 88.7748 107.493 88.4586 107.397 88.1562L103.782 76.994C103.645 76.5953 103.274 76.3341 102.862 76.3341H102.848Z" fill="#F9D96C"/>
<path d="M171.573 26.6886L169.332 14.7674L175.278 25.3403L187.199 23.099L176.626 29.0448L178.867 40.9661L172.921 30.3931L161 32.6345L171.573 26.6886Z" fill="#FFF99E"/>
<path d="M10.5731 65.6886L8.33177 53.7674L14.2776 64.3403L26.1989 62.099L15.626 68.0448L17.8673 79.9661L11.9215 69.3931L0.000195236 71.6345L10.5731 65.6886Z" fill="#FFF99E"/>
</svg>
