<svg width="286" height="184" viewBox="0 0 286 184" fill="none" xmlns="http://www.w3.org/2000/svg">
<path d="M89.2271 105.786L113.992 105.336C114.299 105.565 114.101 106.52 114.024 106.881C113.469 109.534 111.79 112.462 111.109 115.147C110.057 116.021 108.722 115.449 107.738 115.49C104.886 115.616 101.944 115.877 99.0872 115.949C94.3941 116.071 89.6062 115.512 85.0033 116.58C83.1802 120.679 81.3662 124.779 79.6062 128.906C70.8021 149.525 62.4719 182.609 35.2247 183.969C29.056 184.28 16.7817 181.785 18.1174 173.378C18.3747 171.752 19.5931 168.887 21.4929 168.747C23.7492 171.725 25.4504 174.55 29.593 174.905C41.8718 175.973 47.9097 161.544 52.0432 152.367C57.2779 140.735 61.8266 128.784 66.9078 117.085C67.0025 116.089 64.3581 116.796 63.8076 116.81C62.0296 116.85 59.665 116.963 57.9457 116.81C57.0161 116.729 56.5288 116.675 56.5288 115.616C56.5288 114.368 58.9746 107.931 59.7914 106.971C60.5134 106.124 62.0387 106.065 63.1397 105.993C64.4303 105.908 71.1451 106.255 71.5964 105.795L85.3237 71.7558L85.3373 71.017C71.7453 70.535 50.9963 69.2331 43.5234 83.4011C41.7409 86.7798 40.7482 91.6001 42.3682 95.2085C43.1669 96.988 46.3212 99.5198 43.4151 101.223C39.981 103.236 34.2906 99.4747 32.0885 96.8213C22.5985 85.3878 30.7663 69.4808 41.7094 62.5928C55.545 53.8802 78.1577 55.7813 93.8526 57.6554C113.807 60.043 133.83 68.5843 154.168 64.8678C155.946 64.5434 158.13 64.0524 159.786 63.3496C161.803 62.4937 165.463 59.1014 167.119 62.0837C169.236 65.9039 163.049 71.6072 160.071 73.3506C147.137 80.9279 122.494 74.8687 108.126 72.7784C107.282 72.6568 103.004 71.9721 102.639 72.1973L89.2226 105.786H89.2271Z" fill="white"/>
<path d="M198.103 146.61C207.53 139.15 214.077 128.315 223.54 120.914C226.984 118.224 231.708 115.215 236.284 115.747C248.409 117.161 239.163 136.514 236.455 142.65C233.748 148.786 226.708 161.418 227.561 167.648C228.116 171.689 233.522 169.491 235.77 168.319C242.529 164.796 245.702 159.273 250.589 153.948C251.158 153.327 253.689 150.669 254.222 150.439C254.754 150.209 256.067 150.421 256.347 150.854C257.475 152.602 254.208 156.782 253.166 158.246C246.528 167.58 232.863 181.307 220.309 179.415C207.755 177.523 214.05 161.742 217.047 154.39C219.664 147.975 227.128 135.501 227.733 129.415C228.243 124.297 221.884 129.045 220.291 130.415C212.457 137.154 203.067 148.822 196.591 157.088C193.238 161.364 190.625 165.436 188.631 170.527C187.71 172.878 186.939 178 184.087 178.518C181.424 179.005 177.566 178.816 174.836 178.563C173.315 178.424 172.444 178.09 172.246 176.437C176.226 165.432 180.585 154.449 185.012 143.583C190.134 131.009 195.364 118.409 201.162 106.133C207.281 93.1768 220.003 67.2959 233.604 61.6152C242.484 57.9031 248.766 62.3225 247.43 71.9541C245.544 85.5319 228.301 103.295 218.671 112.805C214.921 116.512 209.596 120.283 207.083 124.783C206.171 126.414 205.332 128.324 204.56 130.041C202.133 135.433 200.156 141.06 198.107 146.601L198.103 146.61ZM211.957 112.269C212.475 111.818 213.076 111.435 213.586 110.98C222.773 102.732 238.039 86.96 241.234 75.0715C241.889 72.6343 243.057 68.0573 238.951 68.9087C234.939 69.7376 227.498 82.0812 225.336 85.7752C220.345 94.3031 216.04 103.281 211.957 112.269Z" fill="white"/>
<path d="M150.914 136.028C150.815 135.924 150.278 136.568 150.179 136.695C146.122 141.668 142.462 148.097 138.541 153.376C130.166 164.652 118.239 179.32 102.544 177.924C86.7858 176.523 97.6431 153.818 101.38 145.885C104.945 138.316 109.43 129.707 113.649 122.49C116.772 117.157 117.86 115.44 124.457 117.395C126.05 117.868 129.34 118.999 129.281 121.008C126.095 128.536 122.765 136.068 119.353 143.515C116.722 149.259 113.198 155.052 111.465 161.129C110.36 165.008 109.213 169.328 114.886 168.86C123.509 168.153 133.965 152.876 138.369 146.069C145.513 135.028 149.457 123.306 162.769 118.152C166.6 116.67 174.024 114.355 177.936 115.436C180.878 116.251 180.856 118.891 178.726 120.684C173.699 124.914 163.396 124.058 164.362 133.947C165.228 142.835 173.347 147.227 172.57 159.035C171.456 176.014 148.816 181.361 135.554 175.649C131.921 174.086 128.063 169.725 132.53 166.598C135.811 164.305 137.602 167.747 139.98 169.288C146.736 173.68 155.143 166.369 156.479 159.823C158.333 150.727 153.085 144.371 150.914 136.023V136.028Z" fill="white"/>
<path d="M182.95 26.0938L198.428 5.78998H214.123L194.894 29.4004L215.206 56.1147H199.511L186.411 37.3246C186.081 37.2435 186.063 37.3741 185.887 37.5543C184.867 38.5724 183.947 40.2167 182.95 41.3204V55.7903L182.625 56.1147H170.071L169.746 55.7903V6.11433L170.071 5.78998H182.625L182.95 6.11433V26.0938Z" fill="white"/>
<path d="M154.597 38.1895L165.838 43.5008C162.25 50.9655 155.382 55.7858 147.124 56.7589C124.633 59.4078 108.636 36.7524 120.436 17.1694C130.147 1.05527 157.905 0.366015 165.756 18.5344L154.908 23.7151C154.34 23.7061 153.956 22.2961 153.599 21.787C149.804 16.3811 142.607 15.0116 136.916 18.2732C128.171 23.2827 127.647 37.0407 135.693 42.8972C142.029 47.5102 151.537 45.5821 154.601 38.1805L154.597 38.1895Z" fill="white"/>
<path d="M77.3229 5.35748V36.784C77.3229 41.7259 80.3418 46.0011 85.432 46.402C92.5439 46.9606 95.7659 44.1676 96.5827 37.2119L96.8038 5.35748H109.358L109.367 36.793C108.875 42.4557 107.562 48.8932 102.991 52.6413C99.8904 52.0917 96.7677 51.5376 93.6405 51.1727C87.4401 50.4564 80.6442 49.8708 74.4122 49.6275C73.2931 49.5825 68.4014 49.8663 67.9051 49.4248C67.5441 49.1005 66.3888 46.1903 66.1722 45.5371C65.4186 43.2576 65.1027 40.8835 64.7688 38.5139V5.35748H77.3229Z" fill="white"/>
<path d="M233.707 5.57373C237.092 10.7184 239.849 16.2595 243.071 21.4942C243.175 21.6609 243.017 21.8591 243.446 21.7735L252.972 5.57373H268.017L249.619 36.784V56.1147C249.199 55.8399 249.014 55.2407 248.649 54.8172C245.575 51.2673 241.162 51.4611 237.065 53.0919V36.784L218.667 5.57373H233.712H233.707Z" fill="white"/>
<path d="M39.6561 5.35748V45.3118H61.7363L61.2941 50.051C55.36 50.4429 49.101 51.6728 43.6949 54.1956C42.8646 54.583 39.5884 56.7589 39.3357 56.7589H27.1066V5.35748H39.6606H39.6561Z" fill="white"/>
<path d="M132.517 111.841C133.834 114.053 133.23 117.03 130.924 118.301C128.916 116.585 127.3 114.152 128.189 111.408C125.427 112.215 123.198 109.877 121.483 108.061C123.41 105.642 126.194 105.529 128.622 107.304C127.237 102.259 129.028 96.5736 134.249 94.7761C132.647 100.664 141.533 100.272 139.448 94.5598C144.118 95.0554 146.849 98.9116 146.352 103.498C145.576 110.624 139.024 113.728 132.521 111.836L132.517 111.841Z" fill="#F200AC"/>
<path d="M137.873 94.6139C139.204 96.0104 136.429 97.7719 135.657 96.0645C134.985 94.5733 136.898 93.5913 137.873 94.6139Z" fill="#F200AC"/>
</svg>
