<?xml version="1.0" encoding="UTF-8"?><svg id="lulabet" xmlns="http://www.w3.org/2000/svg" viewBox="0 0 555.15 245.07"><path d="M192.76,189.56c10.15,22.66-8.68,52.66-35.86,54.22-30.49,1.75-61.16,.72-91.75,.63-8.45-.02-6.33-5.82-4.77-10.55,8.32-25.13,16.5-50.31,25.25-75.29,9.62-27.47,3.32-24.02,33.79-24.19,20.29-.12,40.59,0,60.88-.03,10.87-.02,22.09,.2,27.52,11.5,5.62,11.71,1.94,22.94-5.13,33.05-2.62,3.75-6.27,6.79-9.93,10.66Zm-90.22,26.63c14.67,0,29.28,.2,43.88-.16,3.17-.08,6.96-1.46,9.24-3.55,2.15-1.96,3.81-5.77,3.48-8.52-.18-1.54-4.78-3.56-7.45-3.66-10.89-.42-21.81-.19-32.72-.19-14.3,0-14.57,.26-16.44,16.07Zm12.02-37.57c15.75,0,30.6,.11,45.44-.12,2.31-.04,5.23-1.04,6.75-2.64,2.14-2.26,3.22-5.48,4.76-8.29-2.6-1.33-5.16-3.68-7.82-3.8-10.57-.45-21.17-.21-31.76-.21q-13.66,0-17.36,15.06Zm143.22,22.42c22.14,.82,44.33,.35,66.5,.13,2.72-.03,7-.98,7.84-2.75,2.95-6.26,4.71-13.07,7.31-20.85h-83.75c.25-9.29,3.73-13.11,13.24-12.83,22.46,.66,44.96,.32,67.43,.08,2.99-.03,7.83-1.08,8.62-2.96,3.55-8.42,5.94-17.31,8.68-25.81-1.45-.8-1.99-1.36-2.53-1.36-34.96-.06-69.92-.2-104.88,.02-7.96,.05-13.64,4.76-16.14,12.06-9.48,27.7-18.88,55.43-27.76,83.32-3.1,9.73,.64,14.28,10.78,14.34,32.78,.18,65.57,.15,98.35-.09,2.48-.02,6.37-1.83,7.16-3.77,3.32-8.12,5.7-16.61,8.72-25.87h-84.22c.28-10.61,4.6-14.04,14.63-13.67Zm147.27,43.61c5.8,.34,8.11-2.03,9.76-7.14,7.01-21.67,14.63-43.14,21.47-64.86,1.94-6.15,4.84-8.17,11.26-7.85,10.9,.55,21.85,.3,32.77,.03,2.47-.06,6.48-.98,7.09-2.52,3.41-8.7,5.99-17.71,8.81-26.47-1.9-.78-2.47-1.22-3.03-1.22-40.58-.11-81.16-.22-121.73-.12-2.02,0-5.23,1.47-5.85,3.04-3.41,8.65-6.18,17.54-9.57,27.52h47.79c-8.88,26.61-17.43,52.21-26.52,79.45,10.37,0,19.09-.38,27.76,.13Z" style="fill:#fff;"/><path d="M191.04,112.98c-10.6,0-21.22,.27-31.81-.06-22-.68-29.53-10.84-23.28-32.11,4.41-15,9.81-29.72,14.79-44.56,1.95-5.82,3.99-11.61,5.95-17.43q5.37-15.88,22.77-15.88,17.74,0,12.28,16.15c-5.86,17.43-11.69,34.88-17.48,52.34-3.28,9.89-2.12,11.65,8,11.74,12.16,.11,24.33-.13,36.49,.08,8.41,.15,13.28-3.64,15.83-11.41,6.7-20.38,13.92-40.6,20.39-61.06,1.9-6.02,4.62-8.51,11.13-7.97,6.81,.57,13.72,.36,20.57,.06,5.65-.25,6.01,1.67,4.35,6.46-8.35,24.07-16.08,48.35-24.59,72.36-7.38,20.83-21.17,30.48-43.57,31.2-10.59,.34-21.21,.06-31.81,.06,0,0,0,.02,0,.03Zm-101.86,.03c23.94,0,23.78-.05,30.92-22.6,1.75-5.54,1.35-7.46-5.26-7.35-20.88,.37-41.78,.14-62.67,.13-14.49,0-14.88-.51-10.47-13.62,6.35-18.88,12.71-37.76,19.08-56.64q3.35-9.94-6.93-9.99-24.84-.13-32.62,22.88C14.87,44.73,7.94,63.48,2.54,82.65c-5.85,20.78,1.59,29.95,23.03,30.31,12.78,.21,25.57,.04,38.35,.04,8.42,0,16.84,0,25.26,0Z" style="fill:#fee903;"/><path d="M524.87,.27c12.61,3.51,18.09,11.7,19.37,24.59,2.7,27.13,6.54,54.16,10.13,81.2,.71,5.35-1.05,7.19-6.46,6.98-7.79-.3-15.62-.45-23.39,.04-6.4,.41-9.5-1.75-8.91-8.12,.64-6.89-2.45-8.96-9.32-8.72-14.02,.48-28.09,.43-42.12,.01-6.29-.19-10.96,1.27-13.82,6.96-4.09,8.12-10.58,11.09-19.75,9.89-5.52-.72-11.23,.07-16.83-.22-2.87-.14-6.8,1.83-8.38-1.71-1.29-2.88,2.02-4.84,3.67-6.92,18.57-23.49,37.18-46.95,55.82-70.39,5.95-7.48,11.73-15.07,18.61-21.84,5.94-5.84,13.96-7.65,20.75-11.75h20.61Zm-16.69,32.27c-.82-.32-1.64-.63-2.47-.95-9.56,12.41-19.12,24.83-29.79,38.68,11.69,0,21.49-.1,31.29,.05,3.93,.06,4.71-1.82,4.35-5.13-1.18-10.88-2.26-21.77-3.38-32.65Zm-136.19,80.43c24.17,0,24-.05,31.05-22.56,1.78-5.69,1.09-7.44-5.37-7.34-22.16,.33-44.34,.19-66.51,.1-9.39-.04-10.37-1.42-7.4-10.43,6.45-19.53,13.03-39.02,19.57-58.52q3.83-11.41-8.03-11.42c-23.26-.04-23.35-.07-30.71,21.89-6.64,19.8-14,39.44-19.34,59.58-5.29,19.95,2.15,28.32,23.03,28.65,12.8,.2,25.6,.04,38.41,.04,8.43,0,16.86,0,25.29,0Z" style="fill:#3ab5fe;"/></svg>