<svg width="155" height="24" viewBox="0 0 155 24" fill="none" xmlns="http://www.w3.org/2000/svg">
<path d="M152.218 18.5482C150.672 18.5482 149.451 19.7989 149.451 21.2762V21.2896C149.451 22.7642 150.656 24.0016 152.202 24.0016C153.748 24.0016 154.969 22.7509 154.969 21.2762V21.2602C154.969 19.7856 153.764 18.5482 152.218 18.5482ZM154.649 21.2762C154.649 22.6015 153.596 23.6949 152.202 23.6949C150.808 23.6949 149.772 22.6176 149.772 21.2896V21.2762C149.772 19.9509 150.824 18.8496 152.218 18.8496C153.612 18.8496 154.649 19.9349 154.649 21.2629V21.2789V21.2762Z" fill="#FFD74A"/>
<path d="M153.639 20.7516V20.7356C153.639 20.4583 153.555 20.2423 153.386 20.0769C153.18 19.8743 152.86 19.7543 152.404 19.7543H151.032V22.6396H151.848V21.7623H152.206L152.801 22.6396H153.739L153.039 21.6289C153.405 21.4796 153.641 21.1863 153.641 20.7516H153.639ZM152.825 20.7969C152.825 21.0049 152.665 21.1409 152.383 21.1409H151.848V20.4369H152.383C152.649 20.4369 152.825 20.5569 152.825 20.7809V20.7969Z" fill="#FFD74A"/>
<path d="M46.2324 0.416382L38.5748 13.6831C37.6905 15.2457 36.7031 16.7391 35.7836 18.3017C38.1869 18.0937 40.5523 18.0937 42.9556 18.0244L40.9157 23.5817H26.0753L32.7455 11.7737C33.9119 9.72572 35.1841 7.74438 36.6326 5.86972H31.24L33.2419 0.416382H46.2351H46.2324Z" fill="#FFD74A"/>
<path d="M54.7792 23.5844L54.6734 20.6324H50.4689L49.5846 23.5844H43.0826L51.5648 0.416382H59.2305L61.2432 23.5817H54.7765L54.7792 23.5844ZM54.4971 9.96838C54.4971 8.64838 54.5676 7.29372 54.6029 5.97372C54.3208 7.05105 54.1092 8.16305 53.7891 9.23772C53.1544 11.3897 52.5874 13.5444 51.9174 15.6964H54.5676C54.5323 14.7924 54.4971 13.8911 54.4971 12.9871V9.96572V9.96838Z" fill="#FFD74A"/>
<path d="M79.39 23.5844H73.4196L71.3364 15.075C70.9485 13.4777 70.5958 11.8804 70.3463 10.2484C70.2758 11.4644 70.2052 12.715 70.1347 13.931C69.9231 17.1604 69.4267 20.3577 69.0388 23.587H63.0685L65.9655 0.416382H71.9359L74.0571 8.54438C74.5508 10.4537 74.8708 12.435 75.294 14.379C75.294 11.4617 75.2587 8.54438 75.6466 5.62705L76.3194 0.416382H82.2897L79.3927 23.5817L79.39 23.5844Z" fill="#FFD74A"/>
<path d="M95.0546 8.26775C94.4199 7.01708 93.2182 5.73175 91.6992 5.73175C90.8501 5.73175 89.8275 6.35575 89.8275 7.25975C89.8275 9.30775 94.7725 10.2811 94.7725 15.0384C94.7725 19.7957 91.2407 23.9984 86.2225 23.9984C84.6682 23.9984 83.1492 23.6171 81.7359 22.9904L82.6555 15.7317C83.4692 17.0517 84.6682 18.2677 86.331 18.2677C87.3564 18.2677 88.379 17.6437 88.379 16.5317C88.379 14.4491 83.5045 13.5104 83.5045 8.50775C83.5045 4.23575 87.0715 -0.00158691 91.5608 -0.00158691C93.1151 -0.00158691 94.5989 0.44908 95.9416 1.17975L95.0573 8.26508L95.0546 8.26775Z" fill="#FFD74A"/>
<path d="M102.188 23.5844H95.9359L98.8329 0.416382H105.085L102.188 23.5817V23.5844Z" fill="#FFD74A"/>
<path d="M115.261 0.416382C119.183 0.416382 122.539 1.73638 122.539 6.14705C122.539 9.23772 120.808 11.4271 117.594 11.7044C120.35 12.0857 121.728 13.2671 121.728 16.1151C121.728 20.5257 118.231 23.5817 113.851 23.5817H105.089L107.983 0.416382H115.261ZM111.976 18.5471C112.152 18.5817 112.329 18.5817 112.505 18.5817C114.059 18.5817 115.402 17.6431 115.402 16.0111C115.402 14.6217 114.271 14.1017 113.034 14.1017C112.858 14.1017 112.717 14.1364 112.54 14.1364L111.976 18.5471ZM113.107 9.41372C113.248 9.44838 113.389 9.44838 113.53 9.44838C114.979 9.44838 116.251 8.68305 116.251 7.15505C116.251 5.90438 115.437 5.41905 114.274 5.41905C114.062 5.41905 113.815 5.41905 113.604 5.45372L113.11 9.41372H113.107Z" fill="#FFD74A"/>
<path d="M136.882 5.86972H131.511L131.088 9.23772H135.927L135.255 14.4831H130.451L129.992 18.0244H135.363L134.69 23.5817H123.032L125.929 0.416382H137.587L136.882 5.86972Z" fill="#FFD74A"/>
<path d="M148.759 5.97372L146.57 23.5817H140.318L142.509 5.97372H139.048L139.753 0.416382H152.931L152.223 5.97372H148.759Z" fill="#FFD74A"/>
<path d="M24.4483 23.5844H17.9111C18.299 18.6537 18.7248 13.7551 19.148 8.82438C17.8758 13.7897 16.251 18.6884 14.6967 23.5844H9.57264L9.18474 12.4351C9.18474 12.0537 9.14948 11.635 9.14948 11.2537C9.14948 10.4537 9.18474 9.62172 9.22 8.82172C8.54729 13.7524 7.59518 18.6857 6.71088 23.5817H0L5.58246 0.416382H13.3892L13.7066 8.23238C13.7418 8.82172 13.7771 9.37905 13.7771 9.96838C13.7771 10.9071 13.7066 11.8084 13.6713 12.7471C14.6261 8.54438 16.0394 4.51505 17.3468 0.416382H26.1681L23.1951 12.7471H27.5949L24.4456 23.5844H24.4483Z" fill="#FFD74A"/>
</svg>
