<svg width="251" height="93" viewBox="0 0 251 93" fill="none" xmlns="http://www.w3.org/2000/svg">
<path d="M17.5257 26.8647C17.896 26.7893 21.1629 26.7041 21.5004 26.6025C22.7456 26.2421 23.7876 25.7408 24.6199 25.1018C25.4154 24.5123 26.0563 23.7387 26.4876 22.8474C26.9005 21.9791 27.1102 21.0452 27.1102 20.0458C27.1102 19.0431 26.9299 18.1224 26.5695 17.2901C26.2206 16.4691 25.7038 15.7303 25.0524 15.1209C24.3779 14.4985 23.5858 14.0172 22.7226 13.7053C21.9868 13.4382 21.2167 13.2771 20.4355 13.2269C19.926 13.1928 19.4148 13.1928 18.9052 13.2269H11.3491L11.2705 38.0547C11.2705 38.8247 11.2869 39.4539 11.3131 39.9323C11.3426 40.4107 11.4114 40.8006 11.5162 41.1021C11.6027 41.3733 11.752 41.6203 11.952 41.8229C12.1701 42.0308 12.4201 42.2023 12.6926 42.3308C13.3905 42.6913 14.1638 42.878 15.0092 42.878H16.274V43.7726H1.44356V42.878H2.67561C4.11737 42.878 5.15282 42.4914 5.7885 41.7246C6.20137 41.184 6.41108 39.9618 6.41108 38.0613V17.1426C6.41108 16.3923 6.39142 15.7762 6.3652 15.2978C6.35096 14.8973 6.28263 14.5005 6.16206 14.1182C6.07828 13.8407 5.93007 13.587 5.72953 13.3777C5.51837 13.1757 5.27881 13.0057 5.01847 12.8731C4.29211 12.4977 3.48667 12.3011 2.66906 12.2996H1.43701V11.4346H18.4367C20.311 11.4346 21.9002 11.487 23.2076 11.5919C24.3545 11.671 25.4913 11.8597 26.6023 12.1555C27.5591 12.4241 28.3815 12.7879 29.0729 13.2368C29.761 13.689 30.4164 14.2591 31.0324 14.9538C32.2513 16.3202 32.8575 17.9159 32.8575 19.7443C32.8575 21.7464 32.1662 23.4733 30.7735 24.9412C29.3842 26.4059 27.238 27.4315 24.3315 28.0279H17.5192V26.8647H17.5257Z" fill="#D7AC63"/>
<path d="M16.2734 42.8786H15.0087V42.1419H16.2734C16.6806 42.1419 17.0102 42.4715 17.0102 42.8786V43.7714C17.0102 44.1786 16.6806 44.5106 16.2734 44.5106H1.44418C1.037 44.5106 0.707395 44.1786 0.707395 43.7714V42.8786C0.707395 42.4715 1.037 42.1419 1.44418 42.1419H2.67535V42.8786H1.44418V43.7714H16.2734V42.8786ZM5.67288 38.0619V17.1416C5.67287 16.405 5.65508 15.8031 5.62968 15.3393L5.62728 15.3249C5.61541 14.991 5.55968 14.6594 5.45929 14.3409L5.45689 14.3313C5.40852 14.1711 5.32329 14.0244 5.20969 13.9017C5.05291 13.7535 4.87635 13.6277 4.68411 13.5297L4.67931 13.5273C4.21261 13.2862 3.70764 13.1317 3.18894 13.0689L2.66815 13.0377H1.43698C1.0298 13.0377 0.700195 12.7057 0.700195 12.2985V11.4345C0.700195 11.0274 1.0298 10.6978 1.43698 10.6978H18.4358V11.4345H1.43698V12.2985H2.66815C3.4854 12.3 4.29159 12.4971 5.0177 12.8721C5.27804 13.0048 5.51932 13.1765 5.73048 13.3785C5.93049 13.5875 6.07881 13.8407 6.16247 14.1177C6.28305 14.4999 6.34983 14.8979 6.36407 15.2985C6.39025 15.7766 6.41205 16.392 6.41207 17.1416V38.0619L6.40007 38.7411C6.35434 40.2561 6.1494 41.2511 5.78808 41.7243C5.23169 42.3954 4.36941 42.7751 3.19614 42.8594L2.67535 42.8786V42.1419C3.9854 42.1419 4.76257 41.7923 5.20729 41.2659C5.30305 41.1344 5.43343 40.8397 5.52889 40.2795C5.62332 39.7251 5.67286 38.9895 5.67288 38.0619ZM32.8571 19.7432C32.8568 18.1434 32.3931 16.7217 31.4603 15.476L31.0331 14.9529C30.4171 14.2582 29.7604 13.6891 29.0724 13.2369C28.3811 12.7881 27.5594 12.4232 26.6028 12.1545C25.7697 11.9328 24.9216 11.7725 24.0661 11.6721L23.2069 11.5929C21.8996 11.4881 20.3098 11.4345 18.4358 11.4345V10.6978C20.3222 10.6978 21.9336 10.7492 23.2669 10.8562L23.2645 10.8586C24.1575 10.9205 25.0446 11.0445 25.9188 11.2329L26.7924 11.4441L26.802 11.4465C27.5648 11.6608 28.2574 11.9348 28.878 12.2673L29.4755 12.6177L29.4779 12.6201C30.2242 13.1105 30.9275 13.7246 31.5827 14.4633L32.0531 15.0393C33.0791 16.4114 33.5936 17.9858 33.5939 19.7432C33.5939 21.9355 32.8299 23.8443 31.3091 25.4478C29.7771 27.0629 27.4662 28.1372 24.4789 28.7502C24.4307 28.76 24.3816 28.7645 24.3325 28.7645H17.519C17.1119 28.7645 16.7822 28.4349 16.7822 28.0278V26.8638C16.7827 26.488 17.0641 26.1792 17.4278 26.1342C17.6021 26.1066 17.9136 26.0861 18.215 26.0694C18.582 26.0491 19.0397 26.0286 19.4894 26.007C19.9426 25.9853 20.3898 25.9628 20.7421 25.9398C20.9179 25.9283 21.0644 25.9171 21.1741 25.9062C21.3121 25.8925 21.3256 25.885 21.2869 25.8966L21.2965 25.8942C22.473 25.5536 23.4274 25.088 24.1717 24.5166L24.1813 24.5094C24.7937 24.0556 25.3024 23.4779 25.674 22.8151L25.8228 22.5271C26.1864 21.7611 26.3724 20.9368 26.3724 20.0455C26.3724 19.1327 26.2086 18.3133 25.8924 17.5832L25.89 17.5784C25.5821 16.8541 25.1274 16.2015 24.5533 15.6632L24.0805 15.2697C23.5917 14.9016 23.0501 14.6072 22.4725 14.3985H22.4701C21.8006 14.1555 21.1001 14.0074 20.3894 13.9617H20.387C19.9103 13.9297 19.4309 13.9297 18.9542 13.9617C18.9382 13.9627 18.9222 13.9641 18.9062 13.9641H12.0831L12.0087 38.0571C12.0088 38.8134 12.0245 39.4256 12.0495 39.8859L12.1119 40.4571L12.2127 40.8603L12.2199 40.8771H12.2175C12.268 41.0354 12.3561 41.1804 12.4719 41.2995C12.5493 41.3721 12.6318 41.4388 12.7191 41.4987L13.0071 41.6643L13.0311 41.6763C13.6197 41.9801 14.2761 42.1418 15.0087 42.1419V42.8786L14.3895 42.8426C13.9848 42.7964 13.5981 42.7054 13.2303 42.569L12.6927 42.3314C12.4203 42.2029 12.1692 42.0305 11.9511 41.8227C11.7516 41.6203 11.6032 41.3734 11.5168 41.1027C11.4119 40.8012 11.3422 40.4099 11.3128 39.9315C11.2997 39.6926 11.2889 39.4162 11.2816 39.1035L11.2696 38.0547L11.3488 13.2273H18.9062L19.6694 13.2009C19.9247 13.2009 20.18 13.2102 20.435 13.2273C21.216 13.2774 21.9864 13.4378 22.7221 13.7049C23.5853 14.0167 24.378 14.4984 25.0524 15.1209C25.7039 15.7302 26.2203 16.4695 26.5692 17.2904C26.9296 18.1226 27.1092 19.043 27.1092 20.0455C27.1092 21.0446 26.9002 21.9782 26.4876 22.8463L26.3172 23.1751C25.8947 23.9287 25.3169 24.5862 24.6205 25.1022L24.2989 25.335C23.5248 25.8641 22.5902 26.2867 21.5005 26.6022C21.2474 26.6784 19.3467 26.7457 18.2558 26.8062L17.5262 26.8638H17.519V28.0278H24.3325L25.386 27.783C27.5934 27.211 29.2995 26.356 30.5051 25.2102L30.7739 24.9414C32.1665 23.4735 32.8571 21.7452 32.8571 19.7432Z" fill="#D7AC63"/>
<path d="M17.5257 26.8647C17.896 26.7893 21.1629 26.7041 21.5004 26.6025C22.7456 26.2421 23.7876 25.7408 24.6199 25.1018C25.4154 24.5123 26.0563 23.7387 26.4876 22.8474C26.9005 21.9791 27.1102 21.0452 27.1102 20.0458C27.1102 19.0431 26.9299 18.1224 26.5695 17.2901C26.2206 16.4691 25.7038 15.7303 25.0524 15.1209C24.3779 14.4985 23.5858 14.0172 22.7226 13.7053C21.9868 13.4382 21.2167 13.2771 20.4355 13.2269C19.926 13.1928 19.4148 13.1928 18.9052 13.2269H11.3491L11.2705 38.0547C11.2705 38.8247 11.2869 39.4539 11.3131 39.9323C11.3426 40.4107 11.4114 40.8006 11.5162 41.1021C11.6027 41.3733 11.752 41.6203 11.952 41.8229C12.1701 42.0308 12.4201 42.2023 12.6926 42.3308C13.3905 42.6913 14.1638 42.878 15.0092 42.878H16.274V43.7726H1.44356V42.878H2.67561C4.11737 42.878 5.15282 42.4914 5.7885 41.7246C6.20137 41.184 6.41108 39.9618 6.41108 38.0613V17.1426C6.41108 16.3923 6.39142 15.7762 6.3652 15.2978C6.35096 14.8973 6.28263 14.5005 6.16206 14.1182C6.07828 13.8407 5.93007 13.587 5.72953 13.3777C5.51837 13.1757 5.27881 13.0057 5.01847 12.8731C4.29211 12.4977 3.48667 12.3011 2.66906 12.2996H1.43701V11.4346H18.4367C20.311 11.4346 21.9002 11.487 23.2076 11.5919C24.3545 11.671 25.4913 11.8597 26.6023 12.1555C27.5591 12.4241 28.3815 12.7879 29.0729 13.2368C29.761 13.689 30.4164 14.2591 31.0324 14.9538C32.2513 16.3202 32.8575 17.9159 32.8575 19.7443C32.8575 21.7464 32.1662 23.4733 30.7735 24.9412C29.3842 26.4059 27.238 27.4315 24.3315 28.0279H17.5192V26.8647H17.5257Z" fill="#D7AC63"/>
<path d="M16.2734 42.8786H15.0087V42.1419H16.2734C16.6806 42.1419 17.0102 42.4715 17.0102 42.8786V43.7714C17.0102 44.1786 16.6806 44.5106 16.2734 44.5106H1.44418C1.037 44.5106 0.707395 44.1786 0.707395 43.7714V42.8786C0.707395 42.4715 1.037 42.1419 1.44418 42.1419H2.67535V42.8786H1.44418V43.7714H16.2734V42.8786ZM5.67288 38.0619V17.1416C5.67287 16.405 5.65508 15.8031 5.62968 15.3393L5.62728 15.3249C5.61541 14.991 5.55968 14.6594 5.45929 14.3409L5.45689 14.3313C5.40852 14.1711 5.32329 14.0244 5.20969 13.9017C5.05291 13.7535 4.87635 13.6277 4.68411 13.5297L4.67931 13.5273C4.21261 13.2862 3.70764 13.1317 3.18894 13.0689L2.66815 13.0377H1.43698C1.0298 13.0377 0.700195 12.7057 0.700195 12.2985V11.4345C0.700195 11.0274 1.0298 10.6978 1.43698 10.6978H18.4358V11.4345H1.43698V12.2985H2.66815C3.4854 12.3 4.29159 12.4971 5.0177 12.8721C5.27804 13.0048 5.51932 13.1765 5.73048 13.3785C5.93049 13.5875 6.07881 13.8407 6.16247 14.1177C6.28305 14.4999 6.34983 14.8979 6.36407 15.2985C6.39025 15.7766 6.41205 16.392 6.41207 17.1416V38.0619L6.40007 38.7411C6.35434 40.2561 6.1494 41.2511 5.78808 41.7243C5.23169 42.3954 4.36941 42.7751 3.19614 42.8594L2.67535 42.8786V42.1419C3.9854 42.1419 4.76257 41.7923 5.20729 41.2659C5.30305 41.1344 5.43343 40.8397 5.52889 40.2795C5.62332 39.7251 5.67286 38.9895 5.67288 38.0619ZM32.8571 19.7432C32.8568 18.1434 32.3931 16.7217 31.4603 15.476L31.0331 14.9529C30.4171 14.2582 29.7604 13.6891 29.0724 13.2369C28.3811 12.7881 27.5594 12.4232 26.6028 12.1545C25.7697 11.9328 24.9216 11.7725 24.0661 11.6721L23.2069 11.5929C21.8996 11.4881 20.3098 11.4345 18.4358 11.4345V10.6978C20.3222 10.6978 21.9336 10.7492 23.2669 10.8562L23.2645 10.8586C24.1575 10.9205 25.0446 11.0445 25.9188 11.2329L26.7924 11.4441L26.802 11.4465C27.5648 11.6608 28.2574 11.9348 28.878 12.2673L29.4755 12.6177L29.4779 12.6201C30.2242 13.1105 30.9275 13.7246 31.5827 14.4633L32.0531 15.0393C33.0791 16.4114 33.5936 17.9858 33.5939 19.7432C33.5939 21.9355 32.8299 23.8443 31.3091 25.4478C29.7771 27.0629 27.4662 28.1372 24.4789 28.7502C24.4307 28.76 24.3816 28.7645 24.3325 28.7645H17.519C17.1119 28.7645 16.7822 28.4349 16.7822 28.0278V26.8638C16.7827 26.488 17.0641 26.1792 17.4278 26.1342C17.6021 26.1066 17.9136 26.0861 18.215 26.0694C18.582 26.0491 19.0397 26.0286 19.4894 26.007C19.9426 25.9853 20.3898 25.9628 20.7421 25.9398C20.9179 25.9283 21.0644 25.9171 21.1741 25.9062C21.3121 25.8925 21.3256 25.885 21.2869 25.8966L21.2965 25.8942C22.473 25.5536 23.4274 25.088 24.1717 24.5166L24.1813 24.5094C24.7937 24.0556 25.3024 23.4779 25.674 22.8151L25.8228 22.5271C26.1864 21.7611 26.3724 20.9368 26.3724 20.0455C26.3724 19.1327 26.2086 18.3133 25.8924 17.5832L25.89 17.5784C25.5821 16.8541 25.1274 16.2015 24.5533 15.6632L24.0805 15.2697C23.5917 14.9016 23.0501 14.6072 22.4725 14.3985H22.4701C21.8006 14.1555 21.1001 14.0074 20.3894 13.9617H20.387C19.9103 13.9297 19.4309 13.9297 18.9542 13.9617C18.9382 13.9627 18.9222 13.9641 18.9062 13.9641H12.0831L12.0087 38.0571C12.0088 38.8134 12.0245 39.4256 12.0495 39.8859L12.1119 40.4571L12.2127 40.8603L12.2199 40.8771H12.2175C12.268 41.0354 12.3561 41.1804 12.4719 41.2995C12.5493 41.3721 12.6318 41.4388 12.7191 41.4987L13.0071 41.6643L13.0311 41.6763C13.6197 41.9801 14.2761 42.1418 15.0087 42.1419V42.8786L14.3895 42.8426C13.9848 42.7964 13.5981 42.7054 13.2303 42.569L12.6927 42.3314C12.4203 42.2029 12.1692 42.0305 11.9511 41.8227C11.7516 41.6203 11.6032 41.3734 11.5168 41.1027C11.4119 40.8012 11.3422 40.4099 11.3128 39.9315C11.2997 39.6926 11.2889 39.4162 11.2816 39.1035L11.2696 38.0547L11.3488 13.2273H18.9062L19.6694 13.2009C19.9247 13.2009 20.18 13.2102 20.435 13.2273C21.216 13.2774 21.9864 13.4378 22.7221 13.7049C23.5853 14.0167 24.378 14.4984 25.0524 15.1209C25.7039 15.7302 26.2203 16.4695 26.5692 17.2904C26.9296 18.1226 27.1092 19.043 27.1092 20.0455C27.1092 21.0446 26.9002 21.9782 26.4876 22.8463L26.3172 23.1751C25.8947 23.9287 25.3169 24.5862 24.6205 25.1022L24.2989 25.335C23.5248 25.8641 22.5902 26.2867 21.5005 26.6022C21.2474 26.6784 19.3467 26.7457 18.2558 26.8062L17.5262 26.8638H17.519V28.0278H24.3325L25.386 27.783C27.5934 27.211 29.2995 26.356 30.5051 25.2102L30.7739 24.9414C32.1665 23.4735 32.8571 21.7452 32.8571 19.7432Z" fill="#D7AC63"/>
<path fill-rule="evenodd" clip-rule="evenodd" d="M46.6952 18.6925L37.5335 38.1923C36.9601 39.3785 36.6717 40.2894 36.6717 40.9283C36.6717 41.4362 36.9207 41.8655 37.4155 42.2259C37.9136 42.5995 38.9884 42.8256 40.6529 42.9042V43.7791H29.7578V42.9042C31.216 42.6748 32.1564 42.3799 32.5692 42.0031C33.4343 41.2495 34.3977 39.7389 35.4691 37.4616L47.6258 11.428H48.5204L60.5525 37.7401C61.5224 39.811 62.4071 41.1807 63.2066 41.8589C63.9668 42.4619 65.0711 42.8059 66.5063 42.9042V43.7791H52.8686V42.9042C53.5501 42.8846 54.1137 42.8223 54.5626 42.7076C55.0148 42.5962 55.3753 42.4553 55.644 42.2849C55.8812 42.1458 56.0777 41.947 56.2141 41.7082C56.3274 41.485 56.3848 41.2376 56.3812 40.9873C56.3812 40.2927 56.0437 39.2113 55.3654 37.7434L46.6919 18.699L46.6952 18.6925Z" fill="#D7AC63"/>
<path d="M48.7295 10.72C48.9306 10.7794 49.1001 10.9241 49.1903 11.1208L61.2212 37.4266L61.5764 38.1609C62.3842 39.7735 63.0868 40.7823 63.6691 41.2833C64.2664 41.7553 65.2005 42.0759 66.5563 42.1689C66.9427 42.1953 67.2422 42.516 67.2427 42.9032V43.7792C67.2426 44.1863 66.913 44.516 66.5059 44.516H52.8694C52.4623 44.516 52.1303 44.1863 52.1302 43.7792V42.9032C52.1307 42.5048 52.4494 42.1779 52.8478 42.1665C53.5026 42.1475 54.0068 42.0894 54.3813 41.9937L54.3861 41.9913C54.7934 41.8909 55.0721 41.7753 55.2501 41.6625L55.2717 41.6481C55.3925 41.5771 55.4903 41.4753 55.5621 41.3553C55.6156 41.2433 55.6455 41.1219 55.6437 40.9977V40.9881C55.6437 40.4702 55.373 39.5188 54.6957 38.0529V38.0481L46.6799 20.4541L38.2009 38.5065L38.1985 38.5137C37.6322 39.6853 37.409 40.467 37.4089 40.9281C37.4089 41.0918 37.4592 41.2598 37.6321 41.4417L37.8505 41.6289L37.8577 41.6361L37.9777 41.7081C38.1273 41.7855 38.3715 41.8763 38.7481 41.9553C39.2345 42.0573 39.8768 42.1305 40.6873 42.1689C41.0802 42.1874 41.3899 42.51 41.3904 42.9032V43.7792C41.3904 44.1861 41.0605 44.5157 40.6537 44.516H29.7579C29.3508 44.516 29.0212 44.1863 29.0211 43.7792V42.9032C29.0216 42.5409 29.2848 42.2327 29.6427 42.1761C30.3522 42.0645 30.9126 41.9402 31.3323 41.8065C31.7665 41.668 31.9828 41.5391 32.0714 41.4585L32.0858 41.4465C32.8249 40.8021 33.7332 39.4177 34.8002 37.1506L46.9583 11.116L47.0735 10.9408C47.2112 10.7846 47.4108 10.6913 47.6255 10.6912H48.5207L48.7295 10.72ZM47.6255 11.4279L35.4698 37.4626C34.3984 39.7395 33.4332 41.2497 32.5682 42.0033C32.155 42.3798 31.2151 42.674 29.7579 42.9032V43.7792H40.6537V42.9032C38.9897 42.8246 37.9145 42.5997 37.4161 42.2265C36.9213 41.866 36.6721 41.436 36.6721 40.9281C36.6722 40.2891 36.9604 39.3782 37.5337 38.1921L46.6919 18.6998L55.3653 37.7434C56.0436 39.2113 56.3805 40.2934 56.3805 40.9881C56.384 41.238 56.328 41.4852 56.2149 41.7081C56.0786 41.9468 55.8809 42.145 55.6437 42.2841C55.3753 42.4543 55.0154 42.5951 54.5637 42.7064C54.115 42.8211 53.5506 42.8836 52.8694 42.9032V43.7792H66.5059V42.9032C65.071 42.8049 63.966 42.4621 63.206 41.8593C62.4065 41.1809 61.5213 39.8114 60.5516 37.741L48.5207 11.4279H47.6255Z" fill="#D7AC63"/>
<path fill-rule="evenodd" clip-rule="evenodd" d="M46.6952 18.6925L37.5335 38.1923C36.9601 39.3785 36.6717 40.2894 36.6717 40.9283C36.6717 41.4362 36.9207 41.8655 37.4155 42.2259C37.9136 42.5995 38.9884 42.8256 40.6529 42.9042V43.7791H29.7578V42.9042C31.216 42.6748 32.1564 42.3799 32.5692 42.0031C33.4343 41.2495 34.3977 39.7389 35.4691 37.4616L47.6258 11.428H48.5204L60.5525 37.7401C61.5224 39.811 62.4071 41.1807 63.2066 41.8589C63.9668 42.4619 65.0711 42.8059 66.5063 42.9042V43.7791H52.8686V42.9042C53.5501 42.8846 54.1137 42.8223 54.5626 42.7076C55.0148 42.5962 55.3753 42.4553 55.644 42.2849C55.8812 42.1458 56.0777 41.947 56.2141 41.7082C56.3274 41.485 56.3848 41.2376 56.3812 40.9873C56.3812 40.2927 56.0437 39.2113 55.3654 37.7434L46.6919 18.699L46.6952 18.6925Z" fill="#D7AC63"/>
<path d="M48.7295 10.72C48.9306 10.7794 49.1001 10.9241 49.1903 11.1208L61.2212 37.4266L61.5764 38.1609C62.3842 39.7735 63.0868 40.7823 63.6691 41.2833C64.2664 41.7553 65.2005 42.0759 66.5563 42.1689C66.9427 42.1953 67.2422 42.516 67.2427 42.9032V43.7792C67.2426 44.1863 66.913 44.516 66.5059 44.516H52.8694C52.4623 44.516 52.1303 44.1863 52.1302 43.7792V42.9032C52.1307 42.5048 52.4494 42.1779 52.8478 42.1665C53.5026 42.1475 54.0068 42.0894 54.3813 41.9937L54.3861 41.9913C54.7934 41.8909 55.0721 41.7753 55.2501 41.6625L55.2717 41.6481C55.3925 41.5771 55.4903 41.4753 55.5621 41.3553C55.6156 41.2433 55.6455 41.1219 55.6437 40.9977V40.9881C55.6437 40.4702 55.373 39.5188 54.6957 38.0529V38.0481L46.6799 20.4541L38.2009 38.5065L38.1985 38.5137C37.6322 39.6853 37.409 40.467 37.4089 40.9281C37.4089 41.0918 37.4592 41.2598 37.6321 41.4417L37.8505 41.6289L37.8577 41.6361L37.9777 41.7081C38.1273 41.7855 38.3715 41.8763 38.7481 41.9553C39.2345 42.0573 39.8768 42.1305 40.6873 42.1689C41.0802 42.1874 41.3899 42.51 41.3904 42.9032V43.7792C41.3904 44.1861 41.0605 44.5157 40.6537 44.516H29.7579C29.3508 44.516 29.0212 44.1863 29.0211 43.7792V42.9032C29.0216 42.5409 29.2848 42.2327 29.6427 42.1761C30.3522 42.0645 30.9126 41.9402 31.3323 41.8065C31.7665 41.668 31.9828 41.5391 32.0714 41.4585L32.0858 41.4465C32.8249 40.8021 33.7332 39.4177 34.8002 37.1506L46.9583 11.116L47.0735 10.9408C47.2112 10.7846 47.4108 10.6913 47.6255 10.6912H48.5207L48.7295 10.72ZM47.6255 11.4279L35.4698 37.4626C34.3984 39.7395 33.4332 41.2497 32.5682 42.0033C32.155 42.3798 31.2151 42.674 29.7579 42.9032V43.7792H40.6537V42.9032C38.9897 42.8246 37.9145 42.5997 37.4161 42.2265C36.9213 41.866 36.6721 41.436 36.6721 40.9281C36.6722 40.2891 36.9604 39.3782 37.5337 38.1921L46.6919 18.6998L55.3653 37.7434C56.0436 39.2113 56.3805 40.2934 56.3805 40.9881C56.384 41.238 56.328 41.4852 56.2149 41.7081C56.0786 41.9468 55.8809 42.145 55.6437 42.2841C55.3753 42.4543 55.0154 42.5951 54.5637 42.7064C54.115 42.8211 53.5506 42.8836 52.8694 42.9032V43.7792H66.5059V42.9032C65.071 42.8049 63.966 42.4621 63.206 41.8593C62.4065 41.1809 61.5213 39.8114 60.5516 37.741L48.5207 11.4279H47.6255Z" fill="#D7AC63"/>
<path fill-rule="evenodd" clip-rule="evenodd" d="M69.5504 11.4345H78.9317L100.099 35.6692V17.0246C100.099 15.0586 99.8503 13.8233 99.3555 13.3023C98.6969 12.6305 97.7106 12.293 96.3934 12.293H95.1875V11.428H102.305V44.2575H101.41L78.6106 18.2337V38.1562C78.6106 40.1321 78.8465 41.374 79.3183 41.872C79.954 42.5274 80.9403 42.8518 82.2805 42.8518H83.5158V43.7463H71.4575V42.8518H72.6633C74.1215 42.8518 75.1635 42.4356 75.7762 41.6099C76.1497 41.1315 76.3332 39.9781 76.3332 38.1497V15.6648C75.9196 15.1928 75.4878 14.737 75.0389 14.2984C74.7349 13.9982 74.406 13.7241 74.0559 13.4792C73.7479 13.2679 73.4171 13.092 73.0696 12.9549C72.6442 12.7934 72.2124 12.6491 71.7753 12.5224C71.0482 12.3478 70.3011 12.2706 69.5537 12.293V11.428L69.5504 11.4345Z" fill="#D7AC63"/>
<path d="M102.305 10.6912C102.712 10.6913 103.042 11.0209 103.042 11.4279V44.2568C103.042 44.6639 102.712 44.9934 102.305 44.9936H101.41C101.198 44.9935 100.995 44.9035 100.855 44.744L79.3471 20.1925V38.1561C79.3471 39.1207 79.4068 39.875 79.5127 40.4313C79.6208 40.9987 79.7613 41.2605 79.8487 41.3577L80.0287 41.5233C80.4863 41.8857 81.1995 42.1135 82.2798 42.1137H83.5158C83.923 42.1137 84.2526 42.4457 84.2526 42.8528V43.7456C84.2526 44.1528 83.923 44.4824 83.5158 44.4824H71.4585C71.0513 44.4824 70.7193 44.1528 70.7193 43.7456V42.8528C70.7193 42.4457 71.0513 42.1137 71.4585 42.1137H72.6632C73.9909 42.1137 74.7612 41.7387 75.1832 41.1705L75.1952 41.1561L75.2528 41.0577C75.318 40.9246 75.4004 40.6793 75.4664 40.2681C75.5502 39.7456 75.596 39.043 75.596 38.1489V15.9494C75.2502 15.5639 74.8936 15.1882 74.5232 14.8263L74.5208 14.8239C74.248 14.5546 73.9538 14.3071 73.64 14.0871L73.232 13.8399C73.092 13.7655 72.9477 13.699 72.8 13.6407V13.6383C72.4065 13.4891 72.0064 13.3579 71.6025 13.2399L71.1033 13.1367C70.5997 13.0506 70.0884 13.0158 69.5769 13.0311C69.3776 13.0371 69.1824 12.9612 69.0393 12.8223C68.8965 12.6835 68.8161 12.4911 68.8161 12.2919V11.4807C68.8081 11.3529 68.8314 11.2223 68.8905 11.104L68.8953 11.0992C69.0365 10.8166 69.3387 10.6591 69.6465 10.6984H78.9319L79.0879 10.7152C79.2414 10.7485 79.3812 10.83 79.4863 10.9504L99.3626 33.7066V17.0246C99.3626 16.0668 99.3007 15.3199 99.1898 14.7663C99.0752 14.1938 98.9241 13.9206 98.8202 13.8111V13.8087C98.3468 13.332 97.5845 13.0312 96.3939 13.0311H95.1867C94.78 13.0306 94.4499 12.6988 94.4499 12.2919V11.4279C94.4499 11.0211 94.78 10.6916 95.1867 10.6912H102.305ZM95.1867 11.4279V12.2919H96.3939C97.7109 12.292 98.6969 12.6307 99.3554 13.3023C99.8502 13.8233 100.099 15.0586 100.099 17.0246V35.6698L78.9319 11.4351H69.5529V11.4279L69.5505 11.4351H69.5529V12.2919C70.3003 12.2695 71.0482 12.3477 71.7752 12.5223C72.212 12.6489 72.6437 12.7929 73.0688 12.9543C73.4162 13.0914 73.7473 13.2687 74.0552 13.4799C74.4053 13.7248 74.7351 13.9981 75.0392 14.2983C75.4878 14.7366 75.9193 15.1922 76.3327 15.6639V38.1489C76.3327 39.9774 76.1495 41.1313 75.776 41.6097C75.1632 42.4354 74.1214 42.8528 72.6632 42.8528H71.4585V43.7456H83.5158V42.8528H82.2798C80.94 42.8527 79.9538 42.5265 79.3183 41.8713C78.8467 41.3729 78.6103 40.1314 78.6103 38.1561V18.2342L101.41 44.2568H102.305V11.4279H95.1867Z" fill="#D7AC63"/>
<path fill-rule="evenodd" clip-rule="evenodd" d="M69.5504 11.4345H78.9317L100.099 35.6692V17.0246C100.099 15.0586 99.8503 13.8233 99.3555 13.3023C98.6969 12.6305 97.7106 12.293 96.3934 12.293H95.1875V11.428H102.305V44.2575H101.41L78.6106 18.2337V38.1562C78.6106 40.1321 78.8465 41.374 79.3183 41.872C79.954 42.5274 80.9403 42.8518 82.2805 42.8518H83.5158V43.7463H71.4575V42.8518H72.6633C74.1215 42.8518 75.1635 42.4356 75.7762 41.6099C76.1497 41.1315 76.3332 39.9781 76.3332 38.1497V15.6648C75.9196 15.1928 75.4878 14.737 75.0389 14.2984C74.7349 13.9982 74.406 13.7241 74.0559 13.4792C73.7479 13.2679 73.4171 13.092 73.0696 12.9549C72.6442 12.7934 72.2124 12.6491 71.7753 12.5224C71.0482 12.3478 70.3011 12.2706 69.5537 12.293V11.428L69.5504 11.4345Z" fill="#D7AC63"/>
<path d="M102.305 10.6912C102.712 10.6913 103.042 11.0209 103.042 11.4279V44.2568C103.042 44.6639 102.712 44.9934 102.305 44.9936H101.41C101.198 44.9935 100.995 44.9035 100.855 44.744L79.3471 20.1925V38.1561C79.3471 39.1207 79.4068 39.875 79.5127 40.4313C79.6208 40.9987 79.7613 41.2605 79.8487 41.3577L80.0287 41.5233C80.4863 41.8857 81.1995 42.1135 82.2798 42.1137H83.5158C83.923 42.1137 84.2526 42.4457 84.2526 42.8528V43.7456C84.2526 44.1528 83.923 44.4824 83.5158 44.4824H71.4585C71.0513 44.4824 70.7193 44.1528 70.7193 43.7456V42.8528C70.7193 42.4457 71.0513 42.1137 71.4585 42.1137H72.6632C73.9909 42.1137 74.7612 41.7387 75.1832 41.1705L75.1952 41.1561L75.2528 41.0577C75.318 40.9246 75.4004 40.6793 75.4664 40.2681C75.5502 39.7456 75.596 39.043 75.596 38.1489V15.9494C75.2502 15.5639 74.8936 15.1882 74.5232 14.8263L74.5208 14.8239C74.248 14.5546 73.9538 14.3071 73.64 14.0871L73.232 13.8399C73.092 13.7655 72.9477 13.699 72.8 13.6407V13.6383C72.4065 13.4891 72.0064 13.3579 71.6025 13.2399L71.1033 13.1367C70.5997 13.0506 70.0884 13.0158 69.5769 13.0311C69.3776 13.0371 69.1824 12.9612 69.0393 12.8223C68.8965 12.6835 68.8161 12.4911 68.8161 12.2919V11.4807C68.8081 11.3529 68.8314 11.2223 68.8905 11.104L68.8953 11.0992C69.0365 10.8166 69.3387 10.6591 69.6465 10.6984H78.9319L79.0879 10.7152C79.2414 10.7485 79.3812 10.83 79.4863 10.9504L99.3626 33.7066V17.0246C99.3626 16.0668 99.3007 15.3199 99.1898 14.7663C99.0752 14.1938 98.9241 13.9206 98.8202 13.8111V13.8087C98.3468 13.332 97.5845 13.0312 96.3939 13.0311H95.1867C94.78 13.0306 94.4499 12.6988 94.4499 12.2919V11.4279C94.4499 11.0211 94.78 10.6916 95.1867 10.6912H102.305ZM95.1867 11.4279V12.2919H96.3939C97.7109 12.292 98.6969 12.6307 99.3554 13.3023C99.8502 13.8233 100.099 15.0586 100.099 17.0246V35.6698L78.9319 11.4351H69.5529V11.4279L69.5505 11.4351H69.5529V12.2919C70.3003 12.2695 71.0482 12.3477 71.7752 12.5223C72.212 12.6489 72.6437 12.7929 73.0688 12.9543C73.4162 13.0914 73.7473 13.2687 74.0552 13.4799C74.4053 13.7248 74.7351 13.9981 75.0392 14.2983C75.4878 14.7366 75.9193 15.1922 76.3327 15.6639V38.1489C76.3327 39.9774 76.1495 41.1313 75.776 41.6097C75.1632 42.4354 74.1214 42.8528 72.6632 42.8528H71.4585V43.7456H83.5158V42.8528H82.2798C80.94 42.8527 79.9538 42.5265 79.3183 41.8713C78.8467 41.3729 78.6103 40.1314 78.6103 38.1561V18.2342L101.41 44.2568H102.305V11.4279H95.1867Z" fill="#D7AC63"/>
<path fill-rule="evenodd" clip-rule="evenodd" d="M136.514 11.428L136.523 13.4464H124.036V38.1857C124.036 40.1845 124.262 41.4231 124.711 41.9048C125.346 42.5569 126.346 42.8846 127.702 42.8846H128.908V43.7791H114.196V42.8846H115.431C116.889 42.8846 117.931 42.4684 118.544 41.6394C118.917 41.161 119.101 40.0076 119.101 38.1792V13.4399H106.61V11.428H136.514Z" fill="#D7AC63"/>
<path d="M136.513 10.6912C136.919 10.6912 137.248 11.0198 137.25 11.4255L137.26 13.4439C137.26 13.6397 137.184 13.8283 137.046 13.9671C136.908 14.106 136.719 14.1831 136.523 14.1831H124.773V38.1849C124.773 39.1622 124.83 39.923 124.931 40.4817C125.036 41.0589 125.17 41.3142 125.246 41.3985C125.688 41.8471 126.456 42.1473 127.703 42.1473H128.908C129.315 42.1473 129.644 42.4771 129.645 42.884V43.7792C129.645 44.1863 129.315 44.516 128.908 44.516H114.196C113.789 44.516 113.46 44.1863 113.46 43.7792V42.884C113.46 42.4771 113.789 42.1473 114.196 42.1473H115.43C116.757 42.1473 117.528 41.772 117.95 41.2017L117.962 41.1849C118.029 41.0987 118.147 40.8475 118.235 40.2993C118.319 39.7769 118.363 39.0743 118.363 38.1801V14.1783H106.61C106.203 14.1783 105.873 13.8463 105.873 13.4391V11.4279C105.873 11.0208 106.203 10.6912 106.61 10.6912H136.513ZM106.61 11.4279V13.4391H119.102V38.1801C119.102 40.0066 118.918 41.1595 118.545 41.6385C117.932 42.4675 116.888 42.884 115.43 42.884H114.196V43.7792H128.908V42.884H127.703C126.347 42.884 125.346 42.5569 124.71 41.9049C124.262 41.4231 124.036 40.1836 124.036 38.1849V13.4463H136.523L136.513 11.4279H106.61Z" fill="#D7AC63"/>
<path fill-rule="evenodd" clip-rule="evenodd" d="M136.514 11.428L136.523 13.4464H124.036V38.1857C124.036 40.1845 124.262 41.4231 124.711 41.9048C125.346 42.5569 126.346 42.8846 127.702 42.8846H128.908V43.7791H114.196V42.8846H115.431C116.889 42.8846 117.931 42.4684 118.544 41.6394C118.917 41.161 119.101 40.0076 119.101 38.1792V13.4399H106.61V11.428H136.514Z" fill="#D7AC63"/>
<path d="M136.513 10.6912C136.919 10.6912 137.248 11.0198 137.25 11.4255L137.26 13.4439C137.26 13.6397 137.184 13.8283 137.046 13.9671C136.908 14.106 136.719 14.1831 136.523 14.1831H124.773V38.1849C124.773 39.1622 124.83 39.923 124.931 40.4817C125.036 41.0589 125.17 41.3142 125.246 41.3985C125.688 41.8471 126.456 42.1473 127.703 42.1473H128.908C129.315 42.1473 129.644 42.4771 129.645 42.884V43.7792C129.645 44.1863 129.315 44.516 128.908 44.516H114.196C113.789 44.516 113.46 44.1863 113.46 43.7792V42.884C113.46 42.4771 113.789 42.1473 114.196 42.1473H115.43C116.757 42.1473 117.528 41.772 117.95 41.2017L117.962 41.1849C118.029 41.0987 118.147 40.8475 118.235 40.2993C118.319 39.7769 118.363 39.0743 118.363 38.1801V14.1783H106.61C106.203 14.1783 105.873 13.8463 105.873 13.4391V11.4279C105.873 11.0208 106.203 10.6912 106.61 10.6912H136.513ZM106.61 11.4279V13.4391H119.102V38.1801C119.102 40.0066 118.918 41.1595 118.545 41.6385C117.932 42.4675 116.888 42.884 115.43 42.884H114.196V43.7792H128.908V42.884H127.703C126.347 42.884 125.346 42.5569 124.71 41.9049C124.262 41.4231 124.036 40.1836 124.036 38.1849V13.4463H136.523L136.513 11.4279H106.61Z" fill="#D7AC63"/>
<path d="M135.55 15.2385H136.523V15.2352C136.261 14.4783 136.097 13.9933 135.141 13.646C135.439 13.8885 135.567 14.3767 135.55 15.2385Z" fill="#D7AC63"/>
<path d="M136.523 15.2347C136.261 14.478 136.097 13.9931 135.141 13.6459C135.439 13.8884 135.568 14.3777 135.551 15.2395H136.523V15.2347ZM137.26 15.2395C137.259 15.6461 136.93 15.9762 136.523 15.9762H135.551C135.353 15.9762 135.162 15.8968 135.023 15.7554C134.885 15.6143 134.811 15.4227 134.814 15.2251C134.822 14.8245 134.793 14.5621 134.75 14.3947C134.729 14.3149 134.708 14.268 134.694 14.2435C134.688 14.2322 134.683 14.2251 134.68 14.2219L134.675 14.2171C134.397 13.9901 134.323 13.5962 134.5 13.2835C134.677 12.9704 135.055 12.8295 135.393 12.9523C135.97 13.1618 136.384 13.4431 136.684 13.8451C136.959 14.2136 137.098 14.6443 137.219 14.9947C137.246 15.072 137.26 15.1528 137.26 15.2347V15.2395Z" fill="#D7AC63"/>
<path d="M135.55 15.2385H136.523V15.2352C136.261 14.4783 136.097 13.9933 135.141 13.646C135.439 13.8885 135.567 14.3767 135.55 15.2385Z" fill="#D7AC63"/>
<path d="M136.523 15.2347C136.261 14.478 136.097 13.9931 135.141 13.6459C135.439 13.8884 135.568 14.3777 135.551 15.2395H136.523V15.2347ZM137.26 15.2395C137.259 15.6461 136.93 15.9762 136.523 15.9762H135.551C135.353 15.9762 135.162 15.8968 135.023 15.7554C134.885 15.6143 134.811 15.4227 134.814 15.2251C134.822 14.8245 134.793 14.5621 134.75 14.3947C134.729 14.3149 134.708 14.268 134.694 14.2435C134.688 14.2322 134.683 14.2251 134.68 14.2219L134.675 14.2171C134.397 13.9901 134.323 13.5962 134.5 13.2835C134.677 12.9704 135.055 12.8295 135.393 12.9523C135.97 13.1618 136.384 13.4431 136.684 13.8451C136.959 14.2136 137.098 14.6443 137.219 14.9947C137.246 15.072 137.26 15.1528 137.26 15.2347V15.2395Z" fill="#D7AC63"/>
<path d="M136.527 15.2387V13.4463H134.456C134.741 13.4463 134.97 13.5053 135.144 13.6462C136.097 13.9935 136.265 14.4785 136.52 15.2354L136.527 15.2387Z" fill="#D7AC63"/>
<path d="M134.456 13.4463C134.741 13.4463 134.971 13.5046 135.145 13.6455C136.097 13.9926 136.264 14.478 136.52 15.2342L136.527 15.239V13.4463H134.456ZM137.264 15.239C137.264 15.4944 137.131 15.7312 136.913 15.8654C136.696 15.9995 136.424 16.0133 136.196 15.899L136.191 15.8942C136.017 15.8073 135.884 15.6558 135.821 15.4718C135.685 15.0686 135.613 14.8763 135.502 14.7278C135.416 14.612 135.27 14.4767 134.893 14.339C134.816 14.311 134.743 14.2706 134.679 14.219C134.678 14.2183 134.676 14.2165 134.672 14.2142C134.667 14.2118 134.657 14.2068 134.641 14.2022C134.607 14.1928 134.549 14.183 134.456 14.183C134.049 14.183 133.719 13.8534 133.719 13.4463C133.719 13.0391 134.049 12.7095 134.456 12.7095H136.527C136.934 12.7096 137.264 13.0392 137.264 13.4463V15.239Z" fill="#D7AC63"/>
<path d="M136.527 15.2387V13.4463H134.456C134.741 13.4463 134.97 13.5053 135.144 13.6462C136.097 13.9935 136.265 14.4785 136.52 15.2354L136.527 15.2387Z" fill="#D7AC63"/>
<path d="M134.456 13.4463C134.741 13.4463 134.971 13.5046 135.145 13.6455C136.097 13.9926 136.264 14.478 136.52 15.2342L136.527 15.239V13.4463H134.456ZM137.264 15.239C137.264 15.4944 137.131 15.7312 136.913 15.8654C136.696 15.9995 136.424 16.0133 136.196 15.899L136.191 15.8942C136.017 15.8073 135.884 15.6558 135.821 15.4718C135.685 15.0686 135.613 14.8763 135.502 14.7278C135.416 14.612 135.27 14.4767 134.893 14.339C134.816 14.311 134.743 14.2706 134.679 14.219C134.678 14.2183 134.676 14.2165 134.672 14.2142C134.667 14.2118 134.657 14.2068 134.641 14.2022C134.607 14.1928 134.549 14.183 134.456 14.183C134.049 14.183 133.719 13.8534 133.719 13.4463C133.719 13.0391 134.049 12.7095 134.456 12.7095H136.527C136.934 12.7096 137.264 13.0392 137.264 13.4463V15.239Z" fill="#D7AC63"/>
<path d="M107.587 15.2356H106.61V15.229C106.872 14.4754 107.036 13.9904 107.993 13.6431C107.698 13.8855 107.567 14.3738 107.587 15.2356Z" fill="#D7AC63"/>
<path d="M107.74 12.9492C108.078 12.8267 108.455 12.9661 108.633 13.278C108.811 13.5899 108.738 13.9836 108.46 14.2116C108.46 14.2118 108.46 14.2139 108.458 14.2164C108.455 14.2197 108.448 14.2262 108.441 14.238C108.427 14.263 108.407 14.3114 108.386 14.3916C108.343 14.5585 108.315 14.8208 108.324 15.2196C108.328 15.4172 108.253 15.6084 108.115 15.75C107.976 15.8918 107.785 15.9731 107.587 15.9732H106.61C106.203 15.9732 105.874 15.6431 105.873 15.2364V15.2292C105.873 15.1468 105.887 15.0646 105.914 14.9868C106.035 14.6383 106.175 14.2098 106.449 13.842C106.749 13.4405 107.163 13.1588 107.74 12.9492ZM107.587 15.2364C107.567 14.3748 107.698 13.8854 107.992 13.6428C107.036 13.9901 106.872 14.4756 106.61 15.2292V15.2364H107.587Z" fill="#D7AC63"/>
<path d="M107.587 15.2356H106.61V15.229C106.872 14.4754 107.036 13.9904 107.993 13.6431C107.698 13.8855 107.567 14.3738 107.587 15.2356Z" fill="#D7AC63"/>
<path d="M107.74 12.9492C108.078 12.8267 108.455 12.9661 108.633 13.278C108.811 13.5899 108.738 13.9836 108.46 14.2116C108.46 14.2118 108.46 14.2139 108.458 14.2164C108.455 14.2197 108.448 14.2262 108.441 14.238C108.427 14.263 108.407 14.3114 108.386 14.3916C108.343 14.5585 108.315 14.8208 108.324 15.2196C108.328 15.4172 108.253 15.6084 108.115 15.75C107.976 15.8918 107.785 15.9731 107.587 15.9732H106.61C106.203 15.9732 105.874 15.6431 105.873 15.2364V15.2292C105.873 15.1468 105.887 15.0646 105.914 14.9868C106.035 14.6383 106.175 14.2098 106.449 13.842C106.749 13.4405 107.163 13.1588 107.74 12.9492ZM107.587 15.2364C107.567 14.3748 107.698 13.8854 107.992 13.6428C107.036 13.9901 106.872 14.4756 106.61 15.2292V15.2364H107.587Z" fill="#D7AC63"/>
<path d="M106.61 15.2353V13.4429H108.681C108.436 13.426 108.192 13.4956 107.993 13.6395C107.036 13.9901 106.869 14.4718 106.61 15.2287V15.2353Z" fill="#D7AC63"/>
<path d="M108.681 12.7061V12.7109C108.698 12.7115 108.715 12.7073 108.732 12.7085C109.128 12.7358 109.432 13.0722 109.418 13.4692C109.404 13.8658 109.078 14.1795 108.681 14.1796H108.631L108.523 14.1892C108.488 14.1992 108.454 14.2155 108.424 14.2372C108.37 14.2766 108.31 14.3076 108.247 14.3308C107.865 14.4706 107.717 14.608 107.63 14.7244C107.519 14.8729 107.446 15.0651 107.308 15.4684L107.306 15.466C107.209 15.7595 106.936 15.9724 106.61 15.9724C106.203 15.9724 105.873 15.6426 105.873 15.2356V13.4428C105.873 13.0357 106.203 12.7061 106.61 12.7061H108.681ZM106.61 15.2284C106.869 14.4718 107.036 13.9902 107.992 13.6396C108.192 13.4957 108.436 13.4259 108.681 13.4428H106.61V15.2284Z" fill="#D7AC63"/>
<path d="M106.61 15.2353V13.4429H108.681C108.436 13.426 108.192 13.4956 107.993 13.6395C107.036 13.9901 106.869 14.4718 106.61 15.2287V15.2353Z" fill="#D7AC63"/>
<path d="M108.681 12.7061V12.7109C108.698 12.7115 108.715 12.7073 108.732 12.7085C109.128 12.7358 109.432 13.0722 109.418 13.4692C109.404 13.8658 109.078 14.1795 108.681 14.1796H108.631L108.523 14.1892C108.488 14.1992 108.454 14.2155 108.424 14.2372C108.37 14.2766 108.31 14.3076 108.247 14.3308C107.865 14.4706 107.717 14.608 107.63 14.7244C107.519 14.8729 107.446 15.0651 107.308 15.4684L107.306 15.466C107.209 15.7595 106.936 15.9724 106.61 15.9724C106.203 15.9724 105.873 15.6426 105.873 15.2356V13.4428C105.873 13.0357 106.203 12.7061 106.61 12.7061H108.681ZM106.61 15.2284C106.869 14.4718 107.036 13.9902 107.992 13.6396C108.192 13.4957 108.436 13.4259 108.681 13.4428H106.61V15.2284Z" fill="#D7AC63"/>
<path fill-rule="evenodd" clip-rule="evenodd" d="M166.61 24.7151V11.428H176.453V12.293H175.251C174.557 12.294 173.87 12.4321 173.229 12.6993C172.917 12.8291 172.626 13.0059 172.367 13.2236C172.113 13.4285 171.917 13.6962 171.797 14.0002C171.63 14.5245 171.545 15.5763 171.545 17.1721V38.0612C171.545 38.8116 171.561 39.4276 171.591 39.906C171.617 40.3844 171.686 40.7809 171.791 41.0856C171.876 41.3623 172.025 41.615 172.227 41.8229C172.437 42.0256 172.675 42.1967 172.934 42.3308C173.655 42.6912 174.442 42.878 175.277 42.878H176.483V43.7725H166.62V28.6996H150.702V43.7725H140.839V42.878H142.071C143.513 42.878 144.548 42.4946 145.19 41.7246C145.577 41.2233 145.777 40.001 145.777 38.0612V17.1721C145.78 16.547 145.765 15.922 145.731 15.2978C145.716 14.8986 145.653 14.5026 145.544 14.1182C145.469 13.8441 145.332 13.5908 145.144 13.3776C144.933 13.168 144.687 12.9972 144.417 12.873C143.692 12.504 142.891 12.3077 142.077 12.2996H140.842V11.4345H150.708V26.3961H166.623V24.7184L166.61 24.7151Z" fill="#D7AC63"/>
<path d="M176.454 10.6912C176.861 10.6914 177.191 11.0209 177.191 11.4279V12.2919C177.191 12.699 176.861 13.0309 176.454 13.0311H175.252C174.655 13.032 174.065 13.1495 173.514 13.3791H173.512C173.269 13.48 173.043 13.618 172.842 13.7871L172.83 13.7991L172.828 13.7967C172.679 13.9167 172.565 14.0739 172.492 14.2503C172.369 14.6625 172.283 15.5943 172.283 17.171V38.0602C172.283 38.801 172.298 39.4018 172.326 39.8601V39.8649C172.338 40.0828 172.361 40.2733 172.388 40.4361L172.487 40.8465L172.496 40.8681C172.546 41.0296 172.632 41.1774 172.748 41.3001C172.904 41.4485 173.078 41.5755 173.269 41.6745C173.885 41.9813 174.558 42.1401 175.278 42.1401H176.483C176.89 42.1401 177.219 42.4702 177.219 42.8768V43.772C177.219 44.1792 176.89 44.5088 176.483 44.5088H166.619C166.212 44.5082 165.882 44.1788 165.882 43.772V29.4371H151.439V43.772C151.439 44.1789 151.109 44.5084 150.702 44.5088H140.839C140.432 44.5088 140.102 44.1792 140.102 43.772V42.8768C140.103 42.4702 140.432 42.1401 140.839 42.1401H142.07C143.382 42.1401 144.161 41.7938 144.611 41.2617C144.688 41.1546 144.809 40.8791 144.899 40.3161C144.989 39.7591 145.039 39.0096 145.039 38.0602V17.1686C145.042 16.5581 145.028 15.9471 144.995 15.3375L144.993 15.3255C144.98 14.9852 144.927 14.6476 144.835 14.3199L144.832 14.3127C144.788 14.152 144.708 14.0046 144.599 13.8783C144.455 13.7405 144.291 13.6256 144.11 13.5423L144.083 13.5303C143.46 13.2129 142.77 13.0429 142.07 13.0359H140.841C140.434 13.0354 140.104 12.706 140.104 12.2991V11.4351C140.104 11.0283 140.434 10.6988 140.841 10.6984H150.707C151.114 10.6984 151.446 11.028 151.446 11.4351V25.6596H165.887V24.8484C165.879 24.8049 165.873 24.7595 165.873 24.714V11.4279C165.873 11.021 166.203 10.6916 166.609 10.6912H176.454ZM166.609 11.4279V24.714L166.624 24.7188V26.3964H150.707V11.4351H140.841V12.2991H142.077C142.891 12.3073 143.692 12.5037 144.417 12.8727C144.687 12.9968 144.933 13.1673 145.144 13.3767C145.332 13.5899 145.47 13.8442 145.545 14.1183C145.654 14.5022 145.714 14.898 145.73 15.2967C145.764 15.9205 145.781 16.5463 145.778 17.171V38.0602C145.778 40 145.576 41.2235 145.19 41.7249C144.548 42.4946 143.511 42.8768 142.07 42.8768H140.839V43.772H150.702V28.7004H166.619V43.772H176.483V42.8768H175.278C174.442 42.8768 173.654 42.6901 172.933 42.3297C172.675 42.1959 172.437 42.0253 172.228 41.8233C172.026 41.6155 171.876 41.3628 171.791 41.0865C171.686 40.7817 171.618 40.3841 171.592 39.9057C171.562 39.4273 171.546 38.8104 171.546 38.0602V17.171C171.546 15.5761 171.631 14.5249 171.798 14.0007C171.917 13.6967 172.113 13.428 172.367 13.2231C172.625 13.0056 172.916 12.8297 173.228 12.6999C173.869 12.4326 174.557 12.2929 175.252 12.2919H176.454V11.4279H166.609Z" fill="#D7AC63"/>
<path fill-rule="evenodd" clip-rule="evenodd" d="M166.61 24.7151V11.428H176.453V12.293H175.251C174.557 12.294 173.87 12.4321 173.229 12.6993C172.917 12.8291 172.626 13.0059 172.367 13.2236C172.113 13.4285 171.917 13.6962 171.797 14.0002C171.63 14.5245 171.545 15.5763 171.545 17.1721V38.0612C171.545 38.8116 171.561 39.4276 171.591 39.906C171.617 40.3844 171.686 40.7809 171.791 41.0856C171.876 41.3623 172.025 41.615 172.227 41.8229C172.437 42.0256 172.675 42.1967 172.934 42.3308C173.655 42.6912 174.442 42.878 175.277 42.878H176.483V43.7725H166.62V28.6996H150.702V43.7725H140.839V42.878H142.071C143.513 42.878 144.548 42.4946 145.19 41.7246C145.577 41.2233 145.777 40.001 145.777 38.0612V17.1721C145.78 16.547 145.765 15.922 145.731 15.2978C145.716 14.8986 145.653 14.5026 145.544 14.1182C145.469 13.8441 145.332 13.5908 145.144 13.3776C144.933 13.168 144.687 12.9972 144.417 12.873C143.692 12.504 142.891 12.3077 142.077 12.2996H140.842V11.4345H150.708V26.3961H166.623V24.7184L166.61 24.7151Z" fill="#D7AC63"/>
<path d="M176.454 10.6912C176.861 10.6914 177.191 11.0209 177.191 11.4279V12.2919C177.191 12.699 176.861 13.0309 176.454 13.0311H175.252C174.655 13.032 174.065 13.1495 173.514 13.3791H173.512C173.269 13.48 173.043 13.618 172.842 13.7871L172.83 13.7991L172.828 13.7967C172.679 13.9167 172.565 14.0739 172.492 14.2503C172.369 14.6625 172.283 15.5943 172.283 17.171V38.0602C172.283 38.801 172.298 39.4018 172.326 39.8601V39.8649C172.338 40.0828 172.361 40.2733 172.388 40.4361L172.487 40.8465L172.496 40.8681C172.546 41.0296 172.632 41.1774 172.748 41.3001C172.904 41.4485 173.078 41.5755 173.269 41.6745C173.885 41.9813 174.558 42.1401 175.278 42.1401H176.483C176.89 42.1401 177.219 42.4702 177.219 42.8768V43.772C177.219 44.1792 176.89 44.5088 176.483 44.5088H166.619C166.212 44.5082 165.882 44.1788 165.882 43.772V29.4371H151.439V43.772C151.439 44.1789 151.109 44.5084 150.702 44.5088H140.839C140.432 44.5088 140.102 44.1792 140.102 43.772V42.8768C140.103 42.4702 140.432 42.1401 140.839 42.1401H142.07C143.382 42.1401 144.161 41.7938 144.611 41.2617C144.688 41.1546 144.809 40.8791 144.899 40.3161C144.989 39.7591 145.039 39.0096 145.039 38.0602V17.1686C145.042 16.5581 145.028 15.9471 144.995 15.3375L144.993 15.3255C144.98 14.9852 144.927 14.6476 144.835 14.3199L144.832 14.3127C144.788 14.152 144.708 14.0046 144.599 13.8783C144.455 13.7405 144.291 13.6256 144.11 13.5423L144.083 13.5303C143.46 13.2129 142.77 13.0429 142.07 13.0359H140.841C140.434 13.0354 140.104 12.706 140.104 12.2991V11.4351C140.104 11.0283 140.434 10.6988 140.841 10.6984H150.707C151.114 10.6984 151.446 11.028 151.446 11.4351V25.6596H165.887V24.8484C165.879 24.8049 165.873 24.7595 165.873 24.714V11.4279C165.873 11.021 166.203 10.6916 166.609 10.6912H176.454ZM166.609 11.4279V24.714L166.624 24.7188V26.3964H150.707V11.4351H140.841V12.2991H142.077C142.891 12.3073 143.692 12.5037 144.417 12.8727C144.687 12.9968 144.933 13.1673 145.144 13.3767C145.332 13.5899 145.47 13.8442 145.545 14.1183C145.654 14.5022 145.714 14.898 145.73 15.2967C145.764 15.9205 145.781 16.5463 145.778 17.171V38.0602C145.778 40 145.576 41.2235 145.19 41.7249C144.548 42.4946 143.511 42.8768 142.07 42.8768H140.839V43.772H150.702V28.7004H166.619V43.772H176.483V42.8768H175.278C174.442 42.8768 173.654 42.6901 172.933 42.3297C172.675 42.1959 172.437 42.0253 172.228 41.8233C172.026 41.6155 171.876 41.3628 171.791 41.0865C171.686 40.7817 171.618 40.3841 171.592 39.9057C171.562 39.4273 171.546 38.8104 171.546 38.0602V17.171C171.546 15.5761 171.631 14.5249 171.798 14.0007C171.917 13.6967 172.113 13.428 172.367 13.2231C172.625 13.0056 172.916 12.8297 173.228 12.6999C173.869 12.4326 174.557 12.2929 175.252 12.2919H176.454V11.4279H166.609Z" fill="#D7AC63"/>
<path fill-rule="evenodd" clip-rule="evenodd" d="M191.209 13.2105V26.3895H209.752V28.6767H191.205V38.3725C191.205 39.8143 191.271 40.6924 191.392 40.9939C191.456 41.1601 191.553 41.3113 191.678 41.4377C191.804 41.5641 191.954 41.6629 192.12 41.7279C192.316 41.8131 192.565 41.8819 192.873 41.931C193.184 41.9769 193.584 42.0031 194.079 42.0031H209.748V43.7791H181.339V42.8846H182.548C182.876 42.8846 183.223 42.8518 183.577 42.7863C183.922 42.7223 184.258 42.6189 184.58 42.4782C184.883 42.3487 185.164 42.1717 185.412 41.954C185.654 41.752 185.845 41.4961 185.969 41.2069C186.179 40.7055 186.28 39.657 186.28 38.0612V17.0574C186.28 16.0416 186.228 15.206 186.13 14.5605C186.028 13.915 185.864 13.4792 185.632 13.2498C185.012 12.6142 183.99 12.293 182.548 12.293H181.342V11.428H209.752V13.2531C209.227 13.2203 201.363 13.204 200.711 13.204H191.209V13.2105Z" fill="#D7AC63"/>
<path d="M209.752 10.6912C210.159 10.6914 210.489 11.0209 210.489 11.4279V13.2519C210.489 13.4553 210.404 13.6502 210.256 13.7895C210.108 13.9286 209.909 14.0011 209.706 13.9887C209.213 13.9578 201.389 13.9407 200.711 13.9407H191.947V25.6524H209.752C210.159 25.6527 210.489 25.9823 210.489 26.3892V28.6764C210.489 29.0834 210.159 29.4129 209.752 29.4131H191.942V38.3721C191.942 39.0839 191.958 39.6444 191.988 40.0569C192.002 40.2629 192.022 40.4243 192.04 40.5441L192.076 40.7193L192.081 40.7313C192.108 40.8012 192.149 40.8652 192.201 40.9185C192.254 40.9719 192.318 41.0134 192.388 41.0409L192.412 41.0505C192.535 41.1036 192.718 41.1593 192.979 41.2017H192.981C193.246 41.2406 193.607 41.2664 194.078 41.2665H209.747C210.154 41.2665 210.486 41.5961 210.486 42.0033V43.7792C210.486 44.1863 210.154 44.516 209.747 44.516H181.339C180.932 44.516 180.602 44.1863 180.602 43.7792V42.884C180.603 42.4771 180.932 42.1473 181.339 42.1473H182.549C182.827 42.1472 183.129 42.1186 183.441 42.0609C183.731 42.0071 184.014 41.9197 184.284 41.8017L184.291 41.7993C184.522 41.7006 184.736 41.5665 184.925 41.4009L184.939 41.3889C185.092 41.2612 185.213 41.0988 185.292 40.9161C185.352 40.7682 185.42 40.4721 185.469 39.9729C185.518 39.4817 185.544 38.8452 185.544 38.0601V17.0582C185.544 16.0643 185.49 15.2684 185.4 14.6727V14.6703C185.302 14.0516 185.166 13.8267 185.114 13.7751L185.102 13.7655L185.105 13.7631C184.688 13.3357 183.907 13.0312 182.549 13.0311H181.341C180.935 13.0306 180.605 12.6988 180.605 12.2919V11.4279C180.605 11.0211 180.935 10.6916 181.341 10.6912H209.752ZM181.341 11.4279V12.2919H182.549C183.99 12.292 185.013 12.6139 185.633 13.2495C185.865 13.4789 186.028 13.915 186.129 14.5599C186.228 15.2054 186.281 16.0424 186.281 17.0582V38.0601C186.281 39.6558 186.178 40.7051 185.969 41.2065C185.844 41.4956 185.653 41.751 185.412 41.9529C185.164 42.1706 184.882 42.3489 184.579 42.4784C184.258 42.6188 183.922 42.7217 183.578 42.7856C183.225 42.8511 182.876 42.884 182.549 42.884H181.339V43.7792H209.747V42.0033H194.078C193.584 42.0032 193.184 41.9771 192.873 41.9313C192.565 41.8821 192.316 41.8125 192.12 41.7273C191.954 41.6623 191.803 41.5632 191.678 41.4369C191.553 41.3106 191.456 41.1589 191.392 40.9929C191.271 40.6908 191.205 39.8128 191.205 38.3721V28.6764H209.752V26.3892H191.208V13.2039H200.711C201.366 13.2039 209.228 13.2191 209.752 13.2519V11.4279H181.341Z" fill="#D7AC63"/>
<path fill-rule="evenodd" clip-rule="evenodd" d="M191.209 13.2105V26.3895H209.752V28.6767H191.205V38.3725C191.205 39.8143 191.271 40.6924 191.392 40.9939C191.456 41.1601 191.553 41.3113 191.678 41.4377C191.804 41.5641 191.954 41.6629 192.12 41.7279C192.316 41.8131 192.565 41.8819 192.873 41.931C193.184 41.9769 193.584 42.0031 194.079 42.0031H209.748V43.7791H181.339V42.8846H182.548C182.876 42.8846 183.223 42.8518 183.577 42.7863C183.922 42.7223 184.258 42.6189 184.58 42.4782C184.883 42.3487 185.164 42.1717 185.412 41.954C185.654 41.752 185.845 41.4961 185.969 41.2069C186.179 40.7055 186.28 39.657 186.28 38.0612V17.0574C186.28 16.0416 186.228 15.206 186.13 14.5605C186.028 13.915 185.864 13.4792 185.632 13.2498C185.012 12.6142 183.99 12.293 182.548 12.293H181.342V11.428H209.752V13.2531C209.227 13.2203 201.363 13.204 200.711 13.204H191.209V13.2105Z" fill="#D7AC63"/>
<path d="M209.752 10.6912C210.159 10.6914 210.489 11.0209 210.489 11.4279V13.2519C210.489 13.4553 210.404 13.6502 210.256 13.7895C210.108 13.9286 209.909 14.0011 209.706 13.9887C209.213 13.9578 201.389 13.9407 200.711 13.9407H191.947V25.6524H209.752C210.159 25.6527 210.489 25.9823 210.489 26.3892V28.6764C210.489 29.0834 210.159 29.4129 209.752 29.4131H191.942V38.3721C191.942 39.0839 191.958 39.6444 191.988 40.0569C192.002 40.2629 192.022 40.4243 192.04 40.5441L192.076 40.7193L192.081 40.7313C192.108 40.8012 192.149 40.8652 192.201 40.9185C192.254 40.9719 192.318 41.0134 192.388 41.0409L192.412 41.0505C192.535 41.1036 192.718 41.1593 192.979 41.2017H192.981C193.246 41.2406 193.607 41.2664 194.078 41.2665H209.747C210.154 41.2665 210.486 41.5961 210.486 42.0033V43.7792C210.486 44.1863 210.154 44.516 209.747 44.516H181.339C180.932 44.516 180.602 44.1863 180.602 43.7792V42.884C180.603 42.4771 180.932 42.1473 181.339 42.1473H182.549C182.827 42.1472 183.129 42.1186 183.441 42.0609C183.731 42.0071 184.014 41.9197 184.284 41.8017L184.291 41.7993C184.522 41.7006 184.736 41.5665 184.925 41.4009L184.939 41.3889C185.092 41.2612 185.213 41.0988 185.292 40.9161C185.352 40.7682 185.42 40.4721 185.469 39.9729C185.518 39.4817 185.544 38.8452 185.544 38.0601V17.0582C185.544 16.0643 185.49 15.2684 185.4 14.6727V14.6703C185.302 14.0516 185.166 13.8267 185.114 13.7751L185.102 13.7655L185.105 13.7631C184.688 13.3357 183.907 13.0312 182.549 13.0311H181.341C180.935 13.0306 180.605 12.6988 180.605 12.2919V11.4279C180.605 11.0211 180.935 10.6916 181.341 10.6912H209.752ZM181.341 11.4279V12.2919H182.549C183.99 12.292 185.013 12.6139 185.633 13.2495C185.865 13.4789 186.028 13.915 186.129 14.5599C186.228 15.2054 186.281 16.0424 186.281 17.0582V38.0601C186.281 39.6558 186.178 40.7051 185.969 41.2065C185.844 41.4956 185.653 41.751 185.412 41.9529C185.164 42.1706 184.882 42.3489 184.579 42.4784C184.258 42.6188 183.922 42.7217 183.578 42.7856C183.225 42.8511 182.876 42.884 182.549 42.884H181.339V43.7792H209.747V42.0033H194.078C193.584 42.0032 193.184 41.9771 192.873 41.9313C192.565 41.8821 192.316 41.8125 192.12 41.7273C191.954 41.6623 191.803 41.5632 191.678 41.4369C191.553 41.3106 191.456 41.1589 191.392 40.9929C191.271 40.6908 191.205 39.8128 191.205 38.3721V28.6764H209.752V26.3892H191.208V13.2039H200.711C201.366 13.2039 209.228 13.2191 209.752 13.2519V11.4279H181.341Z" fill="#D7AC63"/>
<path fill-rule="evenodd" clip-rule="evenodd" d="M226.473 26.5436C226.843 26.4715 230.11 26.3896 230.447 26.2912C231.693 25.9341 232.735 25.4459 233.567 24.82C234.402 24.1974 235.025 23.4634 235.438 22.6115C235.847 21.7595 236.057 20.8486 236.057 19.8689C236.057 18.8858 235.877 17.9847 235.517 17.1688C235.166 16.3641 234.65 15.6419 234.003 15.0488C233.324 14.4372 232.531 13.9661 231.67 13.6627C230.933 13.4 230.163 13.2412 229.383 13.1909C228.873 13.1571 228.362 13.1571 227.852 13.1909L214.788 12.28V11.4346H227.384C229.261 11.4346 230.847 11.4837 232.161 11.5886C233.465 11.6902 234.599 11.8769 235.556 12.1391C236.513 12.4012 237.335 12.7616 238.027 13.1974C238.721 13.6398 239.373 14.2001 239.986 14.8784C241.202 16.2153 241.811 17.7783 241.811 19.5674C241.823 20.512 241.644 21.4493 241.286 22.3235C240.928 23.1977 240.398 23.991 239.727 24.6562C238.338 26.0914 236.192 27.0973 233.285 27.6806L241.143 37.4354C241.962 38.5069 242.712 39.3785 243.377 40.0469C244.046 40.7121 244.704 41.243 245.353 41.6231C246.002 42.013 246.687 42.2915 247.421 42.4717C248.152 42.6519 248.997 42.7863 249.964 42.878V43.7562H240.707L229.389 29.7318L226.473 26.5403V26.5436Z" fill="#D7AC63"/>
<path d="M227.383 10.6978C229.271 10.6978 230.879 10.7468 232.219 10.8538L233.193 10.9473C234.138 11.0586 234.993 11.2194 235.752 11.4273C236.77 11.7065 237.661 12.0959 238.42 12.5745H238.423C239.178 13.0557 239.879 13.6614 240.53 14.3817C241.865 15.8502 242.546 17.5871 242.548 19.5584L242.543 19.9495C242.509 20.8598 242.313 21.759 241.967 22.6039C241.574 23.5647 240.99 24.4346 240.254 25.167L240.256 25.1694C238.93 26.5394 237.021 27.5082 234.597 28.1334L241.718 36.9724L241.73 36.9868H241.727C242.532 38.0388 243.261 38.8842 243.897 39.5235C244.375 39.9994 244.838 40.3939 245.284 40.7043L245.726 40.9875L245.733 40.9899V40.9923C246.316 41.3428 246.933 41.5924 247.598 41.7555C248.284 41.9248 249.093 42.0549 250.034 42.1443C250.412 42.1803 250.701 42.4985 250.701 42.8786V43.757C250.7 44.1637 250.371 44.4936 249.964 44.4938H240.707C240.485 44.4938 240.274 44.3931 240.134 44.2202L228.828 30.2117L225.929 27.0366V27.0342C225.808 26.9 225.737 26.7278 225.737 26.5446V26.5398C225.737 26.2357 225.923 25.9634 226.207 25.8534C226.248 25.8377 226.29 25.8328 226.332 25.8246V25.8198C226.347 25.8169 226.364 25.8154 226.382 25.8126C226.403 25.81 226.424 25.8062 226.445 25.8054C226.623 25.7839 226.897 25.7645 227.165 25.7502C227.531 25.7307 227.989 25.711 228.439 25.6902C228.892 25.6693 229.337 25.6476 229.689 25.6254C229.866 25.6143 230.013 25.6048 230.124 25.5942C230.261 25.581 230.277 25.5717 230.241 25.5822H230.244C231.425 25.2435 232.38 24.7903 233.124 24.2311L233.126 24.2287C233.876 23.6699 234.416 23.0256 234.772 22.2919C235.134 21.5405 235.32 20.7381 235.32 19.8679C235.319 18.9772 235.157 18.1781 234.842 17.4656V17.4632C234.533 16.7549 234.079 16.1187 233.51 15.596L233.035 15.2097C232.544 14.8485 232.001 14.5608 231.424 14.3577H231.422C230.918 14.1778 230.397 14.0498 229.867 13.9785L229.334 13.9257C228.857 13.894 228.378 13.894 227.901 13.9257C227.868 13.9279 227.834 13.928 227.801 13.9257L214.738 13.0161C214.351 12.9892 214.051 12.6666 214.051 12.2793V11.4345C214.051 11.0274 214.381 10.6978 214.788 10.6978H227.383ZM214.788 11.4345V12.2793L227.853 13.1913C228.362 13.1576 228.873 13.1575 229.382 13.1913C230.162 13.2416 230.933 13.3991 231.669 13.6617C232.531 13.965 233.324 14.4374 234.002 15.0489C234.649 15.6418 235.165 16.3636 235.516 17.168C235.877 17.9837 236.056 18.8853 236.056 19.8679C236.056 20.8477 235.847 21.7591 235.437 22.6111C235.024 23.4627 234.403 24.1966 233.568 24.819C232.735 25.4448 231.693 25.9331 230.448 26.2902C230.111 26.3882 226.861 26.4703 226.476 26.5422L226.473 26.5398V26.5446L226.476 26.5422L229.389 29.7317L240.707 43.757H249.964V42.8786C248.997 42.7869 248.151 42.6509 247.42 42.4706C246.687 42.2905 246.002 42.0131 245.354 41.6235C244.705 41.2434 244.047 40.7117 243.379 40.0467C242.713 39.3782 241.961 38.507 241.142 37.4356L233.284 27.6798C236.191 27.0965 238.339 26.091 239.728 24.6558C240.399 23.9908 240.928 23.197 241.286 22.3231C241.644 21.4491 241.823 20.5123 241.811 19.568C241.811 17.7789 241.201 16.2154 239.985 14.8785C239.373 14.2006 238.721 13.6407 238.027 13.1985C237.335 12.7627 236.512 12.4023 235.555 12.1401C234.598 11.8781 233.465 11.6897 232.161 11.5881C230.847 11.4833 229.261 11.4345 227.383 11.4345H214.788Z" fill="#D7AC63"/>
<path fill-rule="evenodd" clip-rule="evenodd" d="M226.473 26.5436C226.843 26.4715 230.11 26.3896 230.447 26.2912C231.693 25.9341 232.735 25.4459 233.567 24.82C234.402 24.1974 235.025 23.4634 235.438 22.6115C235.847 21.7595 236.057 20.8486 236.057 19.8689C236.057 18.8858 235.877 17.9847 235.517 17.1688C235.166 16.3641 234.65 15.6419 234.003 15.0488C233.324 14.4372 232.531 13.9661 231.67 13.6627C230.933 13.4 230.163 13.2412 229.383 13.1909C228.873 13.1571 228.362 13.1571 227.852 13.1909L214.788 12.28V11.4346H227.384C229.261 11.4346 230.847 11.4837 232.161 11.5886C233.465 11.6902 234.599 11.8769 235.556 12.1391C236.513 12.4012 237.335 12.7616 238.027 13.1974C238.721 13.6398 239.373 14.2001 239.986 14.8784C241.202 16.2153 241.811 17.7783 241.811 19.5674C241.823 20.512 241.644 21.4493 241.286 22.3235C240.928 23.1977 240.398 23.991 239.727 24.6562C238.338 26.0914 236.192 27.0973 233.285 27.6806L241.143 37.4354C241.962 38.5069 242.712 39.3785 243.377 40.0469C244.046 40.7121 244.704 41.243 245.353 41.6231C246.002 42.013 246.687 42.2915 247.421 42.4717C248.152 42.6519 248.997 42.7863 249.964 42.878V43.7562H240.707L229.389 29.7318L226.473 26.5403V26.5436Z" fill="#D7AC63"/>
<path d="M227.383 10.6978C229.271 10.6978 230.879 10.7468 232.219 10.8538L233.193 10.9473C234.138 11.0586 234.993 11.2194 235.752 11.4273C236.77 11.7065 237.661 12.0959 238.42 12.5745H238.423C239.178 13.0557 239.879 13.6614 240.53 14.3817C241.865 15.8502 242.546 17.5871 242.548 19.5584L242.543 19.9495C242.509 20.8598 242.313 21.759 241.967 22.6039C241.574 23.5647 240.99 24.4346 240.254 25.167L240.256 25.1694C238.93 26.5394 237.021 27.5082 234.597 28.1334L241.718 36.9724L241.73 36.9868H241.727C242.532 38.0388 243.261 38.8842 243.897 39.5235C244.375 39.9994 244.838 40.3939 245.284 40.7043L245.726 40.9875L245.733 40.9899V40.9923C246.316 41.3428 246.933 41.5924 247.598 41.7555C248.284 41.9248 249.093 42.0549 250.034 42.1443C250.412 42.1803 250.701 42.4985 250.701 42.8786V43.757C250.7 44.1637 250.371 44.4936 249.964 44.4938H240.707C240.485 44.4938 240.274 44.3931 240.134 44.2202L228.828 30.2117L225.929 27.0366V27.0342C225.808 26.9 225.737 26.7278 225.737 26.5446V26.5398C225.737 26.2357 225.923 25.9634 226.207 25.8534C226.248 25.8377 226.29 25.8328 226.332 25.8246V25.8198C226.347 25.8169 226.364 25.8154 226.382 25.8126C226.403 25.81 226.424 25.8062 226.445 25.8054C226.623 25.7839 226.897 25.7645 227.165 25.7502C227.531 25.7307 227.989 25.711 228.439 25.6902C228.892 25.6693 229.337 25.6476 229.689 25.6254C229.866 25.6143 230.013 25.6048 230.124 25.5942C230.261 25.581 230.277 25.5717 230.241 25.5822H230.244C231.425 25.2435 232.38 24.7903 233.124 24.2311L233.126 24.2287C233.876 23.6699 234.416 23.0256 234.772 22.2919C235.134 21.5405 235.32 20.7381 235.32 19.8679C235.319 18.9772 235.157 18.1781 234.842 17.4656V17.4632C234.533 16.7549 234.079 16.1187 233.51 15.596L233.035 15.2097C232.544 14.8485 232.001 14.5608 231.424 14.3577H231.422C230.918 14.1778 230.397 14.0498 229.867 13.9785L229.334 13.9257C228.857 13.894 228.378 13.894 227.901 13.9257C227.868 13.9279 227.834 13.928 227.801 13.9257L214.738 13.0161C214.351 12.9892 214.051 12.6666 214.051 12.2793V11.4345C214.051 11.0274 214.381 10.6978 214.788 10.6978H227.383ZM214.788 11.4345V12.2793L227.853 13.1913C228.362 13.1576 228.873 13.1575 229.382 13.1913C230.162 13.2416 230.933 13.3991 231.669 13.6617C232.531 13.965 233.324 14.4374 234.002 15.0489C234.649 15.6418 235.165 16.3636 235.516 17.168C235.877 17.9837 236.056 18.8853 236.056 19.8679C236.056 20.8477 235.847 21.7591 235.437 22.6111C235.024 23.4627 234.403 24.1966 233.568 24.819C232.735 25.4448 231.693 25.9331 230.448 26.2902C230.111 26.3882 226.861 26.4703 226.476 26.5422L226.473 26.5398V26.5446L226.476 26.5422L229.389 29.7317L240.707 43.757H249.964V42.8786C248.997 42.7869 248.151 42.6509 247.42 42.4706C246.687 42.2905 246.002 42.0131 245.354 41.6235C244.705 41.2434 244.047 40.7117 243.379 40.0467C242.713 39.3782 241.961 38.507 241.142 37.4356L233.284 27.6798C236.191 27.0965 238.339 26.091 239.728 24.6558C240.399 23.9908 240.928 23.197 241.286 22.3231C241.644 21.4491 241.823 20.5123 241.811 19.568C241.811 17.7789 241.201 16.2154 239.985 14.8785C239.373 14.2006 238.721 13.6407 238.027 13.1985C237.335 12.7627 236.512 12.4023 235.555 12.1401C234.598 11.8781 233.465 11.6897 232.161 11.5881C230.847 11.4833 229.261 11.4345 227.383 11.4345H214.788Z" fill="#D7AC63"/>
<path d="M218.15 43.7561V22.5H220.149C220.149 22.5 221.102 38.0087 221.981 41.9998C222.148 42.76 223.239 42.8681 224.513 42.9435V43.7561H218.15Z" fill="#D7AC63"/>
<path d="M217.413 22.5002C217.413 22.093 217.743 21.7634 218.15 21.7634H220.149L220.291 21.7778C220.614 21.841 220.862 22.1144 220.884 22.4546L220.886 22.457C220.886 22.4589 220.886 22.4629 220.886 22.4666C220.886 22.474 220.887 22.486 220.888 22.5002C220.89 22.5295 220.892 22.5735 220.896 22.6298C220.903 22.7439 220.913 22.9117 220.927 23.1266C220.954 23.5577 220.995 24.179 221.047 24.9362C221.15 26.4506 221.295 28.5118 221.469 30.696C221.819 35.0931 222.275 39.9071 222.7 41.8414C222.703 41.854 222.704 41.8622 222.731 41.8846C222.773 41.9182 222.863 41.971 223.036 42.0214C223.396 42.1259 223.906 42.17 224.558 42.2086C224.947 42.2321 225.251 42.5533 225.251 42.943V43.7565C225.251 44.1636 224.919 44.4933 224.512 44.4933H218.15C217.743 44.4933 217.413 44.1636 217.413 43.7565V22.5002ZM218.15 43.7565H224.512V42.943C223.238 42.8676 222.147 42.7597 221.98 41.9998C221.103 38.011 220.15 22.5212 220.149 22.5002H218.15V43.7565Z" fill="#D7AC63"/>
<path d="M218.15 43.7561V22.5H220.149C220.149 22.5 221.102 38.0087 221.981 41.9998C222.148 42.76 223.239 42.8681 224.513 42.9435V43.7561H218.15Z" fill="#D7AC63"/>
<path d="M217.413 22.5002C217.413 22.093 217.743 21.7634 218.15 21.7634H220.149L220.291 21.7778C220.614 21.841 220.862 22.1144 220.884 22.4546L220.886 22.457C220.886 22.4589 220.886 22.4629 220.886 22.4666C220.886 22.474 220.887 22.486 220.888 22.5002C220.89 22.5295 220.892 22.5735 220.896 22.6298C220.903 22.7439 220.913 22.9117 220.927 23.1266C220.954 23.5577 220.995 24.179 221.047 24.9362C221.15 26.4506 221.295 28.5118 221.469 30.696C221.819 35.0931 222.275 39.9071 222.7 41.8414C222.703 41.854 222.704 41.8622 222.731 41.8846C222.773 41.9182 222.863 41.971 223.036 42.0214C223.396 42.1259 223.906 42.17 224.558 42.2086C224.947 42.2321 225.251 42.5533 225.251 42.943V43.7565C225.251 44.1636 224.919 44.4933 224.512 44.4933H218.15C217.743 44.4933 217.413 44.1636 217.413 43.7565V22.5002ZM218.15 43.7565H224.512V42.943C223.238 42.8676 222.147 42.7597 221.98 41.9998C221.103 38.011 220.15 22.5212 220.149 22.5002H218.15V43.7565Z" fill="#D7AC63"/>
<path fill-rule="evenodd" clip-rule="evenodd" d="M176.408 59.0027L176.421 61.0211H163.93V85.7604C163.93 87.7592 164.156 88.9978 164.608 89.4795C165.244 90.1316 166.24 90.4593 167.596 90.4593H168.802V91.3538H154.093V90.4593H155.328C156.786 90.4593 157.828 90.0431 158.441 89.2141C158.812 88.7357 158.998 87.5823 158.998 85.7539V61.0146H146.504V59.0027H176.408Z" fill="#D7AC63"/>
<path d="M176.407 58.2659C176.813 58.2659 177.142 58.5926 177.144 58.9979L177.159 61.0162C177.16 61.2126 177.081 61.4025 176.943 61.5418C176.804 61.6805 176.615 61.7578 176.419 61.7578H164.667V85.7597C164.667 86.7372 164.723 87.498 164.825 88.0564C164.931 88.6338 165.067 88.887 165.142 88.9708C165.585 89.4206 166.349 89.722 167.597 89.722H168.802C169.209 89.722 169.539 90.0518 169.539 90.4587V91.3539C169.539 91.761 169.209 92.0907 168.802 92.0907H154.093C153.686 92.0906 153.356 91.761 153.356 91.3539V90.4587C153.356 90.0519 153.686 89.7221 154.093 89.722H155.329C156.656 89.7219 157.427 89.347 157.849 88.7764L157.858 88.762C157.926 88.6741 158.044 88.4205 158.132 87.874C158.216 87.3515 158.261 86.6484 158.261 85.7549V61.753H146.504C146.097 61.753 145.767 61.421 145.767 61.0138V59.0027C145.767 58.5955 146.097 58.2659 146.504 58.2659H176.407ZM146.504 59.0027V61.0138H158.998V85.7549C158.998 87.5818 158.811 88.7344 158.441 89.2132C157.829 90.0421 156.787 90.4587 155.329 90.4587H154.093V91.3539H168.802V90.4587H167.597C166.241 90.4587 165.243 90.1316 164.607 89.4796C164.155 88.9975 163.93 87.7578 163.93 85.7597V61.021H176.419L176.407 59.0027H146.504Z" fill="#D7AC63"/>
<path fill-rule="evenodd" clip-rule="evenodd" d="M176.408 59.0027L176.421 61.0211H163.93V85.7604C163.93 87.7592 164.156 88.9978 164.608 89.4795C165.244 90.1316 166.24 90.4593 167.596 90.4593H168.802V91.3538H154.093V90.4593H155.328C156.786 90.4593 157.828 90.0431 158.441 89.2141C158.812 88.7357 158.998 87.5823 158.998 85.7539V61.0146H146.504V59.0027H176.408Z" fill="#D7AC63"/>
<path d="M176.407 58.2659C176.813 58.2659 177.142 58.5926 177.144 58.9979L177.159 61.0162C177.16 61.2126 177.081 61.4025 176.943 61.5418C176.804 61.6805 176.615 61.7578 176.419 61.7578H164.667V85.7597C164.667 86.7372 164.723 87.498 164.825 88.0564C164.931 88.6338 165.067 88.887 165.142 88.9708C165.585 89.4206 166.349 89.722 167.597 89.722H168.802C169.209 89.722 169.539 90.0518 169.539 90.4587V91.3539C169.539 91.761 169.209 92.0907 168.802 92.0907H154.093C153.686 92.0906 153.356 91.761 153.356 91.3539V90.4587C153.356 90.0519 153.686 89.7221 154.093 89.722H155.329C156.656 89.7219 157.427 89.347 157.849 88.7764L157.858 88.762C157.926 88.6741 158.044 88.4205 158.132 87.874C158.216 87.3515 158.261 86.6484 158.261 85.7549V61.753H146.504C146.097 61.753 145.767 61.421 145.767 61.0138V59.0027C145.767 58.5955 146.097 58.2659 146.504 58.2659H176.407ZM146.504 59.0027V61.0138H158.998V85.7549C158.998 87.5818 158.811 88.7344 158.441 89.2132C157.829 90.0421 156.787 90.4587 155.329 90.4587H154.093V91.3539H168.802V90.4587H167.597C166.241 90.4587 165.243 90.1316 164.607 89.4796C164.155 88.9975 163.93 87.7578 163.93 85.7597V61.021H176.419L176.407 59.0027H146.504Z" fill="#D7AC63"/>
<path d="M175.444 62.8134H176.421L176.417 62.8102C176.159 62.0532 175.995 61.5683 175.038 61.2209C175.336 61.4634 175.464 61.9517 175.444 62.8134Z" fill="#D7AC63"/>
<path d="M174.397 60.8582C174.575 60.5451 174.952 60.4042 175.29 60.527C175.867 60.7365 176.281 61.0193 176.581 61.4222C176.856 61.7914 176.994 62.2208 177.114 62.5718H177.109C177.168 62.7401 177.173 62.9259 177.102 63.0974C176.987 63.3719 176.718 63.5509 176.42 63.5509H175.444C175.246 63.5507 175.057 63.4694 174.918 63.3278C174.78 63.1861 174.703 62.9954 174.707 62.7974C174.716 62.3971 174.69 62.1337 174.647 61.967C174.627 61.8883 174.606 61.8425 174.592 61.8182C174.585 61.807 174.58 61.7998 174.577 61.7966L174.572 61.7918C174.294 61.5648 174.22 61.1709 174.397 60.8582ZM175.038 61.2206C175.336 61.4631 175.463 61.9524 175.444 62.8142H176.42L176.418 62.8094C176.159 62.0526 175.995 61.5679 175.038 61.2206Z" fill="#D7AC63"/>
<path d="M175.444 62.8134H176.421L176.417 62.8102C176.159 62.0532 175.995 61.5683 175.038 61.2209C175.336 61.4634 175.464 61.9517 175.444 62.8134Z" fill="#D7AC63"/>
<path d="M174.397 60.8582C174.575 60.5451 174.952 60.4042 175.29 60.527C175.867 60.7365 176.281 61.0193 176.581 61.4222C176.856 61.7914 176.994 62.2208 177.114 62.5718H177.109C177.168 62.7401 177.173 62.9259 177.102 63.0974C176.987 63.3719 176.718 63.5509 176.42 63.5509H175.444C175.246 63.5507 175.057 63.4694 174.918 63.3278C174.78 63.1861 174.703 62.9954 174.707 62.7974C174.716 62.3971 174.69 62.1337 174.647 61.967C174.627 61.8883 174.606 61.8425 174.592 61.8182C174.585 61.807 174.58 61.7998 174.577 61.7966L174.572 61.7918C174.294 61.5648 174.22 61.1709 174.397 60.8582ZM175.038 61.2206C175.336 61.4631 175.463 61.9524 175.444 62.8142H176.42L176.418 62.8094C176.159 62.0526 175.995 61.5679 175.038 61.2206Z" fill="#D7AC63"/>
<path d="M176.421 62.8132V61.0208H174.35C174.596 61.0046 174.839 61.0754 175.038 61.2207C175.995 61.5681 176.159 62.053 176.417 62.8099L176.421 62.8132Z" fill="#D7AC63"/>
<path d="M174.35 61.0211C174.596 61.0049 174.84 61.075 175.039 61.2203C175.995 61.5676 176.16 62.0526 176.419 62.8091L176.421 62.8139V61.0211H174.35ZM177.158 62.8139C177.158 63.1124 176.978 63.3817 176.702 63.4955C176.426 63.6092 176.108 63.5443 175.898 63.3323L175.893 63.3299C175.815 63.2509 175.756 63.1543 175.72 63.0491C175.582 62.644 175.509 62.4518 175.399 62.3027C175.313 62.1871 175.166 62.0517 174.787 61.9139C174.721 61.8901 174.658 61.8567 174.602 61.8155C174.549 61.7769 174.485 61.758 174.419 61.7579H174.35C173.952 61.7579 173.626 61.4426 173.613 61.0451C173.6 60.6477 173.905 60.3106 174.302 60.2844C174.318 60.2833 174.334 60.2874 174.35 60.2868V60.2844H176.421C176.828 60.2845 177.158 60.6141 177.158 61.0211V62.8139Z" fill="#D7AC63"/>
<path d="M176.421 62.8132V61.0208H174.35C174.596 61.0046 174.839 61.0754 175.038 61.2207C175.995 61.5681 176.159 62.053 176.417 62.8099L176.421 62.8132Z" fill="#D7AC63"/>
<path d="M174.35 61.0211C174.596 61.0049 174.84 61.075 175.039 61.2203C175.995 61.5676 176.16 62.0526 176.419 62.8091L176.421 62.8139V61.0211H174.35ZM177.158 62.8139C177.158 63.1124 176.978 63.3817 176.702 63.4955C176.426 63.6092 176.108 63.5443 175.898 63.3323L175.893 63.3299C175.815 63.2509 175.756 63.1543 175.72 63.0491C175.582 62.644 175.509 62.4518 175.399 62.3027C175.313 62.1871 175.166 62.0517 174.787 61.9139C174.721 61.8901 174.658 61.8567 174.602 61.8155C174.549 61.7769 174.485 61.758 174.419 61.7579H174.35C173.952 61.7579 173.626 61.4426 173.613 61.0451C173.6 60.6477 173.905 60.3106 174.302 60.2844C174.318 60.2833 174.334 60.2874 174.35 60.2868V60.2844H176.421C176.828 60.2845 177.158 60.6141 177.158 61.0211V62.8139Z" fill="#D7AC63"/>
<path d="M147.481 62.8103H146.504L146.507 62.8037C146.766 62.0501 146.93 61.5651 147.887 61.2178C147.589 61.4603 147.461 61.9485 147.481 62.8103Z" fill="#D7AC63"/>
<path d="M147.634 60.5241C147.973 60.4013 148.35 60.5422 148.527 60.8553C148.704 61.1681 148.631 61.5619 148.352 61.7889V61.7913L148.347 61.7937C148.345 61.7969 148.341 61.8044 148.335 61.8153C148.321 61.8394 148.298 61.8845 148.278 61.9641C148.235 62.1308 148.208 62.3942 148.218 62.7944C148.222 62.992 148.147 63.1833 148.009 63.3248C147.87 63.4667 147.679 63.5479 147.481 63.548H146.504C146.249 63.548 146.012 63.4144 145.878 63.1976C145.759 63.0057 145.74 62.7737 145.815 62.564H145.81C145.93 62.2147 146.068 61.7855 146.343 61.4169C146.643 61.0149 147.058 60.7335 147.634 60.5241ZM147.886 61.2177C146.93 61.565 146.765 62.0505 146.506 62.804L146.504 62.8112H147.481C147.461 61.9497 147.588 61.4602 147.886 61.2177Z" fill="#D7AC63"/>
<path d="M147.481 62.8103H146.504L146.507 62.8037C146.766 62.0501 146.93 61.5651 147.887 61.2178C147.589 61.4603 147.461 61.9485 147.481 62.8103Z" fill="#D7AC63"/>
<path d="M147.634 60.5241C147.973 60.4013 148.35 60.5422 148.527 60.8553C148.704 61.1681 148.631 61.5619 148.352 61.7889V61.7913L148.347 61.7937C148.345 61.7969 148.341 61.8044 148.335 61.8153C148.321 61.8394 148.298 61.8845 148.278 61.9641C148.235 62.1308 148.208 62.3942 148.218 62.7944C148.222 62.992 148.147 63.1833 148.009 63.3248C147.87 63.4667 147.679 63.5479 147.481 63.548H146.504C146.249 63.548 146.012 63.4144 145.878 63.1976C145.759 63.0057 145.74 62.7737 145.815 62.564H145.81C145.93 62.2147 146.068 61.7855 146.343 61.4169C146.643 61.0149 147.058 60.7335 147.634 60.5241ZM147.886 61.2177C146.93 61.565 146.765 62.0505 146.506 62.804L146.504 62.8112H147.481C147.461 61.9497 147.588 61.4602 147.886 61.2177Z" fill="#D7AC63"/>
<path d="M146.504 62.8099V61.0176H148.575C148.33 61.0009 148.086 61.0705 147.887 61.2142C146.93 61.5648 146.766 62.0464 146.507 62.8034L146.504 62.8099Z" fill="#D7AC63"/>
<path d="M148.575 60.2808V60.2856C148.592 60.2862 148.609 60.282 148.626 60.2832C149.021 60.3105 149.325 60.645 149.312 61.0415C149.299 61.4387 148.973 61.7542 148.575 61.7543H148.525L148.417 61.7639C148.382 61.7739 148.349 61.7904 148.318 61.8119C148.264 61.8511 148.204 61.8824 148.141 61.9055C147.76 62.0451 147.613 62.181 147.526 62.2967C147.416 62.4454 147.343 62.6378 147.205 63.0431C147.195 63.0732 147.183 63.1034 147.169 63.1319L147.164 63.1367C147.012 63.4433 146.669 63.6059 146.336 63.5279C146.003 63.4498 145.768 63.1525 145.767 62.8103V61.0175C145.767 60.6104 146.097 60.2808 146.504 60.2808H148.575ZM146.504 62.8103L146.507 62.8031C146.765 62.0463 146.93 61.5649 147.886 61.2143C148.086 61.0706 148.33 61.0009 148.575 61.0175H146.504V62.8103Z" fill="#D7AC63"/>
<path d="M146.504 62.8099V61.0176H148.575C148.33 61.0009 148.086 61.0705 147.887 61.2142C146.93 61.5648 146.766 62.0464 146.507 62.8034L146.504 62.8099Z" fill="#D7AC63"/>
<path d="M148.575 60.2808V60.2856C148.592 60.2862 148.609 60.282 148.626 60.2832C149.021 60.3105 149.325 60.645 149.312 61.0415C149.299 61.4387 148.973 61.7542 148.575 61.7543H148.525L148.417 61.7639C148.382 61.7739 148.349 61.7904 148.318 61.8119C148.264 61.8511 148.204 61.8824 148.141 61.9055C147.76 62.0451 147.613 62.181 147.526 62.2967C147.416 62.4454 147.343 62.6378 147.205 63.0431C147.195 63.0732 147.183 63.1034 147.169 63.1319L147.164 63.1367C147.012 63.4433 146.669 63.6059 146.336 63.5279C146.003 63.4498 145.768 63.1525 145.767 62.8103V61.0175C145.767 60.6104 146.097 60.2808 146.504 60.2808H148.575ZM146.504 62.8103L146.507 62.8031C146.765 62.0463 146.93 61.5649 147.886 61.2143C148.086 61.0706 148.33 61.0009 148.575 61.0175H146.504V62.8103Z" fill="#D7AC63"/>
<path fill-rule="evenodd" clip-rule="evenodd" d="M90.328 89.0339H97.5958C99.7749 89.0339 102.596 88.2704 103.392 87.6675C104.185 87.0679 104.775 86.3568 105.175 85.5377C105.804 84.1986 105.942 82.6807 105.565 81.2501C105.187 79.8194 104.319 78.5672 103.111 77.7128C102.416 77.1984 101.059 76.5332 98.9262 76.2645V73.9708C100.8 73.7578 102.75 73.168 103.386 72.6831C104.179 72.0769 104.772 71.3724 105.172 70.5532C105.574 69.6912 105.777 68.7497 105.766 67.7986C105.756 66.8474 105.531 65.9108 105.109 65.0581C104.637 64.1322 103.949 63.3332 103.104 62.7284C102.209 62.0632 100.227 61.1555 96.911 61.1555H90.3215V89.0405L90.328 89.0339ZM103.841 74.8686C105.26 75.1603 106.112 75.5502 107.108 76.0483C108.104 76.5496 108.92 77.123 109.546 77.7784C110.175 78.4337 110.631 79.1579 110.919 79.9705C111.207 80.7766 111.352 81.6187 111.352 82.5034C111.352 83.3095 111.207 84.109 110.919 84.8954C110.631 85.6818 110.228 86.4289 109.697 87.1301C108.568 88.6285 107.01 89.7484 105.231 90.3413C103.317 91.0163 100.778 91.3473 96.8881 91.3473H80.5503V90.4495H81.8479C83.306 90.4495 84.348 90.03 84.9608 89.1814C85.3507 88.644 85.5473 87.4578 85.5473 85.636V64.7141C85.5473 62.7546 85.2983 61.4963 84.81 60.936C84.1711 60.2249 83.1815 59.8711 81.8479 59.8711H80.5503V59.0093H95.5118C97.1961 59.0093 98.6935 59.0814 100.001 59.2223C101.308 59.3664 102.455 59.586 103.451 59.8711C104.451 60.1627 105.316 60.5297 106.06 60.9851C106.797 61.4373 107.455 61.978 108.032 62.617C109.389 64.121 110.07 65.7954 110.07 67.6435C110.07 69.2818 109.539 70.7334 108.488 72.0081C107.433 73.2794 105.886 74.2297 103.835 74.8686H103.841Z" fill="#D7AC63"/>
<path d="M95.5115 58.2725C96.7902 58.2725 97.9679 58.3134 99.0418 58.3949L100.081 58.4885L101.058 58.6157C102.007 58.7557 102.872 58.9389 103.655 59.1628H103.657C104.705 59.4688 105.635 59.8593 106.446 60.3556C107.24 60.8428 107.953 61.4286 108.579 62.122C110.045 63.7465 110.806 65.5946 110.806 67.6443C110.806 69.4573 110.215 71.0741 109.057 72.4777H109.054C108.281 73.4099 107.28 74.1639 106.071 74.7649C106.546 74.9548 106.982 75.1613 107.437 75.3889H107.439C108.49 75.9178 109.381 76.5376 110.079 77.268H110.077C110.773 77.9934 111.287 78.8058 111.613 79.7232L111.822 80.3952C112 81.0754 112.088 81.7775 112.088 82.5023C112.088 83.398 111.927 84.2846 111.61 85.1495C111.297 86.0036 110.861 86.816 110.286 87.5758L110.283 87.5734C109.065 89.1906 107.385 90.4013 105.464 91.0413L105.462 91.0389C103.433 91.7519 100.799 92.0852 96.8891 92.0853H80.5503C80.1431 92.0853 79.8135 91.7533 79.8135 91.3461V90.4485C79.814 90.0418 80.1434 89.7118 80.5503 89.7118H81.8486C83.1735 89.7116 83.9411 89.3349 84.3638 88.7494L84.4382 88.6198C84.5167 88.4568 84.6043 88.1873 84.6734 87.7702C84.7622 87.2334 84.8101 86.5252 84.8102 85.6366V64.7139C84.8102 63.7602 84.7481 63.0067 84.6374 62.4412C84.5234 61.8597 84.3715 61.5568 84.2534 61.4212H84.251C83.8002 60.926 83.052 60.6077 81.8486 60.6076H80.5503C80.1431 60.6076 79.8135 60.278 79.8135 59.8708V59.0092C79.8135 58.6021 80.1431 58.2725 80.5503 58.2725H95.5115ZM80.5503 59.0092V59.8708H81.8486C83.1819 59.871 84.1713 60.2255 84.8102 60.9364C85.2982 61.4969 85.5469 62.7549 85.5469 64.7139V85.6366C85.5469 87.4578 85.3511 88.6439 84.9614 89.1814C84.3487 90.0299 83.3064 90.4484 81.8486 90.4485H80.5503V91.3461H96.8891C100.778 91.3461 103.318 91.0155 105.231 90.3405C107.011 89.7475 108.569 88.6275 109.698 87.1294C110.228 86.4284 110.631 85.6812 110.919 84.8951C111.207 84.1088 111.351 83.3083 111.351 82.5023C111.351 81.618 111.207 80.7761 110.919 79.9704C110.631 79.158 110.175 78.4344 109.546 77.7792C108.921 77.1239 108.104 76.5502 107.108 76.0489C106.112 75.5508 105.26 75.1597 103.842 74.8681H103.835C105.886 74.2291 107.433 73.2787 108.488 72.0074C109.539 70.7331 110.069 69.282 110.07 67.6443C110.07 65.7962 109.389 64.1204 108.032 62.6164C107.455 61.9776 106.796 61.4365 106.059 60.9844C105.316 60.5291 104.45 60.1624 103.451 59.8708C102.455 59.5859 101.309 59.367 100.002 59.2228C98.6944 59.0819 97.1958 59.0092 95.5115 59.0092H80.5503ZM96.9107 61.1548C100.227 61.1548 102.21 62.064 103.105 62.7292C103.95 63.3337 104.637 64.1319 105.109 65.0571C105.531 65.9096 105.756 66.8469 105.766 67.7978C105.777 68.749 105.574 69.691 105.171 70.553C104.772 71.3722 104.179 72.0779 103.386 72.6841C102.75 73.169 100.8 73.7575 98.9266 73.9705V76.2649C101.059 76.5335 102.415 77.1977 103.11 77.712C104.318 78.5663 105.187 79.8191 105.565 81.2495C105.942 82.6802 105.803 84.1992 105.174 85.5383C104.774 86.3568 104.185 87.0677 103.393 87.667C102.597 88.2699 99.7737 89.035 97.5947 89.035H90.3276L90.3204 89.0398V61.1548H96.9107ZM91.0596 88.2958H97.5947C98.6087 88.2958 99.7982 88.1175 100.835 87.8614C101.35 87.7339 101.818 87.5898 102.195 87.4462C102.587 87.2972 102.832 87.1654 102.947 87.079C103.653 86.545 104.165 85.9228 104.511 85.2143C105.063 84.0345 105.184 82.6988 104.852 81.4391C104.519 80.1759 103.752 79.0688 102.685 78.3144L102.671 78.3048C102.091 77.8756 100.857 77.2518 98.8331 76.9968C98.465 76.9501 98.19 76.636 98.1899 76.2649V73.9705C98.19 73.5958 98.4703 73.281 98.8427 73.2385C99.736 73.137 100.651 72.9458 101.413 72.7225C102.206 72.4901 102.736 72.2494 102.937 72.0962C103.649 71.5519 104.165 70.9344 104.509 70.229C104.861 69.4707 105.039 68.6434 105.03 67.8074C105.02 66.9672 104.821 66.1392 104.449 65.3859V65.3835C104.03 64.5666 103.422 63.8609 102.675 63.3267L102.663 63.3195C101.916 62.7638 100.094 61.8916 96.9107 61.8916H91.0596V88.2958Z" fill="#D7AC63"/>
<path fill-rule="evenodd" clip-rule="evenodd" d="M90.328 89.0339H97.5958C99.7749 89.0339 102.596 88.2704 103.392 87.6675C104.185 87.0679 104.775 86.3568 105.175 85.5377C105.804 84.1986 105.942 82.6807 105.565 81.2501C105.187 79.8194 104.319 78.5672 103.111 77.7128C102.416 77.1984 101.059 76.5332 98.9262 76.2645V73.9708C100.8 73.7578 102.75 73.168 103.386 72.6831C104.179 72.0769 104.772 71.3724 105.172 70.5532C105.574 69.6912 105.777 68.7497 105.766 67.7986C105.756 66.8474 105.531 65.9108 105.109 65.0581C104.637 64.1322 103.949 63.3332 103.104 62.7284C102.209 62.0632 100.227 61.1555 96.911 61.1555H90.3215V89.0405L90.328 89.0339ZM103.841 74.8686C105.26 75.1603 106.112 75.5502 107.108 76.0483C108.104 76.5496 108.92 77.123 109.546 77.7784C110.175 78.4337 110.631 79.1579 110.919 79.9705C111.207 80.7766 111.352 81.6187 111.352 82.5034C111.352 83.3095 111.207 84.109 110.919 84.8954C110.631 85.6818 110.228 86.4289 109.697 87.1301C108.568 88.6285 107.01 89.7484 105.231 90.3413C103.317 91.0163 100.778 91.3473 96.8881 91.3473H80.5503V90.4495H81.8479C83.306 90.4495 84.348 90.03 84.9608 89.1814C85.3507 88.644 85.5473 87.4578 85.5473 85.636V64.7141C85.5473 62.7546 85.2983 61.4963 84.81 60.936C84.1711 60.2249 83.1815 59.8711 81.8479 59.8711H80.5503V59.0093H95.5118C97.1961 59.0093 98.6935 59.0814 100.001 59.2223C101.308 59.3664 102.455 59.586 103.451 59.8711C104.451 60.1627 105.316 60.5297 106.06 60.9851C106.797 61.4373 107.455 61.978 108.032 62.617C109.389 64.121 110.07 65.7954 110.07 67.6435C110.07 69.2818 109.539 70.7334 108.488 72.0081C107.433 73.2794 105.886 74.2297 103.835 74.8686H103.841Z" fill="#D7AC63"/>
<path d="M95.5115 58.2725C96.7902 58.2725 97.9679 58.3134 99.0418 58.3949L100.081 58.4885L101.058 58.6157C102.007 58.7557 102.872 58.9389 103.655 59.1628H103.657C104.705 59.4688 105.635 59.8593 106.446 60.3556C107.24 60.8428 107.953 61.4286 108.579 62.122C110.045 63.7465 110.806 65.5946 110.806 67.6443C110.806 69.4573 110.215 71.0741 109.057 72.4777H109.054C108.281 73.4099 107.28 74.1639 106.071 74.7649C106.546 74.9548 106.982 75.1613 107.437 75.3889H107.439C108.49 75.9178 109.381 76.5376 110.079 77.268H110.077C110.773 77.9934 111.287 78.8058 111.613 79.7232L111.822 80.3952C112 81.0754 112.088 81.7775 112.088 82.5023C112.088 83.398 111.927 84.2846 111.61 85.1495C111.297 86.0036 110.861 86.816 110.286 87.5758L110.283 87.5734C109.065 89.1906 107.385 90.4013 105.464 91.0413L105.462 91.0389C103.433 91.7519 100.799 92.0852 96.8891 92.0853H80.5503C80.1431 92.0853 79.8135 91.7533 79.8135 91.3461V90.4485C79.814 90.0418 80.1434 89.7118 80.5503 89.7118H81.8486C83.1735 89.7116 83.9411 89.3349 84.3638 88.7494L84.4382 88.6198C84.5167 88.4568 84.6043 88.1873 84.6734 87.7702C84.7622 87.2334 84.8101 86.5252 84.8102 85.6366V64.7139C84.8102 63.7602 84.7481 63.0067 84.6374 62.4412C84.5234 61.8597 84.3715 61.5568 84.2534 61.4212H84.251C83.8002 60.926 83.052 60.6077 81.8486 60.6076H80.5503C80.1431 60.6076 79.8135 60.278 79.8135 59.8708V59.0092C79.8135 58.6021 80.1431 58.2725 80.5503 58.2725H95.5115ZM80.5503 59.0092V59.8708H81.8486C83.1819 59.871 84.1713 60.2255 84.8102 60.9364C85.2982 61.4969 85.5469 62.7549 85.5469 64.7139V85.6366C85.5469 87.4578 85.3511 88.6439 84.9614 89.1814C84.3487 90.0299 83.3064 90.4484 81.8486 90.4485H80.5503V91.3461H96.8891C100.778 91.3461 103.318 91.0155 105.231 90.3405C107.011 89.7475 108.569 88.6275 109.698 87.1294C110.228 86.4284 110.631 85.6812 110.919 84.8951C111.207 84.1088 111.351 83.3083 111.351 82.5023C111.351 81.618 111.207 80.7761 110.919 79.9704C110.631 79.158 110.175 78.4344 109.546 77.7792C108.921 77.1239 108.104 76.5502 107.108 76.0489C106.112 75.5508 105.26 75.1597 103.842 74.8681H103.835C105.886 74.2291 107.433 73.2787 108.488 72.0074C109.539 70.7331 110.069 69.282 110.07 67.6443C110.07 65.7962 109.389 64.1204 108.032 62.6164C107.455 61.9776 106.796 61.4365 106.059 60.9844C105.316 60.5291 104.45 60.1624 103.451 59.8708C102.455 59.5859 101.309 59.367 100.002 59.2228C98.6944 59.0819 97.1958 59.0092 95.5115 59.0092H80.5503ZM96.9107 61.1548C100.227 61.1548 102.21 62.064 103.105 62.7292C103.95 63.3337 104.637 64.1319 105.109 65.0571C105.531 65.9096 105.756 66.8469 105.766 67.7978C105.777 68.749 105.574 69.691 105.171 70.553C104.772 71.3722 104.179 72.0779 103.386 72.6841C102.75 73.169 100.8 73.7575 98.9266 73.9705V76.2649C101.059 76.5335 102.415 77.1977 103.11 77.712C104.318 78.5663 105.187 79.8191 105.565 81.2495C105.942 82.6802 105.803 84.1992 105.174 85.5383C104.774 86.3568 104.185 87.0677 103.393 87.667C102.597 88.2699 99.7737 89.035 97.5947 89.035H90.3276L90.3204 89.0398V61.1548H96.9107ZM91.0596 88.2958H97.5947C98.6087 88.2958 99.7982 88.1175 100.835 87.8614C101.35 87.7339 101.818 87.5898 102.195 87.4462C102.587 87.2972 102.832 87.1654 102.947 87.079C103.653 86.545 104.165 85.9228 104.511 85.2143C105.063 84.0345 105.184 82.6988 104.852 81.4391C104.519 80.1759 103.752 79.0688 102.685 78.3144L102.671 78.3048C102.091 77.8756 100.857 77.2518 98.8331 76.9968C98.465 76.9501 98.19 76.636 98.1899 76.2649V73.9705C98.19 73.5958 98.4703 73.281 98.8427 73.2385C99.736 73.137 100.651 72.9458 101.413 72.7225C102.206 72.4901 102.736 72.2494 102.937 72.0962C103.649 71.5519 104.165 70.9344 104.509 70.229C104.861 69.4707 105.039 68.6434 105.03 67.8074C105.02 66.9672 104.821 66.1392 104.449 65.3859V65.3835C104.03 64.5666 103.422 63.8609 102.675 63.3267L102.663 63.3195C101.916 62.7638 100.094 61.8916 96.9107 61.8916H91.0596V88.2958Z" fill="#D7AC63"/>
<path d="M98.9261 76.2642V73.9705H90.3214V76.2642H98.9261Z" fill="#D7AC63"/>
<path d="M98.9252 76.265V73.9707H90.3214V76.265H98.9252ZM99.6644 76.265C99.664 76.6719 99.3322 77.0018 98.9252 77.0018H90.3214C89.9144 77.0018 89.5849 76.6719 89.5846 76.265V73.9707C89.5846 73.5635 89.9142 73.2339 90.3214 73.2339H98.9252C99.3324 73.2339 99.6644 73.5635 99.6644 73.9707V76.265Z" fill="#D7AC63"/>
<path d="M98.9261 76.2642V73.9705H90.3214V76.2642H98.9261Z" fill="#D7AC63"/>
<path d="M98.9252 76.265V73.9707H90.3214V76.265H98.9252ZM99.6644 76.265C99.664 76.6719 99.3322 77.0018 98.9252 77.0018H90.3214C89.9144 77.0018 89.5849 76.6719 89.5846 76.265V73.9707C89.5846 73.5635 89.9142 73.2339 90.3214 73.2339H98.9252C99.3324 73.2339 99.6644 73.5635 99.6644 73.9707V76.265Z" fill="#D7AC63"/>
<path d="M85.5473 76.2642V73.9705H75.1633V76.2642H85.5473Z" fill="#D7AC63"/>
<path d="M85.5479 76.265V73.9707H75.1633V76.265H85.5479ZM86.2846 76.265C86.2843 76.6717 85.9545 77.0015 85.5479 77.0018H75.1633C74.7563 77.0018 74.4269 76.6719 74.4265 76.265V73.9707C74.4265 73.5635 74.7561 73.2339 75.1633 73.2339H85.5479C85.9548 73.2342 86.2846 73.5637 86.2846 73.9707V76.265Z" fill="#D7AC63"/>
<path d="M85.5473 76.2642V73.9705H75.1633V76.2642H85.5473Z" fill="#D7AC63"/>
<path d="M85.5479 76.265V73.9707H75.1633V76.265H85.5479ZM86.2846 76.265C86.2843 76.6717 85.9545 77.0015 85.5479 77.0018H75.1633C74.7563 77.0018 74.4269 76.6719 74.4265 76.265V73.9707C74.4265 73.5635 74.7561 73.2339 75.1633 73.2339H85.5479C85.9548 73.2342 86.2846 73.5637 86.2846 73.9707V76.265Z" fill="#D7AC63"/>
<path d="M76.1005 71.7422H75.1633V73.9704H78.404C76.6182 73.9605 76.0906 73.4854 76.1005 71.7422Z" fill="#D7AC63"/>
<path d="M76.0993 71.0054C76.2951 71.0054 76.4842 71.0827 76.6225 71.2214C76.7608 71.3605 76.8396 71.5507 76.8385 71.747C76.8337 72.596 76.974 72.8644 77.0881 72.9733C77.2155 73.0949 77.523 73.2276 78.408 73.2325C78.8142 73.2348 79.1432 73.5656 79.1424 73.9717C79.1413 74.3781 78.8096 74.7085 78.4032 74.7085H75.1633C74.7561 74.7085 74.4265 74.3765 74.4265 73.9693V71.7422C74.4265 71.335 74.7561 71.0054 75.1633 71.0054H76.0993ZM78.4032 73.9693C76.618 73.9593 76.0894 73.4851 76.0993 71.7422H75.1633V73.9693H78.4032Z" fill="#D7AC63"/>
<path d="M76.1005 71.7422H75.1633V73.9704H78.404C76.6182 73.9605 76.0906 73.4854 76.1005 71.7422Z" fill="#D7AC63"/>
<path d="M76.0993 71.0054C76.2951 71.0054 76.4842 71.0827 76.6225 71.2214C76.7608 71.3605 76.8396 71.5507 76.8385 71.747C76.8337 72.596 76.974 72.8644 77.0881 72.9733C77.2155 73.0949 77.523 73.2276 78.408 73.2325C78.8142 73.2348 79.1432 73.5656 79.1424 73.9717C79.1413 74.3781 78.8096 74.7085 78.4032 74.7085H75.1633C74.7561 74.7085 74.4265 74.3765 74.4265 73.9693V71.7422C74.4265 71.335 74.7561 71.0054 75.1633 71.0054H76.0993ZM78.4032 73.9693C76.618 73.9593 76.0894 73.4851 76.0993 71.7422H75.1633V73.9693H78.4032Z" fill="#D7AC63"/>
<path d="M75.1633 78.4795H76.1005C76.0972 76.7756 76.592 76.271 78.3975 76.2644H75.1633V78.4795Z" fill="#D7AC63"/>
<path d="M78.3984 75.5276C78.8043 75.5281 79.1339 75.8561 79.1352 76.262C79.1359 76.6684 78.8071 76.9993 78.4008 77.0012C77.5122 77.0044 77.2087 77.1435 77.0857 77.2627C76.9713 77.3742 76.837 77.6438 76.8385 78.4771C76.8388 78.6729 76.7607 78.8617 76.6225 79.0003C76.4842 79.1389 76.2951 79.2163 76.0993 79.2163H75.1633C74.7561 79.2163 74.4266 78.8867 74.4265 78.4795V76.2644C74.4265 75.8572 74.7561 75.5276 75.1633 75.5276H78.3984ZM76.0993 78.4795C76.096 76.7756 76.5929 76.2709 78.3984 76.2644H75.1633V78.4795H76.0993Z" fill="#D7AC63"/>
<path d="M75.1633 78.4795H76.1005C76.0972 76.7756 76.592 76.271 78.3975 76.2644H75.1633V78.4795Z" fill="#D7AC63"/>
<path d="M78.3984 75.5276C78.8043 75.5281 79.1339 75.8561 79.1352 76.262C79.1359 76.6684 78.8071 76.9993 78.4008 77.0012C77.5122 77.0044 77.2087 77.1435 77.0857 77.2627C76.9713 77.3742 76.837 77.6438 76.8385 78.4771C76.8388 78.6729 76.7607 78.8617 76.6225 79.0003C76.4842 79.1389 76.2951 79.2163 76.0993 79.2163H75.1633C74.7561 79.2163 74.4266 78.8867 74.4265 78.4795V76.2644C74.4265 75.8572 74.7561 75.5276 75.1633 75.5276H78.3984ZM76.0993 78.4795C76.096 76.7756 76.5929 76.2709 78.3984 76.2644H75.1633V78.4795H76.0993Z" fill="#D7AC63"/>
<path fill-rule="evenodd" clip-rule="evenodd" d="M123.475 60.7852V73.9577H142.018V76.2809H123.475V85.9472C123.475 87.389 123.537 88.2671 123.662 88.5686C123.728 88.7327 123.826 88.882 123.951 89.008C124.075 89.134 124.223 89.2341 124.386 89.3026C124.629 89.4014 124.883 89.4697 125.143 89.5057C125.451 89.5516 125.851 89.5778 126.346 89.5778H142.018V91.3538H113.609V90.4593H114.815C115.143 90.4593 115.49 90.4265 115.847 90.361C116.207 90.2889 116.538 90.1906 116.846 90.0529C117.151 89.9237 117.433 89.7467 117.682 89.5287C117.923 89.3261 118.114 89.0703 118.239 88.7816C118.445 88.2802 118.547 87.2317 118.547 85.6359V64.6321C118.559 63.7972 118.509 62.9626 118.396 62.1352C118.295 61.4897 118.131 61.0539 117.902 60.8245C117.282 60.1889 116.257 59.8677 114.815 59.8677H113.609V59.0027H142.018V60.8278C141.494 60.7951 133.633 60.7787 132.981 60.7787H123.475V60.7852Z" fill="#D7AC63"/>
<path d="M142.017 58.2659C142.424 58.2659 142.756 58.5955 142.756 59.0027V60.8266C142.756 61.0298 142.671 61.2249 142.524 61.3642C142.375 61.5035 142.175 61.5761 141.972 61.5634C141.471 61.5326 133.659 61.5154 132.981 61.5154H124.212V73.2199H142.017C142.424 73.2199 142.756 73.55 142.756 73.9567V76.2799C142.756 76.687 142.424 77.019 142.017 77.019H124.212V85.9468C124.212 86.6598 124.228 87.2215 124.258 87.634C124.272 87.8398 124.289 87.9999 124.308 88.1188L124.344 88.2868L124.346 88.2916C124.376 88.3654 124.42 88.4341 124.476 88.4908C124.532 88.547 124.597 88.5921 124.67 88.6228C124.854 88.6971 125.047 88.749 125.244 88.7764H125.251C125.512 88.8152 125.874 88.8412 126.345 88.8412H142.017C142.424 88.8412 142.756 89.1708 142.756 89.578V91.3539C142.756 91.761 142.424 92.0907 142.017 92.0907H113.609C113.202 92.0907 112.872 91.761 112.872 91.3539V90.4587C112.872 90.0518 113.202 89.722 113.609 89.722H114.814C115.091 89.722 115.392 89.6929 115.707 89.6356C116.024 89.5718 116.3 89.4888 116.547 89.3788L116.559 89.374C116.791 89.2753 117.007 89.1396 117.197 88.9732L117.206 88.9636C117.359 88.8353 117.479 88.6734 117.559 88.4908C117.619 88.3404 117.688 88.044 117.737 87.5476C117.785 87.056 117.809 86.4198 117.809 85.6349V64.6209C117.82 63.8281 117.773 63.0356 117.667 62.2498C117.569 61.6272 117.432 61.3974 117.379 61.345L117.374 61.3402V61.3378C116.958 60.9106 116.173 60.6058 114.814 60.6058H113.609C113.202 60.6058 112.872 60.2738 112.872 59.8666V59.0027C112.872 58.5955 113.202 58.2659 113.609 58.2659H142.017ZM113.609 59.0027V59.8666H114.814C116.256 59.8666 117.283 60.1885 117.902 60.8242C118.132 61.0536 118.295 61.4897 118.397 62.1346C118.509 62.9619 118.56 63.798 118.548 64.6329V85.6349C118.548 87.2305 118.445 88.2798 118.238 88.7812C118.113 89.0698 117.922 89.325 117.682 89.5276C117.433 89.7456 117.151 89.9239 116.847 90.0532C116.539 90.1906 116.208 90.2883 115.848 90.3603C115.491 90.4259 115.141 90.4587 114.814 90.4587H113.609V91.3539H142.017V89.578H126.345C125.851 89.578 125.451 89.5518 125.143 89.506C124.884 89.4699 124.63 89.4007 124.387 89.302C124.224 89.2336 124.075 89.1349 123.95 89.0092C123.826 88.8832 123.729 88.7317 123.662 88.5676C123.538 88.2655 123.475 87.3875 123.475 85.9468V76.2799H142.017V73.9567H123.475V60.7786H132.981C133.635 60.7786 141.483 60.7939 142.017 60.8266V59.0027H113.609Z" fill="#D7AC63"/>
<path fill-rule="evenodd" clip-rule="evenodd" d="M123.475 60.7852V73.9577H142.018V76.2809H123.475V85.9472C123.475 87.389 123.537 88.2671 123.662 88.5686C123.728 88.7327 123.826 88.882 123.951 89.008C124.075 89.134 124.223 89.2341 124.386 89.3026C124.629 89.4014 124.883 89.4697 125.143 89.5057C125.451 89.5516 125.851 89.5778 126.346 89.5778H142.018V91.3538H113.609V90.4593H114.815C115.143 90.4593 115.49 90.4265 115.847 90.361C116.207 90.2889 116.538 90.1906 116.846 90.0529C117.151 89.9237 117.433 89.7467 117.682 89.5287C117.923 89.3261 118.114 89.0703 118.239 88.7816C118.445 88.2802 118.547 87.2317 118.547 85.6359V64.6321C118.559 63.7972 118.509 62.9626 118.396 62.1352C118.295 61.4897 118.131 61.0539 117.902 60.8245C117.282 60.1889 116.257 59.8677 114.815 59.8677H113.609V59.0027H142.018V60.8278C141.494 60.7951 133.633 60.7787 132.981 60.7787H123.475V60.7852Z" fill="#D7AC63"/>
<path d="M142.017 58.2659C142.424 58.2659 142.756 58.5955 142.756 59.0027V60.8266C142.756 61.0298 142.671 61.2249 142.524 61.3642C142.375 61.5035 142.175 61.5761 141.972 61.5634C141.471 61.5326 133.659 61.5154 132.981 61.5154H124.212V73.2199H142.017C142.424 73.2199 142.756 73.55 142.756 73.9567V76.2799C142.756 76.687 142.424 77.019 142.017 77.019H124.212V85.9468C124.212 86.6598 124.228 87.2215 124.258 87.634C124.272 87.8398 124.289 87.9999 124.308 88.1188L124.344 88.2868L124.346 88.2916C124.376 88.3654 124.42 88.4341 124.476 88.4908C124.532 88.547 124.597 88.5921 124.67 88.6228C124.854 88.6971 125.047 88.749 125.244 88.7764H125.251C125.512 88.8152 125.874 88.8412 126.345 88.8412H142.017C142.424 88.8412 142.756 89.1708 142.756 89.578V91.3539C142.756 91.761 142.424 92.0907 142.017 92.0907H113.609C113.202 92.0907 112.872 91.761 112.872 91.3539V90.4587C112.872 90.0518 113.202 89.722 113.609 89.722H114.814C115.091 89.722 115.392 89.6929 115.707 89.6356C116.024 89.5718 116.3 89.4888 116.547 89.3788L116.559 89.374C116.791 89.2753 117.007 89.1396 117.197 88.9732L117.206 88.9636C117.359 88.8353 117.479 88.6734 117.559 88.4908C117.619 88.3404 117.688 88.044 117.737 87.5476C117.785 87.056 117.809 86.4198 117.809 85.6349V64.6209C117.82 63.8281 117.773 63.0356 117.667 62.2498C117.569 61.6272 117.432 61.3974 117.379 61.345L117.374 61.3402V61.3378C116.958 60.9106 116.173 60.6058 114.814 60.6058H113.609C113.202 60.6058 112.872 60.2738 112.872 59.8666V59.0027C112.872 58.5955 113.202 58.2659 113.609 58.2659H142.017ZM113.609 59.0027V59.8666H114.814C116.256 59.8666 117.283 60.1885 117.902 60.8242C118.132 61.0536 118.295 61.4897 118.397 62.1346C118.509 62.9619 118.56 63.798 118.548 64.6329V85.6349C118.548 87.2305 118.445 88.2798 118.238 88.7812C118.113 89.0698 117.922 89.325 117.682 89.5276C117.433 89.7456 117.151 89.9239 116.847 90.0532C116.539 90.1906 116.208 90.2883 115.848 90.3603C115.491 90.4259 115.141 90.4587 114.814 90.4587H113.609V91.3539H142.017V89.578H126.345C125.851 89.578 125.451 89.5518 125.143 89.506C124.884 89.4699 124.63 89.4007 124.387 89.302C124.224 89.2336 124.075 89.1349 123.95 89.0092C123.826 88.8832 123.729 88.7317 123.662 88.5676C123.538 88.2655 123.475 87.3875 123.475 85.9468V76.2799H142.017V73.9567H123.475V60.7786H132.981C133.635 60.7786 141.483 60.7939 142.017 60.8266V59.0027H113.609Z" fill="#D7AC63"/>
</svg>
