<svg width="250" height="118" viewBox="0 0 250 118" fill="none" xmlns="http://www.w3.org/2000/svg">
<path d="M243.632 68.2115C238.302 63.0774 230.003 60.5316 221.432 61.4057C214.799 62.0761 209.046 65.1905 205.239 70.1633C201.534 74.9919 200.061 81.1443 201.077 87.4834C203.141 100.357 214.782 106 225.265 106C225.747 106 226.229 105.992 226.711 105.966C232.583 105.669 238.091 103.683 242.219 100.374C246.906 96.606 249.588 91.3616 249.952 85.2176C250.358 78.4627 248.175 72.5903 243.641 68.22L243.632 68.2115ZM235.375 94.7306C233.581 97.6413 230.121 100.976 223.818 100.34C216.111 99.5591 212.574 91.2513 212.54 83.8599C212.498 73.0316 218.37 67.5411 224.216 66.9046C229.986 66.2767 233.344 69.5523 235.138 72.4206C239.097 78.7258 239.199 88.5272 235.375 94.7306Z" fill="#BD9960"/>
<path d="M111.659 61.3886H111.566C98.4357 62.7294 91.7605 72.6157 90.9568 81.8232C90.1785 90.7845 94.8401 101.367 106.998 104.795C109.773 105.576 112.598 105.958 115.373 105.958C122.522 105.958 129.341 103.437 134.028 98.8038C139.544 93.3473 141.38 85.8116 139.189 77.5801C136.753 68.3982 127.294 59.8527 111.651 61.3971L111.659 61.3886ZM125.509 94.739C123.715 97.6412 120.263 100.976 113.96 100.34C106.236 99.5591 102.691 91.2682 102.666 83.8938C102.641 76.3327 106.287 67.7872 114.367 66.9131C120.128 66.2851 123.47 69.5607 125.272 72.4206C129.24 78.7342 129.35 88.5442 125.517 94.739H125.509Z" fill="#BD9960"/>
<path d="M181.127 99.253C169.942 102.478 162.506 97.0212 160.264 90.3681C157.632 82.5439 159.443 74.6264 164.891 70.2136C169.841 66.1912 176.702 66.1148 183.242 69.993L190.687 74.9404L189.528 63.6369L188.487 63.289C179.663 60.3697 166.685 59.8775 157.582 65.3426C152.319 68.4994 148.978 73.362 147.92 79.4041C146.076 89.9608 150.458 96.2574 154.46 99.6773C159.24 103.768 166.067 105.932 173.242 105.932C177.176 105.932 181.211 105.278 185.069 103.946C185.12 103.929 190.501 101.918 191.567 100.772C192.041 100.263 192.523 99.5925 192.481 98.5147L192.768 84.6909L192.802 82.9597H181.127V99.2615V99.253Z" fill="#BD9960"/>
<path d="M70.4236 78.7255C67.581 77.5204 64.899 76.3833 63.0378 74.9067C62.3271 74.3466 58.8837 71.4105 60.8973 68.8137C63.2493 65.7842 70.3475 67.3711 73.7147 69.1277L82.4627 74.737L81.9043 63.6457L80.8383 63.2638C77.1157 61.94 70.4575 60.8622 63.9853 61.4308C56.261 62.1097 51.1933 64.8931 49.332 69.4756C45.2542 79.4892 55.1443 83.7323 62.3694 86.8382C65.2544 88.0772 67.9786 89.2482 69.6114 90.5636C71.9042 92.4136 72.9871 94.7727 72.4287 96.7245C71.9211 98.4981 70.0852 99.7031 67.3864 100.017C61.3542 100.721 54.9497 97.9974 51.0664 93.0585L48.0376 89.2143L48.0714 102.75L49.0951 103.191C52.8092 104.778 58.4607 105.83 63.85 105.932C64.1376 105.932 64.4337 105.932 64.7383 105.932C69.3069 105.932 75.2714 105.253 79.4677 102.249C82.8349 99.8389 84.4593 96.2917 84.1547 91.9892C83.6133 84.3178 76.6081 81.3477 70.4321 78.7255H70.4236Z" fill="#BD9960"/>
<path d="M0 70.0524L15.5924 68.5249V104.939H26.9208V68.7965L42.5131 70.0185V62.2197H0V70.0524Z" fill="#BD9960"/>
<path d="M78.0804 11.4902C77.6404 11.4902 77.1836 11.5072 76.7437 11.5412C74.0617 11.7448 71.3798 12.6443 68.9094 14.1549V11.9739H59.603V56.7296H69.3747V43.8477C71.8874 45.3243 74.8232 46.1305 77.8943 46.1305C84.9248 46.1305 91.0331 42.176 93.4528 36.049C95.8386 30.0154 95.2887 23.7357 91.9553 18.8137C88.8504 14.2312 83.6727 11.4987 78.0888 11.4987L78.0804 11.4902ZM85.5255 28.7849C85.5255 33.3419 81.8029 37.0504 77.2259 37.0504C72.6489 37.0504 68.9263 33.3419 68.9263 28.7849C68.9263 24.2279 72.6489 20.5194 77.2259 20.5194C81.8029 20.5194 85.5255 24.2279 85.5255 28.7849Z" fill="white"/>
<path d="M187.075 11.9738L181.618 12.0501L180.23 12.0671L179.697 13.3485L171.745 32.3998L162.497 13.1364L161.922 11.9313H160.585L155.247 11.9568L151.99 11.9738L153.326 14.9524L166.228 43.7203C164.807 46.928 163.969 48.3367 161.947 48.3452C160.247 48.3452 158.902 47.5305 157.92 46.945L157.641 46.7753L155.754 45.6551L154.705 47.5814L152.683 51.2983L151.685 53.1398L153.504 54.1666L155.475 55.2783L155.518 55.3038L155.56 55.3208C158.149 56.6276 160.602 57.298 162.861 57.298C167.362 57.298 171.102 54.6504 173.403 49.8387V49.8133L173.428 49.7878L189.046 14.9609L190.408 11.9229L187.092 11.9653L187.075 11.9738Z" fill="white"/>
<path d="M142.565 11.965H140.45V13.8405C137.861 12.2875 134.883 11.4644 131.769 11.4644C124.248 11.4644 115.839 16.7597 115.06 26.5611C114.603 32.2468 116.219 37.3979 119.595 41.0639C122.632 44.365 126.795 46.181 131.313 46.181C134.477 46.181 137.582 45.2984 140.458 43.5927V45.6718H149.765V11.965H142.573H142.565ZM140.78 28.776C140.78 33.35 137.04 37.0754 132.446 37.0754C127.852 37.0754 124.113 33.35 124.113 28.776C124.113 24.202 127.852 20.4766 132.446 20.4766C137.04 20.4766 140.78 24.202 140.78 28.776Z" fill="white"/>
<path d="M102.176 0H100.061V2.12152V43.5507V45.6722H102.176H107.252H109.367V43.5507V2.12152V0H107.252H102.176Z" fill="white"/>
</svg>
