<svg width="250" height="200" viewBox="0 0 250 200" fill="none" xmlns="http://www.w3.org/2000/svg">
<path d="M125.084 0C107.206 0 92.7139 14.468 92.7139 32.3101C92.7139 50.1521 107.206 64.6201 125.084 64.6201C142.962 64.6201 157.464 50.1521 157.464 32.3101C157.464 14.468 142.967 0 125.084 0Z" fill="#13110C"/>
<path d="M125.084 2.89746C108.813 2.89746 95.6172 16.0664 95.6172 32.3102C95.6172 48.554 108.808 61.7229 125.084 61.7229C141.361 61.7229 154.556 48.554 154.556 32.3102C154.556 16.0664 141.361 2.89746 125.084 2.89746Z" fill="#CB151A"/>
<path d="M125.089 13.127C114.474 13.127 105.872 21.7162 105.872 32.3102C105.872 42.9042 114.474 51.4934 125.089 51.4934C135.704 51.4934 144.311 42.9042 144.311 32.3102C144.311 21.7162 135.704 13.127 125.089 13.127Z" fill="#13110C"/>
<path d="M140.471 32.3099L117.409 45.6003V19.0195L140.471 32.3099Z" fill="#CB151A"/>
<path d="M0 80.0132H12.0528V82.0179C12.0528 83.3264 11.8983 84.5601 11.8983 84.5601H12.0528C14.7593 80.9385 19.3154 79.0879 24.1056 79.0879C34.9222 79.0879 42.0303 87.5696 42.0303 99.9067C42.0303 112.244 34.0747 120.646 23.4922 120.646C19.7837 120.646 16.2296 119.338 13.3733 116.87H13.2188C13.2188 116.87 13.3733 118.258 13.3733 120.263V133.764H0.0093599V80.0132H0ZM20.781 109.617C24.9532 109.617 28.5821 106.225 28.5821 100.136C28.5821 94.0466 25.4167 90.3455 20.781 90.3455C16.7634 90.3455 12.98 93.2755 12.98 100.136C12.98 104.916 15.5272 109.617 20.781 109.617Z" fill="white"/>
<path d="M43.033 69.293H56.3969V103.295C56.3969 107.071 57.0899 108.384 60.1055 108.384C60.4941 108.384 61.1075 108.384 61.7256 108.309V119.875C60.7985 119.95 59.4078 120.104 57.708 120.104C50.6 120.104 43.0283 118.408 43.0283 105.071V69.293H43.033Z" fill="white"/>
<path d="M85.2413 94.968H86.3979V94.2717C86.3979 90.9584 83.6914 89.8789 80.7602 89.8789C76.8971 89.8789 72.9591 91.5753 69.789 93.6548L65.1533 84.2478C68.5528 81.6262 75.5064 79.084 81.9917 79.084C92.9628 79.084 99.7618 85.1731 99.7618 95.2764V119.717H87.5545V117.329C87.5545 116.02 87.709 114.862 87.709 114.862H87.5545C84.9276 118.563 80.2919 120.647 75.7358 120.647C68.0893 120.647 62.7559 115.404 62.7559 108.543C62.7559 97.9027 75.4268 94.9727 85.2366 94.9727M79.7534 110.698C83.6165 110.698 86.5524 106.922 86.5524 103.683V102.604H85.3162C81.2237 102.604 75.9699 103.683 75.9699 107.305C75.9699 109.156 77.281 110.698 79.7534 110.698Z" fill="white"/>
<path d="M106.176 124.806C108.34 124.806 111.196 124.189 112.587 120.796L113.359 118.946L96.4414 80.0137H111.585L117.457 98.2856C118.154 100.445 118.927 104.454 118.927 104.454H119.081C119.081 104.454 119.854 100.678 120.392 98.5193L125.412 80.0183H140.012L123.712 123.965C118.229 132.269 113.439 133.764 107.104 133.764C101.85 133.764 97.8321 130.988 97.8321 130.988L102.079 123.348C102.079 123.348 104.242 124.81 106.172 124.81" fill="white"/>
<path d="M141.033 69.3027H154.397V79.9435C154.397 81.9482 154.243 83.3362 154.243 83.3362H154.397C156.715 80.7145 161.117 79.0976 165.134 79.0976C175.951 79.0976 183.059 87.5794 183.059 99.9165C183.059 112.254 175.103 120.656 164.521 120.656C160.503 120.656 156.102 119.188 153.395 115.95H153.241C153.241 115.95 153.32 116.955 153.32 118.188V119.731H141.038V69.3027H141.033ZM161.814 109.627C165.986 109.627 169.615 106.235 169.615 100.145C169.615 94.0563 166.445 90.3552 161.814 90.3552C157.797 90.3552 154.013 93.2853 154.013 100.145C154.013 104.926 156.56 109.627 161.814 109.627Z" fill="white"/>
<path d="M204.767 79.084C216.511 79.084 223.155 87.2573 223.155 98.2812C223.155 99.6692 223.001 101.057 222.846 102.445H197.739C198.741 107.305 202.758 109.539 207.01 109.539C210.948 109.539 214.736 107.688 217.981 105.529L222.926 114.857C218.599 118.558 212.034 120.642 205.933 120.642C191.717 120.642 184.07 110.389 184.07 99.828C184.07 88.1873 191.951 79.0887 204.772 79.0887M209.946 94.8138C209.946 91.5753 207.858 88.8789 204.458 88.8789C200.595 88.8789 198.741 91.6547 198.048 94.8138H209.946Z" fill="white"/>
<path d="M228.292 91.1118H223.192V80.7048H228.68V69.293H241.656V80.7048H250V91.1118H241.656V103.295C241.656 107.767 245.931 108.267 248.469 108.51C249.831 108.51 249.049 108.51 249.892 108.524V120.09C248.89 120.165 248.455 120.104 246.909 120.104C240.574 120.104 228.292 118.408 228.292 105.071V91.1165V91.1118Z" fill="white"/>
<path d="M46.3848 168.084H33.7139V179.458H46.3848V168.084Z" fill="white"/>
<path d="M104.865 138.438C117.456 138.438 127.5 146.84 127.5 159.331C127.5 171.822 117.456 179.996 104.944 179.996C92.4327 179.996 82.3887 171.748 82.3887 159.331C82.3887 146.915 92.4327 138.438 104.869 138.438M104.94 168.892C109.805 168.892 113.977 165.271 113.977 159.331C113.977 153.392 109.805 149.541 104.94 149.541C100.075 149.541 95.9024 153.317 95.9024 159.331C95.9024 165.345 100.075 168.892 104.94 168.892Z" fill="white"/>
<path d="M140.171 168.084H127.5V179.071H140.171V168.084Z" fill="white"/>
<path d="M142.18 172.439L156.781 154.167C158.789 151.7 160.255 150.545 160.255 150.545V150.391C160.255 150.391 159.248 150.545 156.781 150.545H142.799V139.367H178.334V146.073L163.809 164.345C161.88 166.738 160.255 167.967 160.255 167.967V168.121C160.255 168.121 161.257 167.892 163.809 167.892H178.718V179.07H142.176V172.439H142.18Z" fill="white"/>
<path d="M202.205 154.321H203.362V153.625C203.362 150.312 200.655 149.232 197.724 149.232C193.861 149.232 189.918 150.929 186.753 153.008L182.117 143.601C185.517 140.98 192.47 138.438 198.956 138.438C209.927 138.438 216.726 144.527 216.726 154.63V179.07H204.518V176.682C204.518 175.374 204.673 174.215 204.673 174.215H204.518C201.891 177.916 197.256 180 192.7 180C185.053 180 179.72 174.757 179.72 167.897C179.72 157.256 192.391 154.326 202.201 154.326M196.722 170.051C200.585 170.051 203.521 166.275 203.521 163.037V161.957H202.285C198.192 161.957 192.938 163.037 192.938 166.659C192.938 168.509 194.254 170.051 196.722 170.051Z" fill="white"/>
<path d="M69.4324 168.508C63.0969 168.508 59.9315 163.728 59.9315 159.027C59.9315 154.325 63.0969 149.545 69.4324 149.545C72.9068 149.545 76.4608 151.166 78.7787 153.4L84.4164 144.456C80.4784 140.213 74.143 138.441 68.5802 138.441C54.3547 138.441 46.488 148.442 46.4131 159.027C46.488 169.611 54.3593 179.612 68.5802 179.612C74.143 179.612 80.4784 177.841 84.4164 173.597L78.7787 164.653C76.4608 166.891 72.9068 168.508 69.4324 168.508Z" fill="white"/>
</svg>
