<svg width="150" height="108" viewBox="0 0 150 108" fill="none" xmlns="http://www.w3.org/2000/svg">
<path d="M138.443 57.4641H122.083V63.5552C123.127 63.7292 123.997 63.9031 124.78 63.9901L119.429 81.264C118.254 81.3947 117.122 81.6119 115.992 81.83V87.9207H129.784V81.83C128.828 81.656 128.479 81.4812 127.565 81.351L128.043 78.9588H135.919L136.658 81.3951C135.701 81.4817 134.832 81.6565 133.917 81.8304V87.9212H149.799V81.83C148.668 81.6119 147.448 81.3947 146.187 81.264L138.443 57.4641ZM131.959 64.5557L134.396 72.344H129.523L131.873 64.5557H131.959Z" fill="black"/>
<path d="M78.7309 57.4641H62.3714V63.5552C63.4151 63.7292 64.2858 63.9031 65.0682 63.9901L59.7166 81.264C58.5413 81.3947 57.4101 81.6119 56.2798 81.83V87.9207H70.0719V81.83C69.1155 81.656 68.7663 81.4812 67.8533 81.351L68.3314 78.9588H76.2068L76.9463 81.3951C75.9895 81.4817 75.1197 81.6565 74.2054 81.8304V87.9212H90.0867V81.83C88.9555 81.6119 87.7365 81.3947 86.4747 81.264L78.7309 57.4641ZM72.2477 64.5557L74.6853 72.344H69.8114L72.1616 64.5557H72.2477Z" fill="black"/>
<path d="M29.196 87.9207V81.8296C30.3704 81.6119 31.3276 81.4388 32.1113 81.351V64.0343C31.023 63.9036 29.9792 63.7292 29.0225 63.5552V57.4641H44.9025V63.5552C43.6419 63.8599 42.2053 64.0343 40.6396 64.1641V81.1333H47.627L48.5842 77.0864H54.2405V87.9203L29.196 87.9207Z" fill="black"/>
<path d="M101.474 63.5552L99.6896 63.8157L103.257 71.1696H103.388L107.173 63.9031C106.521 63.8157 105.824 63.685 105.084 63.5552V57.4641H118.051V63.5552C117.007 63.7724 116.006 63.9464 115.006 64.1208L107.087 77.565V81.3505C108.131 81.438 109.132 81.6119 110.132 81.8296V87.9207H95.6435V81.83C96.6003 81.656 97.5575 81.4812 98.5584 81.351V77.9146L90.5961 63.9897C89.7683 63.9031 88.8985 63.7292 88.0278 63.5552V57.4641H101.473V63.5552H101.474Z" fill="black"/>
<path d="M19.1883 68.6018C19.145 70.6906 18.1878 71.518 15.925 71.518H11.6605V64.4254H15.925C18.2748 64.4254 19.1883 65.2948 19.1883 67.4706V68.6018ZM0 57.4641V63.5552C1.21858 63.7724 2.21906 63.9464 3.13256 64.0762V81.3505C2.08924 81.4817 1.1316 81.6556 0.174392 81.8296V87.9207H15.0985V81.83C14.0106 81.6123 12.8358 81.3947 11.6605 81.2644V78.1747H16.5776C24.1483 78.1747 27.1078 75.651 27.1943 69.2989V66.9924C27.1943 60.1608 24.2353 57.5065 16.5339 57.4641H0Z" fill="black"/>
<path d="M146.833 57.1443C144.844 57.1443 143.665 58.3239 143.665 60.3123C143.665 62.3172 144.844 63.4968 146.833 63.4968C148.821 63.4968 150 62.3172 150 60.3123C150 58.3239 148.821 57.1443 146.833 57.1443ZM146.833 57.5826C148.517 57.5826 149.528 58.5429 149.528 60.3123C149.528 62.0982 148.517 63.0416 146.833 63.0416C145.147 63.0416 144.153 62.0982 144.153 60.3123C144.153 58.5429 145.147 57.5826 146.833 57.5826ZM145.383 58.6104V59.0652C145.501 59.0821 145.636 59.0989 145.771 59.0989V61.357L145.383 61.3907V61.8624H146.731V61.3907H146.395V60.6996H147.018C147.22 60.9692 147.354 61.2726 147.473 61.6261V61.8624H148.484V61.4076C148.349 61.3907 148.13 61.357 148.046 61.357C147.945 61.0705 147.793 60.8009 147.675 60.6152C148.012 60.5144 148.197 60.2111 148.197 59.7394V59.5706C148.197 58.9644 147.81 58.6104 147.136 58.6104H145.383ZM146.395 59.1327H147.052C147.406 59.1327 147.557 59.301 147.557 59.6044V59.7394C147.557 60.0592 147.389 60.1942 147.069 60.1942H146.395V59.1327Z" fill="black"/>
<path d="M75.3974 10.8704V14.4755H74.3619V10.899L71.7214 8.64302L66.7738 9.97099L65.0086 14.4716L70.034 15.626L68.5214 13.046L69.4148 12.5221L71.6684 16.3664L67.1928 29.0165L68.9669 34.4741L71.624 33.7939L74.3449 32.1395V30.928L69.5238 25.7828L69.8883 24.7598L74.8622 26.2296L79.8373 24.7598L80.2018 25.7828L75.3807 30.9277V32.1392L78.0775 33.7787L80.7614 34.4657L82.5329 29.0162L78.0575 16.3664L80.3108 12.5221L81.2043 13.046L79.6917 15.626L84.7171 14.4716L82.9519 9.97099L78.0042 8.64302L75.3974 10.8704ZM69.2876 35.4605L70.4491 39.0337H72.4594L74.8616 37.7403L77.2662 39.0337H79.2765L80.4407 35.4527L77.838 34.7868H71.9213L69.2876 35.4605ZM66.8607 26.8502L69.1429 20.3997L64.4916 15.7892L62.3794 21.1753L66.8607 26.8502ZM85.2341 15.7892L80.583 20.4L82.8652 26.8505L87.3465 21.1753L85.2341 15.7892ZM100.827 23.1704L88.8341 47.6416H77.455L74.8795 46.2103L72.2876 47.6416H60.8915L48.8989 23.1704L58.2531 0.0104237L71.6839 0.0014891L74.8628 3.25874L78.5564 0.0014891L91.4725 0L100.827 23.1704Z" fill="black"/>
<path d="M27.3719 97.4153H23.5704V98.55C24.1303 98.6088 24.4691 98.6383 24.7344 98.653L22.0817 106.477C21.6551 106.492 21.2275 106.536 20.771 106.595V107.729H24.6167V106.595C24.2337 106.55 24.0563 106.521 23.7028 106.492L24.2774 104.65H28.0643L28.713 106.492C28.3443 106.521 28.0206 106.551 27.6519 106.595V107.729H31.8364V106.595C31.3942 106.536 30.9376 106.492 30.4811 106.477L27.3719 97.4153ZM26.1784 98.7564L27.7255 103.294H24.602L26.1192 98.7564H26.1784Z" fill="black"/>
<path d="M35.3438 97.4153H32.8244V98.4907C33.1628 98.5353 33.4874 98.5647 33.8111 98.5937V106.566C33.4874 106.58 33.1481 106.61 32.7651 106.654V107.729H36.3897V106.654C36.0067 106.609 35.6679 106.58 35.3438 106.566V97.4153Z" fill="black"/>
<path d="M40.0435 97.4153H37.5241V98.4907C37.863 98.5353 38.1871 98.5647 38.5108 98.5937V106.566C38.1871 106.58 37.8478 106.61 37.4648 106.654V107.729H41.0894V106.654C40.7065 106.609 40.3681 106.58 40.0435 106.566V97.4153Z" fill="black"/>
<path d="M48.2361 97.4153H45.7163V98.4907C46.0543 98.5353 46.3788 98.5647 46.7034 98.5937V107.656C48.4122 107.773 49.4586 107.846 50.8585 107.846H51.0796C52.5678 107.846 53.5107 107.066 53.5107 105.166V102.351C53.5107 100.686 52.6561 99.9049 51.3739 99.9049H51.109C49.8861 99.9049 49.3262 100.155 48.2357 100.789V97.4153H48.2361ZM51.9784 104.886C51.9784 106.197 51.5366 106.698 50.6079 106.698H50.3721C49.6057 106.698 49.0756 106.684 48.2357 106.581V101.807C49.1639 101.232 49.6503 101.114 50.4755 101.114H50.7551C51.6686 101.114 51.978 101.704 51.978 103.044V104.886H51.9784Z" fill="black"/>
<path d="M58.2996 99.9058C56.1337 99.9058 54.9844 100.951 54.9844 103.03V104.636C54.9844 106.905 55.9567 107.892 58.2996 107.892H58.8007C59.9054 107.892 61.0258 107.538 61.6887 106.786V105.77H60.4805L60.4212 106.006C60.1564 106.595 59.5662 106.772 58.8444 106.772H58.2256C57.1498 106.772 56.4721 106.256 56.4721 105.137V104.606H61.8938V102.882C61.8938 100.879 60.8925 99.9058 58.7704 99.9058H58.2996ZM60.5242 103.516H56.4725V102.691C56.4725 101.571 57.1649 100.996 58.2996 100.996H58.7414C59.8319 100.996 60.5242 101.526 60.5242 102.588V103.516Z" fill="black"/>
<path d="M66.4773 106.595C65.6962 106.595 65.5344 106.3 65.5344 105.122V101.232H67.7889V100.083H65.5344V97.8286C65.048 97.8429 64.7386 97.8728 64.1345 97.9757V99.759C64.1345 99.9949 64.0609 100.083 63.7957 100.083H63.0293V101.232H64.0021V105.844C64.0021 107.273 64.5473 107.892 65.6962 107.892H65.8585C66.6097 107.892 67.3908 107.714 68.0101 107.434V106.551C67.4791 106.595 67.1256 106.595 66.6102 106.595H66.4773Z" fill="black"/>
<path d="M69.3505 102.219C69.3505 103.354 69.8516 103.811 71.9145 104.194C73.889 104.562 74.3456 104.695 74.3456 105.417V105.623C74.3456 106.493 73.8298 106.802 72.828 106.802H72.3416C71.8894 106.802 70.9477 106.699 70.6245 106.183L70.5505 105.358H69.351V107.038C70.0472 107.804 71.6098 107.893 72.3749 107.893H72.9483C74.832 107.893 75.7892 107.215 75.7892 105.564V105.181C75.7892 104.002 75.1556 103.575 73.2862 103.207C71.207 102.809 70.7353 102.809 70.7353 102.027V101.925C70.7353 101.232 71.2952 100.952 72.4589 100.952C73.063 100.952 73.6965 101.011 74.2274 101.247L74.3447 102.234H75.5975V100.466C74.6688 100.054 73.2836 99.9062 72.5328 99.9062H72.2676C70.3229 99.9062 69.3501 100.54 69.3501 101.895L69.3505 102.219Z" fill="black"/>
<path d="M87.6951 102.587C87.6951 100.893 86.9582 99.9058 85.219 99.9058H84.6595C83.8191 99.9058 82.4196 100.068 81.4468 100.332V102.219H82.5966L82.6849 101.29C83.2591 101.099 84.0104 101.026 84.5556 101.026C85.6902 101.026 86.1615 101.364 86.1615 102.676V103.059C85.0714 103.177 84.2315 103.236 83.1116 103.368C81.8445 103.531 80.9453 103.796 80.9453 105.476V105.785C80.9453 107.553 81.5793 107.849 83.038 107.849H83.3033C84.5115 107.849 85.2484 107.392 86.1611 106.669V107.715H88.7397V106.64C88.2685 106.596 87.9444 106.566 87.6942 106.552V102.587H87.6951ZM83.7018 106.728C82.803 106.728 82.5378 106.463 82.5378 105.623V105.343C82.5378 104.517 82.8329 104.282 83.7611 104.164C84.4686 104.061 85.5881 103.943 86.1624 103.884V105.652C85.4406 106.286 84.7633 106.728 83.9377 106.728H83.7018Z" fill="black"/>
<path d="M92.2623 100.082H89.7429V101.173C90.0817 101.202 90.4054 101.246 90.7299 101.276V106.566C90.4054 106.58 90.067 106.61 89.6836 106.655V107.73H93.3969V106.655C92.9248 106.61 92.5868 106.58 92.2623 106.566V102.484C92.9105 101.718 93.4852 101.497 94.2368 101.483C94.5609 101.453 94.9443 101.438 95.3567 101.424V100.009H94.7081C93.6621 100.009 93.0139 100.554 92.2627 101.512L92.2623 100.082Z" fill="black"/>
<path d="M99.7327 99.9058C97.5668 99.9058 96.4175 100.951 96.4175 103.03V104.636C96.4175 106.905 97.3898 107.892 99.7327 107.892H100.234C101.339 107.892 102.459 107.538 103.122 106.786V105.77H101.914L101.855 106.006C101.59 106.595 100.999 106.772 100.277 106.772H99.6587C98.5833 106.772 97.9052 106.256 97.9052 105.137V104.606H103.327V102.882C103.327 100.879 102.326 99.9058 100.203 99.9058H99.7327ZM101.957 103.516H97.9057V102.691C97.9057 101.571 98.598 100.996 99.7327 100.996H100.174C101.265 100.996 101.958 101.526 101.958 102.588V103.516H101.957Z" fill="black"/>
<path d="M112.434 107.892C114.688 107.892 115.69 106.846 115.69 104.65V103.206C115.69 100.982 114.703 99.9058 112.418 99.9058H111.725C109.412 99.9058 108.396 100.982 108.396 103.206V104.65C108.396 106.846 109.427 107.892 111.725 107.892H112.434ZM111.682 106.743C110.533 106.743 109.929 106.183 109.929 105.093V102.75C109.929 101.63 110.533 101.055 111.682 101.055H112.404C113.553 101.055 114.158 101.63 114.158 102.75V105.093C114.158 106.183 113.554 106.743 112.404 106.743H111.682Z" fill="black"/>
<path d="M124.869 106.551V101.954C124.869 100.466 124.28 99.9062 122.998 99.9062H122.836C121.628 99.9062 120.567 100.628 119.595 101.365V100.083H117.075V101.173C117.414 101.203 117.738 101.247 118.062 101.276V106.566C117.738 106.581 117.399 106.611 117.016 106.655V107.73H120.641V106.655C120.257 106.61 119.919 106.581 119.595 106.566V102.278C120.449 101.66 121.26 101.203 122.085 101.203H122.261C123.19 101.203 123.337 101.468 123.337 102.75V107.73H126.004V106.655L124.869 106.551Z" fill="black"/>
<path d="M128.921 97.4153H127.213V98.8741L127.625 104.635H128.509L128.921 98.8741V97.4153ZM128.067 107.803C128.686 107.803 128.995 107.524 128.995 106.949C128.995 106.359 128.686 106.079 128.067 106.079C127.448 106.079 127.138 106.359 127.138 106.949C127.139 107.524 127.448 107.803 128.067 107.803Z" fill="black"/>
</svg>
