<svg width="250" height="94" viewBox="0 0 250 94" fill="none" xmlns="http://www.w3.org/2000/svg">
<path d="M72.1387 47.4932H81.5054V64.1327C81.9169 63.8048 82.0859 63.7087 82.193 63.573C87.5865 56.7204 98.3228 57.9077 103.547 64.4946C108.49 70.7252 108.586 81.7051 103.784 88.0432C98.6158 94.8619 87.9641 95.9757 82.3226 89.6715C82.1817 89.5189 82.0127 89.3945 81.6294 89.0553V93.1091H72.1387V47.4932ZM81.466 76.6844C81.4885 77.0124 81.4829 77.6682 81.5956 78.3015C82.193 81.6825 83.895 84.2664 87.2653 85.3406C90.4439 86.3527 93.2562 85.4707 95.4767 83.0055C98.4017 79.7602 98.5651 73.9479 95.9163 70.352C93.0364 66.4339 87.5696 65.9476 84.1599 69.3117C82.1986 71.251 81.466 73.6709 81.4604 76.6844H81.466ZM138.563 82.8699C140.366 84.4643 142.13 86.0304 143.962 87.6474C141.138 91.1698 137.571 93.0243 133.304 93.7367C125.521 95.0371 117.89 91.4356 114.571 84.8431C110.84 77.4308 112.666 67.689 118.877 62.6683C124.045 58.4901 129.923 57.8625 135.959 60.2484C142.012 62.6401 144.599 67.7795 145.427 73.9084C145.675 75.7459 145.467 77.6456 145.467 79.681H122.224C122.816 82.4006 124.084 84.3286 126.44 85.4481C130.024 87.1555 134.229 86.2792 138.568 82.8642L138.563 82.8699ZM136.303 73.6765C135.576 69.0686 132.978 66.5582 129.151 66.6261C125.471 66.6939 122.653 69.5266 122.196 73.6765H136.303ZM154.281 70.0241C154.36 75.4802 154.304 80.9475 154.574 86.3923C154.726 89.4341 156.237 91.9105 159.303 92.9621C163.141 94.2795 166.956 94.0477 170.636 92.3063C171.048 92.1084 171.577 91.5939 171.594 91.2038C171.684 88.9591 171.639 86.7089 171.639 84.4247C170.197 84.7526 168.962 85.1314 167.694 85.301C165.096 85.6403 163.93 84.6056 163.896 81.9991C163.862 79.404 163.884 76.8088 163.884 74.2137C163.884 72.1217 163.884 70.0298 163.884 67.7512H171.628V59.5191H163.834V51.1569H154.208V59.6661H150.398V67.723H154.287C154.287 68.6502 154.275 69.34 154.287 70.0298L154.281 70.0241Z" fill="white"/>
<path d="M81.5674 55.6121H72.1387V12.122H81.5167V16.5378C81.9338 16.2042 82.1141 16.1081 82.2325 15.9611C87.6316 9.09719 98.8582 10.2506 104.071 17.646C108.355 23.7296 108.394 33.7201 104.212 39.8829C99.2696 47.1595 88.3135 48.6295 82.3734 42.201C82.1987 42.0144 81.9901 41.8674 81.5674 41.5056V55.6065V55.6121ZM97.7141 28.3997C97.7141 28.3319 97.7028 27.7891 97.6465 27.2576C97.2069 23.085 94.1692 19.9584 90.1734 19.5513C86.5326 19.1838 83.106 21.6094 81.9281 25.471C81.094 28.2019 81.2067 30.9214 82.441 33.5165C84.9771 38.8652 91.8078 39.7981 95.5725 35.3315C97.1392 33.4713 97.7592 31.2776 97.7085 28.3997H97.7141ZM174.249 40.4935C175.331 42.1727 176.08 44.4965 177.625 45.3276C179.225 46.1927 181.604 45.6216 183.644 45.6499C185.16 45.6725 186.676 45.6499 188.474 45.6499C187.938 44.8188 187.623 44.3212 187.301 43.8237C183.537 38.0284 179.794 32.2162 175.99 26.4435C175.404 25.5558 175.421 25.0356 176.176 24.2667C179.71 20.6934 183.182 17.0636 186.67 13.4451C187.025 13.0776 187.352 12.6818 187.944 12.009C184.359 12.009 181.141 11.9468 177.929 12.0542C177.179 12.0768 176.261 12.4839 175.742 13.0267C172.654 16.2777 169.661 19.6192 166.629 22.9211C166.336 23.2433 165.987 23.5147 165.367 24.0801V0H156.034V45.5538H165.446C165.446 42.5346 165.423 39.5776 165.462 36.6206C165.468 36.0721 165.581 35.3993 165.908 34.9979C166.747 33.9575 167.734 33.036 168.776 31.9448C170.693 34.9413 172.457 37.7174 174.237 40.4879L174.249 40.4935ZM149.034 28.9878C148.916 39.0574 140.913 46.5037 130.374 46.3566C120.257 46.2153 112.48 38.4807 112.66 28.7277C112.841 18.8333 120.906 11.2626 131.112 11.3983C141.409 11.5397 149.158 19.1386 149.04 28.9878H149.034ZM139.6 29.0443C139.628 23.7409 135.919 19.7266 130.943 19.6757C125.769 19.6192 122.129 23.3564 122.089 28.7616C122.05 34.0424 125.938 38.1754 130.949 38.1754C135.97 38.1754 139.571 34.3816 139.605 29.0443H139.6ZM215.667 35.2806C217.47 36.875 219.2 38.4072 221.099 40.0864C220.654 40.6009 220.282 41.0985 219.843 41.5338C214.731 46.645 205.945 47.9171 199.063 44.5474C192.616 41.3868 188.975 34.342 189.939 26.8958C190.931 19.2347 195.501 13.6373 202.14 11.9468C212.206 9.38554 221.099 15.3674 222.48 25.7028C222.756 27.7608 222.756 29.8528 222.892 32.1087H199.339C199.954 34.8226 201.143 36.8693 203.555 37.8644C208.03 39.7076 211.998 38.5994 215.667 35.2806ZM213.345 26.1382C213.237 22.2652 210.487 19.2799 206.897 19.082C202.907 18.8615 199.903 21.6376 199.317 26.1382H213.339H213.345ZM239.399 40.0864C239.472 36.7393 239.371 33.3752 239.72 30.0563C240.273 24.7925 243.485 21.8694 248.766 21.3945C249.177 21.3549 249.589 21.3323 250 21.2984V11.4323C244.916 11.2174 241.721 13.7617 239.354 17.9795V12.139H230.021V45.5877H239.388C239.388 43.6428 239.36 41.8618 239.393 40.0864H239.399Z" fill="white"/>
<path d="M30.7632 17.4209C39.1469 25.8741 47.6385 34.2252 55.8883 42.8103C65.5719 52.8915 60.8297 70.1539 47.2792 74.4646C40.2117 76.7122 33.8136 75.5027 28.3758 70.1968C26.23 68.104 24.0777 66.0179 21.9353 63.9219C20.3905 62.4092 20.2108 62.3928 18.6301 63.9681C15.9357 66.6573 13.2608 69.3663 10.5795 72.072C10.3541 72.3026 10.1582 72.563 9.88383 72.8893C7.23839 71.5282 5.27228 69.5739 3.54131 67.2571C3.80912 66.9605 4.01161 66.7166 4.23696 66.4892C9.20124 61.4865 14.1688 56.487 19.1363 51.4876C20.2631 50.3539 20.5734 50.3506 21.7099 51.4876C25.8871 55.673 30.0937 59.8288 34.2219 64.0636C38.3598 68.3084 44.5848 67.4449 48.0631 64.792C53.4258 60.7054 54.1247 52.9904 49.4054 48.1887C41.6226 40.2759 33.7679 32.4357 25.9459 24.5625C24.4893 23.0959 24.5023 23.0531 25.9753 21.5833C27.347 20.2156 28.686 18.8083 30.0382 17.4209C30.2798 17.4209 30.5215 17.4209 30.7665 17.4209H30.7632ZM0.389642 59.2916C0.722771 58.9785 0.96119 58.7676 1.18328 58.5435C6.65378 53.0233 12.1178 47.4966 17.6013 41.9897C19.6622 39.92 19.8124 39.9431 21.8406 41.9831C27.801 47.9877 33.7548 53.9955 39.7152 60.0001C40.8322 61.1239 41.0445 61.1174 42.1582 59.9936C43.3829 58.7544 44.5783 57.4889 45.8487 56.2992C46.6456 55.5544 46.6881 54.9776 45.8977 54.1834C37.4911 45.7598 29.1008 37.3198 20.7203 28.8698C19.992 28.1349 19.4629 28.1086 18.7216 28.8665C14.3027 33.3749 9.83157 37.8372 5.40945 42.3423C3.00569 44.7909 1.41516 47.7207 0.562743 51.0559C0.353721 51.8732 -0.485636 56.1838 0.392911 59.2916H0.389642ZM41.972 93.4209C38.7518 89.4662 34.9828 84.5722 31.7397 80.6372C30.5738 79.2234 30.3386 79.2135 29.1596 80.6438C25.9132 84.5755 22.2161 89.4629 18.9992 93.4209H41.972Z" fill="#F52C69"/>
</svg>
