<svg width="250" height="112" viewBox="0 0 250 112" fill="none" xmlns="http://www.w3.org/2000/svg">
<path d="M41.5365 27.3503H31.792L31.8789 25.8621C31.9381 24.8423 31.1323 23.9771 30.1133 23.9771H10.0988L13.5945 27.3503L13.4958 28.6797C13.4405 29.398 14.0053 30.0091 14.7242 30.0091H33.6169C37.5313 30.0091 40.5095 33.541 39.8696 37.4221L38.7874 43.9581C37.8749 49.4821 33.1192 53.5299 27.5458 53.5299H6.79667C2.55046 53.5299 -0.6569 49.6567 0.121241 45.4582L0.934932 41.0731H10.166L10.0435 43.4303C10.004 44.1724 10.5926 44.7954 11.3312 44.7954H27.2298C28.3911 44.7954 29.3944 43.97 29.6235 42.8271L30.0106 40.9024C30.295 39.4936 29.2206 38.1722 27.7867 38.1722H9.60114C5.57218 38.1722 2.56231 34.4418 3.40365 30.4814L4.70319 24.3422C5.82103 19.0563 10.4701 15.2744 15.85 15.2744H35.422C39.8815 15.2744 43.2113 19.4016 42.291 23.7867L41.5405 27.3543L41.5365 27.3503Z" fill="white"/>
<path d="M75.9446 15.9331H62.8426L36.6426 53.5299H48.1172L49.7643 51.2123L46.0948 46.9304H71.6194L72.6859 53.5299H84.2711L75.9446 15.9331ZM57.7353 38.8745L67.1007 24.8025L70.1382 38.8745H57.7353Z" fill="white"/>
<path d="M190.335 15.9331H177.233L151.033 53.5299H162.508L164.155 51.2123L160.485 46.9304H186.01L187.077 53.5299H198.662L190.335 15.9331ZM172.13 38.8745L181.495 24.8025L184.533 38.8745H172.13Z" fill="white"/>
<path d="M86.9097 53.5259L95.9274 15.9331H127.772L125.576 25.2827H99.119L102.638 29.1757L102.109 32.0687H122.74L120.733 40.5095H99.9919L97.0769 53.5259H86.9097Z" fill="white"/>
<path d="M122.799 53.5259L131.821 15.9331H163.661L161.465 25.2827H135.012L138.531 29.1757L138.002 32.0687H158.629L156.622 40.5095H135.881L132.966 53.5259H122.799Z" fill="white"/>
<path d="M235.124 25.9057L241.293 1.55547C241.598 0.35304 240.152 -0.508106 239.251 0.341135L202.576 34.8822C201.624 35.7791 202.256 37.3863 203.559 37.3863H231.837L230.763 42.1325H219.893C218.917 42.1325 218.06 42.7912 217.807 43.7397L211.293 68.078C210.993 69.1931 212.344 70.0027 213.178 69.209L249.584 34.5965C250.461 33.7631 249.873 32.2869 248.668 32.2869H222.026C222.026 32.2869 221.204 32.2789 221.188 31.1479C221.18 30.3622 221.188 29.6756 221.188 29.6756L218.538 27.5367H233.022C234.01 27.5406 234.871 26.87 235.116 25.9096L235.124 25.9057Z" fill="#F9BC16"/>
<path d="M37.8471 62.8677H48.2039L41.8484 90.5989H62.3289L60.271 100H28.9399L37.8471 62.8677Z" fill="#009953"/>
<path d="M72.334 62.8677H82.3985L76.5131 88.2496C76.2405 89.4203 77.1253 90.5394 78.3222 90.5394H92.9054C94.6078 90.5394 96.0891 89.3608 96.4762 87.6941L102.231 62.8677H112.177L106.359 89.087C104.945 95.4642 99.3122 100 92.8106 100H73.4479C68.4591 100 64.7699 95.3293 65.9075 90.4481L72.334 62.8677Z" fill="#009953"/>
<path d="M143.607 76.1976H153.514L154.213 72.6181C155.197 67.5663 151.349 62.8677 146.226 62.8677H127.401C120.899 62.8677 115.243 67.348 113.73 73.7014L109.958 89.5235C108.686 94.865 112.715 100 118.182 100H136.825C143.682 100 149.544 95.0436 150.713 88.2576L151.164 85.6503H141.364L141.075 87.5472C140.799 89.3727 139.235 90.722 137.394 90.722H122.578C121.029 90.722 119.88 89.2775 120.224 87.7615L122.763 76.5428L119.169 72.1141H141.593C142.948 72.1141 143.994 73.3125 143.817 74.6618L143.615 76.1976H143.607Z" fill="#009953"/>
<path d="M176.467 100H191.9L175.938 81.4359L198.662 62.8677H183.992L168.334 76.2214L171.301 62.8677H161.268L152.526 100H162.709L165.826 85.9202L176.467 100Z" fill="#009953"/>
</svg>
