<svg width="150" height="53" viewBox="0 0 150 53" fill="none" xmlns="http://www.w3.org/2000/svg">
<path d="M91.6206 36.1891C93.2553 36.2822 93.2708 36.2046 92.7701 37.7618C91.2045 42.6236 89.6276 47.4811 88.0761 52.3471C87.9337 52.7943 87.6727 52.9353 87.2736 52.9381C85.9097 52.9466 84.5458 52.9353 83.1819 52.9522C82.6205 52.9593 82.5881 52.7251 82.7475 52.2625C83.3539 50.491 83.9181 48.704 84.5274 46.9325C84.7094 46.405 84.7178 46.175 84.0296 46.1948C82.5542 46.2371 81.0747 46.216 79.5979 46.1624C78.9943 46.1398 78.7517 46.3711 78.5881 46.9254C78.0747 48.6687 77.4823 50.388 76.9788 52.1328C76.8095 52.7181 76.5683 52.9959 75.9308 52.9663C74.7108 52.9113 73.4879 52.893 72.2665 52.9085C71.55 52.917 71.4667 52.6363 71.667 52.0242C73.2256 47.2794 76.4371 37.5121 76.4456 37.3739C76.8701 36.2371 77.1466 35.9409 78.1508 36.1003C79.2284 36.1158 80.3074 36.1524 81.385 36.1369C81.9703 36.1285 82.0507 36.3316 81.8772 36.8492C81.3441 38.436 80.8631 40.0396 80.3257 41.625C80.1424 42.1652 80.1889 42.4035 80.8335 42.3965C82.3102 42.3781 83.7884 42.3781 85.2623 42.4331C85.7968 42.4529 85.9901 42.1059 86.11 41.7773C86.6502 40.2921 87.1353 38.7886 87.6304 37.2879C87.6826 37.1299 87.8236 36.7745 87.8236 36.7745C88.1396 35.9197 89.574 36.1059 89.574 36.1059L91.6163 36.1919L91.6206 36.1891Z" fill="white"/>
<path d="M127.252 36.4628C128.031 37.0439 128.09 37.8732 127.879 38.6885C127.339 40.7745 126.763 42.8549 125.917 44.8465C125.185 46.5686 123.905 47.4727 122.015 47.4699C119.856 47.4671 117.697 47.4882 115.539 47.4431C114.938 47.4304 114.605 47.5263 114.456 48.1765C114.133 49.5841 113.488 50.9001 113.212 52.3246C113.134 52.7224 112.894 52.917 112.501 52.9184C111.137 52.9227 109.774 52.9142 108.41 52.9227C107.794 52.9269 107.808 52.6406 107.965 52.1624C109.506 47.4445 111.031 42.7209 112.56 37.9988C112.76 37.3796 112.958 36.7576 113.157 36.137C116.678 36.137 120.2 36.1257 123.722 36.137C124.905 36.1412 126.107 36.0058 127.251 36.4614L127.252 36.4628ZM119.395 40.6828V40.6786C118.604 40.6786 117.609 40.6123 117.042 40.735C116.233 40.9113 116.354 41.7111 116.154 42.4797C116.154 42.4797 116.073 42.8944 116.063 42.9508C115.973 43.4445 116.014 43.6391 116.539 43.6349C117.472 43.6264 118.406 43.6546 119.338 43.6532C120.427 43.6504 121.168 43.1591 121.561 42.1793C121.677 41.8902 121.755 41.5855 121.891 41.3077C122.149 40.7802 121.914 40.6673 121.432 40.6786C120.753 40.6955 120.073 40.6828 119.395 40.6828Z" fill="white"/>
<path d="M73.8262 36.134C73.3819 37.5346 72.9489 38.9394 72.4863 40.3343C72.3438 40.7645 71.9306 40.6489 71.6048 40.6503C68.9038 40.6644 66.2028 40.6686 63.5004 40.6813C62.671 40.6855 62.0561 41.3654 62.1844 42.1848C62.2719 42.7391 62.6682 42.5473 62.9545 42.5501C65.2832 42.5727 67.6132 42.5769 69.9419 42.591C70.4637 42.5939 70.8897 42.7518 71.3184 43.1242C71.9503 43.6728 72.0364 44.2356 71.8685 45.0071C71.4313 47.0156 70.7867 48.9521 69.9193 50.8069C69.3763 51.9648 68.3368 52.5615 67.1139 52.7998C66.561 52.907 65.9827 52.9169 65.4157 52.9169C58.5695 52.9239 51.7246 52.9253 44.8783 52.9169C43.8684 52.9169 43.8783 52.8732 44.2295 51.8915C44.5694 50.9423 44.8585 49.9747 45.1477 49.0086C45.2887 48.5361 45.5229 48.34 46.0574 48.3428C52.3071 48.3597 58.5553 48.3485 64.805 48.3428C65.7528 48.3428 66.3142 47.8012 66.3382 46.8633C66.3509 46.3273 65.932 46.4895 65.6626 46.4867C63.7317 46.4641 61.7994 46.4712 59.8685 46.4444C59.1886 46.4345 58.5018 46.4049 57.8304 46.2991C56.7049 46.1228 56.1421 45.3865 56.3974 44.3104C56.9474 41.986 57.6047 39.6926 58.9122 37.6545C59.0377 37.4584 59.1858 37.2751 59.3593 37.1199C60.2789 36.2934 61.6231 36.1707 62.8882 36.1651C66.5342 36.1481 70.1802 36.1439 73.8276 36.1354L73.8262 36.134Z" fill="white"/>
<path d="M93.268 52.9889C91.7503 52.9974 90.6304 51.7153 90.8561 50.2202C91.1537 48.2428 91.8618 46.3796 92.4866 44.4981C93.1636 42.4586 93.7645 40.3909 94.8054 38.4769C95.6361 36.9494 96.9196 36.223 98.536 36.1638C101.742 36.0439 104.955 36.058 108.161 36.2442C109.347 36.3133 110.061 37.0989 110.085 38.2949C110.113 39.7223 109.529 41.0157 109.14 42.3415C108.516 44.4642 107.777 46.5531 107.08 48.6532C106.402 50.7012 105.276 52.0707 103.188 52.7886C102.379 53.0891 94.7715 52.9805 93.268 52.9889ZM101.786 40.6744C101.786 40.6631 101.786 40.6532 101.786 40.6419C101.02 40.6419 100.254 40.6377 99.488 40.6433C99.1636 40.6461 98.8971 40.704 98.7758 41.0947C98.0903 43.3133 97.3921 45.5263 96.6728 47.735C96.5275 48.1807 96.5868 48.3542 97.0875 48.3528C98.5332 48.3472 99.9803 48.3528 101.426 48.3923C101.898 48.405 102.066 48.1835 102.19 47.7844C102.869 45.594 103.499 43.3866 104.372 41.2625C104.542 40.8521 104.544 40.6391 103.996 40.6659C103.26 40.7026 102.522 40.6744 101.784 40.6744H101.786Z" fill="white"/>
<path d="M11.001 2.24542C13.317 0.50775 16.0391 0.0775656 18.8008 0.0408941C24.6725 -0.0380907 30.5455 0.0211479 36.4172 0.0239688C36.9574 0.0239688 37.4976 0.0282001 38.0378 0.0155061C38.5512 0.00422256 38.5921 0.139625 38.2395 1.04372C37.4017 3.19605 36.9433 5.3371 36.1267 7.65446C35.8347 8.48239 35.7529 8.73627 35.1549 8.73486C29.4468 8.71793 23.7387 8.72076 18.0307 8.70242C17.5709 8.70101 17.365 8.85475 17.2493 9.30186C17.049 10.0734 16.7853 10.828 16.5342 11.5854C16.2944 12.3075 16.3015 12.3188 17.0744 12.3202C21.537 12.3315 25.9997 12.347 30.4637 12.3583C31.7021 12.3611 32.8967 12.5318 33.9673 13.2172L33.9898 13.2483L34.0265 13.2342C34.1027 13.2878 34.1788 13.3414 34.2536 13.395L34.2324 13.3978C35.4863 14.5995 35.4511 16.0466 35.0561 17.5797C34.4116 20.0847 33.4807 22.5022 32.7938 24.993C32.5385 25.9197 32.1295 26.2018 31.176 26.285C22.75 27.0283 14.3297 27.8407 5.90935 28.6376C4.43543 28.7772 2.96434 28.9296 1.49325 29.0974C1.07576 29.1454 0.845859 29.072 0.930485 28.5967C0.930485 28.5967 2.26053 24.7293 2.62725 23.6982C2.67943 23.5501 2.81907 23.4528 2.97563 23.4528C4.9305 23.4486 17.5032 23.4246 22.9545 23.4401C23.3904 23.4401 23.578 23.2709 23.695 22.8717C23.9136 22.1298 24.1788 21.402 24.4299 20.67C24.664 19.9874 24.6203 19.9253 23.8741 19.9126C23.7571 19.9112 23.6386 19.9126 23.5215 19.9126C19.3875 19.8872 15.2521 19.9027 11.1195 19.8181C9.40865 19.7829 7.14207 19.5882 6.21541 18.5854C5.0927 17.3414 5.4848 16.1919 5.4848 16.1919C5.58212 15.9182 7.64278 8.68832 8.19285 7.0522C8.63996 5.72074 9.19709 4.44147 10.0137 3.28773C10.0758 3.20734 10.1379 3.12835 10.2013 3.04796C10.2563 2.97743 10.3142 2.91114 10.3762 2.84908C10.5356 2.68829 10.8431 2.37659 10.8431 2.37659C10.891 2.32863 10.9996 2.24118 10.9996 2.24118L11.001 2.24542Z" fill="white"/>
<path d="M20.1025 32.1539C13.6694 32.1398 7.2364 32.1341 0.80337 32.1228C-0.0739247 32.1214 -0.0739247 32.113 0.0755821 31.2836C0.103791 31.1807 0.132 31.0763 0.161619 30.9733C0.311126 30.8013 0.460633 30.6292 0.61014 30.4571C0.682072 30.4472 0.755415 30.4388 0.827348 30.4289C3.96417 30.1849 7.101 29.9465 10.2378 29.6955C17.0051 29.1539 23.7724 28.6066 30.5383 28.0636C30.6314 28.0565 30.7273 28.0438 30.8204 28.0523C31.0179 28.0692 31.2985 27.9366 31.3874 28.1764C31.4706 28.4049 31.2337 28.5713 31.1011 28.7589C30.1744 30.0594 28.9375 30.8972 27.4593 31.5079C27.063 31.6729 25.5355 32.1976 20.1039 32.1539H20.1025Z" fill="white"/>
<path d="M60.0686 12.3851C60.4382 13.4937 60.1928 14.5882 59.8754 15.6376C59.0461 18.3795 58.1406 21.0988 57.2816 23.8337C57.1744 24.1736 56.9544 24.2625 56.6554 24.2822C54.7329 24.412 52.8105 24.5305 50.8881 24.6757C50.314 24.7195 50.2646 24.5276 50.4325 24.0297C51.2068 21.7378 51.9529 19.4373 52.7019 17.1369C52.9628 16.3358 52.9529 16.3245 52.1067 16.3217C50.2266 16.3146 48.3464 16.3217 46.4663 16.3076C46.0869 16.3048 45.8852 16.4091 45.7583 16.8055C44.9134 19.4444 44.0263 22.0706 43.1842 24.711C43.0587 25.1059 42.8923 25.3231 42.4818 25.3513C40.5368 25.4867 38.5904 25.6179 36.6468 25.7688C36.1207 25.8097 36.1137 25.5826 36.2449 25.1835C37.2731 22.0608 38.2844 18.9338 39.3182 15.8125C39.7061 14.6418 40.3126 13.5826 41.1052 12.6362C42.2562 11.2596 43.7611 10.5431 45.5326 10.474C49.338 10.3273 53.1462 10.4303 56.9516 10.4698C57.5439 10.4754 58.1166 10.5967 58.6695 10.8097C59.3733 11.1228 59.8331 11.6531 60.0686 12.3823V12.3851Z" fill="white"/>
<path d="M114.852 21.2849C112.056 21.3625 109.262 21.4316 106.467 21.5261C105.919 21.5444 105.752 21.4231 105.938 20.8561C107.005 17.598 108.059 14.3357 109.087 11.0649C109.244 10.5642 109.482 10.4132 109.989 10.4161C115.534 10.4358 121.079 10.4344 126.625 10.4386C127.488 10.4386 127.467 10.4414 127.197 11.2468C126.722 12.6728 126.255 14.1015 125.848 15.5472C125.69 16.1086 125.424 16.2877 124.862 16.2849C121.595 16.268 118.33 16.292 115.063 16.2764C114.506 16.2736 114.113 16.3441 114.02 17C113.97 17.3413 113.784 17.6615 113.667 17.993C113.407 18.7306 113.427 18.7913 114.23 18.7955C117.19 18.8124 120.151 18.8068 123.111 18.8082C124.656 18.8082 124.636 18.804 124.249 20.3033C124.113 20.8378 123.835 21.0028 123.306 21.0127C120.486 21.0663 117.668 21.1509 114.85 21.2257C114.85 21.2454 114.85 21.2638 114.852 21.2835V21.2849Z" fill="white"/>
<path d="M76.4721 10.4471C78.774 10.4471 81.0758 10.4457 83.3777 10.4471C84.1887 10.4471 84.1915 10.4682 83.9461 11.22C83.4651 12.6925 82.9715 14.1608 82.537 15.6474C82.3974 16.1269 82.1689 16.2793 81.6992 16.2793C77.8233 16.2793 73.9489 16.3117 70.073 16.2891C69.4919 16.2863 69.2507 16.4612 69.0842 16.9958C68.4707 18.9676 67.7951 20.9196 67.1844 22.8914C67.0179 23.4288 66.757 23.6347 66.1928 23.653C64.5031 23.7095 62.8162 23.8181 61.1279 23.9182C60.0546 23.9817 60.0306 23.9817 60.3635 22.993C61.2253 20.4358 61.8825 17.8082 62.9404 15.3202C64.269 12.1932 66.568 10.433 70.0617 10.4358C72.1985 10.4372 74.3353 10.4358 76.4736 10.4358C76.4736 10.4386 76.4736 10.4414 76.4736 10.4457L76.4721 10.4471Z" fill="white"/>
<path d="M98.5977 10.4359C100.923 10.4359 103.248 10.4444 105.574 10.4303C106.153 10.426 106.237 10.5784 106.017 11.1256C105.448 12.5431 105.017 14.0128 104.67 15.4966C104.512 16.1708 104.159 16.2808 103.584 16.2808C99.8022 16.2808 96.0208 16.316 92.2394 16.2935C91.5709 16.2892 91.2479 16.4416 91.0645 17.1313C90.6682 18.6278 90.1477 20.0904 89.7105 21.577C89.5511 22.1186 89.262 22.2907 88.6964 22.3034C86.9122 22.3457 85.1308 22.4656 83.348 22.5474C82.5708 22.5826 82.5271 22.5389 82.7584 21.8436C83.4622 19.7279 84.0899 17.5812 84.9178 15.5135C86.1971 12.3188 88.4876 10.3936 92.2577 10.4274C94.372 10.4458 96.4848 10.4303 98.5991 10.4303C98.5991 10.4317 98.5991 10.4331 98.5991 10.4345L98.5977 10.4359Z" fill="white"/>
<path d="M142.346 10.4444C144.649 10.4444 146.951 10.4416 149.254 10.4444C150.119 10.4458 150.107 10.4486 149.844 11.2328C149.348 12.7011 148.848 14.168 148.395 15.6504C148.251 16.12 148.031 16.2766 147.55 16.2752C143.649 16.2667 139.749 16.2879 135.848 16.2822C135.406 16.2822 135.178 16.3894 135.044 16.8478C134.709 17.9959 134.295 19.1215 133.945 20.2667C133.832 20.6334 133.664 20.8281 133.268 20.8309C131.365 20.845 129.461 20.8704 127.559 20.8916C127.223 20.8958 126.905 20.8662 127.065 20.3937C127.8 18.2174 128.312 15.948 129.532 13.9649C130.831 11.852 132.684 10.5939 135.226 10.4769C137.598 10.3668 139.972 10.4148 142.344 10.443L142.346 10.4444Z" fill="white"/>
<path d="M102.508 32.1567C102.288 31.9874 102.364 31.7942 102.448 31.5883C103.347 29.412 103.852 27.1059 104.659 24.8986C104.841 24.3993 105.054 24.1948 105.602 24.1948C107.388 24.1948 109.173 24.1299 110.959 24.1017C111.667 24.0904 111.759 24.2371 111.505 24.8845C110.963 26.2667 110.963 26.2836 112.426 26.285C115.388 26.2893 118.348 26.2737 121.31 26.2653C122.227 26.2625 122.223 26.2582 121.937 27.1651C121.485 28.5982 121.008 30.0255 120.608 31.474C120.464 31.9945 120.21 32.137 119.718 32.1355C117.862 32.1285 116.004 32.1567 114.148 32.1567C110.551 32.1567 106.956 32.144 103.36 32.1384C103.172 32.1384 102.986 32.1609 102.798 32.1722C102.702 32.1666 102.605 32.1609 102.509 32.1553L102.508 32.1567Z" fill="white"/>
<path d="M80.8138 29.3075C80.9605 28.048 81.1861 26.8054 81.5387 25.584C81.6586 25.1679 81.8307 24.9394 82.299 24.9309C84.2228 24.8957 86.1466 24.8449 88.0705 24.7786C88.6488 24.7588 88.6065 25.0311 88.4711 25.4359C88.1833 26.2948 88.1932 26.2976 89.1086 26.2934C92.8872 26.2807 96.6671 26.2765 100.446 26.2483C100.969 26.244 101.041 26.4133 100.891 26.8689C100.389 28.4077 99.8971 29.9493 99.4373 31.5008C99.3089 31.9324 99.103 32.1341 98.6559 32.1326C93.9379 32.1157 89.22 32.2286 84.5021 32.1157C83.4174 32.0903 82.4471 31.9239 81.5345 31.1242C80.6093 30.474 80.8124 29.3061 80.8124 29.3061L80.8138 29.3075Z" fill="white"/>
<path d="M62.5932 32.1144C61.6468 32.1017 60.7286 31.8831 59.943 31.2977C59.1743 30.7251 58.7963 29.9522 58.7935 28.9959C58.7907 28.1426 59.0135 27.3231 59.163 26.4923C59.2223 26.1679 59.4381 26.0904 59.7201 26.0749C61.7596 25.9634 63.7991 25.8506 65.8386 25.7392C65.9557 25.7321 66.1193 25.7025 66.1574 25.821C66.3788 26.5064 66.943 26.278 67.3944 26.278C71.0347 26.2836 74.6737 26.2794 78.314 26.2596C78.9177 26.2568 79.0305 26.4105 78.8232 26.9987C78.3084 28.4585 77.8528 29.9395 77.4099 31.4232C77.2491 31.962 76.9727 32.1651 76.4 32.1581C74.0996 32.1299 64.8936 32.1454 62.5918 32.1158L62.5932 32.1144Z" fill="white"/>
<path d="M50.6272 32.0298C46.685 32.2964 42.7386 32.1779 38.795 32.1257C36.4974 32.0961 35.3098 30.7816 35.3662 28.6433C35.3845 27.9395 35.6483 27.6447 36.3634 27.601C40.6299 27.3373 44.8951 27.0383 49.1603 26.7562C51.2929 26.6151 53.4269 26.4825 55.5595 26.3542C55.8275 26.3387 56.0799 26.271 56.2534 26.5305C56.3112 26.6588 56.1998 26.9085 56.1152 27.1412C55.6921 28.302 55.0165 29.3091 54.2492 30.2625C53.6991 30.7717 52.7922 31.8718 50.6286 32.0284L50.6272 32.0298Z" fill="white"/>
<path d="M130.649 30.474C130.493 31.1101 130.111 32.1609 129.312 32.1609C129.211 32.1581 129.113 32.1567 129.012 32.1539C127.374 32.1271 125.735 32.1031 124.096 32.0692C123.269 32.0523 123.244 31.9903 123.499 31.2202C124.223 29.0424 124.945 26.8647 125.643 24.6771C125.818 24.1299 126.076 23.907 126.694 23.9254C128.474 23.979 130.255 23.9648 132.035 23.9395C132.627 23.931 132.709 24.1299 132.519 24.6376C132.347 25.096 130.647 30.474 130.647 30.474H130.649Z" fill="white"/>
</svg>
