<?xml version="1.0" encoding="UTF-8"?><svg id="sporting-bet" xmlns="http://www.w3.org/2000/svg" viewBox="0 0 697.25 277.07"><path d="M694.82,33.37l-16.58,76.84c-6.64,40.56-33.62,52.93-65.08,53.19-.35,0-.7,0-1.05,0-16.64,0-30.34-1.96-41.1-4.89l-10.77-2.94s1.96-10.77,4.89-23.49h-148.75s-11.74,1.96-18.59,1.96c-12.72,0-22.51-2.94-28.38-10.76-4.89-5.87-6.85-11.74-6.85-20.55,0-3.91,.98-8.81,1.96-12.72,0,0,0-.98,.98-2.94,0,0-4.89-1.96-7.83-1.96-.98,0-2.94,0-5.87,2.94-1.96,2.94-2.94,4.89-3.91,7.83l-7.83,37.19h-60.67l2.94-10.77c-11.74,8.81-26.42,12.72-44.04,12.72-18.59,0-32.29-4.89-41.1-14.68-1.96-1.96-2.94-2.94-3.91-4.89,0,.98-1.96,2.94-2.94,3.91-8.81,9.79-21.53,14.68-35.23,14.68-4.89,0-8.81-.98-12.72-1.96-2.94,9.79-6.85,30.34-6.85,30.34h-60.67l7.83-37.19c-.98,0-1.96,.98-3.91,1.96-9.79,4.89-20.55,6.85-33.27,6.85-10.76,0-22.51-.98-32.29-3.91l-10.77-2.94s8.81-45.02,9.79-48.93c-.98-.98-.98-1.96-.98-3.91,0-2.94,0-4.89,.98-7.83,2.94-15.66,15.66-35.23,58.72-35.23,7.83,0,18.59,.98,28.38,2.94l1.96,.98,.98-1.96h55.78c3.91-.98,8.81-1.96,12.72-1.96,19.57,0,29.36,9.79,33.27,18.59,9.79-10.76,25.44-18.59,50.89-18.59,20.55,0,34.25,4.89,43.06,14.68l2.94-10.77h55.78c2.94-.98,6.85-1.96,10.76-1.96,2.94,0,5.87,0,8.81,.98h.98c.98-3.91,2.94-13.7,2.94-13.7L444.76,.96h60.67s-4.89,26.42-6.85,33.27h45.02c4.89-.98,8.81-1.96,13.7-1.96,12.72,0,21.53,2.94,27.4,10.77,.98,.98,1.96,2.94,2.94,4.89l.98-.98c9.79-10.76,21.53-15.66,36.21-15.66,5.87,0,10.77,.98,14.68,2.94v-.98l55.31,.12Zm-215.39,139c.98-3.91,6.85-30.34,6.85-30.34l-19.57,5.87-45.02,12.72s-2.94,10.77-2.94,14.68h-12.72l-1.96,6.85c-7.83-5.87-17.62-8.81-29.36-8.81-25.44,0-41.1,7.83-50.89,17.62-3.91-7.83-13.7-17.62-33.27-17.62-2.94,0-4.89,.98-7.83,.98,1.96-8.81,6.85-32.3,6.85-32.3h-60.68l-6.85,33.27-20.89,97.74,57.1,.12v-.98c3.91,1.96,8.81,2.94,13.7,2.94,14.68,0,27.4-4.89,37.19-15.66,.98-.98,1.96-1.96,2.94-2.94,.98,1.96,2.94,2.94,3.91,4.89,8.81,9.79,22.51,14.68,41.1,14.68,14.68,0,27.4-1.96,38.17-4.89l6.85-1.96s1.96-8.81,2.94-15.66c.98,3.91,2.94,7.83,4.89,10.76,5.87,7.83,15.66,10.77,28.38,10.77,8.81,0,18.59-1.96,28.38-3.91l6.85-1.96,22.51-96.88h-16.64Z" style="fill:#fff;"/><path d="M432.04,120.36l15.66-75.35h36.21l-15.66,75.35h-36.21ZM489.78,12.71l-4.89,25.44h-36.21l4.89-25.44h36.21ZM14.17,118.4l4.89-21.53c6.85,3.91,14.68,6.85,25.44,6.85,8.81,0,13.7-1.96,14.68-4.89,.98-1.96-2.94-3.91-9.79-4.89-8.81-1.96-15.66-3.91-18.59-5.87-6.85-3.91-8.81-9.79-6.85-18.59,3.91-16.64,19.57-25.44,46.97-25.44,7.83,0,16.64,.98,26.42,2.94l-3.91,20.55c-7.83-2.94-14.68-3.91-22.51-3.91-8.81,0-12.72,1.96-13.7,4.89-.98,1.96,2.94,2.94,9.79,3.91,8.81,.98,15.66,2.94,18.59,4.89,6.85,3.91,8.81,9.79,6.85,18.59-1.96,9.79-8.81,16.64-18.59,21.53-7.83,3.91-17.62,6.85-28.38,6.85-19.58,0-25.18-2.9-31.32-5.87Zm75.35,32.29l22.51-104.71h33.27l-2.94,13.7h0c6.85-9.79,15.66-15.66,27.4-15.66s18.59,3.91,22.51,12.72c2.94,6.85,3.91,16.64,1.96,28.38-2.94,10.76-6.85,19.57-13.7,26.42-7.83,7.83-15.66,10.76-26.42,10.76-9.79,0-16.64-3.91-20.55-10.76l-8.81,40.12-35.23-.98h0Zm48.93-67.53c-1.96,10.76-.98,16.64,5.87,16.64,5.87,0,9.79-4.89,12.72-15.66,1.96-10.76,.98-15.66-5.87-15.66-5.87-.98-10.76,4.89-12.72,14.68Zm61.65-.98c4.89-25.44,23.49-38.17,54.8-38.17s44.04,12.72,38.17,38.17c-2.94,12.72-9.79,22.51-18.59,30.34-9.79,6.85-21.53,10.76-36.21,10.76s-25.44-2.94-32.29-10.76c-6.85-7.83-8.81-17.62-5.87-30.34Zm38.17,0c-1.96,6.85-1.96,10.76-1.96,13.7,.98,3.91,1.96,4.89,4.89,4.89,3.91,0,6.85-2.94,8.81-6.85,.98-2.94,1.96-6.85,2.94-11.74,1.96-10.76,.98-16.64-4.89-16.64-2.94,0-5.87,1.96-7.83,4.89,.98,1.96-.98,5.87-1.96,11.74Zm69.48-36.21h34.25l-3.91,16.64c7.83-12.72,16.64-18.59,26.42-18.59,1.96,0,3.91,0,5.87,.98l-6.85,30.34c-1.96-.98-3.91-.98-7.83-.98-4.89,0-9.79,1.96-14.68,5.87-3.91,3.91-7.83,8.81-8.81,13.7l-5.87,27.4h-36.21l17.62-75.35Zm66.55,0h12.72l3.91-16.64,38.17-10.76-5.87,27.4h16.64l-4.89,21.53h-16.64l-3.91,21.53c-1.96,6.85,.98,9.79,5.87,9.79,2.94,0,5.87-.98,8.81-1.96l-4.89,21.53c-8.81,2.94-18.59,3.91-25.44,3.91-18.59,0-25.44-9.79-21.53-29.36l4.89-26.42h-12.72l4.89-20.55Zm106.67,74.38l15.66-75.35h34.25l-2.94,12.72h0c5.87-9.79,14.68-14.68,27.4-14.68,17.62,0,24.47,7.83,20.55,24.47l-10.76,51.87h-36.21l8.81-43.06c.98-2.94,.98-4.89,.98-6.85-.98-1.96-1.96-2.94-4.89-2.94s-4.89,.98-6.85,2.94c-.98,.98-1.96,3.91-1.96,6.85l-8.81,43.06-35.23,.98h0Zm93.95,27.4l4.89-23.49c6.85,4.89,15.66,6.85,26.42,6.85,15.66,0,25.44-7.83,28.38-22.51-7.83,8.81-16.64,12.72-27.4,12.72s-18.59-3.91-21.53-10.76c-3.91-6.85-3.91-14.68-1.96-26.42,2.94-11.74,6.85-20.55,13.7-27.4,6.85-7.83,15.66-11.74,27.4-11.74,6.85,0,11.74,1.96,15.66,3.91,3.91,2.94,5.87,6.85,5.87,12.72h0l2.94-14.68h33.27l-14.68,67.53c-5.87,26.42-23.49,39.14-55.78,39.14-14.68-.98-27.4-2.94-37.19-5.87Zm46.97-65.57c-1.96,9.79,0,14.68,5.87,14.68,6.85,0,10.76-4.89,12.72-14.68,1.96-9.79,0-15.66-5.87-15.66-6.85,0-9.79,5.87-12.72,15.66Z" style="fill:#273068;"/><path d="M215.21,262.4l22.51-107.65h36.21l-8.81,43.06c6.85-7.83,14.68-10.76,25.44-10.76s18.59,3.91,21.53,10.76c2.94,6.85,3.91,15.66,1.96,26.42-2.94,12.72-6.85,21.53-13.7,28.38-7.83,7.83-16.64,12.72-27.4,12.72-11.74,0-18.59-4.89-20.55-15.66h0l-2.94,12.72h-34.25Zm43.06-37.19c-1.96,9.79,0,15.66,5.87,15.66s9.79-4.89,12.72-15.66c1.96-9.79,0-15.66-5.87-15.66-5.87-.98-9.79,3.91-12.72,15.66Zm144.84,8.81h-49.91c-.98,7.83,4.89,11.74,17.62,11.74,9.79,0,18.59-1.96,25.44-4.89l-3.91,19.57c-9.79,2.94-21.53,3.91-34.25,3.91-14.68,0-25.44-2.94-32.29-10.76-6.85-7.83-8.81-16.64-4.89-30.34,4.89-25.44,23.49-38.17,54.8-38.17,26.42,0,36.21,14.68,29.36,43.06l-1.96,5.87Zm-46-15.66h18.59c1.96-9.79,0-14.68-5.87-14.68-3.91,0-6.85,1.96-8.81,4.89-2.94,2.94-3.91,5.87-3.91,9.79Zm57.74-30.34h12.72l3.91-16.64,38.17-10.76-4.89,27.4h16.64l-4.89,21.53h-16.64l-4.89,20.55c-1.96,6.85,.98,9.79,5.87,9.79,2.94,0,5.87-.98,8.81-1.96l-4.89,21.53c-8.81,2.94-18.59,3.91-25.44,3.91-18.59,0-25.44-9.79-21.53-29.36l4.89-26.42h-12.72l4.89-19.57Z" style="fill:#d63732;"/></svg>