<?xml version="1.0" encoding="UTF-8"?><svg id="supabets" xmlns="http://www.w3.org/2000/svg" viewBox="0 0 571.62 193.46"><path d="M60.8,36.18c11.93,0,23.87-.11,35.8,.04,7.84,.1,15.49,1.59,22.75,4.57,13.98,5.73,15.8,20.13,4.01,29.86-9.94,8.21-21.77,11.59-34.04,14.06-7.01,1.41-14.06,1.98-21.21,1.95-20.22-.08-40.44,.02-60.66,.04-6.86,0-7.11-.34-5.02-6.62q3-9.01,12.71-9.01c17.73,0,35.47-.04,53.2-.02,6.22,0,12.2-1.13,17.9-3.57,2.68-1.15,5.24-3.01,5.02-6.15-.23-3.15-3.13-4.47-5.89-5.34-6.13-1.93-12.49-1.4-18.76-1.32-11.31,.15-22.5-.51-33.44-3.68-5.41-1.57-10.08-4.16-13.06-9.17-.9-1.52-2.72-2.96-1.7-4.83,.92-1.69,3.01-.94,4.58-.95,12.59-.05,25.19-.03,37.78-.03,0,.06,0,.12,0,.18Zm427.49,24.9c7.96,0,15.92,.07,23.88-.03,3.42-.05,4.54,.96,3.2,4.42-2.04,5.25-3.71,10.63-5.65,15.92-1.32,3.59-.01,4.88,3.59,4.82,8.12-.13,16.25-.17,24.37-.14,2.43,0,4.06-.64,4.92-3.14,4.88-14.08,9.84-28.14,14.83-42.19,1.07-3.01,.31-4.25-3.02-4.2-7.79,.11-15.59,.2-23.38-.08-4-.14-6.3,1.23-7.16,5.13-.8,3.59-2.9,5.03-6.76,4.98-14.92-.18-29.84-.03-44.77-.07-6.43-.02-6.67-.27-4.01-5.8,1.72-3.58,.47-4.25-2.9-4.2-7.96,.12-15.92,.19-23.87-.03-3.57-.1-5.5,1.25-6.66,4.53-4.81,13.57-9.68,27.13-14.65,40.64-1.42,3.85,.18,4.67,3.63,4.61,7.63-.13,15.26-.25,22.88-.04,3.63,.1,5.5-1.43,6.6-4.65,1.87-5.49,4.04-10.88,5.76-16.41,.96-3.09,2.66-4.12,5.8-4.05,7.79,.16,15.58,.05,23.38,.05v-.05Zm-236.28,25.08c2.72,0,5.46-.14,6.57-3.29,4.94-14.05,9.82-28.13,14.79-42.17,1.14-3.22-.1-4.21-3.18-4.19-7.79,.05-15.59,.13-23.38-.08-3.56-.09-5.44,1.23-6.57,4.6-2.94,8.79-6.31,17.43-9.18,26.24-1.12,3.43-3.18,4.89-6.49,4.81-8.61-.19-17.24-.15-25.81-.83-10.47-.84-17.52-9.26-17.41-19.74,.04-3.72,.93-7.23,2.22-10.64,1.27-3.37,.14-4.5-3.29-4.41-5.47,.14-10.94-.05-16.41,.04-13.17,.22-10.62-2.47-14.95,11.22-3,9.48-1.29,18.28,6.2,25.56,6.32,6.14,14.1,9.29,22.44,10.97,14.74,2.96,29.72,1.58,42.96,1.91,11.6,0,21.54,0,31.49,0Zm137.27-30.82c9.49-2.84,18.13-7.19,25.4-14.01,1.04-.97,2.46-2.15,1.76-3.79-.63-1.48-2.31-.97-3.55-.98-8.96-.05-17.91,0-26.87-.06-2.26-.01-4.06,.64-5.85,2.15-4.13,3.48-9.01,5.8-14.3,6.59-11.35,1.7-22.83,1.21-34.26,1.04-3.02-.05-4.81-1.33-3.44-4.71,1.55-3.82,0-5.13-3.81-5.08-7.63,.1-15.26,.13-22.89-.04-3.35-.07-5.11,1.25-6.21,4.4-4.68,13.46-9.52,26.86-14.36,40.27-1.16,3.2-.89,5.11,3.18,5.06,8.13-.1,16.26-.06,24.38-.01,2.64,.01,4.42-.99,5.3-3.57,1.81-5.33,4.13-10.54,5.39-16,1.09-4.75,3.7-6.12,8.05-6.03,5.79,.12,11.58,.03,17.37,.03,15.21,.88,30.11-.87,44.71-5.24ZM314.44,.81c-3.57-.05-5.44,1.21-6.56,4.59-2.54,7.71-5.3,15.35-8.12,22.96-1.17,3.16-.11,4.32,3.03,4.31,4.64-.02,9.29,.04,13.93,.04q14.38,0,19.54-13.56c.12-.31,.27-.61,.34-.93,.43-1.92,1.68-2.76,3.59-2.75,10.94,.06,21.94-.49,32.81,.4,7.7,.63,14.37,5.05,12.48,13.88-.73,3.4,1.82,2.88,3.68,2.9,8.13,.07,16.25,.01,24.38,.06,7.74,.05,9.88-2.1,9.72-9.94-.09-4.52-1.56-8.43-5.11-11.41-7.7-6.48-17.19-8.28-26.67-9.6-13.84-1.94-27.82-.43-39.99-.88-13.52,0-25.3,.11-37.07-.07Zm221.26,.08c-6.13,0-12.26,.14-18.39-.03-12.68-.34-25.07,1.24-37.23,4.89-14.04,4.21-26.73,10.61-36.71,21.66-.99,1.1-2.35,2.15-1.79,3.82,.62,1.83,2.4,1.45,3.83,1.46,7.62,.03,15.24-.04,22.86,.03,3.19,.03,5.48-1.05,7.67-3.58,7.15-8.26,16.4-12.89,27.3-13.48,8.42-.46,16.89-.08,25.34-.23,3.49-.06,3.95,1.69,3.07,4.41-.96,2.99-2.03,5.95-3.13,8.9-1.21,3.22,.48,4.58,3.26,4.34,8.44-.73,16.88-.18,25.32-.37,2.09-.05,3.42-.81,4.13-2.81,2.82-7.94,5.65-15.88,8.55-23.79,1.38-3.76,.09-5.2-3.79-5.16-10.1,.09-20.21,.03-30.31,.03,0-.02,0-.05,0-.07ZM68,1.22c-13.65,1.36-26.89,4.2-38.58,11.81-5.64,3.67-10.25,8.4-12.1,15.19-.72,2.63-.45,4.8,2.91,4.88,11.27,.27,22.53,.48,33.8,.65,2.43,.04,3.64-.67,2.7-3.63-1.25-3.93,.24-7.04,3.86-9.24,4.95-3,10.32-4.62,16.02-4.67,18.74-.19,37.49-.19,56.23-.23q9.96-.02,13-9.63c1.59-5.03,1.1-5.81-4.22-5.85-10.78-.08-21.57-.02-35.36-.02-10.74,.26-24.52-.64-38.25,.73Zm192.15,31.47c4.14,0,8.29-.04,12.43,.02,2.19,.03,4.08-.63,4.83-2.75,2.97-8.42,5.78-16.91,8.71-25.35,1.06-3.06-.33-3.79-3.07-3.76-8.29,.08-16.58,.08-24.86,.08-2.68,0-4.22,1.17-5.09,3.77-2.73,8.17-5.55,16.31-8.52,24.39-1.08,2.94,.18,3.56,2.65,3.56,4.31,0,8.62,0,12.93,0,0,.02,0,.03,0,.05ZM181.05,.9c-4.14,0-8.28,.06-12.41-.02-2.25-.05-3.7,.67-4.49,2.95-2.8,8.13-5.68,16.23-8.65,24.3-1.23,3.34-.14,4.6,3.26,4.57,8.09-.07,16.19-.09,24.29-.05,2.49,.01,4.04-1.04,4.86-3.37,2.87-8.1,5.73-16.2,8.71-24.25,1.2-3.25-.11-4.2-3.14-4.16-4.14,.06-8.28,.02-12.41,.02,0,0,0,.02,0,.02ZM79.45,142.43c-18.08,0-36.16,.06-54.24-.06-3.17-.02-4.58,.99-5.63,4.11-4.51,13.34-9.37,26.55-14.13,39.8-2.09,5.82-1.88,6.23,4.17,6.23,20.24,0,40.48-.18,60.71,.02,12.53,.12,24.85-1.18,36.87-4.51,8.63-2.39,17.06-5.55,23.47-12.34,7.16-7.58,8.13-15.74,1.76-22.06-3.93-3.89-2.83-5.45,1.35-7.26,1.29-.56,3.43-1.17,3.13-2.76-.42-2.22-2.74-1.23-4.21-1.23-17.75-.07-35.5-.05-53.25-.05v.1Zm12.41,16.75c3.25,1.02,5.87,2.56,6.64,5.9,.83,3.62-1.63,5.99-4.3,7.74-5.56,3.64-12.01,4.75-18.45,5.01-9.42,.37-18.87,.06-28.3,.15-4.02,.04-5.19-1.42-3.25-5.1,.61-1.16,.92-2.48,1.4-3.71q4.47-11.6,17.14-11.66c1.99-.01,3.97,0,7.04,0,6.66,.28,14.46-.72,22.08,1.68Zm126.46-16.9c-17.57,0-35.14,.13-52.71-.09-4.49-.05-7.28,1.36-8.62,5.65-.44,1.41-1.32,2.68-1.75,4.09-3.3,10.62-2.52,23.01,8.35,30.64,8.86,6.21,18.77,9.29,29.31,9.55,19.72,.48,39.45,.07,59.17,.46,5.41,.11,7.9-1.54,9.38-6.81,2.23-7.91,4.24-7.75-5.65-7.87-16.23-.19-32.47,.71-48.69-.64-8.6-.72-15.24-6.14-17.05-14.15-1.19-5.3-.94-5.68,4.56-5.69,22.21-.02,44.43,.1,66.64-.05,11.81-.08,9.39,2.19,13.61-9.63,1.76-4.94,1.54-5.32-3.83-5.34-17.57-.05-35.14-.02-52.71-.02,0-.04,0-.08,0-.13Zm226.1,.09c-1.51,0-3.68-.8-4.25,1.4-.44,1.71,.93,3.13,2.14,4.25,3.63,3.36,8.2,4.88,12.8,6.3,12.75,3.94,25.9,3,38.96,3.06,5.17,.03,10.26,.41,15,2.72,5.03,2.44,5.87,7.25,1.92,11.21-1.9,1.91-4.32,2.99-6.84,3.91-5.69,2.08-11.63,2.6-17.58,2.66-16.57,.14-33.14,.07-49.71,.08q-11.1,0-13.82,10.63c-.04,.16-.06,.33-.12,.48-1.09,2.9,.14,4.11,2.99,3.95,19.87-1.14,39.75-.38,59.62-.47,12.16-.06,24.14-.82,35.83-4.37,9.45-2.86,18.43-6.56,25.18-14.21,8.78-9.95,6.54-20.75-5.44-26.1-5.63-2.51-11.53-3.99-17.68-4.66-14.22-1.54-28.48-.27-41.26-.88-13.55,0-25.64-.03-37.74,.04Zm-336.51-3c9.77,.07,19.54,.13,29.32,.15,6.76,.02,9.37-1.87,11.24-8.01,2.16-7.11,.88-11.67-4.42-15.29-8.48-5.8-18.33-8.15-28.15-8.41-26.15-.71-52.34-.36-78.51-.53-3.04-.02-4.36,1.28-5.29,4-2.82,8.3-5.77,16.56-8.89,24.76-1.1,2.9-.05,3.51,2.52,3.5,5.8-.03,11.6,.08,17.39,.01,16.1-.18,12.01,2.12,17.35-12.27,.06-.16,.15-.3,.18-.46,.76-3.69,3-5.14,6.76-5.05,7.12,.17,14.27-.32,21.36,.2,5.86,.43,11.93-.14,17.54,2.58,4.93,2.39,6.18,6.46,2.9,10.82-.86,1.14-1.96,2.09-3.35,3.55,1.12,.26,1.59,.46,2.06,.46Zm261.17-32.03c-17.24,0-34.47,0-51.71,0q-9.37,0-12.01,9.15c-.05,.16-.05,.34-.12,.48-2.3,4.55-.02,5.02,3.94,4.94,11.1-.21,22.21,0,33.31-.13,3.68-.04,4.86,1.22,3.56,4.75-1.03,2.79-1.77,5.68-2.82,8.46-1.21,3.2,0,4.12,3.13,4.08,7.12-.1,14.26-.25,21.37,.09,5.2,.25,8.66-.94,9.43-6.76,.29-2.23,1.74-4.28,2.31-6.5,.79-3.12,2.6-4.16,5.75-4.11,10.27,.14,20.55,.04,30.82,.05q9.07,0,12.27-8.47c2.03-5.38,1.63-6.02-4.05-6.03-18.4-.03-36.79,0-55.19,0v.02Zm157.04,.21c-12.26,0-24.56-.65-36.76,.17-14.13,.95-27.8,4.49-39.84,12.46-5.34,3.54-9.47,8.28-11.09,14.73-.56,2.22-.75,4.52,2.6,4.53,11.43,.03,22.86,.03,34.29,.01,1.47,0,2.26-.36,2.11-2.36-.53-7.04,1.95-10.54,8.75-12.66,5.55-1.74,11.29-2.53,17.09-2.56,16.73-.08,33.46,0,50.19-.02,12.35-.01,9.11,.67,12.95-9.31,1.83-4.75,1.36-5.21-4.02-5.22-12.09-.02-24.18,0-36.28,0,0,.08,0,.16,0,.24Zm-252.35,14.23c12.96-.11,9.52,1.13,14.04-10.04,1.65-4.09,.36-5.35-3.81-5.09-15.56,.98-31.13,.06-46.7,0-16.49-.06-32.26,3.23-47.36,9.59-10.04,4.22-18.8,10.41-25.54,19.13-.72,.93-2.22,1.96-1.31,3.43,.69,1.1,2.12,.7,3.23,.7,8.46,.03,16.92-.09,25.37,.06,3.48,.06,5.75-1.34,8.04-3.92,6.97-7.84,15.59-12.35,26.31-13.29,9.95-.87,19.88-.14,27.92-.56,7.86,0,13.83,.04,19.8,0Zm65.66,70.68c4.14,0,8.27-.02,12.41,0,2.41,.02,4.13-.86,4.98-3.24,5.04-14.17,10.09-28.33,15.15-42.49,.85-2.37,.45-3.84-2.49-3.83-8.6,.03-17.21-.01-25.81,0-2.25,0-3.74,1.17-4.48,3.26-5,14-9.95,28.02-15,42-1.24,3.42-.02,4.49,3.33,4.37,3.97-.13,7.94-.03,11.91-.03v-.04Z" style="fill:#be0a29;"/></svg>