<svg width="250" height="104" viewBox="0 0 250 104" fill="none" xmlns="http://www.w3.org/2000/svg">
<path d="M136.132 53.7368C139.077 54.8106 141.201 56.5708 142.507 59.0148C143.81 61.4588 143.958 64.402 142.947 67.8392C141.772 71.9212 140.187 75.1192 138.191 77.428C136.194 79.7394 133.896 81.4554 131.3 82.5838C128.701 83.7122 125.858 84.4116 122.767 84.6794C119.676 84.9498 116.473 85.0824 113.16 85.0824H94.3457L111.107 26.3406H129.105C131.712 26.3406 134.373 26.4888 137.088 26.7852C139.804 27.0816 142.189 27.7264 144.248 28.7196C146.304 29.7154 147.803 31.1922 148.743 33.1526C149.682 35.113 149.679 37.7598 148.733 41.0904C147.873 44.044 146.314 46.6232 144.057 48.8254C141.798 51.0276 139.158 52.6682 136.129 53.742L136.132 53.7368ZM120.406 60.2628H116.986L113.092 73.8816H117.653C119.009 73.8816 120.296 73.775 121.511 73.5592C122.723 73.346 123.815 72.969 124.787 72.4308C125.756 71.8952 126.611 71.1412 127.349 70.174C128.086 69.2068 128.657 67.9718 129.061 66.4664C129.455 65.0702 129.431 63.9548 128.991 63.1228C128.548 62.2908 127.87 61.659 126.96 61.23C126.048 60.801 124.998 60.5332 123.815 60.424C122.629 60.3174 121.492 60.2628 120.408 60.2628H120.406ZM127.708 37.5388H123.473L120.278 48.8202H122.639C123.669 48.8202 124.787 48.7682 125.993 48.659C127.198 48.5524 128.347 48.3106 129.436 47.9336C130.528 47.5592 131.516 46.982 132.4 46.202C133.283 45.4246 133.919 44.3638 134.31 43.0196C134.636 41.7846 134.67 40.8044 134.406 40.079C134.143 39.3536 133.69 38.8024 133.046 38.428C132.4 38.0536 131.607 37.8118 130.666 37.7026C129.726 37.596 128.738 37.5414 127.708 37.5414V37.5388Z" fill="#F1C72F"/>
<path d="M158.571 26.3406L141.811 85.0824C141.811 85.0824 173.841 85.085 175.614 85.0824C179.338 85.0824 182.153 82.9842 183.117 79.5392L185.291 71.9472H163.63H161.298L164.136 61.9554L185.494 61.9788L189.289 49.2232H167.787L170.743 38.8284H188.09C189.502 38.8284 190.933 38.4384 192.388 37.661C193.842 36.8836 194.772 35.7136 195.181 34.1562L197.428 26.3406H158.571Z" fill="#F1C72F"/>
<path d="M201.294 26.26L197.658 38.831H213.866L200.655 85.0824H202.276C202.696 85.0824 209.423 85.085 211.166 85.0824C214.891 85.0824 217.706 82.9842 218.67 79.5392L220.778 72.0148L230.236 38.831H246.445L250 26.26H201.294Z" fill="#F1C72F"/>
<path d="M104.587 8.60495C104.587 3.85271 99.9825 0 94.3004 0C88.6183 0 84.0137 3.85271 84.0137 8.60495C84.0137 13.3572 88.6183 17.2099 94.3004 17.2099C99.9825 17.2099 104.587 13.3572 104.587 8.60495Z" fill="#F1C72F"/>
<path d="M73.7947 47.6121C64.6147 38.7066 33.9071 44.7069 22.386 42.8452C16.798 41.9415 13.1222 39.8607 13.1222 35.455C13.1222 17.0158 62.577 5.71017 69.8637 5.88131C72.1483 5.93557 74.7173 7.11059 75.8554 8.11655C78.7341 10.6628 80.7781 14.2003 80.4287 16.9427C80.4287 19.7373 76.8785 21.3318 73.3303 21.3318C52.1772 21.3318 36.041 26.8646 31.9468 29.9284C31.8171 30.0536 31.7397 30.2185 31.7397 30.3959C31.7397 30.7883 32.1204 31.1076 32.5891 31.1076C36.9029 31.1076 64.3552 25.9025 80.4852 33.3783C87.4874 36.6258 91.1716 43.4192 91.1402 50.7218C91.1402 55.8435 87.3368 60.5894 83.3388 63.9287C76.3492 69.7725 61.6251 75.6351 45.401 83.449C29.4802 91.1127 13.5344 99.0435 4.83758 102.928C2.75805 103.856 0.590656 104.499 0.115754 103.485C-0.315215 102.575 0.559275 101.318 1.06765 100.696C4.87315 96.0403 23.7249 85.5402 41.4051 75.6685C56.3384 67.3348 71.642 59.7337 74.937 54.2698C75.3722 53.5393 75.6169 52.7003 75.6169 51.828C75.6169 50.4359 74.8073 48.5867 73.7968 47.6058" fill="#DB1B13"/>
</svg>
