<svg width="250" height="147" viewBox="0 0 250 147" fill="none" xmlns="http://www.w3.org/2000/svg">
<path d="M51.0084 76.2168V96.178C66.7439 88.4571 86.8219 96.909 90.2297 114.576C93.8724 133.449 78.9168 148.736 59.9818 146.841C56.9586 146.537 52.4292 143.907 50.7787 143.843C46.9811 143.704 40.8759 146.815 36.667 146.334V76.2221H51.0138L51.0084 76.2168ZM76.6414 120.141C76.6414 113.098 70.9262 107.383 63.8703 107.383C56.8144 107.383 51.0992 113.092 51.0992 120.141C51.0992 127.19 56.8144 132.899 63.8703 132.899C70.9262 132.899 76.6414 127.19 76.6414 120.141Z" fill="#FCCA07"/>
<path d="M168.331 79.8018V93.6215H180.627L179.088 107.953H168.331V125.097C168.331 125.428 169.794 128.39 170.158 128.902C172.647 132.397 177.187 132.824 181.139 132.519V146.851H171.664C163.967 146.851 153.989 137.514 153.989 129.707V107.959C153.989 107.729 149.38 108.188 149.38 107.959V93.6268C149.38 93.3974 153.989 93.8562 153.989 93.6268V79.8071H168.336L168.331 79.8018Z" fill="#FCCA07"/>
<path d="M113.512 129.452C112.807 130.412 116.124 131.89 116.733 132.109C120.718 133.544 123.661 133.214 127.346 131.245C129.21 130.252 130.049 129.18 131.614 127.958L143.733 134.574C132.511 153.02 103.946 150.363 96.2118 130.092C85.9084 103.104 119.126 81.1895 139.642 100.526C141.72 102.485 148.813 112.185 147.098 114.629L113.507 129.457L113.512 129.452ZM108.39 119.719L129.381 110.254C121.044 103.584 108.86 109.138 108.39 119.719Z" fill="#FCCA07"/>
<path d="M200.004 92.7202C203.118 92.6401 216.343 96.562 216.931 99.5713C217.102 100.452 208.85 109.747 207.958 109.917C206.953 110.11 199.406 103.995 198.13 108.311C197.056 111.934 203.866 113.669 206.398 115.211C214.255 120.002 220.168 127.099 216.514 136.885C211.515 150.267 193.643 148.442 183.719 141.986L191.213 130.508C192.548 130.113 198.114 134.446 201.65 133.315C203.236 132.808 203.423 132.04 202.787 130.599C201.767 128.294 191.149 123.39 188.318 120.477C178.164 110.035 185.829 93.0723 200.004 92.7148V92.7202Z" fill="#FCCA07"/>
<path d="M194.685 17.6555V55.2729C194.685 56.9483 198.781 56.3241 198.781 56.5535V70.8854H188.793C186.309 70.8854 182.533 66.9583 182.143 66.9316C181.657 66.8943 177.288 69.4821 176.011 69.893C139.984 81.4183 126.236 24.7895 162.284 17.7943C170.531 16.1935 172.716 18.6213 179.681 20.1047C183.804 20.9851 190.342 17.869 194.679 17.6609L194.685 17.6555ZM180.509 44.2011C180.509 37.1685 174.799 31.4646 167.759 31.4646C160.719 31.4646 155.009 37.1685 155.009 44.2011C155.009 51.2337 160.719 56.9377 167.759 56.9377C174.799 56.9377 180.509 51.2337 180.509 44.2011Z" fill="white"/>
<path d="M226.348 17.293C234.51 16.9462 243.937 20.6119 248.477 27.6231C245.967 28.6903 240.406 36.3472 238.398 36.5233C237.869 36.5713 233.244 31.9451 229.211 31.5343C209.149 29.4853 211.745 62.1884 231.583 56.3084C233.981 55.5987 237.346 52.3866 238.446 52.4506C239.108 52.488 249.871 58.2453 250.01 58.8909C248.066 62.5406 244.268 65.9502 240.625 67.8977C221.445 78.1798 198.915 62.9461 200.843 41.4642C201.992 28.6369 213.486 17.8426 226.353 17.293H226.348Z" fill="white"/>
<path d="M105.031 58.6083C94.049 76.6219 66.4078 74.6316 57.9685 55.1987C47.7613 31.6892 72.1871 8.81461 94.9464 20.3079C96.5595 21.1243 102.996 25.489 102.996 27.1271C102.996 28.6691 94.7274 34.6825 93.4295 36.5554C88.3926 32.0787 83.0727 29.6295 76.4975 32.9164C63.016 39.6608 71.5568 60.7372 86.1813 56.4099C88.3178 55.7749 92.0567 52.5094 92.9808 52.4828C95.1761 52.4187 102.168 58.2614 105.025 58.6083H105.031Z" fill="#FCCA07"/>
<path d="M126.033 3.8418V17.6615H138.329L136.79 31.9935H126.033V49.1374C126.033 49.4682 127.497 52.4296 127.86 52.9418C130.349 56.4367 134.889 56.8636 138.841 56.5595V70.8914H128.853C121.423 70.8914 111.692 61.1696 111.692 53.7475V31.9988C111.692 31.7694 107.082 32.2282 107.082 31.9988V17.6668C107.082 17.4374 111.692 17.8963 111.692 17.6668V3.8418H126.038H126.033Z" fill="white"/>
<path d="M19.4735 3.8418V17.6615H31.2564L30.2309 30.7129C30.2523 31.1344 29.7502 31.9935 29.4618 31.9935H19.4735V50.1618C19.4735 50.3646 21.2094 53.2513 21.5139 53.6088C24.1365 56.6395 28.5591 56.7462 32.282 56.5595V70.1231C32.282 70.1764 31.5662 70.8914 31.5128 70.8914H22.2937C14.2817 70.8914 5.91725 62.0927 5.13742 54.2544C4.81694 51.0049 5.9226 32.7832 5.13742 31.9935C4.89706 31.7533 0.00976562 32.543 0.00976562 31.2304V17.6668C0.00976562 17.4107 5.13208 17.923 5.13208 17.6668V3.8418H19.4788H19.4735Z" fill="#FCCA07"/>
<path d="M51.2384 17.6562H36.8916V70.8808H51.2384V17.6562Z" fill="#FCCA07"/>
<path d="M43.9317 14.1612C47.8462 14.1612 51.0196 10.9911 51.0196 7.0806C51.0196 3.17009 47.8462 0 43.9317 0C40.0171 0 36.8438 3.17009 36.8438 7.0806C36.8438 10.9911 40.0171 14.1612 43.9317 14.1612Z" fill="#FCCA07"/>
</svg>
