<svg width="286" height="170" viewBox="0 0 286 170" fill="none" xmlns="http://www.w3.org/2000/svg">
<path d="M178.542 45.727L111.891 70.8167C111.845 71.0149 111.905 71.1946 111.956 71.3831C112.361 72.8878 113.684 76.3975 114.373 77.7953C114.436 77.923 114.47 78.0647 114.586 78.162L114.773 78.1998L141.021 68.2461L146.292 82.8319L105.494 98.3168L91.8477 61.8361L172.825 31.2168L173.145 31.2569C175.022 36.0322 176.926 40.8521 178.544 45.7285L178.542 45.727Z" fill="#DF0A19"/>
<path d="M65.4116 52.7122V51.7145L66.1958 49.2946C66.9303 47.464 68.3535 45.9534 70.1484 45.1346C92.997 36.5711 115.726 27.6039 138.679 19.3656C147.706 18.4815 150.808 30.3817 142.825 34.2106C119.9 42.7064 97.1718 51.8288 74.1351 59.9617C70.6934 60.2364 67.3924 58.2796 66.1565 55.0282L65.4116 52.7107V52.7122Z" fill="#DF0A19"/>
<path d="M97.8158 0.981211C98.6296 1.37019 99.5759 1.40433 100.45 1.68864C112.634 5.65561 110.981 23.7943 98.2963 25.4756C82.7509 27.537 78.6969 4.1294 94.7569 1.26255C95.005 1.21801 95.253 1.24399 95.3996 0.980469H97.8158V0.981211Z" fill="#DF0A19"/>
<path d="M220.588 28.6748C220.588 35.4693 215.096 40.9766 208.32 40.9766C201.544 40.9766 196.051 35.4685 196.051 28.6748C196.051 21.8811 201.544 16.373 208.32 16.373C215.096 16.373 220.588 21.8811 220.588 28.6748ZM207.648 24.0375C207.735 23.8853 207.717 21.2954 207.609 21.0742C207.516 20.8812 204.347 18.6201 204.139 18.5748C203.509 18.4374 200.02 20.9977 199.885 21.7504C199.835 22.0325 201.022 25.7204 201.214 25.9193C201.434 26.1465 203.671 26.8413 203.978 26.7039L207.649 24.0375H207.648ZM212.58 18.5659C212.131 18.5874 209.695 20.8077 209.03 21.0757C208.996 21.8737 208.705 23.5654 209.236 24.1452C209.519 24.454 212.203 26.4107 212.605 26.6134C212.742 26.6832 212.834 26.7589 213.005 26.7611C213.266 26.7641 215.35 26.0411 215.501 25.854C215.652 25.6669 216.782 22.2723 216.781 21.9984C216.78 21.7244 216.691 21.5797 216.555 21.3652C216.161 20.7453 213.247 18.5325 212.58 18.5644V18.5659ZM200.677 27.2243C200.486 27.2592 197.602 29.3065 197.517 29.4817C197.128 30.2805 198.533 34.4568 199.293 34.8279C199.522 34.94 202.874 34.9645 203.176 34.8717C203.609 34.3885 205.14 32.5824 205.063 32.045C205.019 31.7347 203.898 28.3586 203.768 28.2034C203.621 28.0275 200.955 27.1738 200.677 27.2251V27.2243ZM212.971 28.0906C212.819 28.2198 211.738 31.5335 211.691 31.8698C211.549 32.8704 212.902 34.0559 213.458 34.8747C213.721 34.9645 217.126 34.9341 217.344 34.8279C218.117 34.4508 219.523 30.3087 219.12 29.4817C219.035 29.3073 216.154 27.2577 215.963 27.2273C215.809 27.2028 213.09 27.9904 212.971 28.0913V28.0906ZM210.494 32.9328C210.326 32.8348 207.01 32.8437 206.606 32.8957C206.286 32.9372 206.26 32.9766 206.038 33.1814C205.855 33.3507 204.328 35.5279 204.323 35.6801L205.436 39.2848C206.367 39.7183 210.608 39.8772 211.201 39.2848C211.471 39.0139 212.032 36.2324 212.363 35.6756L210.493 32.9335L210.494 32.9328Z" fill="#FEFEFE"/>
<path d="M159.273 92.1511V110.82L161.054 109.256C167.812 103.608 178.785 104.135 185.35 109.826C195.468 118.598 196.529 135.99 187.56 145.952C180.261 154.059 166.94 155.182 159.273 147.017V151.862H147.761V92.1504H159.273V92.1511ZM169.761 115.992C155.235 116.845 155.624 143.169 171.707 141.884C185.693 140.767 185.092 115.092 169.761 115.992Z" fill="#FEFEFE"/>
<path d="M268 153.002C259.239 153.217 251.913 147.008 251.365 138.116L251.371 117.232H247.676V106.116H251.371V95.856H263.168V106.116H267.858V117.232H263.168V138.11C263.168 138.318 263.497 139.26 263.612 139.516C264.36 141.182 266.173 141.775 267.838 142.048L267.999 142.884V153.002H268Z" fill="#FEFEFE"/>
<path d="M210.155 133.478C212.219 143.39 226.121 145.011 230.424 135.889L241.326 139.489L241.557 139.695C237.486 149.884 226.464 153.896 216.095 152.248C191.011 148.262 191.414 108.204 217.777 105.423C233.534 103.76 244.071 115.411 243.127 130.841C243.078 131.645 242.944 132.791 242.631 133.479H210.156L210.155 133.478ZM230.621 122.79C230.686 122.347 230.45 122.021 230.267 121.648C226.284 113.518 213.685 114.167 210.865 122.79H230.621Z" fill="#FEFEFE"/>
<path d="M107.398 147.017V161.981H96.0278V105.975H107.398V110.82C110.173 108.069 113.278 106.234 117.178 105.592C137.806 102.191 147.973 127.039 137.958 142.816C131.867 152.411 119.72 155.776 110.051 149.274L107.398 147.018V147.017ZM117.886 115.992C103.361 116.87 103.799 143.225 119.973 141.884C133.694 140.747 133.402 115.054 117.886 115.992Z" fill="#FEFEFE"/>
<path d="M33.6335 106.117H38.3236V117.233H33.6335V138.538C33.6335 138.617 34.0489 139.579 34.14 139.74C34.6598 140.656 35.6239 141.368 36.625 141.666C36.9989 141.777 38.2215 141.87 38.3037 142.12L38.4666 153.004C31.1004 153.313 24.0082 148.556 22.2451 141.265C21.9452 140.023 21.8586 138.799 21.6964 137.54L21.6949 117.233H18V106.118H21.6949V96.0712C21.6949 96.0564 21.8934 95.8574 21.9082 95.8574H33.4203C33.4351 95.8574 33.6335 96.0564 33.6335 96.0712V106.118V106.117Z" fill="#FEFEFE"/>
<path d="M65.5833 105.303C81.3094 104.657 91.405 116.91 89.773 132.266C88.3727 145.442 77.7796 153.331 64.8325 152.574C36.3637 150.908 36.4185 106.503 65.5833 105.304V105.303ZM65.8684 115.992C51.4248 117.02 51.8469 143.173 67.9558 141.884C81.9706 140.763 81.3701 114.889 65.8684 115.992Z" fill="#FEFEFE"/>
</svg>
