<?xml version="1.0" encoding="UTF-8"?><svg id="yes-play" xmlns="http://www.w3.org/2000/svg" viewBox="0 0 557.9 266.57"><path d="M472.11,266.56c-3.18,0-6.37,.01-9.55,.02-2.63-.25-5.27-.4-7.89-.76-9.34-1.31-15.95-10.32-14.44-19.63,.46-2.81,.91-5.63,1.64-8.37,.49-1.83-.18-2.14-1.71-1.98-.4,.04-.81,0-1.22,0-9.77,.31-19.52-.77-29.31,1.26-7.66,1.59-15.17-.35-21.78-4.83-1.17-.79-1.86-.62-2.89,.17-3.28,2.48-7.02,3.47-11.14,3.43-7.53-.08-15.07,0-22.61-.03-11.22-.03-19.32-9.6-17.24-20.54,1.44-7.57,3-15.13,4.77-22.63,.64-2.73-.03-3.07-2.5-2.53-2.37,.52-4.82,.83-7.25,.89-1.78,.05-2.49,.68-2.83,2.37-1.79,8.95-3.73,17.88-5.51,26.84-2.04,10.26-8.47,15.6-18.98,15.6-7.23,0-14.46-.05-21.69,.02-4.24,.04-8.08-1.06-11.33-3.73-1.29-1.06-2.24-1.03-3.44-.16-.16,.12-.35,.22-.54,.28-4.01,1.26-6.41,3.63-8.13,7.8-2.37,5.75-7.65,8.48-13.98,8.58-5.29,.08-10.59,.05-15.88,.01-9.03-.06-16.05-7.07-16.12-16.05-.01-1.58-3.63-6.48-5.04-6.83-.89-.22-1.2,.61-1.74,1-18.15,13.03-37.85,14.04-57.87,5.98-14.2-5.72-19.58-18.11-20.08-32.8-.35-10.27,2.47-20.1,4.43-30.04,.41-2.07,1.25-4.09,.91-6.45-1.26,.47-1.48,1.65-2,2.52-15.01,25.43-29.99,50.88-44.98,76.33-4.26,7.24-12.18,10.47-20.12,8.19-7.61-2.18-12.54-9.28-12.36-17.56,.36-16.96,.63-33.93,.97-50.89,.18-8.94,.38-17.87,.62-26.81,.05-1.7-.52-3.15-1.25-4.63C35.34,116.47,18.58,82.35,1.89,48.19-1.82,40.62,.06,32.29,6.41,26.97c5.96-4.98,14.54-5.31,21.24-.59,11.88,8.38,23.68,16.87,35.51,25.32,.81,.58,1.63,1.16,2.99,2.12-2.29-17.81,2.69-32.54,16.31-43.78C91.63,2.47,102.4-.77,114.24,.15c14.47,1.13,25.96,7.83,34.13,19.77,8.1,11.84,9.69,24.91,5.82,39.06,12.14-4.7,23.77-9.2,35.4-13.7,3.69-1.43,7.35-2.94,11.08-4.28,8.02-2.88,16.7,.17,20.97,7.29,4.37,7.28,2.92,16.39-3.57,22.12-12.74,11.23-25.49,22.43-38.23,33.66-.6,.53-1.14,1.13-1.7,1.7-.11,.18-.21,.37-.32,.55,.26,0,.53-.01,.79-.02,9.81-.8,19.49-.41,28.85,3.1,4.24,1.59,8.1,3.78,11.37,6.91,1.01,.96,1.57,1.03,2.67,.07,3.14-2.76,6.64-5.04,10.53-6.62,1.32-.53,1.53-1.48,1.8-2.55,2.02-7.95,7.13-12.6,15.15-13.05,5.88-.33,11.82-.33,17.69,.09,9.03,.65,14.99,7.5,14.92,16.49,0,.71-.07,1.42-.03,2.13,.04,.85,.77,1.3,1.39,1.44,1.1,.25,.9-.81,1.03-1.41,1.04-4.76,2.01-9.53,3.06-14.28,1.94-8.78,8.31-14.22,17.24-14.3,11.5-.1,23,0,34.5,.21,6.99,.14,13.69,1.82,19.87,5.16,1.49,.81,1.83,.5,2.55-.92,3.03-5.97,7.9-9.57,14.68-9.83,8.74-.35,17.52-.57,26.24,.08,10.8,.81,17.7,10.57,15.41,21.19-.59,2.75-1.12,5.52-1.76,8.67,8.78-2.63,17.33-3.31,25.98-2.84,7.15,.39,14.15,1.58,20.62,4.83,1.27,.64,2.13,.57,3.27-.28,3.12-2.33,6.71-3.19,10.59-3.16,7.84,.06,15.7-.35,23.51,.14,5.58,.35,11.04,.5,16.66,.04,7.89-.64,15.87-.19,23.81-.16,12.71,.06,20.96,11.66,16.5,23.62-13.06,35.03-26,70.12-39.57,104.95-7.41,19.02-22.11,28.99-42.56,30.34-.81,.05-1.62,.11-2.43,.17ZM66.89,232.74c-.06,1.33-.14,2.77,1.56,3.18,2.14,.52,2.77-1.2,3.59-2.59,21.5-36.51,43.01-73.01,64.46-109.54,1.52-2.59,3.35-4.76,5.6-6.73,21.74-19.03,43.42-38.11,65.13-57.17,1.2-1.06,2.43-2.14,1.35-3.83-.98-1.54-2.5-1.02-3.85-.5-3.32,1.26-6.63,2.58-9.94,3.86-39.12,15.17-78.24,30.35-117.37,45.49-.92,.36-2.08,1.56-2.92,.33-.66-.96,.6-1.79,1.17-2.57,2.87-3.95,5.79-7.86,8.7-11.78,2.51-3.39,2.45-3.78-1-6.24-18.12-12.95-36.25-25.91-54.37-38.86-3.23-2.31-6.48-4.58-9.7-6.89-1.09-.78-2.22-1.13-3.33-.17-1.1,.96-.97,2.14-.32,3.32,.24,.44,.46,.91,.68,1.36,16.14,32.91,32.21,65.85,48.48,98.7,2.49,5.04,4.14,9.96,3.59,15.67-.45,4.64-.33,9.33-.42,14.01-.37,20.32-.72,40.64-1.08,60.96Zm428.29-41.34c.66-5.29,1.25-9.79,1.77-14.3,1.95-16.85,3.89-33.69,5.78-50.55,.39-3.5-.25-4.1-3.82-4.11-7.33-.02-14.66,.05-21.99-.03-2.59-.03-3.6,.92-3.61,3.59-.04,12.19-.29,24.38-.36,36.57-.11,19.21-.15,38.42-.21,57.63-.02,5.27-1.37,6.73-6.74,7.13-1.11,.08-2.25,.11-3.35-.03-2.37-.29-3.52,.61-3.94,3.03-.96,5.5-2.16,10.96-3.27,16.43-.67,3.33-.05,4.23,3.42,4.39,4.17,.19,8.34,.31,12.51,.27,15.45-.14,26.34-7.13,32.18-21.59,.57-1.41,1.26-2.77,1.79-4.19,12.28-32.87,24.55-65.75,36.79-98.63,1.32-3.53,.53-4.55-3.36-4.56-7.02-.02-14.05,.11-21.07-.06-2.8-.07-3.92,1.03-4.58,3.64-5.22,20.65-10.56,41.27-15.89,61.89-.25,.98-.21,2.18-2.04,3.48Zm-173.03-15.27c1.79,0,3.12,.02,4.44,0,15.76-.22,25.02-6.73,29.4-21.16,2.83-9.32,4.92-18.87,6.02-28.56,1.72-15.09-6.35-25.15-21.37-26.58-11.98-1.14-24.01-.24-36.02-.48-2.12-.04-2.64,1.28-3.02,3.08-5.01,23.74-10.07,47.46-15.12,71.18-3,14.09-5.99,28.19-8.99,42.28-.89,4.17-.34,4.87,3.91,4.87,6.72,0,13.45-.11,20.16,.06,2.69,.07,3.83-.96,4.34-3.48,2.22-11.05,4.54-22.07,6.84-33.1,.54-2.58,.4-5.88,1.97-7.5,1.76-1.81,5.2-.32,7.42-.62Zm-135.08-55c-20.35,0-30.72,7.58-36.31,26.54-2.96,10.03-4.52,20.4-6.76,30.61-1.68,7.64-3.39,15.26-2.97,23.18,.51,9.61,5.46,16.46,14.67,19.15,9.6,2.8,19.31,2.55,28.89-.24,7.63-2.22,13.14-7.1,16.66-14.21,2.41-4.86,3.91-10.01,4.79-15.35,.48-2.94-.11-3.74-3.03-3.76-7.03-.04-14.05,.04-21.08-.05-2.01-.03-2.96,.78-3.37,2.67-.58,2.67-1.22,5.34-2.04,7.95-.74,2.37-2.37,3.94-5.02,3.45-2.73-.5-2.5-2.8-2.43-4.86,.02-.61,.06-1.22,.17-1.82,.84-4.38,1.85-8.74,2.51-13.16,.35-2.36,1.44-2.82,3.61-2.8,9.98,.11,19.96,.03,29.94,.06,1.9,0,3.47-.31,3.89-2.51,1.94-10.36,5.28-20.5,5.52-31.13,.23-10.31-2.75-19.4-16.69-22.65-3.8-.88-7.64-1.16-10.95-1.07Zm236.56,93c-.1,1.22-.13,1.62-.17,2.02-.4,4.31-.13,4.62,4.08,4.62,6.42,0,12.83-.11,19.24,.06,2.75,.07,4.05-.79,4.51-3.58,2.67-16.13,6.54-32.02,9.74-48.04,1.86-9.32,4.85-18.44,4.54-28.18-.31-9.39-4.32-15.19-13.37-18.04-6.82-2.15-13.85-2.05-20.88-1.76-13.72,.57-21.98,6.57-26.61,19.38-.93,2.57-1.58,5.24-2.18,7.91-.77,3.41-.23,4.05,3.14,4.06,6.41,.03,12.83-.09,19.24,.06,2.45,.05,3.52-.95,3.89-3.22,.38-2.3,.88-4.61,2.16-6.62,1.11-1.74,2.75-2.39,4.75-1.77,1.9,.59,1.86,2.23,1.77,3.77-.25,4.07-1.52,7.97-2.18,11.97-.24,1.47-1.27,1.55-2.47,1.6-4.68,.23-9.31,.88-13.89,1.87-9.93,2.15-18.52,6.38-23.28,15.94-4.96,9.96-6.89,20.62-5.79,31.65,.96,9.64,6.81,14.54,16.3,14.55,6.81,0,12.4-2.65,17.45-8.29Zm-156.58-60.48c3.26,0,6.52-.03,9.78,.02,1.38,.02,2.45-.34,2.81-1.77,2.63-10.6,1.83-23.66-11.54-28.46-1.73-.62-2.09-1.56-1.69-3.22,.65-2.66,1.2-5.35,1.72-8.03,.46-2.37-.38-3.72-3.01-3.69-4.68,.05-9.37,.03-14.05,0-1.79,0-2.83,.7-3.18,2.55-.5,2.69-1.26,5.34-1.73,8.03-.32,1.82-1.11,2.68-3.03,3.08-10.46,2.19-16.96,8.73-19.98,18.81-3.4,11.33-3.41,22.12,5.7,31.17,2.52,2.51,5.17,4.89,7.84,7.24,2.52,2.22,5.11,4.37,6.88,7.29,2.77,4.56,2.05,9.16-.06,13.67-.8,1.71-2.37,2.54-4.32,2.07-2.05-.49-2.25-2.23-2.13-3.87,.14-1.81,.6-3.6,.94-5.39,.58-3.02-.15-4.07-3.14-4.09-6.21-.05-12.42,.01-18.63-.03-2.16-.02-3.49,.72-3.73,3.04-.24,2.42-.78,4.82-.9,7.25-.46,9.15,2.76,18.26,13.95,21.11,1.87,.47,1.82,1.51,1.52,2.92-.62,2.88-1.22,5.76-1.79,8.65-.46,2.32,.43,3.47,2.89,3.44,4.68-.05,9.37-.05,14.05,0,1.94,.02,3.02-.69,3.37-2.68,.49-2.8,1.31-5.54,1.71-8.35,.26-1.8,1.04-2.7,2.77-3.05,13.07-2.6,20.23-10.97,22.67-23.64,1.86-9.69,2.19-19.26-4.87-27.42-1.79-2.07-3.67-4.09-5.67-5.97-3.63-3.41-7.57-6.5-11.02-10.07-3.13-3.24-3.31-8.44-1-12.18,.88-1.43,2.1-2.27,3.82-1.86,1.73,.41,2.13,1.82,1.95,3.33-.25,2.11-.63,4.21-1.02,6.3-.55,2.91,.06,3.75,2.97,3.79,3.05,.04,6.11,0,9.16,0Zm95.91,67.12c3.16,0,6.33-.22,9.46,.06,3.4,.3,4.53-1.2,5.17-4.34,3.83-18.79,7.85-37.55,11.83-56.31,4.33-20.45,8.69-40.9,13.02-61.35,.91-4.27,.31-4.96-4.18-4.96-6.01,0-12.01,0-18.02,0-5.32,0-5.26,.01-6.33,5.1-4.83,22.94-9.69,45.87-14.54,68.8-3.44,16.28-6.89,32.57-10.32,48.85-.71,3.38-.06,4.14,3.53,4.16,3.46,.02,6.92,0,10.39,0ZM141.02,45.38c0-16.87-13.28-30.29-30.02-30.34-16.74-.05-30.35,13.42-30.37,30.07-.01,16.78,13.39,30.29,30.09,30.33,16.82,.04,30.29-13.32,30.3-30.06Z" style="fill:#102437;"/><path d="M66.89,232.74c.36-20.32,.71-40.64,1.08-60.96,.08-4.67-.03-9.37,.42-14.01,.55-5.7-1.1-10.63-3.59-15.67C48.52,109.26,32.45,76.32,16.31,43.41c-.22-.46-.44-.92-.68-1.36-.65-1.18-.78-2.36,.32-3.32,1.11-.96,2.24-.61,3.33,.17,3.22,2.31,6.47,4.59,9.7,6.89,18.13,12.95,36.25,25.9,54.37,38.86,3.44,2.46,3.5,2.86,1,6.24-2.9,3.92-5.83,7.83-8.7,11.78-.56,.77-1.82,1.6-1.17,2.57,.84,1.23,2.01,.03,2.92-.33,39.13-15.14,78.25-30.32,117.37-45.49,3.31-1.29,6.62-2.6,9.94-3.86,1.36-.52,2.87-1.03,3.85,.5,1.08,1.7-.15,2.78-1.35,3.83-21.71,19.06-43.4,38.14-65.13,57.17-2.25,1.97-4.08,4.14-5.6,6.73-21.45,36.54-42.96,73.03-64.46,109.54-.82,1.39-1.44,3.1-3.59,2.59-1.7-.41-1.62-1.85-1.56-3.18ZM192.4,66.5c-2.88-.23-4.55,.84-6.28,1.51-31.37,12.15-62.72,24.36-94.12,36.44-2.98,1.15-5.49,2.57-7.03,5.39-.49,.89-1.96,1.65-.9,2.84,.88,1,1.89-.06,2.76-.4,31.28-12.09,62.58-24.15,93.81-36.39,4.57-1.79,7.44-6,11.76-9.4Zm-119.04,81.84c-.51,25.38-.99,49.83-1.48,74.28,2.6-3.62,5.59-6.69,5.61-11.51,.04-16.86,.26-33.72,.79-50.57,.15-4.76-2.46-7.82-4.92-12.2Z" style="fill:#fd7a01;"/><path d="M495.18,191.4c1.83-1.3,1.79-2.5,2.04-3.48,5.33-20.62,10.67-41.24,15.89-61.89,.66-2.61,1.78-3.71,4.58-3.64,7.02,.17,14.05,.04,21.07,.06,3.89,.01,4.67,1.03,3.36,4.56-12.25,32.88-24.51,65.76-36.79,98.63-.53,1.42-1.22,2.79-1.79,4.19-5.84,14.46-16.73,21.45-32.18,21.59-4.17,.04-8.34-.08-12.51-.27-3.48-.16-4.1-1.06-3.42-4.39,1.11-5.47,2.31-10.93,3.27-16.43,.42-2.42,1.57-3.32,3.94-3.03,1.1,.13,2.24,.11,3.35,.03,5.38-.4,6.73-1.86,6.74-7.13,.06-19.21,.09-38.42,.21-57.63,.07-12.19,.32-24.38,.36-36.57,0-2.67,1.03-3.62,3.61-3.59,7.33,.08,14.66,.02,21.99,.03,3.57,0,4.21,.61,3.82,4.11-1.89,16.85-3.83,33.7-5.78,50.55-.52,4.51-1.12,9.01-1.77,14.3Zm2.56-64.85c-.02-.14-.03-.27-.05-.41-6,0-12,.04-18.01-.02-2.02-.02-2.64,.9-2.64,2.79-.01,8.63-.22,17.25-.34,25.88-.32,22.46-.16,44.93-.21,67.39,0,4.04-1.73,6.47-5.52,7.8-2.02,.71-4.11,1.27-6.26,1.06-1.83-.17-2.54,.67-2.85,2.31-.73,3.88-1.57,7.74-2.3,11.62-.19,.99-.79,2.32,1.07,2.55,1.36,.17,2.39-.01,2.65-1.66,.25-1.6,.8-3.16,.94-4.76,.36-4.03,1.47-6.64,6.35-7.44,4.11-.68,8.22-3.16,8.38-8.38,.21-6.89,.35-13.8,.42-20.69,.25-23.99,.18-47.98,.15-71.97,0-2.77,.84-3.98,3.79-4.21,4.83-.37,9.61-1.22,14.42-1.87Z" style="fill:#f3d22f;"/><path d="M322.15,176.12c-2.22,.3-5.66-1.19-7.42,.62-1.57,1.61-1.44,4.92-1.97,7.5-2.31,11.03-4.63,22.05-6.84,33.1-.51,2.53-1.64,3.55-4.34,3.48-6.72-.17-13.44-.05-20.16-.06-4.25,0-4.79-.71-3.91-4.87,3-14.09,5.99-28.19,8.99-42.28,5.05-23.73,10.11-47.45,15.12-71.18,.38-1.79,.9-3.12,3.02-3.08,12.01,.24,24.04-.66,36.02,.48,15.02,1.43,23.09,11.48,21.37,26.58-1.11,9.69-3.19,19.24-6.02,28.56-4.39,14.43-13.65,20.94-29.4,21.16-1.32,.02-2.65,0-4.44,0Zm27.31-69.85c-4.54-2.5-9.06-3.11-13.57-3.21-9.16-.21-18.33-.06-27.49-.14-2.19-.02-3.27,.74-3.73,3.01-2.44,11.91-5.04,23.78-7.57,35.67-5.18,24.38-10.35,48.76-15.49,73.14-.14,.67-.96,1.73,.17,2.11,.99,.34,2.36,.61,3.15-.33,.54-.63,.61-1.69,.79-2.58,3.91-18.43,7.82-36.87,11.72-55.3,3.5-16.55,7.01-33.1,10.47-49.66,.46-2.21,1.46-3.23,3.92-3.17,12.36,.27,24.73-.33,37.63,.45Zm-27.69,47.29c4.29-.03,6.33-1.71,7.39-6.45,1.51-6.72,2.83-13.47,4.17-20.23,.21-1.08,.25-2.24,.11-3.33-.34-2.6-2.13-3.27-4.53-3.54-2.54-.29-2.75,1.25-3.11,3-1.92,9.32-3.81,18.64-5.88,27.93-.48,2.15-.31,3.12,1.85,2.61Z" style="fill:#f3d22f;"/><path d="M187.06,121.12c3.31-.08,7.15,.19,10.95,1.07,13.94,3.25,16.92,12.34,16.69,22.65-.24,10.63-3.58,20.77-5.52,31.13-.41,2.2-1.99,2.52-3.89,2.51-9.98-.03-19.96,.05-29.94-.06-2.17-.02-3.26,.44-3.61,2.8-.66,4.41-1.66,8.77-2.51,13.16-.11,.6-.15,1.21-.17,1.82-.07,2.06-.29,4.36,2.43,4.86,2.64,.49,4.28-1.08,5.02-3.45,.81-2.61,1.45-5.28,2.04-7.95,.41-1.89,1.36-2.7,3.37-2.67,7.03,.09,14.05,0,21.08,.05,2.92,.02,3.51,.81,3.03,3.76-.87,5.34-2.38,10.48-4.79,15.35-3.52,7.11-9.03,11.98-16.66,14.21-9.58,2.79-19.3,3.04-28.89,.24-9.21-2.69-14.16-9.53-14.67-19.15-.42-7.92,1.29-15.54,2.97-23.18,2.25-10.21,3.81-20.57,6.76-30.61,5.59-18.96,15.95-26.54,36.31-26.54Zm-39.6,88.62c-.1-2.53-.48-5.04-.14-7.57,2.14-16.11,5.92-31.9,9.69-47.68,1.84-7.69,5.18-14.82,11.61-19.93,8.52-6.78,18.53-7.72,28.9-6.91,2.27,.18,2.26,.31,4.44-.29-7.53-3.08-15.13-2.87-22.72-2.13-4.68,.46-9.12,1.92-13.05,4.7-7,4.96-10.32,12.23-12.24,20.14-3.46,14.29-6.68,28.66-8.96,43.19-.88,5.59-.77,11.31,2.48,16.49Zm33.55-49.57c1.11-.43,3.35,.98,3.79-1,1.05-4.74,2.47-9.45,2.64-14.35,.05-1.41-.46-2.65-2.01-3.05-1.7-.43-3.33-.17-4.37,1.34-.68,.98-1.2,2.15-1.48,3.31-.78,3.15-1.4,6.34-2.09,9.51q-.91,4.23,3.51,4.23Z" style="fill:#fd7a01;"/><path d="M423.62,214.12c-5.05,5.64-10.64,8.29-17.45,8.29-9.48,0-15.33-4.91-16.3-14.55-1.1-11.03,.82-21.69,5.79-31.65,4.76-9.57,13.35-13.8,23.28-15.94,4.58-.99,9.21-1.65,13.89-1.87,1.2-.06,2.23-.13,2.47-1.6,.66-4,1.93-7.9,2.18-11.97,.09-1.54,.14-3.18-1.77-3.77-2-.62-3.64,.03-4.75,1.77-1.28,2.01-1.78,4.31-2.16,6.62-.37,2.27-1.44,3.27-3.89,3.22-6.41-.14-12.83-.03-19.24-.06-3.38-.02-3.91-.66-3.14-4.06,.6-2.67,1.25-5.34,2.18-7.91,4.64-12.81,12.89-18.82,26.61-19.38,7.03-.29,14.05-.39,20.88,1.76,9.05,2.85,13.06,8.64,13.37,18.04,.32,9.73-2.68,18.86-4.54,28.18-3.2,16.02-7.07,31.91-9.74,48.04-.46,2.79-1.76,3.66-4.51,3.58-6.41-.17-12.83-.05-19.24-.06-4.21,0-4.48-.32-4.08-4.62,.04-.4,.07-.8,.17-2.02Zm-27.6-.6c-.55-7.77,.55-14.56,2.32-21.26,2.59-9.82,7.32-18.08,17.07-22.46,6.27-2.82,12.94-4.16,19.75-4.65,6.03-.43,6.03-.31,7.27-6.13,.25-1.19,.75-2.34,.86-3.54,.2-2.11,1.08-4.16,.6-6.32-.23-1.07-.85-2-1.96-2.08-1.38-.1-1.06,1.32-1.25,2.04-.76,2.94-1.47,5.91-1.91,8.91-.43,2.93-2.22,3.95-4.83,4.02-4.99,.13-9.91,.86-14.77,1.91-9.63,2.1-17.46,6.67-21.38,16.25-3.51,8.59-5.04,17.53-4.32,26.8,.16,2.05,.53,4.18,2.53,6.52Zm57.02-85.76c-.63-1.05-1.4-1.06-2.06-1.26-7.25-2.16-14.66-1.94-22.06-1.3-3.77,.33-7.41,1.29-10.68,3.3-6.84,4.21-9.75,10.9-11.47,18.32-.18,.77-1.14,1.87,.34,2.24,1.13,.28,2.53,.52,3.31-.78,.57-.95,.92-2.03,1.32-3.07,3.25-8.42,9-14.19,17.88-16.4,4.84-1.2,9.8-1.52,14.81-1.53,2.82,0,5.57,1.03,8.61,.48Zm-34.07,65.81c.07,2.29-.18,4.72,2.7,5.51,2.15,.59,4.3-1.03,5.4-3.91,.14-.38,.32-.75,.4-1.15,1.04-4.96,2.04-9.93,3.1-14.88,.32-1.51-.09-2.07-1.67-1.71-3.34,.75-6.04,2.25-7.44,5.6-1.43,3.4-2.17,6.94-2.5,10.54Zm35.66-65.41c-.08-.03-.17-.07-.25-.07-.03,0-.05,.11-.08,.18,.08,.02,.17,.07,.25,.07,.03,0,.05-.11,.08-.17Z" style="fill:#f3d22f;"/><path d="M267.04,153.64c-3.05,0-6.11,.03-9.16,0-2.91-.04-3.52-.88-2.97-3.79,.4-2.09,.78-4.19,1.02-6.3,.18-1.51-.22-2.92-1.95-3.33-1.72-.41-2.94,.43-3.82,1.86-2.31,3.74-2.13,8.94,1,12.18,3.45,3.57,7.39,6.66,11.02,10.07,2,1.87,3.87,3.89,5.67,5.97,7.06,8.16,6.73,17.73,4.87,27.42-2.44,12.67-9.6,21.04-22.67,23.64-1.73,.34-2.51,1.24-2.77,3.05-.4,2.81-1.22,5.55-1.71,8.35-.35,2-1.43,2.71-3.37,2.68-4.68-.06-9.37-.06-14.05,0-2.45,.03-3.35-1.12-2.89-3.44,.58-2.89,1.17-5.77,1.79-8.65,.3-1.42,.35-2.45-1.52-2.92-11.18-2.84-14.4-11.96-13.95-21.11,.12-2.42,.66-4.82,.9-7.25,.23-2.32,1.57-3.06,3.73-3.04,6.21,.05,12.42-.02,18.63,.03,2.98,.02,3.71,1.07,3.14,4.09-.34,1.79-.8,3.58-.94,5.39-.12,1.64,.09,3.38,2.13,3.87,1.94,.47,3.52-.36,4.32-2.07,2.11-4.51,2.83-9.11,.06-13.67-1.77-2.92-4.36-5.06-6.88-7.29-2.67-2.35-5.32-4.74-7.84-7.24-9.11-9.05-9.1-19.84-5.7-31.17,3.02-10.08,9.53-16.62,19.98-18.81,1.92-.4,2.71-1.25,3.03-3.08,.47-2.7,1.23-5.34,1.73-8.03,.35-1.85,1.39-2.56,3.18-2.55,4.68,.02,9.37,.04,14.05,0,2.63-.03,3.47,1.33,3.01,3.69-.52,2.69-1.07,5.37-1.72,8.03-.4,1.65-.04,2.59,1.69,3.22,13.37,4.8,14.16,17.86,11.54,28.46-.35,1.43-1.43,1.79-2.81,1.77-3.26-.05-6.52-.02-9.78-.01Zm-3.88-41.23c-.19-.3-.38-.6-.57-.9-3.24,0-6.48,.05-9.72-.02-2.02-.05-2.6,1.21-2.96,2.81-.6,2.67-1.41,5.31-1.76,8.02-.24,1.87-1.07,2.65-2.79,2.95-3.15,.56-6,1.92-8.69,3.57-10.86,6.64-13.94,24.04-10.52,32.56,.28,.7,.23,1.87,1.62,1.9,0-2.5-.14-4.94,.02-7.37,.85-13.02,8.59-23.37,20.53-27.19,2.28-.73,3.35-1.73,3.51-4.13,.44-6.8,2.45-12.42,11.33-12.19Zm-45.35,97.86c-.02-3.83,.33-7.6,.94-11.36,.38-2.35,1.34-3.58,4-3.37,3.03,.24,6.1,.03,9.15,.06,1.17,.01,2.03-.26,2-1.65-.03-1.45-1.15-1.18-2-1.18-4.58-.03-9.15-.01-13.73-.01-.93,0-1.98-.06-2.16,1.15-.84,5.59-1.43,11.17,1.81,16.36Zm12.62,21.38c1.28,.14,2.18-.07,2.36-1.61,.15-1.29,.52-2.56,.93-3.8,.48-1.48-.28-1.95-1.5-2.32-1.44-.43-2.06,.19-2.32,1.49-.3,1.48-.5,2.99-.96,4.41-.51,1.6,.08,2.03,1.5,1.83Z" style="fill:#fd7a01;"/><path d="M362.94,220.76c-3.46,0-6.92,.02-10.39,0-3.59-.02-4.24-.78-3.53-4.16,3.43-16.29,6.88-32.57,10.32-48.85,4.85-22.93,9.71-45.86,14.54-68.8,1.07-5.09,1.01-5.1,6.33-5.1,6.01,0,12.01,0,18.02,0,4.49,0,5.09,.69,4.18,4.96-4.33,20.45-8.69,40.9-13.02,61.35-3.97,18.76-8,37.52-11.83,56.31-.64,3.14-1.77,4.64-5.17,4.34-3.13-.27-6.31-.06-9.46-.06Zm33.94-123.25c-4.89,0-9.79,.22-14.65-.07-3.4-.2-4.58,1.21-5.23,4.31-7.82,37.48-15.75,74.93-23.63,112.4-.22,1.03-1.17,2.46,.91,2.86,1.81,.35,2.56-.53,2.9-2.18,1.02-4.96,2.12-9.91,3.17-14.86,6.7-31.71,13.45-63.41,19.99-95.15,.72-3.5,2.38-4.62,5.59-5.02,3.68-.46,7.42-.74,10.96-2.28Z" style="fill:#f3d22f;"/><path d="M141.02,45.38c0,16.73-13.48,30.09-30.3,30.06-16.7-.04-30.1-13.55-30.09-30.33,.01-16.64,13.62-30.12,30.37-30.07,16.75,.05,30.03,13.48,30.02,30.34Zm-53.21,12.21c-1.74-10.87,1.13-19.96,8.5-27.22,7.38-7.28,16.6-9.9,27.6-8.01-10.83-6-24.28-3.98-32.03,4.31-8.2,8.77-10.04,21.73-4.07,30.92Z" style="fill:#f3d22f;"/><path d="M192.4,66.5c-4.32,3.4-7.19,7.61-11.76,9.4-31.23,12.24-62.53,24.29-93.81,36.39-.88,.34-1.88,1.4-2.76,.4-1.06-1.2,.41-1.95,.9-2.84,1.55-2.82,4.06-4.24,7.03-5.39,31.4-12.09,62.75-24.3,94.12-36.44,1.74-.67,3.41-1.74,6.28-1.51Z" style="fill:#feca99;"/><path d="M73.37,148.34c2.45,4.38,5.07,7.44,4.92,12.2-.53,16.85-.74,33.71-.79,50.57-.01,4.82-3.01,7.89-5.61,11.51,.49-24.45,.97-48.9,1.48-74.28Z" style="fill:#feca99;"/><path d="M497.74,126.54c-4.8,.65-9.59,1.5-14.42,1.87-2.95,.22-3.79,1.44-3.79,4.21,.03,23.99,.1,47.98-.15,71.97-.07,6.89-.21,13.8-.42,20.69-.16,5.22-4.27,7.71-8.38,8.38-4.88,.8-5.99,3.41-6.35,7.44-.14,1.6-.7,3.16-.94,4.76-.26,1.65-1.28,1.84-2.65,1.66-1.86-.24-1.26-1.56-1.07-2.55,.72-3.88,1.57-7.74,2.3-11.62,.31-1.65,1.02-2.49,2.85-2.31,2.15,.21,4.24-.35,6.26-1.06,3.78-1.34,5.51-3.77,5.52-7.8,.04-22.46-.12-44.93,.21-67.39,.12-8.62,.33-17.25,.34-25.88,0-1.89,.62-2.81,2.64-2.79,6,.06,12,.02,18.01,.02,.02,.14,.03,.27,.05,.41Z" style="fill:#faedaa;"/><path d="M349.45,106.27c-12.9-.79-25.27-.19-37.63-.45-2.45-.05-3.45,.96-3.92,3.17-3.47,16.56-6.97,33.11-10.47,49.66-3.9,18.44-7.8,36.87-11.72,55.3-.19,.89-.26,1.95-.79,2.58-.8,.94-2.16,.67-3.15,.33-1.13-.38-.31-1.44-.17-2.11,5.14-24.39,10.31-48.77,15.49-73.14,2.53-11.89,5.13-23.76,7.57-35.67,.46-2.27,1.54-3.03,3.73-3.01,9.16,.07,18.33-.08,27.49,.14,4.51,.1,9.03,.71,13.57,3.21Z" style="fill:#faedaa;"/><path d="M321.76,153.56c-2.16,.51-2.33-.46-1.85-2.61,2.07-9.28,3.96-18.61,5.88-27.93,.36-1.75,.57-3.29,3.11-3,2.39,.27,4.19,.94,4.53,3.54,.14,1.09,.1,2.25-.11,3.33-1.34,6.75-2.66,13.51-4.17,20.23-1.07,4.74-3.1,6.42-7.39,6.45Z" style="fill:#102437;"/><path d="M147.46,209.74c-3.24-5.18-3.35-10.9-2.48-16.49,2.28-14.53,5.5-28.9,8.96-43.19,1.91-7.9,5.24-15.18,12.24-20.14,3.93-2.78,8.37-4.24,13.05-4.7,7.59-.75,15.19-.95,22.72,2.13-2.18,.6-2.17,.47-4.44,.29-10.37-.81-20.38,.13-28.9,6.91-6.42,5.11-9.77,12.24-11.61,19.93-3.77,15.78-7.54,31.57-9.69,47.68-.34,2.53,.04,5.05,.14,7.57Z" style="fill:#feca99;"/><path d="M181.01,160.17q-4.42,0-3.51-4.23c.68-3.17,1.3-6.36,2.09-9.51,.29-1.16,.8-2.33,1.48-3.31,1.04-1.51,2.67-1.77,4.37-1.34,1.55,.39,2.06,1.64,2.01,3.05-.18,4.9-1.6,9.61-2.64,14.35-.43,1.97-2.67,.57-3.79,1Z" style="fill:#102437;"/><path d="M396.02,213.52c-2.01-2.33-2.37-4.47-2.53-6.52-.72-9.26,.81-18.21,4.32-26.8,3.92-9.58,11.75-14.15,21.38-16.25,4.86-1.06,9.78-1.79,14.77-1.91,2.61-.07,4.4-1.09,4.83-4.02,.44-3,1.15-5.97,1.91-8.91,.18-.72-.14-2.13,1.25-2.04,1.11,.08,1.73,1.01,1.96,2.08,.47,2.16-.4,4.21-.6,6.32-.11,1.2-.61,2.35-.86,3.54-1.24,5.82-1.24,5.7-7.27,6.13-6.82,.49-13.48,1.83-19.75,4.65-9.76,4.38-14.48,12.64-17.07,22.46-1.76,6.69-2.87,13.48-2.32,21.26Z" style="fill:#faedaa;"/><path d="M453.04,127.77c-3.03,.55-5.79-.48-8.61-.48-5,0-9.97,.32-14.81,1.53-8.89,2.21-14.64,7.97-17.88,16.4-.4,1.04-.76,2.12-1.32,3.07-.78,1.3-2.18,1.06-3.31,.78-1.48-.37-.52-1.48-.34-2.24,1.72-7.41,4.64-14.11,11.47-18.32,3.26-2.01,6.91-2.97,10.68-3.3,7.41-.64,14.81-.86,22.06,1.3,.65,.2,1.43,.21,2.06,1.26Z" style="fill:#faedaa;"/><path d="M418.97,193.57c.33-3.59,1.07-7.14,2.5-10.54,1.4-3.35,4.1-4.85,7.44-5.6,1.58-.35,1.99,.2,1.67,1.71-1.06,4.95-2.07,9.92-3.1,14.88-.08,.39-.26,.77-.4,1.15-1.1,2.88-3.25,4.5-5.4,3.91-2.88-.79-2.63-3.21-2.7-5.51Z" style="fill:#102437;"/><path d="M454.63,128.17c-.03,.06-.05,.17-.08,.17-.08,0-.17-.04-.25-.07,.03-.06,.05-.18,.08-.18,.08,0,.17,.04,.25,.07Z" style="fill:#faedaa;"/><path d="M263.15,112.42c-8.88-.23-10.89,5.39-11.33,12.19-.16,2.4-1.23,3.4-3.51,4.13-11.94,3.82-19.68,14.17-20.53,27.19-.16,2.43-.02,4.87-.02,7.37-1.39-.03-1.34-1.2-1.62-1.9-3.43-8.52-.35-25.92,10.52-32.56,2.7-1.65,5.55-3.01,8.69-3.57,1.72-.31,2.54-1.08,2.79-2.95,.35-2.7,1.16-5.35,1.76-8.02,.36-1.6,.94-2.86,2.96-2.81,3.24,.07,6.48,.02,9.72,.02,.19,.3,.38,.6,.57,.9Z" style="fill:#feca99;"/><path d="M217.8,210.27c-3.24-5.19-2.65-10.77-1.81-16.36,.18-1.21,1.23-1.15,2.16-1.15,4.58,0,9.15-.01,13.73,.01,.85,0,1.97-.27,2,1.18,.03,1.39-.83,1.66-2,1.65-3.05-.03-6.12,.17-9.15-.06-2.66-.21-3.62,1.02-4,3.37-.61,3.76-.96,7.53-.94,11.36Z" style="fill:#feca99;"/><path d="M230.42,231.65c-1.42,.2-2.01-.23-1.5-1.83,.46-1.43,.66-2.94,.96-4.41,.26-1.3,.89-1.92,2.32-1.49,1.23,.37,1.99,.84,1.5,2.32-.4,1.24-.78,2.51-.93,3.8-.18,1.54-1.08,1.75-2.36,1.61Z" style="fill:#feca99;"/><path d="M396.88,97.51c-3.53,1.54-7.28,1.82-10.96,2.28-3.21,.4-4.87,1.51-5.59,5.02-6.53,31.74-13.29,63.44-19.99,95.15-1.05,4.96-2.15,9.9-3.17,14.86-.34,1.66-1.09,2.53-2.9,2.18-2.08-.4-1.13-1.83-.91-2.86,7.87-37.47,15.8-74.92,23.63-112.4,.65-3.1,1.83-4.52,5.23-4.31,4.87,.29,9.77,.07,14.65,.07Z" style="fill:#faedaa;"/><path d="M87.81,57.6c-5.98-9.19-4.13-22.15,4.07-30.92,7.76-8.29,21.21-10.31,32.03-4.31-11.01-1.89-20.22,.74-27.6,8.01-7.37,7.26-10.24,16.35-8.5,27.22Z" style="fill:#faedaa;"/></svg>