<svg width="250" height="134" viewBox="0 0 250 134" fill="none" xmlns="http://www.w3.org/2000/svg">
<path d="M72.9214 102.624C74.868 102.707 76.0114 100.593 77.746 99.5193C86.3746 94.1787 98.6119 97.3886 103.13 106.546C111.691 123.902 91.941 140.892 76.0114 129.11C75.7827 128.943 72.9214 125.905 72.9214 127.468V131.63C72.9214 131.657 72.5309 132.047 72.503 132.047H54.9447C54.9168 132.047 54.5264 131.657 54.5264 131.63V87.503C54.5264 87.0579 55.9208 86.8354 56.3224 86.7964C59.8028 86.4794 67.9907 86.407 71.3931 86.802C71.7668 86.8465 72.9214 87.158 72.9214 87.503V102.629V102.624ZM79.2743 109.366C75.3978 109.778 71.817 112.804 73.5182 116.882C76.1341 123.14 89.6208 121.193 86.9212 112.971C86.079 110.401 81.6894 109.11 79.2687 109.366H79.2743Z" fill="#FDFDFD"/>
<path d="M126.434 117.332C127.114 121.577 132.38 122.473 135.966 121.132C137.89 120.414 138.459 118.69 140.785 118.439C143.936 118.106 151.271 118.117 154.439 118.439C157.596 118.768 156.642 120.286 155.415 122.456C149.865 132.286 134.533 135.963 124.192 133.02C117.153 131.018 108.993 125.883 107.832 117.95C104.09 92.3095 150.077 88.2874 156.358 111.257C156.659 112.353 157.864 117.327 156.118 117.327H126.434V117.332ZM139.257 111.502C138.231 106.957 132.262 105.733 128.52 107.892C127.07 108.726 124.264 111.43 127.404 111.792C129.881 112.075 134.884 111.975 137.455 111.797C138.074 111.753 138.643 111.558 139.257 111.508V111.502Z" fill="#FDFDFD"/>
<path d="M182.455 97.3497H194.86C194.888 97.3497 195.278 97.7391 195.278 97.7669V107.758C195.278 107.786 194.888 108.176 194.86 108.176H182.455V118.306C182.455 118.395 183.398 119.563 183.582 119.68C183.794 119.814 185.768 120.387 185.935 120.387H194.854C195.049 120.387 195.228 120.848 195.272 121.082C195.562 122.651 195.272 125.694 195.284 127.457C195.295 128.854 195.908 130.723 194.854 132.041H174.228C173.944 132.041 171.4 131.53 170.96 131.413C164.752 129.76 163.753 124.837 163.486 119.146C163.324 115.652 163.664 112.12 163.458 108.626C163.14 107.664 159.47 108.543 158.482 107.892V97.7614C158.482 96.9714 162.727 97.6334 163.497 97.066V90.546C163.497 90.4681 163.932 89.7894 164.054 89.7115H181.892C182.014 89.7894 182.449 90.4681 182.449 90.546V97.3441L182.455 97.3497Z" fill="#FDFDFD"/>
<path d="M168.338 14.6094L169.855 14.3201C185.639 15.1212 202.411 13.2965 218.084 14.3368C221.531 14.5649 226.819 15.722 230.16 16.7456C250.212 22.8873 254.93 44.3943 235.135 54.6194C234.276 55.0644 232.252 55.3592 232.441 56.3606L249.737 77.7341L250 78.9969H218.363C218.302 78.9969 217.582 78.3628 217.387 78.2237L203.744 60.2492C202.93 59.1422 196.482 59.3981 196.482 60.2604V78.0234C196.482 78.1291 195.846 78.9969 195.785 78.9969H168.75C168.722 78.9969 168.332 78.6075 168.332 78.5797V14.6094H168.338ZM197.185 40.4167H218.369C218.553 40.4167 220.862 39.0148 221.13 38.7255C223.779 35.8772 220.449 33.0456 217.555 32.6283L197.246 32.7007C196.995 32.773 196.744 32.9677 196.633 33.1958C196.41 33.6464 196.371 38.7366 196.505 39.432C196.566 39.7603 196.917 40.3333 197.196 40.4111L197.185 40.4167Z" fill="#F3E500"/>
<path d="M0 14.6094L76.3688 14.7429L76.6588 15.5607C76.1513 22.4534 77.2779 30.1639 76.6588 36.962C76.5584 38.0468 76.3074 38.681 75.3425 39.2596L42.0831 58.8751L43.0481 59.5816L76.0899 59.7096C76.2126 59.7875 76.6477 60.4662 76.6477 60.5441V78.5853C76.6477 78.6131 76.2572 79.0025 76.2293 79.0025H0.418322C0.390433 79.0025 0 78.6131 0 78.5853V54.9976C0.46852 54.4135 1.09321 54.0519 1.6956 53.6347C11.5568 46.8143 23.175 41.4904 33.1422 34.7145C33.5996 34.403 34.3749 34.1582 34.2801 33.4906H0.418322C0.390433 33.4906 0 33.1012 0 33.0734V14.6094Z" fill="#F3E500"/>
<path d="M162.208 78.9969H135.87C134.777 78.9969 132.814 69.1113 131.843 67.7428H112.868C111.346 71.3643 110.821 75.4087 109.115 78.9969H82.9165C82.7659 78.9969 82.4703 78.5296 82.487 78.296L98.188 15.9334C98.69 14.309 99.0804 14.4202 100.743 14.3145C114.882 13.4022 130.003 15.0322 144.242 14.3145L146.178 14.8875L162.208 78.9914V78.9969ZM118.312 52.077C119.322 52.3885 124.827 52.077 126.394 52.077C126.896 52.077 126.84 50.6584 126.812 50.2801C126.651 47.9158 125.78 44.2441 125.34 41.7519C125.1 40.4223 124.135 33.9635 123.728 33.3682C122.239 31.1764 121.363 35.4989 121.151 36.3111C120.214 39.8938 118.122 47.4986 117.916 50.8754C117.894 51.2759 117.849 51.9379 118.318 52.0826L118.312 52.077Z" fill="#F3E500"/>
</svg>
